<?xml version="1.0" standalone="no"?>
<!DOCTYPE svg PUBLIC "-//W3C//DTD SVG 1.1//EN" "http://www.w3.org/Graphics/SVG/1.1/DTD/svg11.dtd" >
<svg xmlns="http://www.w3.org/2000/svg" xmlns:xlink="http://www.w3.org/1999/xlink" version="1.1">
<metadata></metadata>
<defs>
<font id="russiabold" horiz-adv-x="1196" >
<font-face units-per-em="2048" ascent="1556" descent="-492" />
<missing-glyph horiz-adv-x="450" />
<glyph unicode="ff" horiz-adv-x="1441" d="M33 877v194h139v117q0 160 111.5 249t261.5 89q100 0 217 -37l-57 -236q-80 25 -142 25q-100 0 -100 -90v-117h426v117q0 160 111.5 249t261.5 89q100 0 217 -37l-58 -236q-80 25 -141 25q-100 0 -100 -90v-117h229l-45 -194h-184v-877h-291v877h-426v-877h-291v877h-139 z" />
<glyph unicode="fi" horiz-adv-x="1284" d="M33 877v194h139v117q0 160 111.5 249t261.5 89q100 0 217 -37l-57 -236q-80 25 -142 25q-100 0 -100 -90v-117h229l-45 -194h-184v-877h-291v877h-139zM838 1374.5q0 67.5 49 113.5t116.5 46t116.5 -46t49 -114q0 -66 -49 -114t-116.5 -48t-116.5 47.5t-49 115zM858 0 v1071h293v-1071h-293z" />
<glyph unicode="fl" horiz-adv-x="1284" d="M33 877v194h139v117q0 160 111.5 249t261.5 89q100 0 217 -37l-57 -236q-80 25 -142 25q-100 0 -100 -90v-117h229l-45 -194h-184v-877h-291v877h-139zM858 0v1485l293 41v-1526h-293z" />
<glyph unicode="ffi" horiz-adv-x="2000" d="M33 877v194h139v117q0 160 111.5 249t261.5 89q100 0 217 -37l-57 -236q-80 25 -142 25q-100 0 -100 -90v-117h426v117q0 160 111.5 249t261.5 89q100 0 217 -37l-58 -236q-80 25 -141 25q-100 0 -100 -90v-117h229l-45 -194h-184v-877h-291v877h-426v-877h-291v877h-139 zM1554 1351.5q0 67.5 49.5 113.5t117 46t116.5 -45.5t49 -113.5q0 -66 -49 -114t-116.5 -48t-117 47t-49.5 114.5zM1575 0v1071h293v-1071h-293z" />
<glyph unicode="ffl" horiz-adv-x="2000" d="M33 877v194h139v117q0 160 111.5 249t261.5 89q100 0 217 -37l-57 -236q-80 25 -142 25q-100 0 -100 -90v-117h426v117q0 160 111.5 249t261.5 89q100 0 217 -37l-58 -236q-80 25 -141 25q-100 0 -100 -90v-117h229l-45 -194h-184v-877h-291v877h-426v-877h-291v877h-139 zM1575 0v1485l293 41v-1526h-293z" />
<glyph unicode="fy" horiz-adv-x="1748" d="M33 877v194h139v117q0 160 111.5 249t261.5 89q100 0 217 -37l-57 -236q-80 25 -142 25q-100 0 -100 -90v-117h573l97 -665q25 -158 120 -158h50l102 823h293l-203 -1503h-287l60 432h-25q-342 0 -399 385l-72 492h-309v-877h-291v877h-139z" />
<glyph unicode="ty" horiz-adv-x="1722" d="M23 1071h174v289l292 39v-328h521l96 -665q25 -158 121 -158h49l102 823h293l-203 -1503h-286l59 432h-24q-343 0 -400 385l-72 492h-256v-877h-292v877h-131z" />
<glyph unicode="tt" horiz-adv-x="1396" d="M23 1071h174v289l292 39v-328h408v289l293 39v-328h172v-194h-172v-877h-293v877h-408v-877h-292v877h-131z" />
<glyph unicode="ft" horiz-adv-x="1419" d="M33 877v194h139v117q0 160 111.5 249t261.5 89q100 0 217 -37l-57 -236q-80 25 -142 25q-100 0 -100 -90v-117h457v289l292 39v-328h172v-194h-172v-877h-292v877h-457v-877h-291v877h-139z" />
<glyph unicode="&#xd;" horiz-adv-x="681" />
<glyph unicode=" "  horiz-adv-x="450" />
<glyph unicode="&#x09;" horiz-adv-x="450" />
<glyph unicode="&#xa0;" horiz-adv-x="450" />
<glyph unicode="!" horiz-adv-x="563" d="M111 155.5q0 71.5 51 120t119 48.5q70 0 121 -48.5t51 -119.5q0 -70 -50 -121t-122 -51q-68 0 -119 50t-51 121.5zM131 1364l301 41l-14 -965h-273z" />
<glyph unicode="&#x22;" horiz-adv-x="868" d="M131 1499h242l-19 -528h-200zM496 1499h241l-18 -528h-203z" />
<glyph unicode="#" horiz-adv-x="1206" d="M72 371v252h170l20 208h-143v252h170l37 369h254l-37 -369h192l37 369h254l-37 -369h144v-252h-170l-21 -208h141v-252h-168l-36 -371h-254l37 371h-193l-37 -371h-254l37 371h-143zM496 623h192l21 208h-193z" />
<glyph unicode="$" horiz-adv-x="1060" d="M49 59l57 250q217 -80 396 -80q78 0 124 43t46 113q0 68 -60.5 113t-146.5 75.5t-172 71.5t-146.5 126t-60.5 210q0 147 95 246.5t251 130.5v239h207v-233q127 -12 307 -80l-78 -240q-180 70 -303 70q-98 0 -137 -32.5t-39 -96.5q0 -47 33 -81t84 -56.5t113.5 -44 t125 -53t113.5 -74.5t84 -117t33 -172q0 -162 -96.5 -264.5t-249.5 -134.5v-242h-207v229q-180 12 -373 84z" />
<glyph unicode="%" horiz-adv-x="1843" d="M102 936v137q0 152 93.5 245t236.5 93q145 0 237.5 -93t92.5 -245v-137q0 -152 -92 -243t-238 -91q-143 0 -236.5 91t-93.5 243zM315 940q0 -152 117 -152q123 0 123 152v129q0 150 -123 150q-117 0 -117 -150v-129zM487 0l650 1384h213l-645 -1384h-218zM1079 311v135 q0 154 92.5 246t237.5 92t238.5 -92t93.5 -246v-135q0 -152 -93.5 -245t-238.5 -93t-237.5 93.5t-92.5 244.5zM1290 315q0 -150 119 -149q55 0 88 36.5t33 112.5v127q0 76 -33 115t-88 39q-53 0 -86 -39t-33 -115v-127z" />
<glyph unicode="&#x26;" horiz-adv-x="1159" d="M90 399q0 203 158 316q-137 102 -137 289q0 180 129 293.5t335 113.5q133 0 328 -74l-86 -233q-131 55 -233 55q-92 0 -135 -44t-43 -111q0 -70 39.5 -120t121.5 -50h109v-232h-117q-82 0 -128 -61.5t-46 -141.5q0 -76 48 -125t132 -49q86 0 133 49t47 125v435h375v-232 h-96v-203q0 -184 -125 -305t-334 -121q-211 0 -343 122t-132 304z" />
<glyph unicode="'" horiz-adv-x="503" d="M131 1499h242l-19 -526h-200z" />
<glyph unicode="(" horiz-adv-x="684" d="M143 -23v1215q0 461 514 461v-246q-135 0 -184 -51t-49 -168v-1206q0 -117 49 -168.5t184 -51.5v-245q-514 0 -514 460z" />
<glyph unicode=")" horiz-adv-x="684" d="M27 -238q135 0 184 51.5t49 168.5v1206q0 117 -49 168t-184 51v246q514 0 514 -461v-1215q0 -460 -514 -460v245z" />
<glyph unicode="*" horiz-adv-x="1028" d="M111 1006l188 96l-188 96l118 205l177 -115l-11 211h238l-12 -211l176 115l121 -205l-189 -96l189 -96l-121 -205l-176 112l12 -208h-238l11 208l-177 -112z" />
<glyph unicode="+" horiz-adv-x="1169" d="M111 446v242h354v352h242v-352h352v-242h-352v-352h-242v352h-354z" />
<glyph unicode="," horiz-adv-x="555" d="M84 -250l98 559h269l-168 -594z" />
<glyph unicode="-" horiz-adv-x="1021" d="M143 432v242h736v-242h-736z" />
<glyph unicode="." horiz-adv-x="561" d="M111 151.5q0 71.5 50 119.5t119.5 48t120 -48t50.5 -119.5t-50.5 -123t-120 -51.5t-119.5 51.5t-50 123z" />
<glyph unicode="/" horiz-adv-x="813" d="M88 -129l381 1628h256l-383 -1628h-254z" />
<glyph unicode="0" horiz-adv-x="1224" d="M102 541v305q0 279 142.5 422t367.5 143q223 0 366.5 -144.5t143.5 -420.5v-305q0 -279 -144 -423.5t-366 -144.5q-223 0 -366.5 144.5t-143.5 423.5zM393 541q0 -319 219 -319t219 319v305q0 317 -219 317t-219 -317v-305z" />
<glyph unicode="1" horiz-adv-x="829" d="M82 1075v250l598 86v-1411h-291v1122z" />
<glyph unicode="2" horiz-adv-x="1073" d="M74 0v160q0 119 45 220t112.5 164.5t146.5 124t146.5 104.5t112.5 101.5t45 118.5q0 76 -47 123t-135 47q-131 0 -307 -86l-101 221q213 113 422 113q203 0 334 -115.5t131 -302.5q0 -106 -60.5 -202.5t-147.5 -165t-173 -130t-146.5 -127t-60.5 -128.5h586v-240h-903z " />
<glyph unicode="3" horiz-adv-x="1060" d="M35 51l71 232q174 -61 318 -62q109 0 177.5 57.5t68.5 149.5q0 178 -205 178h-176l-43 223l336 316h-498l-37 239h842l18 -239l-334 -316q158 -4 276 -117.5t118 -283.5q0 -207 -158 -331t-379 -124q-174 0 -395 78z" />
<glyph unicode="4" horiz-adv-x="1159" d="M86 498l268 886h271l-256 -872h260v424l278 47v-471h191v-240h-191v-270l-278 -20v290h-508z" />
<glyph unicode="5" horiz-adv-x="1075" d="M53 43l58 242q213 -63 348 -64q98 0 166.5 61.5t68.5 174.5q0 199 -262 198h-299l25 729h792l-43 -239h-491l-13 -254h56q244 0 388 -109.5t144 -322.5q0 -156 -81 -270.5t-196.5 -165t-244.5 -50.5q-191 0 -416 70z" />
<glyph unicode="6" horiz-adv-x="1169" d="M102 446v443q0 223 135.5 372.5t376.5 149.5q154 0 347 -61l-64 -240q-154 53 -283 53q-94 0 -156.5 -66.5t-62.5 -172.5v-47q104 82 238 81q203 0 326.5 -132t123.5 -363q0 -227 -142 -358.5t-349 -131.5q-205 0 -347.5 128t-142.5 345zM393 444q0 -94 52.5 -158.5 t144.5 -64.5q94 0 145 68.5t51 173.5q0 274 -196 274q-113 0 -197 -82v-211z" />
<glyph unicode="7" horiz-adv-x="1060" d="M37 1384h954v-237q-195 -233 -267.5 -489.5t-72.5 -657.5h-301q0 723 328 1145h-617z" />
<glyph unicode="8" horiz-adv-x="1189" d="M94 377q0 205 221 330q-180 123 -180 319q0 158 126 271.5t333 113.5q180 0 321.5 -107.5t141 -277.5t-188.5 -289q227 -135 228 -362q0 -182 -159 -292t-343 -110q-193 0 -346.5 108.5t-153.5 295.5zM391 377q0 -66 59.5 -111t143.5 -45t144.5 46t60.5 110 q0 68 -58.5 112t-179.5 95q-170 -92 -170 -207zM432 1030q0 -55 47.5 -95t141.5 -81q139 76 139 176q0 61 -47 97t-119 36t-117 -35.5t-45 -97.5z" />
<glyph unicode="9" horiz-adv-x="1161" d="M78 922q0 227 142 358t351 131q205 0 346.5 -128t141.5 -345v-442q0 -223 -135.5 -373t-374.5 -150q-156 0 -348 62l65 239q154 -53 283 -53q94 0 155.5 67t61.5 173v47q-104 -82 -238 -82q-201 0 -325.5 132t-124.5 364zM375 922q0 -274 198 -275q107 0 195 82v211 q0 94 -51 158.5t-144 64.5q-94 0 -146 -68.5t-52 -172.5z" />
<glyph unicode=":" horiz-adv-x="561" d="M111 151.5q0 71.5 50 119.5t119.5 48t120 -48t50.5 -119.5t-50.5 -123t-120 -51.5t-119.5 51.5t-50 123zM111 782q0 72 50 121t119.5 49t120 -49t50.5 -121q0 -70 -50.5 -121t-120 -51t-119.5 51.5t-50 120.5z" />
<glyph unicode=";" horiz-adv-x="565" d="M74 -299l98 559h268l-168 -594zM109 782q0 72 51 121t120.5 49t120 -49t50.5 -121q0 -70 -50.5 -121t-120 -51t-120.5 51.5t-51 120.5z" />
<glyph unicode="&#x3c;" horiz-adv-x="1107" d="M111 575l731 615l155 -184l-510 -431l510 -430l-155 -184z" />
<glyph unicode="=" horiz-adv-x="1169" d="M111 238v241h948v-241h-948zM111 664v243h948v-243h-948z" />
<glyph unicode="&#x3e;" horiz-adv-x="1107" d="M111 145l512 430l-512 431l157 184l729 -615l-729 -614z" />
<glyph unicode="?" horiz-adv-x="921" d="M76 1280q174 131 352 131q166 0 284.5 -98.5t118.5 -259.5q0 -72 -38.5 -144.5t-84.5 -122t-85 -107.5t-39 -104v-133l-275 41v88q0 76 38 151t83 122t83 104.5t38 104.5q0 53 -35 84.5t-92 31.5q-100 0 -229 -90zM274 149.5q0 71.5 51.5 119.5t120.5 48q68 0 119 -49 t51 -118.5t-50 -121t-120 -51.5q-72 0 -122 50.5t-50 122z" />
<glyph unicode="@" horiz-adv-x="1820" d="M109 389q0 250 104 461t311 343t475 132q317 0 510 -209t193 -545q0 -90 -6 -139h-424l-15 -117q-16 -137 -129.5 -226t-267.5 -89q-145 0 -236.5 79t-91.5 206q0 152 110 231.5t286 79.5h114l5 27q8 51 -15.5 90t-83.5 39q-115 0 -260 -45l-31 198q178 59 316 60 q150 0 246 -96.5t77 -245.5l-4 -27h203q0 240 -146.5 386t-381.5 146q-287 0 -469.5 -205.5t-182.5 -514.5q0 -258 149.5 -415t401.5 -157q217 0 463 156l84 -176q-254 -176 -561 -176q-338 0 -540.5 215t-202.5 534zM788 309q0 -43 25 -69.5t72 -26.5q51 0 84 31.5t39 70.5 l14 117h-117q-55 0 -86 -32.5t-31 -90.5z" />
<glyph unicode="A" horiz-adv-x="1261" d="M41 0l416 1384h348l416 -1384h-306l-92 334h-385l-92 -334h-305zM506 578h250l-72 262q-25 84 -53 235q-20 -111 -53 -235z" />
<glyph unicode="B" horiz-adv-x="1193" d="M143 0v1384h453q217 0 346 -108.5t129 -280.5q0 -186 -174 -268q225 -82 225 -305q0 -178 -145.5 -300t-370.5 -122h-463zM444 256h160q98 0 155.5 47t57.5 119q0 76 -50 121t-146 45h-177v-332zM444 831h129q92 0 142.5 42t50.5 108q0 68 -44 107.5t-134 39.5h-144v-297 z" />
<glyph unicode="C" horiz-adv-x="1165" d="M109 543v299q0 276 155.5 422.5t409.5 146.5q203 0 399 -63l-57 -246q-172 53 -340 53q-266 0 -266 -338v-248q0 -180 68.5 -260t197.5 -80q180 1 340 56l57 -248q-197 -63 -399 -64q-254 0 -409.5 146.5t-155.5 423.5z" />
<glyph unicode="D" horiz-adv-x="1300" d="M143 0v1290q322 121 525 121q223 0 373.5 -140.5t150.5 -385.5v-373q0 -250 -138 -381t-386 -131h-525zM444 256h224q121 0 172 61.5t51 217.5v325q0 147 -59.5 221t-163.5 74q-109 0 -224 -39v-860z" />
<glyph unicode="E" horiz-adv-x="1091" d="M143 0v1384h828v-256h-527v-307h443l-13 -246h-430v-319h545v-256h-846z" />
<glyph unicode="F" horiz-adv-x="1071" d="M143 0v1384h826v-256h-525v-307h426l-14 -246h-412v-575h-301z" />
<glyph unicode="G" horiz-adv-x="1261" d="M109 543v299q0 276 155.5 422.5t409.5 146.5q180 0 440 -82l-65 -244q-217 68 -373 68q-129 0 -197.5 -78t-68.5 -256v-246q0 -182 68.5 -262t197.5 -80q98 0 192 21v303h-141v211h422v-707q-252 -86 -475 -86q-254 0 -409.5 147t-155.5 423z" />
<glyph unicode="H" horiz-adv-x="1314" d="M143 0v1384h301v-555h426v555h301v-1384h-301v580h-426v-580h-301z" />
<glyph unicode="I" horiz-adv-x="587" d="M143 0v1384h301v-1384h-301z" />
<glyph unicode="J" horiz-adv-x="991" d="M31 47l71 240q166 -57 289 -58q176 0 176 248v907l301 -14v-899q0 -231 -121.5 -364.5t-345.5 -133.5q-161 0 -370 74z" />
<glyph unicode="K" horiz-adv-x="1249" d="M143 0v1384h301v-512l359 512h352l-444 -604l508 -780h-357l-334 532l-84 -114v-418h-301z" />
<glyph unicode="L" horiz-adv-x="1048" d="M143 0v1384h301v-1128h553l-12 -256h-842z" />
<glyph unicode="M" horiz-adv-x="1695" d="M72 0l147 1384h342l238 -669q16 -47 49 -178q23 100 49 178l238 669h342l147 -1384h-299l-59 709q-6 72 -15 264q-37 -158 -73 -262l-170 -478h-320l-170 478q-43 123 -76 264q-4 -162 -12 -266l-59 -709h-299z" />
<glyph unicode="N" horiz-adv-x="1300" d="M143 0v1384h244l475 -790q-6 117 -6 211v579h301v-1384h-246l-475 786q8 -106 8 -217v-569h-301z" />
<glyph unicode="O" horiz-adv-x="1312" d="M109 545v293q0 274 154.5 423.5t391.5 149.5q240 0 394.5 -149.5t154.5 -423.5v-293q0 -276 -154.5 -424t-394.5 -148q-238 0 -392 149t-154 423zM410 567q-1 -338 245 -338q248 0 248 338v250q0 338 -248 338q-246 0 -245 -338v-250z" />
<glyph unicode="P" horiz-adv-x="1142" d="M143 0v1384h494q203 0 329 -130t126 -312t-125 -309t-330 -127h-193v-506h-301zM444 756h183q72 0 115.5 51t43.5 135t-44 135t-115 51h-183v-372z" />
<glyph unicode="Q" horiz-adv-x="1312" d="M109 545v293q0 274 154.5 423.5t391.5 149.5q240 0 394.5 -149.5t154.5 -423.5v-293q0 -379 -291 -518l107 -283l-221 -127l-133 356h-11q-238 0 -392 149t-154 423zM410 567q-1 -338 245 -338q248 0 248 338v250q0 338 -248 338q-246 0 -245 -338v-250z" />
<glyph unicode="R" horiz-adv-x="1169" d="M143 0v1384h494q203 0 329 -130t126 -312q0 -127 -64.5 -229.5t-181.5 -153.5l262 -559h-336l-225 516h-103v-516h-301zM444 756h179q74 0 119.5 51t45.5 135q0 82 -47 134t-118 52h-179v-372z" />
<glyph unicode="S" horiz-adv-x="1069" d="M72 59l57 250q217 -80 387 -80q78 0 124 43t46 113q0 68 -59.5 117t-144.5 86t-170 84t-144 136t-59 214q0 176 133 282.5t333 106.5q178 0 394 -86l-78 -240q-174 70 -316 70q-155 0 -155 -127q0 -63 59.5 -109.5t144.5 -82t170 -82.5t144 -140.5t59 -226.5 q0 -197 -140 -305.5t-341 -108.5q-208 0 -444 86z" />
<glyph unicode="T" horiz-adv-x="1075" d="M51 1128v256h973v-256h-336v-1128h-301v1128h-336z" />
<glyph unicode="U" horiz-adv-x="1310" d="M133 463v921h301v-897q0 -121 60.5 -189.5t161 -68.5t161 70t60.5 188v897h301v-921q0 -213 -153 -351.5t-370 -138.5q-219 0 -370.5 137.5t-151.5 352.5z" />
<glyph unicode="V" horiz-adv-x="1261" d="M41 1384h305l232 -839q23 -80 53 -246q31 166 53 246l231 839h306l-416 -1384h-348z" />
<glyph unicode="W" horiz-adv-x="1738" d="M72 1384h307l86 -702q10 -82 22 -307q39 211 70 305l150 481h321l154 -481q35 -111 69 -299q12 221 23 301l86 702h307l-225 -1384h-334l-197 651q-20 72 -43 195q-16 -113 -41 -195l-196 -651h-334z" />
<glyph unicode="X" horiz-adv-x="1216" d="M31 0l401 721l-358 663h334l200 -383l211 383h326l-359 -657l402 -727h-346l-232 442l-241 -442h-338z" />
<glyph unicode="Y" horiz-adv-x="1185" d="M31 1384h323l238 -548l239 548h324l-412 -858v-526h-301v526z" />
<glyph unicode="Z" horiz-adv-x="1155" d="M82 0v199l567 929h-555v256h932v-198l-573 -930h620l-26 -256h-965z" />
<glyph unicode="[" horiz-adv-x="602" d="M143 -481v2134h426v-232h-147v-1669h147v-233h-426z" />
<glyph unicode="\" horiz-adv-x="815" d="M88 1499h254l385 -1628h-256z" />
<glyph unicode="]" horiz-adv-x="602" d="M33 -248h147v1669h-147v232h426v-2134h-426v233z" />
<glyph unicode="^" horiz-adv-x="1294" d="M139 856l379 643h260l379 -643l-248 -111l-262 515l-262 -515z" />
<glyph unicode="_" horiz-adv-x="1024" d="M0 -150h1024v-241h-1024v241z" />
<glyph unicode="`" horiz-adv-x="833" d="M154 1348l77 194l453 -196l-74 -170z" />
<glyph unicode="a" horiz-adv-x="1019" d="M78 342q0 164 112.5 248t305.5 84h133v24q0 74 -35 113t-98 39q-127 0 -297 -53l-64 231q225 70 361 70q190 0 308 -110.5t118 -289.5v-356q0 -158 -125 -263.5t-297 -105.5q-180 0 -301 104.5t-121 264.5zM375 344q0 -49 30.5 -86t94.5 -37q59 0 94 38t35 83v127h-135 q-119 0 -119 -125z" />
<glyph unicode="b" horiz-adv-x="1095" d="M98 422v1065l293 39v-477q86 49 182 49q176 0 300 -118t124 -333v-225q0 -205 -130 -327t-318 -122q-190 0 -320.5 122t-130.5 327zM391 432q0 -102 44 -156.5t113.5 -54.5t113 54.5t43.5 156.5v205q0 213 -158 213q-63 0 -156 -37v-381z" />
<glyph unicode="c" horiz-adv-x="974" d="M98 442v187q0 238 128 353.5t345 115.5q150 0 314 -51l-62 -238q-141 41 -235 41q-98 0 -147.5 -50t-49.5 -171v-187q0 -121 49 -171t148 -50q94 0 235 41l64 -237q-174 -51 -316 -52q-217 0 -345 115.5t-128 353.5z" />
<glyph unicode="d" horiz-adv-x="1093" d="M98 422v225q0 215 124 333t300 118q94 0 180 -49v450h293v-1077q0 -205 -130 -327t-318.5 -122t-318.5 122t-130 327zM389 432q0 -102 44 -156.5t113.5 -54.5t112.5 54.5t43 156.5v381q-88 37 -153 37q-160 0 -160 -213v-205z" />
<glyph unicode="e" horiz-adv-x="1060" d="M98 436v209q0 213 124 333t313 120q184 0 311 -117t127 -297v-233h-584v-15q0 -215 189 -215q135 0 292 51l58 -235q-172 -63 -350 -64q-219 0 -349.5 121t-130.5 342zM389 655h291v29q0 72 -39 119t-106 47q-63 0 -104.5 -47t-41.5 -119v-29z" />
<glyph unicode="f" horiz-adv-x="724" d="M33 877v194h139v117q0 160 111.5 249t261.5 89q100 0 217 -37l-57 -236q-80 25 -142 25q-100 0 -100 -90v-117h229l-45 -194h-184v-877h-291v877h-139z" />
<glyph unicode="g" horiz-adv-x="1024" d="M43 -354l70 221q197 -86 358 -86q195 0 195 82q0 31 -77 49t-168 29.5t-168 66.5t-77 152q0 80 66 141q-152 109 -152 309v99q0 172 114.5 280.5t291.5 108.5q82 0 153 -25l332 25l-18 -187l-111 -4q51 -90 51 -198v-99q0 -172 -113.5 -279.5t-291.5 -107.5q-43 0 -84 6 q-4 -12 -4 -20q0 -23 86 -41t190.5 -35.5t190.5 -82t86 -169.5q0 -162 -130.5 -251t-355.5 -89q-219 0 -434 105zM377 610q0 -145 121 -145q119 0 118 145v99q0 141 -120 141q-119 0 -119 -141v-99z" />
<glyph unicode="h" horiz-adv-x="1136" d="M133 0v1499h293v-450q90 49 182 49q176 0 291 -106.5t115 -321.5v-670h-293v653q0 109 -35 153t-104 44q-63 0 -156 -37v-813h-293z" />
<glyph unicode="i" horiz-adv-x="559" d="M113 1374.5q0 67.5 49 113.5t116.5 46t116.5 -46t49 -114q0 -66 -49 -114t-116.5 -48t-116.5 47.5t-49 115zM133 0v1071h293v-1071h-293z" />
<glyph unicode="j" horiz-adv-x="559" d="M113 1374.5q0 67.5 49 113.5t116.5 46t116.5 -46t49 -114q0 -66 -49 -114t-116.5 -48t-116.5 47.5t-49 115zM133 -455v1526h293v-1485z" />
<glyph unicode="k" horiz-adv-x="1024" d="M133 0v1499h293v-827l98 33q53 18 76 110l64 256h284l-84 -323q-23 -90 -51.5 -142.5t-79.5 -83.5l271 -522h-324l-201 424l-53 -18v-406h-293z" />
<glyph unicode="l" horiz-adv-x="559" d="M133 0v1485l293 41v-1526h-293z" />
<glyph unicode="m" horiz-adv-x="1624" d="M123 0v657q0 211 118.5 326t299.5 115q172 0 270 -137q98 137 272 137q182 0 300 -114t118 -327v-657h-293v637q0 213 -125 213t-125 -248v-602h-292v602q0 248 -125 248t-125 -213v-637h-293z" />
<glyph unicode="n" horiz-adv-x="1124" d="M123 0v647q0 213 125 332t315 119q188 0 313 -119t125 -332v-647h-292v637q0 104 -38 158.5t-107.5 54.5t-109.5 -54.5t-40 -158.5v-637h-291z" />
<glyph unicode="o" horiz-adv-x="1110" d="M98 442v187q0 215 127 342t330 127t330 -127t127 -342v-187q0 -215 -127 -342t-330 -127t-330 127t-127 342zM389 453q0 -231 166 -231l1 -1q165 0 165 232v165q0 232 -166 232h-1q-165 0 -165 -232v-165z" />
<glyph unicode="p" horiz-adv-x="1095" d="M98 -432v1081q0 205 130 327t321 122q188 0 318 -122t130 -327v-225q0 -215 -123.5 -333t-300.5 -118q-96 1 -182 50v-455h-293zM391 258q92 -37 156 -37q158 0 158 213v205q0 102 -43.5 156.5t-113 54.5t-113.5 -54.5t-44 -156.5v-381z" />
<glyph unicode="q" horiz-adv-x="1095" d="M98 424v225q0 205 130 327t319 122q190 0 320 -122t130 -327v-1069l-292 -39v482q-90 -49 -183 -50q-176 0 -300 118t-124 333zM391 434q0 -213 158 -213q63 0 156 37v381q0 102 -44.5 156.5t-114 54.5t-112.5 -54.5t-43 -156.5v-205z" />
<glyph unicode="r" horiz-adv-x="761" d="M123 0v684q0 182 124 298t310 116q104 0 203 -33l-55 -238q-82 23 -146 23q-68 0 -106.5 -46t-38.5 -120v-684h-291z" />
<glyph unicode="s" horiz-adv-x="884" d="M57 39l58 233q143 -51 280 -51q55 0 92 23.5t37 58.5q0 43 -45 73t-108.5 56.5t-128 61t-109.5 107.5t-45 175q0 141 108.5 231.5t286.5 90.5q145 0 291 -51l-61 -240q-137 43 -230 43q-98 0 -98 -74q0 -41 45 -69.5t108.5 -53t127 -59.5t108.5 -108.5t45 -178.5 q0 -137 -110.5 -235.5t-313.5 -98.5q-158 0 -338 66z" />
<glyph unicode="t" horiz-adv-x="696" d="M23 1071h174v289l292 39v-328h173v-194h-173v-877h-292v877h-131z" />
<glyph unicode="u" horiz-adv-x="1124" d="M123 424v647h291v-637q0 -104 39 -158.5t108 -54.5q147 0 148 213v637h292v-647q0 -213 -125.5 -332t-314.5 -119q-190 0 -314 119t-124 332z" />
<glyph unicode="v" horiz-adv-x="1028" d="M20 1071h302l110 -405q37 -143 82 -353q53 254 82 353l111 405h301l-330 -1071h-328z" />
<glyph unicode="w" horiz-adv-x="1628" d="M82 1071h291l49 -682q10 -164 127 -164q57 0 89 47t32 119v610h284v-610q0 -72 32 -119t89 -47q115 0 129 164l51 682h291l-55 -702q-14 -186 -125 -291t-287 -105q-180 0 -268 142q-88 -141 -268 -142q-172 0 -284 107t-126 289z" />
<glyph unicode="x" horiz-adv-x="1028" d="M20 0l326 549l-299 522h322l147 -266l154 266h313l-299 -514l326 -557h-330l-166 301l-172 -301h-322z" />
<glyph unicode="y" horiz-adv-x="1044" d="M41 1071h291l96 -665q25 -158 121 -158h49l102 823h293l-202 -1503h-287l59 432h-24q-343 0 -400 385z" />
<glyph unicode="z" horiz-adv-x="999" d="M92 0v199l434 632h-417v240h770v-197l-416 -634h444l-20 -240h-795z" />
<glyph unicode="{" horiz-adv-x="856" d="M90 481v205q135 0 183.5 50t48.5 159v340q0 420 516 420v-246q-137 0 -187.5 -40t-50.5 -138v-336q0 -113 -38 -185.5t-134 -125.5q172 -100 172 -312v-323q0 -98 50.5 -138t187.5 -40v-246q-516 0 -516 420v327q0 109 -48.5 159t-183.5 50z" />
<glyph unicode="|" horiz-adv-x="548" d="M135 -410v1909h279v-1909h-279z" />
<glyph unicode="}" horiz-adv-x="856" d="M18 -229q137 0 187.5 39.5t50.5 138.5v323q0 211 172 312q-96 53 -134 125.5t-38 185.5v336q0 98 -50 138t-188 40v246q516 0 517 -420v-340q0 -109 48 -159t183 -50v-205q-135 0 -183 -50t-48 -159v-327q-1 -420 -517 -420v246z" />
<glyph unicode="~" horiz-adv-x="1249" d="M145 571q70 104 143.5 166t174.5 62q68 0 130 -40t112.5 -80t85.5 -40q69 0 139 109l174 -158q-70 -104 -143.5 -166t-169.5 -62q-72 0 -135.5 40t-112.5 80t-84 40q-74 0 -140 -108z" />
<glyph unicode="&#xa1;" horiz-adv-x="563" d="M111 1028q0 70 51 121t121 51q68 0 119 -50t51 -122t-51.5 -120t-118.5 -48q-70 0 -121 48t-51 120zM131 -221l14 964h273l14 -923z" />
<glyph unicode="&#xa2;" horiz-adv-x="997" d="M102 442v187q0 205 96.5 319.5t266.5 141.5v235h207v-233q96 -8 217 -45l-62 -238q-141 41 -235 41q-98 0 -147.5 -50t-49.5 -171v-187q0 -121 49.5 -171t147.5 -50q94 0 235 41l64 -237q-121 -37 -219 -45v-234h-207v236q-168 27 -265.5 141.5t-97.5 318.5z" />
<glyph unicode="&#xa3;" horiz-adv-x="1036" d="M119 559v166h102q-51 201 -51 274q0 195 128 303.5t320 108.5q158 0 347 -82l-82 -225q-133 55 -246 55q-166 0 -166 -178q0 -72 47 -256h324v-166h-293q4 -53 4 -82q0 -66 -37 -134.5t-88 -113.5h526v-229h-831v205q133 168 133 272q0 29 -4 82h-133z" />
<glyph unicode="&#xa4;" horiz-adv-x="1222" d="M123 285l133 133q-33 76 -33 155q0 84 33 156l-133 131l203 201l131 -131q76 33 157 33q78 0 154 -33l133 131l199 -201l-129 -129q33 -78 33 -157.5t-33 -157.5l129 -131l-199 -199l-131 131q-78 -33 -156 -33q-90 0 -157 33l-131 -131zM471 573.5q0 -59.5 42 -101.5 t101.5 -42t101.5 42t42 101.5t-42 101.5t-101.5 42t-101.5 -42t-42 -101.5z" />
<glyph unicode="&#xa5;" horiz-adv-x="1118" d="M2 1384h301l256 -596l256 596h301l-340 -725h176v-165h-243v-142h243v-164h-243v-188h-297v188h-244v164h244v142h-244v165h176z" />
<glyph unicode="&#xa6;" horiz-adv-x="548" d="M135 307h279v-717h-279v717zM135 778v721h279v-721h-279z" />
<glyph unicode="&#xa7;" horiz-adv-x="1161" d="M117 -207l51 246q186 -68 324 -68q160 0 159 123q0 51 -36.5 90t-93 61.5t-121 57.5t-121 74t-93 112.5t-36.5 172.5q0 152 106 247q-25 61 -25 146q0 162 121 259t301 97q168 0 377 -78l-69 -239q-154 61 -279 61q-139 0 -139 -98q0 -41 36.5 -78t93 -62.5t121 -63.5 t121 -80t93 -115.5t36.5 -168.5q0 -156 -106 -256q25 -68 25 -137q0 -180 -136.5 -280.5t-320.5 -100.5q-151 0 -389 78zM461 664q0 -35 26.5 -66t55 -47t92 -50t94.5 -50q4 20 4 36q0 33 -13 58.5t-45 48t-55.5 36t-76.5 37t-76 35.5q-6 -14 -6 -38z" />
<glyph unicode="&#xa8;" horiz-adv-x="942" d="M143 1358q0 55 40 95t93 40q55 0 94.5 -40t39.5 -95t-39 -93t-95 -38q-53 0 -93 38t-40 93zM535 1358q0 55 38.5 95t92.5 40q55 0 94 -40t39 -95t-39 -93t-94 -38q-53 0 -92 38t-39 93z" />
<glyph unicode="&#xa9;" horiz-adv-x="1519" d="M109 659.5q0 294.5 177 490.5t474 196t474 -196t177 -490.5t-177 -490.5t-474 -196t-474 196t-177 490.5zM281 659.5q0 -233.5 129 -382t350 -148.5t350 148.5t129 382t-129 382t-350 148.5t-350 -148.5t-129 -382zM444 592v135q0 141 87 223t223 82q100 0 217 -37 l-37 -141q-94 27 -180 27q-68 0 -98.5 -41t-30.5 -129v-103q0 -170 129 -170q86 0 180 27l37 -141q-117 -37 -217 -37q-135 0 -222.5 82t-87.5 223z" />
<glyph unicode="&#xaa;" horiz-adv-x="765" d="M82 856q0 117 81 175.5t218 58.5h78v22q0 80 -78 80q-84 0 -213 -37l-51 178q158 51 264 51q133 0 218 -79.5t85 -202.5v-246q0 -113 -89 -188.5t-212 -75.5q-129 0 -215 75.5t-86 188.5zM309 858q0 -37 21.5 -55.5t52.5 -18.5q35 0 55.5 22.5t20.5 49.5v84h-66 q-84 0 -84 -82z" />
<glyph unicode="&#xab;" horiz-adv-x="1128" d="M111 575l307 414l194 -143l-196 -268l196 -273l-194 -143zM537 575l305 414l196 -143l-198 -268l198 -273l-196 -143z" />
<glyph unicode="&#xac;" horiz-adv-x="1169" d="M111 430v242h948v-570h-240v328h-708z" />
<glyph unicode="&#xad;" horiz-adv-x="1021" d="M143 432v242h736v-242h-736z" />
<glyph unicode="&#xae;" horiz-adv-x="1519" d="M109 659.5q0 294.5 177 490.5t474 196t474 -196t177 -490.5t-177 -490.5t-474 -196t-474 196t-177 490.5zM281 659.5q0 -233.5 129 -382t350 -148.5t350 148.5t129 382t-129 382t-350 148.5t-350 -148.5t-129 -382zM512 303v717h266q111 0 177.5 -67.5t66.5 -172.5 q0 -147 -104 -205l135 -272h-195l-104 240h-62v-240h-180zM692 694h74q37 0 58.5 23.5t21.5 62.5t-21.5 63.5t-62.5 24.5h-70v-174z" />
<glyph unicode="&#xaf;" horiz-adv-x="837" d="M160 1266v184h520v-184h-520z" />
<glyph unicode="&#xb0;" horiz-adv-x="745" d="M111 1260q0 104 77.5 181t184 77t184.5 -78t78 -185q0 -109 -78 -185.5t-184 -76.5q-109 0 -185.5 77t-76.5 190zM285 1255.5q0 -36.5 25.5 -62.5t62.5 -26t62.5 26t25.5 62.5t-25.5 62t-64.5 25.5q-35 0 -60.5 -25.5t-25.5 -62z" />
<glyph unicode="&#xb1;" horiz-adv-x="1169" d="M111 29h948v-240h-948v240zM111 430v242h354v321h242v-321h352v-242h-352v-321h-242v321h-354z" />
<glyph unicode="&#xb4;" horiz-adv-x="833" d="M152 1346l452 196l78 -194l-457 -172z" />
<glyph unicode="&#xb5;" horiz-adv-x="1134" d="M133 -432v1503h291v-657q0 -94 40 -143.5t107 -49.5q147 0 148 213v637h293v-647q0 -213 -126 -332t-315 -119q-72 0 -147 21v-426h-291z" />
<glyph unicode="&#xb6;" horiz-adv-x="1302" d="M90 967q0 172 116 294.5t294 122.5h696v-1628h-278v1362h-132v-1362h-278v793h-33q-158 0 -271.5 125t-113.5 293z" />
<glyph unicode="&#xb7;" horiz-adv-x="581" d="M145 575.5q0 61.5 43 104.5t103 43q61 0 104 -43t43 -104.5t-43 -102.5t-104 -41q-59 0 -102.5 41t-43.5 102.5z" />
<glyph unicode="&#xb8;" horiz-adv-x="641" d="M55 -408l27 197q76 -16 127 -16q70 -1 70 73v154h217v-180q0 -129 -80 -190.5t-189 -61.5q-88 0 -172 24z" />
<glyph unicode="&#xba;" horiz-adv-x="815" d="M82 924v129q0 150 91 240.5t234.5 90.5t234.5 -90.5t91 -240.5v-129q0 -150 -91 -241t-234.5 -91t-234.5 91t-91 241zM305 930q0 -145 103 -146q100 1 100 146v117q0 145 -100 145q-102 0 -103 -145v-117z" />
<glyph unicode="&#xbb;" horiz-adv-x="1128" d="M90 305l199 268l-199 273l197 143l305 -414l-305 -413zM516 305l197 268l-197 273l195 143l307 -414l-307 -413z" />
<glyph unicode="&#xbf;" horiz-adv-x="921" d="M76 121q0 72 39 144.5t85 121.5t85 107.5t39 103.5v133l274 -41v-88q0 -76 -38 -150.5t-83 -121.5t-83 -104.5t-38 -104.5q0 -53 35 -85t92 -32q101 0 230 90l118 -200q-174 -131 -352 -132q-166 0 -284.5 98.5t-118.5 260.5zM291 1024q0 70 50 121t120 51q72 0 122 -50 t50 -122t-51.5 -120t-120.5 -48q-68 0 -119 49t-51 119z" />
<glyph unicode="&#xc0;" horiz-adv-x="1261" d="M41 0l416 1384h348l416 -1384h-306l-92 334h-385l-92 -334h-305zM365 1630l77 195l453 -197l-74 -170zM506 578h250l-72 262q-25 84 -53 235q-20 -111 -53 -235z" />
<glyph unicode="&#xc1;" horiz-adv-x="1261" d="M41 0l416 1384h348l416 -1384h-306l-92 334h-385l-92 -334h-305zM365 1628l452 197l78 -195l-457 -172zM506 578h250l-72 262q-25 84 -53 235q-20 -111 -53 -235z" />
<glyph unicode="&#xc2;" horiz-adv-x="1261" d="M41 0l416 1384h348l416 -1384h-306l-92 334h-385l-92 -334h-305zM324 1636l307 174l309 -174l-109 -166l-198 125l-201 -125zM506 578h250l-72 262q-25 84 -53 235q-20 -111 -53 -235z" />
<glyph unicode="&#xc3;" horiz-adv-x="1261" d="M41 0l416 1384h348l416 -1384h-306l-92 334h-385l-92 -334h-305zM311 1653q25 55 77 94t128 39q51 0 121 -46t104 -46q58 0 97 59l108 -127q-25 -55 -77 -94t-128 -39q-51 0 -120.5 46t-104.5 46q-57 0 -96 -59zM506 578h250l-72 262q-25 84 -53 235q-20 -111 -53 -235z " />
<glyph unicode="&#xc4;" horiz-adv-x="1261" d="M41 0l416 1384h348l416 -1384h-306l-92 334h-385l-92 -334h-305zM301 1640.5q0 55.5 40 95.5t93 40q55 0 94 -40t39 -95.5t-39 -93.5t-94 -38q-53 0 -93 38t-40 93.5zM506 578h250l-72 262q-25 84 -53 235q-20 -111 -53 -235zM692 1640.5q0 55.5 39 95.5t92 40 q55 0 94 -40t39 -95.5t-38.5 -93.5t-94.5 -38q-53 0 -92 38t-39 93.5z" />
<glyph unicode="&#xc5;" horiz-adv-x="1261" d="M41 0l416 1384h348l416 -1384h-306l-92 334h-385l-92 -334h-305zM420 1669q0 84 61.5 145.5t149.5 61.5q84 0 145.5 -61.5t61.5 -145.5q0 -86 -61.5 -148.5t-145.5 -62.5q-88 0 -149.5 62.5t-61.5 148.5zM506 578h250l-72 262q-25 84 -53 235q-20 -111 -53 -235z M567 1669q0 -27 18.5 -45t45 -18t44 18t17.5 45t-17.5 44.5t-44 17.5t-45 -17.5t-18.5 -44.5z" />
<glyph unicode="&#xc6;" horiz-adv-x="1865" d="M41 0l795 1382h866l18 -256h-526l29 -305h471l-25 -246h-428l23 -319h532l19 -256h-818l-26 334h-416l-182 -334h-332zM690 578h262l-32 417z" />
<glyph unicode="&#xc7;" horiz-adv-x="1165" d="M109 543v299q0 276 155.5 422.5t409.5 146.5q203 0 399 -63l-57 -246q-172 53 -340 53q-266 0 -266 -338v-248q0 -180 68.5 -260t197.5 -80q180 0 340 56l57 -248q-117 -39 -270 -57v-160q0 -129 -80 -190.5t-188 -61.5q-88 0 -173 24l27 197q76 -16 127 -16q70 -1 70 73 v131q-217 25 -347 169.5t-130 396.5z" />
<glyph unicode="&#xc8;" horiz-adv-x="1091" d="M143 0v1384h828v-256h-527v-307h443l-13 -246h-430v-319h545v-256h-846zM309 1630l78 195l453 -197l-74 -170z" />
<glyph unicode="&#xc9;" horiz-adv-x="1091" d="M143 0v1384h828v-256h-527v-307h443l-13 -246h-430v-319h545v-256h-846zM279 1628l452 197l78 -195l-457 -172z" />
<glyph unicode="&#xca;" horiz-adv-x="1091" d="M143 0v1384h828v-256h-527v-307h443l-13 -246h-430v-319h545v-256h-846zM256 1636l307 174l309 -174l-108 -166l-199 125l-200 -125z" />
<glyph unicode="&#xcb;" horiz-adv-x="1091" d="M143 0v1384h828v-256h-527v-307h443l-13 -246h-430v-319h545v-256h-846zM236 1640.5q0 55.5 39.5 95.5t93.5 40q55 0 94 -40t39 -95.5t-39 -93.5t-94 -38q-53 0 -93 38t-40 93.5zM627 1640.5q0 55.5 39 95.5t92 40q55 0 94 -40t39 -95.5t-39 -93.5t-94 -38q-53 0 -92 38 t-39 93.5z" />
<glyph unicode="&#xcc;" horiz-adv-x="587" d="M27 1630l77 195l453 -197l-74 -170zM143 0v1384h301v-1384h-301z" />
<glyph unicode="&#xcd;" horiz-adv-x="587" d="M27 1628l452 197l78 -195l-457 -172zM143 0v1384h301v-1384h-301z" />
<glyph unicode="&#xce;" horiz-adv-x="587" d="M-16 1636l307 174l309 -174l-108 -166l-199 125l-201 -125zM143 0v1384h301v-1384h-301z" />
<glyph unicode="&#xcf;" horiz-adv-x="587" d="M-35 1640.5q0 55.5 40 95.5t93 40q55 0 94 -40t39 -95.5t-38.5 -93.5t-94.5 -38q-53 0 -93 38t-40 93.5zM143 0v1384h301v-1384h-301zM356 1640.5q0 55.5 39 95.5t92 40q55 0 94.5 -40t39.5 -95.5t-39 -93.5t-95 -38q-53 0 -92 38t-39 93.5z" />
<glyph unicode="&#xd0;" horiz-adv-x="1300" d="M14 592v194h129v504q322 121 525 121q223 0 373.5 -140.5t150.5 -385.5v-373q0 -250 -138 -381t-386 -131h-525v592h-129zM444 256h224q121 0 172 61.5t51 217.5v325q0 147 -59.5 221t-163.5 74q-109 0 -224 -39v-330h228v-194h-228v-336z" />
<glyph unicode="&#xd1;" horiz-adv-x="1300" d="M143 0v1384h244l475 -790q-6 117 -6 211v579h301v-1384h-246l-475 786q8 -106 8 -217v-569h-301zM330 1653q25 55 77 94t128 39q51 0 120.5 -46t104.5 -46q57 0 96 59l109 -127q-25 -55 -77 -94t-128 -39q-51 0 -121 46t-104 46q-57 0 -97 -59z" />
<glyph unicode="&#xd2;" horiz-adv-x="1312" d="M109 545v293q0 274 154.5 423.5t391.5 149.5q240 0 394.5 -149.5t154.5 -423.5v-293q0 -276 -154.5 -424t-394.5 -148q-238 0 -392 149t-154 423zM389 1630l78 195l453 -197l-74 -170zM410 567q0 -338 245 -338q248 0 248 338v250q0 338 -248 338q-245 0 -245 -338v-250z " />
<glyph unicode="&#xd3;" horiz-adv-x="1312" d="M109 545v293q0 274 154.5 423.5t391.5 149.5q240 0 394.5 -149.5t154.5 -423.5v-293q0 -276 -154.5 -424t-394.5 -148q-238 0 -392 149t-154 423zM379 1628l452 197l78 -195l-456 -172zM410 567q0 -338 245 -338q248 0 248 338v250q0 338 -248 338q-245 0 -245 -338v-250 z" />
<glyph unicode="&#xd4;" horiz-adv-x="1312" d="M109 545v293q0 274 154.5 423.5t391.5 149.5q240 0 394.5 -149.5t154.5 -423.5v-293q0 -276 -154.5 -424t-394.5 -148q-238 0 -392 149t-154 423zM346 1636l307 174l310 -174l-109 -166l-199 125l-200 -125zM410 567q0 -338 245 -338q248 0 248 338v250q0 338 -248 338 q-245 0 -245 -338v-250z" />
<glyph unicode="&#xd5;" horiz-adv-x="1312" d="M109 545v293q0 274 154.5 423.5t391.5 149.5q240 0 394.5 -149.5t154.5 -423.5v-293q0 -276 -154.5 -424t-394.5 -148q-238 0 -392 149t-154 423zM338 1653q25 55 77 94t128 39q51 0 120.5 -46t104.5 -46q57 0 96 59l109 -127q-25 -55 -77 -94t-128 -39q-51 0 -120.5 46 t-104.5 46q-57 0 -97 -59zM410 567q0 -338 245 -338q248 0 248 338v250q0 338 -248 338q-245 0 -245 -338v-250z" />
<glyph unicode="&#xd6;" horiz-adv-x="1312" d="M109 545v293q0 274 154.5 423.5t391.5 149.5q240 0 394.5 -149.5t154.5 -423.5v-293q0 -276 -154.5 -424t-394.5 -148q-238 0 -392 149t-154 423zM328 1640.5q0 55.5 40 95.5t93 40q55 0 94 -40t39 -95.5t-39 -93.5t-94 -38q-53 0 -93 38t-40 93.5zM410 567 q0 -338 245 -338q248 0 248 338v250q0 338 -248 338q-245 0 -245 -338v-250zM719 1640.5q0 55.5 39 95.5t92 40q55 0 94 -40t39 -95.5t-39 -93.5t-94 -38q-53 0 -92 38t-39 93.5z" />
<glyph unicode="&#xd7;" horiz-adv-x="1062" d="M111 305l249 250l-247 250l170 170l249 -250l250 248l168 -168l-248 -250l250 -250l-170 -172l-250 248l-249 -250z" />
<glyph unicode="&#xd8;" horiz-adv-x="1312" d="M109 545v293q0 274 154.5 423.5t391.5 149.5q119 0 224 -41l71 148l168 -82l-80 -164q166 -156 166 -434v-293q0 -276 -154.5 -424t-394.5 -148q-123 0 -229 41l-72 -147l-168 82l82 168q-160 154 -159 428zM410 567q0 -80 12 -137l342 703q-45 23 -109 22 q-246 0 -245 -338v-250zM541 252q45 -23 114 -23q248 0 248 338v250q0 80 -16 146z" />
<glyph unicode="&#xd9;" horiz-adv-x="1310" d="M133 463v921h301v-897q0 -121 60.5 -189.5t161 -68.5t161 70t60.5 188v897h301v-921q0 -213 -153 -351.5t-370 -138.5q-219 0 -370.5 137.5t-151.5 352.5zM387 1630l78 195l453 -197l-74 -170z" />
<glyph unicode="&#xda;" horiz-adv-x="1310" d="M133 463v921h301v-897q0 -121 60.5 -189.5t161 -68.5t161 70t60.5 188v897h301v-921q0 -213 -153 -351.5t-370 -138.5q-219 0 -370.5 137.5t-151.5 352.5zM387 1628l453 197l78 -195l-457 -172z" />
<glyph unicode="&#xdb;" horiz-adv-x="1310" d="M133 463v921h301v-897q0 -121 60.5 -189.5t161 -68.5t161 70t60.5 188v897h301v-921q0 -213 -153 -351.5t-370 -138.5q-219 0 -370.5 137.5t-151.5 352.5zM344 1636l307 174l310 -174l-109 -166l-199 125l-200 -125z" />
<glyph unicode="&#xdc;" horiz-adv-x="1310" d="M133 463v921h301v-897q0 -121 60.5 -189.5t161 -68.5t161 70t60.5 188v897h301v-921q0 -213 -153 -351.5t-370 -138.5q-219 0 -370.5 137.5t-151.5 352.5zM326 1640.5q0 55.5 40 95.5t93 40q55 0 94 -40t39 -95.5t-39 -93.5t-94 -38q-53 0 -93 38t-40 93.5zM717 1640.5 q0 55.5 39 95.5t92 40q55 0 94 -40t39 -95.5t-39 -93.5t-94 -38q-53 0 -92 38t-39 93.5z" />
<glyph unicode="&#xdd;" horiz-adv-x="1185" d="M31 1384h323l238 -548l239 548h324l-412 -858v-526h-301v526zM326 1628l452 197l78 -195l-457 -172z" />
<glyph unicode="&#xde;" horiz-adv-x="1142" d="M143 0v1384h301v-270h193q203 0 329 -130t126 -312.5t-125 -309t-330 -126.5h-193v-236h-301zM444 485h183q72 0 115.5 51.5t43.5 135.5t-44 135t-115 51h-183v-373z" />
<glyph unicode="&#xdf;" horiz-adv-x="1302" d="M33 877v194h139v92q0 166 101.5 264.5t279.5 98.5q188 0 299 -89t111 -266q0 -92 -41 -165.5t-81 -130t-40 -103.5q0 -41 45 -69.5t108.5 -52t127 -58.5t108.5 -107.5t45 -177.5q0 -137 -108.5 -235.5t-307.5 -98.5q-156 0 -332 66l56 233q143 -51 276 -51q55 0 94 23.5 t39 58.5q0 43 -43 73t-103.5 55.5t-121.5 60t-104 106.5t-43 174q0 76 23.5 138.5t51 97t51 75.5t23.5 78q0 117 -117 117q-106 0 -106 -141v-1137h-291v877h-139z" />
<glyph unicode="&#xe0;" horiz-adv-x="1019" d="M78 342q0 164 112.5 248t305.5 84h133v24q0 74 -35 113t-98 39q-127 0 -297 -53l-64 231q225 70 361 70q190 0 308 -110.5t118 -289.5v-356q0 -158 -125 -263.5t-297 -105.5q-180 0 -301 104.5t-121 264.5zM229 1348l78 194l453 -196l-74 -170zM375 344q0 -49 30.5 -86 t94.5 -37q59 0 94 38t35 83v127h-135q-119 0 -119 -125z" />
<glyph unicode="&#xe1;" horiz-adv-x="1019" d="M78 342q0 164 112.5 248t305.5 84h133v24q0 74 -35 113t-98 39q-127 0 -297 -53l-64 231q225 70 361 70q190 0 308 -110.5t118 -289.5v-356q0 -158 -125 -263.5t-297 -105.5q-180 0 -301 104.5t-121 264.5zM207 1346l452 196l78 -194l-456 -172zM375 344q0 -49 30.5 -86 t94.5 -37q59 0 94 38t35 83v127h-135q-119 0 -119 -125z" />
<glyph unicode="&#xe2;" horiz-adv-x="1019" d="M78 342q0 164 112.5 248t305.5 84h133v24q0 74 -35 113t-98 39q-127 0 -297 -53l-64 231q225 70 361 70q190 0 308 -110.5t118 -289.5v-356q0 -158 -125 -263.5t-297 -105.5q-180 0 -301 104.5t-121 264.5zM188 1354l308 174l309 -174l-109 -166l-198 125l-201 -125z M375 344q0 -49 30.5 -86t94.5 -37q59 0 94 38t35 83v127h-135q-119 0 -119 -125z" />
<glyph unicode="&#xe3;" horiz-adv-x="1019" d="M78 342q0 164 112.5 248t305.5 84h133v24q0 74 -35 113t-98 39q-127 0 -297 -53l-64 231q225 70 361 70q190 0 308 -110.5t118 -289.5v-356q0 -158 -125 -263.5t-297 -105.5q-180 0 -301 104.5t-121 264.5zM182 1370q25 55 77 94t128 39q51 0 121 -46t104 -46q58 0 97 59 l108 -127q-25 -55 -77 -94t-128 -39q-51 0 -120.5 46.5t-104.5 46.5q-57 0 -96 -60zM375 344q0 -49 30.5 -86t94.5 -37q59 0 94 38t35 83v127h-135q-119 0 -119 -125z" />
<glyph unicode="&#xe4;" horiz-adv-x="1019" d="M78 342q0 164 112.5 248t305.5 84h133v24q0 74 -35 113t-98 39q-127 0 -297 -53l-64 231q225 70 361 70q190 0 308 -110.5t118 -289.5v-356q0 -158 -125 -263.5t-297 -105.5q-180 0 -301 104.5t-121 264.5zM176 1358q0 55 40 95t93 40q55 0 94 -40t39 -95t-38.5 -93 t-94.5 -38q-53 0 -93 38t-40 93zM375 344q0 -49 30.5 -86t94.5 -37q59 0 94 38t35 83v127h-135q-119 0 -119 -125zM567 1358q0 55 39 95t92 40q55 0 94 -40t39 -95t-38.5 -93t-94.5 -38q-53 0 -92 38t-39 93z" />
<glyph unicode="&#xe5;" horiz-adv-x="1019" d="M78 342q0 164 112.5 248t305.5 84h133v24q0 74 -35 113t-98 39q-127 0 -297 -53l-64 231q225 70 361 70q190 0 308 -110.5t118 -289.5v-356q0 -158 -125 -263.5t-297 -105.5q-180 0 -301 104.5t-121 264.5zM297 1386q0 84 61.5 145.5t149.5 61.5q84 0 145.5 -61.5 t61.5 -145.5q0 -86 -61.5 -148t-145.5 -62q-88 0 -149.5 62t-61.5 148zM375 344q0 -49 30.5 -86t94.5 -37q59 0 94 38t35 83v127h-135q-119 0 -119 -125zM444 1386.5q0 -26.5 18.5 -45t45.5 -18.5t44 18.5t17 45t-17 44t-44 17.5t-45.5 -17.5t-18.5 -44z" />
<glyph unicode="&#xe6;" horiz-adv-x="1589" d="M78 342q0 164 112.5 248t305.5 84h133v24q0 74 -35 113t-98 39q-125 0 -295 -53l-66 231q213 70 361 70q170 0 284 -94q117 94 283 94q184 0 311 -117t127 -297v-233h-583v-15q0 -215 188 -215q135 0 293 51l57 -235q-172 -63 -350 -64q-203 0 -328 103 q-117 -102 -278 -103q-180 0 -301 104.5t-121 264.5zM375 344q0 -49 30.5 -86t94.5 -37q102 0 147 66q-16 71 -16 149v33h-137q-119 0 -119 -125zM918 655h290v29q0 72 -39 119t-106 47q-63 0 -104 -47t-41 -119v-29z" />
<glyph unicode="&#xe7;" horiz-adv-x="974" d="M98 442v187q0 238 128 353.5t345 115.5q150 0 314 -51l-62 -238q-141 41 -235 41q-98 0 -147.5 -50t-49.5 -171v-187q0 -121 49 -171t148 -50q94 0 235 41l64 -237q-117 -37 -213 -45v-160q0 -129 -80 -190.5t-188 -61.5q-88 0 -173 24l27 197q76 -16 127 -16 q70 -1 70 73v138q-168 27 -263.5 140.5t-95.5 317.5z" />
<glyph unicode="&#xe8;" horiz-adv-x="1060" d="M98 436v209q0 213 124 333t313 120q184 0 311 -117t127 -297v-233h-584v-15q0 -215 189 -215q135 0 292 51l58 -235q-172 -63 -350 -64q-219 0 -349.5 121t-130.5 342zM266 1348l78 194l453 -196l-74 -170zM389 655h291v29q0 72 -39 119t-106 47q-63 0 -104.5 -47 t-41.5 -119v-29z" />
<glyph unicode="&#xe9;" horiz-adv-x="1060" d="M98 436v209q0 213 124 333t313 120q184 0 311 -117t127 -297v-233h-584v-15q0 -215 189 -215q135 0 292 51l58 -235q-172 -63 -350 -64q-219 0 -349.5 121t-130.5 342zM244 1346l452 196l78 -194l-457 -172zM389 655h291v29q0 72 -39 119t-106 47q-63 0 -104.5 -47 t-41.5 -119v-29z" />
<glyph unicode="&#xea;" horiz-adv-x="1060" d="M98 436v209q0 213 124 333t313 120q184 0 311 -117t127 -297v-233h-584v-15q0 -215 189 -215q135 0 292 51l58 -235q-172 -63 -350 -64q-219 0 -349.5 121t-130.5 342zM223 1354l307 174l310 -174l-109 -166l-199 125l-200 -125zM389 655h291v29q0 72 -39 119t-106 47 q-63 0 -104.5 -47t-41.5 -119v-29z" />
<glyph unicode="&#xeb;" horiz-adv-x="1060" d="M98 436v209q0 213 124 333t313 120q184 0 311 -117t127 -297v-233h-584v-15q0 -215 189 -215q135 0 292 51l58 -235q-172 -63 -350 -64q-219 0 -349.5 121t-130.5 342zM203 1358q0 55 40 95t93 40q55 0 94 -40t39 -95t-39 -93t-94 -38q-53 0 -93 38t-40 93zM389 655h291 v29q0 72 -39 119t-106 47q-63 0 -104.5 -47t-41.5 -119v-29zM594 1358q0 55 39 95t92 40q55 0 94 -40t39 -95t-39 -93t-94 -38q-53 0 -92 38t-39 93z" />
<glyph unicode="&#xec;" horiz-adv-x="559" d="M10 1348l78 194l453 -196l-74 -170zM133 0v1071h293v-1071h-293z" />
<glyph unicode="&#xed;" horiz-adv-x="559" d="M14 1346l453 196l78 -194l-457 -172zM133 0v1071h293v-1071h-293z" />
<glyph unicode="&#xee;" horiz-adv-x="559" d="M-31 1354l307 174l310 -174l-109 -166l-198 125l-201 -125zM133 0v1071h293v-1071h-293z" />
<glyph unicode="&#xef;" horiz-adv-x="559" d="M-51 1358q0 55 40 95t93 40q55 0 94 -40t39 -95t-39 -93t-94 -38q-53 0 -93 38t-40 93zM133 0v1071h293v-1071h-293zM340 1358q0 55 39 95t92 40q55 0 94 -40t39 -95t-39 -93t-94 -38q-53 0 -92 38t-39 93z" />
<glyph unicode="&#xf0;" horiz-adv-x="1110" d="M98 422v149q0 215 128 333t304 118q125 0 205 -45v74q0 174 -106 215l-58 -174l-176 57l41 125q-100 -12 -182 -39l-53 217q201 59 313 64l55 163l176 -57l-40 -127q307 -82 307 -448v-625q0 -205 -133.5 -327t-323.5 -122t-323.5 122t-133.5 327zM389 432 q0 -102 47 -156.5t119 -54.5t119 54.5t47 156.5v309q-78 33 -164 33q-74 0 -121 -51t-47 -162v-129z" />
<glyph unicode="&#xf1;" horiz-adv-x="1124" d="M123 0v647q0 213 125 332t315 119q188 0 313 -119t125 -332v-647h-292v637q0 104 -38 158.5t-107.5 54.5t-109.5 -54.5t-40 -158.5v-637h-291zM244 1370q25 55 77 94t128 39q51 0 120.5 -46t104.5 -46q57 0 96 59l109 -127q-25 -55 -77 -94t-128 -39q-51 0 -121 46.5 t-104 46.5q-57 0 -97 -60z" />
<glyph unicode="&#xf2;" horiz-adv-x="1110" d="M98 442v187q0 215 127 342t330 127t330 -127t127 -342v-187q0 -215 -127 -342t-330 -127t-330 127t-127 342zM289 1348l78 194l452 -196l-74 -170zM389 453q0 -231 166 -231.5t166 231.5v165q0 231 -166 231.5t-166 -231.5v-165z" />
<glyph unicode="&#xf3;" horiz-adv-x="1110" d="M98 442v187q0 215 127 342t330 127t330 -127t127 -342v-187q0 -215 -127 -342t-330 -127t-330 127t-127 342zM291 1346l452 196l78 -194l-456 -172zM389 453q0 -231 166 -231.5t166 231.5v165q0 231 -166 231.5t-166 -231.5v-165z" />
<glyph unicode="&#xf4;" horiz-adv-x="1110" d="M98 442v187q0 215 127 342t330 127t330 -127t127 -342v-187q0 -215 -127 -342t-330 -127t-330 127t-127 342zM248 1354l307 174l309 -174l-108 -166l-199 125l-201 -125zM389 453q0 -231 166 -231.5t166 231.5v165q0 231 -166 231.5t-166 -231.5v-165z" />
<glyph unicode="&#xf5;" horiz-adv-x="1110" d="M98 442v187q0 215 127 342t330 127t330 -127t127 -342v-187q0 -215 -127 -342t-330 -127t-330 127t-127 342zM238 1370q25 55 77 94t127 39q51 0 121 -46t105 -46q57 0 96 59l108 -127q-25 -55 -77 -94t-127 -39q-51 0 -121 46.5t-105 46.5q-57 0 -96 -60zM389 453 q0 -231 166 -231.5t166 231.5v165q0 231 -166 231.5t-166 -231.5v-165z" />
<glyph unicode="&#xf6;" horiz-adv-x="1110" d="M98 442v187q0 215 127 342t330 127t330 -127t127 -342v-187q0 -215 -127 -342t-330 -127t-330 127t-127 342zM227 1358q0 55 40 95t93 40q55 0 94.5 -40t39.5 -95t-39 -93t-95 -38q-53 0 -93 38t-40 93zM389 453q0 -231 166 -231.5t166 231.5v165q0 231 -166 231.5 t-166 -231.5v-165zM618 1358q0 55 39 95t93 40q55 0 94 -40t39 -95t-39 -93t-94 -38q-53 0 -92.5 38t-39.5 93z" />
<glyph unicode="&#xf8;" horiz-adv-x="1110" d="M98 442v187q0 215 127 342t330 127q84 0 162 -25l74 152l157 -80l-78 -160q141 -131 142 -356v-187q0 -215 -127 -342t-330 -127q-92 0 -166 27l-70 -143l-157 80l74 151q-137 131 -138 354zM389 453q0 -33 2 -47l213 438q-23 6 -49 6q-166 0 -166 -232v-165zM500 227 q25 -6 55 -6q166 1 166 232v165q0 37 -2 56z" />
<glyph unicode="&#xf9;" horiz-adv-x="1124" d="M123 424v647h291v-637q0 -104 39 -158.5t108 -54.5q147 0 148 213v637h292v-647q0 -213 -125.5 -332t-314.5 -119q-190 0 -314 119t-124 332zM297 1348l78 194l452 -196l-73 -170z" />
<glyph unicode="&#xfa;" horiz-adv-x="1124" d="M123 424v647h291v-637q0 -104 39 -158.5t108 -54.5q147 0 148 213v637h292v-647q0 -213 -125.5 -332t-314.5 -119q-190 0 -314 119t-124 332zM268 1346l453 196l78 -194l-457 -172z" />
<glyph unicode="&#xfb;" horiz-adv-x="1124" d="M123 424v647h291v-637q0 -104 39 -158.5t108 -54.5q147 0 148 213v637h292v-647q0 -213 -125.5 -332t-314.5 -119q-190 0 -314 119t-124 332zM254 1354l307 174l309 -174l-108 -166l-199 125l-201 -125z" />
<glyph unicode="&#xfc;" horiz-adv-x="1124" d="M123 424v647h291v-637q0 -104 39 -158.5t108 -54.5q147 0 148 213v637h292v-647q0 -213 -125.5 -332t-314.5 -119q-190 0 -314 119t-124 332zM233 1358q0 55 40 95t94 40q55 0 94 -40t39 -95t-39 -93t-94 -38q-53 0 -93.5 38t-40.5 93zM625 1358q0 55 38.5 95t92.5 40 q55 0 94 -40t39 -95t-39 -93t-94 -38q-53 0 -92 38t-39 93z" />
<glyph unicode="&#xfd;" horiz-adv-x="1044" d="M41 1071h291l96 -665q25 -158 121 -158h49l102 823h293l-202 -1503h-287l59 432h-24q-343 0 -400 385zM252 1346l453 196l77 -194l-456 -172z" />
<glyph unicode="&#xfe;" horiz-adv-x="1130" d="M133 -428v1927h293v-426q74 25 158 25q188 0 318 -122t130 -327v-225q0 -215 -124 -333t-300 -118q-96 0 -182 50v-451h-293zM426 258q92 -37 156 -37q157 0 157 213v205q0 102 -43 156.5t-112 54.5q-68 0 -113 -49t-45 -142v-401z" />
<glyph unicode="&#xff;" horiz-adv-x="1044" d="M41 1071h291l96 -665q25 -158 121 -158h49l102 823h293l-202 -1503h-287l59 432h-24q-343 0 -400 385zM205 1358q0 55 40 95t93 40q55 0 94 -40t39 -95t-39 -93t-94 -38q-53 0 -93 38t-40 93zM596 1358q0 55 39 95t92 40q55 0 94 -40t39 -95t-39 -93t-94 -38 q-53 0 -92 38t-39 93z" />
<glyph unicode="&#x100;" horiz-adv-x="1261" d="M41 0l416 1384h348l416 -1384h-306l-92 334h-385l-92 -334h-305zM369 1548v185h520v-185h-520zM506 578h250l-72 262q-25 84 -53 235q-20 -111 -53 -235z" />
<glyph unicode="&#x101;" horiz-adv-x="1019" d="M78 342q0 164 112.5 248t305.5 84h133v24q0 74 -35 113t-98 39q-127 0 -297 -53l-64 231q225 70 361 70q190 0 308 -110.5t118 -289.5v-356q0 -158 -125 -263.5t-297 -105.5q-180 0 -301 104.5t-121 264.5zM240 1266v184h520v-184h-520zM375 344q0 -49 30.5 -86t94.5 -37 q59 0 94 38t35 83v127h-135q-119 0 -119 -125z" />
<glyph unicode="&#x102;" horiz-adv-x="1261" d="M41 0l416 1384h348l416 -1384h-306l-92 334h-385l-92 -334h-305zM348 1790h182q2 -51 30 -87t67 -36q43 0 70.5 35t27.5 88h184q-2 -125 -85 -211t-197.5 -86t-195.5 86t-83 211zM506 578h250l-72 262q-25 84 -53 235q-20 -111 -53 -235z" />
<glyph unicode="&#x103;" horiz-adv-x="1019" d="M78 342q0 164 112.5 248t305.5 84h133v24q0 74 -35 113t-98 39q-127 0 -297 -53l-64 231q225 70 361 70q190 0 308 -110.5t118 -289.5v-356q0 -158 -125 -263.5t-297 -105.5q-180 0 -301 104.5t-121 264.5zM203 1507h182q2 -51 29.5 -87t66.5 -36q43 0 71 35t28 88h184 q-2 -125 -85 -211t-197.5 -86t-195.5 86t-83 211zM375 344q0 -49 30.5 -86t94.5 -37q59 0 94 38t35 83v127h-135q-119 0 -119 -125z" />
<glyph unicode="&#x104;" horiz-adv-x="1261" d="M41 0l416 1384h348l416 -1384q-68 -47 -112 -107.5t-44 -111.5q0 -55 59 -55q37 0 68 12l29 -174q-53 -23 -131 -23q-121 0 -181.5 56.5t-60.5 152.5q0 143 143 250h-76l-92 334h-385l-92 -334h-305zM506 578h250l-72 262q-25 84 -53 235q-20 -111 -53 -235z" />
<glyph unicode="&#x105;" horiz-adv-x="1019" d="M78 342q0 164 112.5 248t305.5 84h133v24q0 74 -35 113t-98 39q-127 0 -297 -53l-64 231q225 70 361 70q190 0 308 -110.5t118 -289.5v-356q0 -119 -76 -212t-197 -132q-66 -49 -108.5 -107.5t-42.5 -109.5q0 -55 59 -55q37 0 68 12l28 -174q-53 -23 -131 -23 q-121 0 -181 56.5t-60 152.5q0 131 120 234q-143 27 -233 124t-90 234zM375 344q0 -49 30.5 -86t94.5 -37q59 0 94 38t35 83v127h-135q-119 0 -119 -125z" />
<glyph unicode="&#x106;" horiz-adv-x="1165" d="M109 543v299q0 276 155.5 422.5t409.5 146.5q203 0 399 -63l-57 -246q-172 53 -340 53q-266 0 -266 -338v-248q0 -180 68.5 -260t197.5 -80q180 1 340 56l57 -248q-197 -63 -399 -64q-254 0 -409.5 146.5t-155.5 423.5zM348 1628l453 197l78 -195l-457 -172z" />
<glyph unicode="&#x107;" horiz-adv-x="974" d="M98 442v187q0 238 128 353.5t345 115.5q150 0 314 -51l-62 -238q-141 41 -235 41q-98 0 -147.5 -50t-49.5 -171v-187q0 -121 49 -171t148 -50q94 0 235 41l64 -237q-174 -51 -316 -52q-217 0 -345 115.5t-128 353.5zM231 1360l453 196l78 -194l-457 -172z" />
<glyph unicode="&#x108;" horiz-adv-x="1165" d="M109 543v299q0 276 155.5 422.5t409.5 146.5q203 0 399 -63l-57 -246q-172 53 -340 53q-266 0 -266 -338v-248q0 -180 68.5 -260t197.5 -80q180 1 340 56l57 -248q-197 -63 -399 -64q-254 0 -409.5 146.5t-155.5 423.5zM319 1636l308 174l309 -174l-109 -166l-198 125 l-201 -125z" />
<glyph unicode="&#x109;" horiz-adv-x="974" d="M98 442v187q0 238 128 353.5t345 115.5q150 0 314 -51l-62 -238q-141 41 -235 41q-98 0 -147.5 -50t-49.5 -171v-187q0 -121 49 -171t148 -50q94 0 235 41l64 -237q-174 -51 -316 -52q-217 0 -345 115.5t-128 353.5zM221 1354l307 174l310 -174l-109 -166l-199 125 l-200 -125z" />
<glyph unicode="&#x10a;" horiz-adv-x="1165" d="M109 543v299q0 276 155.5 422.5t409.5 146.5q203 0 399 -63l-57 -246q-172 53 -340 53q-266 0 -266 -338v-248q0 -180 68.5 -260t197.5 -80q180 1 340 56l57 -248q-197 -63 -399 -64q-254 0 -409.5 146.5t-155.5 423.5zM451 1640.5q0 55.5 38.5 95.5t92.5 40q55 0 94 -40 t39 -95.5t-39 -93.5t-94 -38q-53 0 -92 38t-39 93.5z" />
<glyph unicode="&#x10b;" horiz-adv-x="974" d="M98 442v187q0 238 128 353.5t345 115.5q150 0 314 -51l-62 -238q-141 41 -235 41q-98 0 -147.5 -50t-49.5 -171v-187q0 -121 49 -171t148 -50q94 0 235 41l64 -237q-174 -51 -316 -52q-217 0 -345 115.5t-128 353.5zM385 1358q0 55 39 95t92 40q55 0 94 -40t39 -95 t-39 -93t-94 -38q-53 0 -92 38t-39 93z" />
<glyph unicode="&#x10c;" horiz-adv-x="1165" d="M109 543v299q0 276 155.5 422.5t409.5 146.5q203 0 399 -63l-57 -246q-172 53 -340 53q-266 0 -266 -338v-248q0 -180 68.5 -260t197.5 -80q180 1 340 56l57 -248q-197 -63 -399 -64q-254 0 -409.5 146.5t-155.5 423.5zM336 1642l108 166l199 -125l201 125l108 -166 l-307 -174z" />
<glyph unicode="&#x10d;" horiz-adv-x="974" d="M98 442v187q0 238 128 353.5t345 115.5q150 0 314 -51l-62 -238q-141 41 -235 41q-98 0 -147.5 -50t-49.5 -171v-187q0 -121 49 -171t148 -50q94 0 235 41l64 -237q-174 -51 -316 -52q-217 0 -345 115.5t-128 353.5zM205 1360l108 166l199 -125l201 125l108 -166 l-307 -174z" />
<glyph unicode="&#x10e;" horiz-adv-x="1300" d="M143 0v1290q322 121 525 121q223 0 373.5 -140.5t150.5 -385.5v-373q0 -250 -138 -381t-386 -131h-525zM340 1642l109 166l198 -125l201 125l108 -166l-307 -174zM444 256h224q121 0 172 61.5t51 217.5v325q0 147 -59.5 221t-163.5 74q-109 0 -224 -39v-860z" />
<glyph unicode="&#x10f;" horiz-adv-x="1093" d="M98 422v225q0 215 124 333t300 118q94 0 180 -49v450h293v-1077q0 -205 -130 -327t-318.5 -122t-318.5 122t-130 327zM389 432q0 -102 44 -156.5t113.5 -54.5t112.5 54.5t43 156.5v381q-88 37 -153 37q-160 0 -160 -213v-205zM1118 1128v371l242 27l-60 -398h-182z" />
<glyph unicode="&#x110;" horiz-adv-x="1300" d="M14 592v194h129v504q322 121 525 121q223 0 373.5 -140.5t150.5 -385.5v-373q0 -250 -138 -381t-386 -131h-525v592h-129zM444 256h224q121 0 172 61.5t51 217.5v325q0 147 -59.5 221t-163.5 74q-109 0 -224 -39v-330h228v-194h-228v-336z" />
<glyph unicode="&#x111;" horiz-adv-x="1093" d="M98 422v225q0 215 124 333t300 118q94 0 180 -49v153h-163v195h163v102h293v-102h80v-195h-80v-780q0 -205 -130 -327t-318.5 -122t-318.5 122t-130 327zM389 432q0 -102 44 -156.5t113.5 -54.5t112.5 54.5t43 156.5v381q-88 37 -153 37q-160 0 -160 -213v-205z" />
<glyph unicode="&#x112;" horiz-adv-x="1091" d="M143 0v1384h828v-256h-527v-307h443l-13 -246h-430v-319h545v-256h-846zM283 1548v185h520v-185h-520z" />
<glyph unicode="&#x113;" horiz-adv-x="1060" d="M98 436v209q0 213 124 333t313 120q184 0 311 -117t127 -297v-233h-584v-15q0 -215 189 -215q135 0 292 51l58 -235q-172 -63 -350 -64q-219 0 -349.5 121t-130.5 342zM270 1266v184h521v-184h-521zM389 655h291v29q0 72 -39 119t-106 47q-63 0 -104.5 -47t-41.5 -119 v-29z" />
<glyph unicode="&#x114;" horiz-adv-x="1091" d="M143 0v1384h828v-256h-527v-307h443l-13 -246h-430v-319h545v-256h-846zM262 1790h182q2 -51 30 -87t67 -36q43 0 70.5 35t27.5 88h184q-2 -125 -85 -211t-197.5 -86t-195.5 86t-83 211z" />
<glyph unicode="&#x115;" horiz-adv-x="1060" d="M98 436v209q0 213 124 333t313 120q184 0 311 -117t127 -297v-233h-584v-15q0 -215 189 -215q135 0 292 51l58 -235q-172 -63 -350 -64q-219 0 -349.5 121t-130.5 342zM250 1507h182q2 -51 29.5 -87t66.5 -36q43 0 71 35t28 88h184q-2 -125 -85 -211t-197.5 -86 t-195.5 86t-83 211zM389 655h291v29q0 72 -39 119t-106 47q-63 0 -104.5 -47t-41.5 -119v-29z" />
<glyph unicode="&#x116;" horiz-adv-x="1091" d="M143 0v1384h828v-256h-527v-307h443l-13 -246h-430v-319h545v-256h-846zM438 1640.5q0 55.5 39 95.5t92 40q55 0 94 -40t39 -95.5t-38.5 -93.5t-94.5 -38q-53 0 -92 38t-39 93.5z" />
<glyph unicode="&#x117;" horiz-adv-x="1060" d="M98 436v209q0 213 124 333t313 120q184 0 311 -117t127 -297v-233h-584v-15q0 -215 189 -215q135 0 292 51l58 -235q-172 -63 -350 -64q-219 0 -349.5 121t-130.5 342zM389 655h291v29q0 72 -39 119t-106 47q-63 0 -104.5 -47t-41.5 -119v-29zM399 1358q0 55 39 95t92 40 q55 0 94.5 -40t39.5 -95t-39 -93t-95 -38q-53 0 -92 38t-39 93z" />
<glyph unicode="&#x118;" horiz-adv-x="1091" d="M143 0v1384h828v-256h-527v-307h443l-13 -246h-430v-319h545v-256q-68 -47 -111.5 -107.5t-43.5 -111.5q0 -55 59 -55q37 0 68 12l28 -174q-53 -23 -131 -23q-121 0 -181.5 56.5t-60.5 152.5q0 143 144 250h-617z" />
<glyph unicode="&#x119;" horiz-adv-x="1060" d="M98 436v209q0 213 124 333t313 120q184 0 311 -117t127 -297v-233h-584v-15q0 -215 189 -215q135 0 292 51l58 -235q-63 -45 -109.5 -124t-46.5 -132q0 -55 59 -55q37 0 68 12l29 -174q-53 -23 -131 -23q-121 0 -181.5 56.5t-60.5 152.5q0 121 94 225q-10 0 -34.5 -1 t-36.5 -1q-219 0 -349.5 121t-130.5 342zM389 655h291v29q0 72 -39 119t-106 47q-63 0 -104.5 -47t-41.5 -119v-29z" />
<glyph unicode="&#x11a;" horiz-adv-x="1091" d="M143 0v1384h828v-256h-527v-307h443l-13 -246h-430v-319h545v-256h-846zM236 1642l108 166l199 -125l200 125l109 -166l-307 -174z" />
<glyph unicode="&#x11b;" horiz-adv-x="1060" d="M98 436v209q0 213 124 333t313 120q184 0 311 -117t127 -297v-233h-584v-15q0 -215 189 -215q135 0 292 51l58 -235q-172 -63 -350 -64q-219 0 -349.5 121t-130.5 342zM223 1360l109 166l198 -125l201 125l109 -166l-308 -174zM389 655h291v29q0 72 -39 119t-106 47 q-63 0 -104.5 -47t-41.5 -119v-29z" />
<glyph unicode="&#x11c;" horiz-adv-x="1261" d="M109 543v299q0 276 155.5 422.5t409.5 146.5q180 0 440 -82l-65 -244q-217 68 -373 68q-129 0 -197.5 -78t-68.5 -256v-246q0 -182 68.5 -262t197.5 -80q98 0 192 21v303h-141v211h422v-707q-252 -86 -475 -86q-254 0 -409.5 147t-155.5 423zM315 1636l308 174l309 -174 l-109 -166l-198 125l-201 -125z" />
<glyph unicode="&#x11d;" horiz-adv-x="1024" d="M43 -354l70 221q197 -86 358 -86q195 0 195 82q0 31 -77 49t-168 29.5t-168 66.5t-77 152q0 80 66 141q-152 109 -152 309v99q0 172 114.5 280.5t291.5 108.5q82 0 153 -25l332 25l-18 -187l-111 -4q51 -90 51 -198v-99q0 -172 -113.5 -279.5t-291.5 -107.5q-43 0 -84 6 q-4 -12 -4 -20q0 -23 86 -41t190.5 -35.5t190.5 -82t86 -169.5q0 -162 -130.5 -251t-355.5 -89q-219 0 -434 105zM168 1354l307 174l309 -174l-108 -166l-199 125l-201 -125zM377 610q0 -145 121 -145q119 0 118 145v99q0 141 -120 141q-119 0 -119 -141v-99z" />
<glyph unicode="&#x11e;" horiz-adv-x="1261" d="M109 543v299q0 276 155.5 422.5t409.5 146.5q180 0 440 -82l-65 -244q-217 68 -373 68q-129 0 -197.5 -78t-68.5 -256v-246q0 -182 68.5 -262t197.5 -80q98 0 192 21v303h-141v211h422v-707q-252 -86 -475 -86q-254 0 -409.5 147t-155.5 423zM344 1790h182q2 -51 30 -87 t67 -36q43 0 70.5 35t27.5 88h184q-2 -125 -85 -211t-197.5 -86t-195.5 86t-83 211z" />
<glyph unicode="&#x11f;" horiz-adv-x="1024" d="M43 -354l70 221q197 -86 358 -86q195 0 195 82q0 31 -77 49t-168 29.5t-168 66.5t-77 152q0 80 66 141q-152 109 -152 309v99q0 172 114.5 280.5t291.5 108.5q82 0 153 -25l332 25l-18 -187l-111 -4q51 -90 51 -198v-99q0 -172 -113.5 -279.5t-291.5 -107.5q-43 0 -84 6 q-4 -12 -4 -20q0 -23 86 -41t190.5 -35.5t190.5 -82t86 -169.5q0 -162 -130.5 -251t-355.5 -89q-219 0 -434 105zM209 1507h182q2 -51 30 -87t66 -36q43 0 71 35t28 88h184q-2 -125 -85 -211t-197.5 -86t-195.5 86t-83 211zM377 610q0 -145 121 -145q119 0 118 145v99 q0 141 -120 141q-119 0 -119 -141v-99z" />
<glyph unicode="&#x120;" horiz-adv-x="1261" d="M109 543v299q0 276 155.5 422.5t409.5 146.5q180 0 440 -82l-65 -244q-217 68 -373 68q-129 0 -197.5 -78t-68.5 -256v-246q0 -182 68.5 -262t197.5 -80q98 0 192 21v303h-141v211h422v-707q-252 -86 -475 -86q-254 0 -409.5 147t-155.5 423zM520 1640.5q0 55.5 39 95.5 t92 40q55 0 94 -40t39 -95.5t-38.5 -93.5t-94.5 -38q-53 0 -92 38t-39 93.5z" />
<glyph unicode="&#x121;" horiz-adv-x="1024" d="M43 -354l70 221q197 -86 358 -86q195 0 195 82q0 31 -77 49t-168 29.5t-168 66.5t-77 152q0 80 66 141q-152 109 -152 309v99q0 172 114.5 280.5t291.5 108.5q82 0 153 -25l332 25l-18 -187l-111 -4q51 -90 51 -198v-99q0 -172 -113.5 -279.5t-291.5 -107.5q-43 0 -84 6 q-4 -12 -4 -20q0 -23 86 -41t190.5 -35.5t190.5 -82t86 -169.5q0 -162 -130.5 -251t-355.5 -89q-219 0 -434 105zM356 1358q0 55 39 95t92 40q55 0 94.5 -40t39.5 -95t-39 -93t-95 -38q-53 0 -92 38t-39 93zM377 610q0 -145 121 -145q119 0 118 145v99q0 141 -120 141 q-119 0 -119 -141v-99z" />
<glyph unicode="&#x122;" horiz-adv-x="1261" d="M109 543v299q0 276 155.5 422.5t409.5 146.5q180 0 440 -82l-65 -244q-217 68 -373 68q-129 0 -197.5 -78t-68.5 -256v-246q0 -182 68.5 -262t197.5 -80q98 0 192 21v303h-141v211h422v-707q-252 -86 -475 -86q-254 0 -409.5 147t-155.5 423zM473 -459l53 332h252 l-114 -332h-191z" />
<glyph unicode="&#x123;" horiz-adv-x="1024" d="M43 -354l70 221q197 -86 358 -86q195 0 195 82q0 31 -77 49t-168 29.5t-168 66.5t-77 152q0 80 66 141q-152 109 -152 309v99q0 172 114.5 280.5t291.5 108.5q82 0 153 -25l332 25l-18 -187l-111 -4q51 -90 51 -198v-99q0 -172 -113.5 -279.5t-291.5 -107.5q-43 0 -84 6 q-4 -12 -4 -20q0 -23 86 -41t190.5 -35.5t190.5 -82t86 -169.5q0 -162 -130.5 -251t-355.5 -89q-219 0 -434 105zM377 610q0 -145 121 -145q119 0 118 145v99q0 141 -120 141q-119 0 -119 -141v-99zM406 1190l53 332h252l-115 -332h-190z" />
<glyph unicode="&#x124;" horiz-adv-x="1314" d="M143 0v1384h301v-555h426v555h301v-1384h-301v580h-426v-580h-301zM348 1636l309 174l308 -174l-109 -166l-199 125l-200 -125z" />
<glyph unicode="&#x125;" horiz-adv-x="1136" d="M-31 1692l307 180l310 -180l-109 -166l-198 131l-201 -131zM133 0v1499h293v-450q90 49 182 49q176 0 291 -106.5t115 -321.5v-670h-293v653q0 109 -35 153t-104 44q-63 0 -156 -37v-813h-293z" />
<glyph unicode="&#x126;" horiz-adv-x="1314" d="M61 971v194h82v219h301v-219h426v219h301v-219h78v-194h-78v-971h-301v580h-426v-580h-301v971h-82zM444 829h426v142h-426v-142z" />
<glyph unicode="&#x127;" horiz-adv-x="1136" d="M51 1202v195h82v102h293v-102h162v-195h-162v-153q90 49 182 49q176 0 291 -106.5t115 -321.5v-670h-293v653q0 109 -35 153t-104 44q-63 0 -156 -37v-813h-293v1202h-82z" />
<glyph unicode="&#x128;" horiz-adv-x="587" d="M-25 1653q25 55 77 94t128 39q51 0 121 -46t105 -46q57 0 96 59l108 -127q-25 -55 -77 -94t-127 -39q-51 0 -121 46t-105 46q-57 0 -96 -59zM143 0v1384h301v-1384h-301z" />
<glyph unicode="&#x129;" horiz-adv-x="559" d="M-39 1370q25 55 77 94t128 39q51 0 120.5 -46t104.5 -46q57 0 96 59l109 -127q-25 -55 -77 -94t-128 -39q-51 0 -120.5 46.5t-104.5 46.5q-57 0 -96 -60zM133 0v1071h293v-1071h-293z" />
<glyph unicode="&#x12a;" horiz-adv-x="587" d="M33 1548v185h520v-185h-520zM143 0v1384h301v-1384h-301z" />
<glyph unicode="&#x12b;" horiz-adv-x="559" d="M18 1266v184h521v-184h-521zM133 0v1071h293v-1071h-293z" />
<glyph unicode="&#x12c;" horiz-adv-x="587" d="M12 1821h183q2 -51 29.5 -87t66.5 -36q43 0 70.5 35t27.5 88h184q-2 -125 -84.5 -211t-197.5 -86t-196 86t-83 211zM143 0v1384h301v-1384h-301z" />
<glyph unicode="&#x12d;" horiz-adv-x="559" d="M-2 1507h182q2 -51 30 -87t66 -36q43 0 71 35t28 88h184q-2 -125 -85 -211t-197.5 -86t-195.5 86t-83 211zM133 0v1071h293v-1071h-293z" />
<glyph unicode="&#x12e;" horiz-adv-x="587" d="M72 -250q0 143 143 250h-72v1384h301v-1384q-68 -47 -111.5 -107.5t-43.5 -111.5q0 -55 59 -55q37 0 68 12l28 -174q-53 -23 -131 -23q-121 0 -181 56.5t-60 152.5z" />
<glyph unicode="&#x12f;" horiz-adv-x="559" d="M53 -250q0 143 144 250h-64v1071h293v-1071q-68 -47 -112 -107.5t-44 -111.5q0 -55 60 -55q37 0 67 12l29 -174q-53 -23 -131 -23q-121 0 -181.5 56.5t-60.5 152.5zM113 1374.5q0 67.5 49 113.5t116.5 46t116.5 -46t49 -114q0 -66 -49 -114t-116.5 -48t-116.5 47.5 t-49 115z" />
<glyph unicode="&#x130;" horiz-adv-x="587" d="M143 0v1384h301v-1384h-301zM160 1640.5q0 55.5 39 95.5t92 40q55 0 94 -40t39 -95.5t-39 -93.5t-94 -38q-53 0 -92 38t-39 93.5z" />
<glyph unicode="&#x131;" horiz-adv-x="559" d="M133 0v1071h293v-1071h-293z" />
<glyph unicode="&#x132;" horiz-adv-x="1579" d="M143 0v1384h301v-1384h-301zM618 47l72 240q166 -57 289 -58q176 0 176 248v907l301 -14v-899q0 -231 -122 -364.5t-345 -133.5q-162 0 -371 74z" />
<glyph unicode="&#x133;" horiz-adv-x="1118" d="M113 1374.5q0 67.5 49 113.5t116.5 46t116.5 -46t49 -114q0 -66 -49 -114t-116.5 -48t-116.5 47.5t-49 115zM133 0v1071h293v-1071h-293zM672 1374.5q0 67.5 49 113.5t116.5 46t117 -46t49.5 -114q0 -66 -49.5 -114t-117 -48t-116.5 47.5t-49 115zM692 -455v1526h293 v-1485z" />
<glyph unicode="&#x134;" horiz-adv-x="991" d="M31 47l71 240q166 -57 289 -58q176 0 176 248v907l301 -14v-899q0 -231 -121.5 -364.5t-345.5 -133.5q-161 0 -370 74zM395 1636l307 174l310 -174l-109 -166l-198 125l-201 -125z" />
<glyph unicode="&#x135;" horiz-adv-x="559" d="M-29 1343l308 195l309 -195l-109 -165l-198 145l-201 -145zM133 -455v1526h293v-1485z" />
<glyph unicode="&#x136;" horiz-adv-x="1249" d="M143 0v1384h301v-512l359 512h352l-444 -604l508 -780h-357l-334 532l-84 -114v-418h-301zM438 -459l54 332h251l-114 -332h-191z" />
<glyph unicode="&#x137;" horiz-adv-x="1024" d="M133 0v1499h293v-827l98 33q53 18 76 110l64 256h284l-84 -323q-23 -90 -51.5 -142.5t-79.5 -83.5l271 -522h-332l-199 422l-47 -16v-406h-293zM346 -459l53 332h252l-114 -332h-191z" />
<glyph unicode="&#x139;" horiz-adv-x="1048" d="M39 1628l453 197l77 -195l-456 -172zM143 0v1384h301v-1128h553l-12 -256h-842z" />
<glyph unicode="&#x13a;" horiz-adv-x="559" d="M2 1677l453 197l77 -195l-456 -172zM133 0v1485l293 41v-1526h-293z" />
<glyph unicode="&#x13b;" horiz-adv-x="1048" d="M143 0v1384h301v-1128h553l-12 -256h-842zM399 -459l54 332h252l-115 -332h-191z" />
<glyph unicode="&#x13c;" horiz-adv-x="559" d="M82 -459l53 332h252l-115 -332h-190zM133 0v1485l293 41v-1526h-293z" />
<glyph unicode="&#x13d;" horiz-adv-x="1048" d="M143 0v1384h301v-1128h553l-12 -256h-842zM664 1014v370l241 27l-59 -397h-182z" />
<glyph unicode="&#x13e;" horiz-adv-x="559" d="M133 0v1485l293 41v-1526h-293zM559 1128v371l242 27l-60 -398h-182z" />
<glyph unicode="&#x13f;" horiz-adv-x="1048" d="M143 0v1384h301v-1128h553l-12 -256h-842zM563 575.5q0 61.5 43 104.5t103 43q61 0 104 -43t43 -104.5t-43 -102.5t-104 -41q-59 0 -102.5 41t-43.5 102.5z" />
<glyph unicode="&#x140;" horiz-adv-x="815" d="M133 0v1485l293 41v-1526h-293zM528 575.5q0 61.5 43 104.5t103 43q61 0 104 -43t43 -104.5t-43 -102.5t-104 -41q-59 0 -102.5 41t-43.5 102.5z" />
<glyph unicode="&#x141;" horiz-adv-x="1048" d="M8 664l135 49v671h301v-563l146 53l57 -153l-203 -74v-391h553l-12 -256h-842v539l-77 -29z" />
<glyph unicode="&#x142;" horiz-adv-x="559" d="M-2 678l135 49v758l293 41v-695l76 29l57 -153l-133 -50v-657h-293v551l-78 -27z" />
<glyph unicode="&#x143;" horiz-adv-x="1300" d="M143 0v1384h244l475 -790q-6 117 -6 211v579h301v-1384h-246l-475 786q8 -106 8 -217v-569h-301zM383 1628l453 197l77 -195l-456 -172z" />
<glyph unicode="&#x144;" horiz-adv-x="1124" d="M123 0v647q0 213 125 332t315 119q188 0 313 -119t125 -332v-647h-292v637q0 104 -38 158.5t-107.5 54.5t-109.5 -54.5t-40 -158.5v-637h-291zM262 1346l453 196l78 -194l-457 -172z" />
<glyph unicode="&#x145;" horiz-adv-x="1300" d="M143 0v1384h244l475 -790q-6 117 -6 211v579h301v-1384h-246l-475 786q8 -106 8 -217v-569h-301zM489 -459l54 332h252l-115 -332h-191z" />
<glyph unicode="&#x146;" horiz-adv-x="1124" d="M123 0v647q0 213 125 332t315 119q188 0 313 -119t125 -332v-647h-292v637q0 104 -38 158.5t-107.5 54.5t-109.5 -54.5t-40 -158.5v-637h-291zM377 -459l53 332h252l-115 -332h-190z" />
<glyph unicode="&#x147;" horiz-adv-x="1300" d="M143 0v1384h244l475 -790q-6 117 -6 211v579h301v-1384h-246l-475 786q8 -106 8 -217v-569h-301zM340 1642l109 166l198 -125l201 125l108 -166l-307 -174z" />
<glyph unicode="&#x148;" horiz-adv-x="1124" d="M123 0v647q0 213 125 332t315 119q188 0 313 -119t125 -332v-647h-292v637q0 104 -38 158.5t-107.5 54.5t-109.5 -54.5t-40 -158.5v-637h-291zM254 1360l108 166l199 -125l201 125l108 -166l-307 -174z" />
<glyph unicode="&#x14a;" horiz-adv-x="1300" d="M143 0v1384h244l475 -790q-6 117 -6 211v579h301v-1798l-293 -41v533l-428 708q8 -106 8 -217v-569h-301z" />
<glyph unicode="&#x14b;" horiz-adv-x="1124" d="M123 0v643q0 213 125 332t315 119q188 0 313 -119t125 -332v-1057l-292 -41v1088q0 104 -38 158.5t-107.5 54.5t-109.5 -54.5t-40 -158.5v-633h-291z" />
<glyph unicode="&#x14c;" horiz-adv-x="1312" d="M109 545v293q0 274 154.5 423.5t391.5 149.5q240 0 394.5 -149.5t154.5 -423.5v-293q0 -276 -154.5 -424t-394.5 -148q-238 0 -392 149t-154 423zM395 1548v185h520v-185h-520zM410 567q0 -338 245 -338q248 0 248 338v250q0 338 -248 338q-245 0 -245 -338v-250z" />
<glyph unicode="&#x14d;" horiz-adv-x="1110" d="M98 442v187q0 215 127 342t330 127t330 -127t127 -342v-187q0 -215 -127 -342t-330 -127t-330 127t-127 342zM295 1266v184h520v-184h-520zM389 453q0 -231 166 -231.5t166 231.5v165q0 231 -166 231.5t-166 -231.5v-165z" />
<glyph unicode="&#x14e;" horiz-adv-x="1312" d="M109 545v293q0 274 154.5 423.5t391.5 149.5q240 0 394.5 -149.5t154.5 -423.5v-293q0 -276 -154.5 -424t-394.5 -148q-238 0 -392 149t-154 423zM375 1790h182q2 -51 29.5 -87t66.5 -36q43 0 71 35t28 88h184q-2 -125 -85 -211t-197.5 -86t-195.5 86t-83 211zM410 567 q0 -338 245 -338q248 0 248 338v250q0 338 -248 338q-245 0 -245 -338v-250z" />
<glyph unicode="&#x14f;" horiz-adv-x="1110" d="M98 442v187q0 215 127 342t330 127t330 -127t127 -342v-187q0 -215 -127 -342t-330 -127t-330 127t-127 342zM274 1507h183q2 -51 29.5 -87t66.5 -36q43 0 70.5 35t27.5 88h185q-2 -125 -85 -211t-198 -86t-196 86t-83 211zM389 453q0 -231 166 -231.5t166 231.5v165 q0 231 -166 231.5t-166 -231.5v-165z" />
<glyph unicode="&#x150;" horiz-adv-x="1312" d="M109 545v293q0 274 154.5 423.5t391.5 149.5q240 0 394.5 -149.5t154.5 -423.5v-293q0 -276 -154.5 -424t-394.5 -148q-238 0 -392 149t-154 423zM285 1614l344 225l112 -182l-354 -209zM410 567q0 -338 245 -338q248 0 248 338v250q0 338 -248 338q-245 0 -245 -338 v-250zM772 1614l344 225l113 -182l-357 -209z" />
<glyph unicode="&#x151;" horiz-adv-x="1110" d="M98 442v187q0 215 127 342t330 127t330 -127t127 -342v-187q0 -215 -127 -342t-330 -127t-330 127t-127 342zM166 1331l344 225l113 -182l-355 -209zM389 453q0 -231 166 -231.5t166 231.5v165q0 231 -166 231.5t-166 -231.5v-165zM653 1331l344 225l113 -182l-356 -209z " />
<glyph unicode="&#x152;" horiz-adv-x="1845" d="M109 545v293q0 274 154.5 423.5t391.5 149.5q90 0 183 -27h886v-256h-581q61 -127 61 -290v-17h436l-12 -246h-424v-30q0 -162 -61 -289h600v-256h-901q-96 -27 -187 -27q-238 0 -392 148.5t-154 423.5zM410 567q0 -338 245 -338q248 0 248 338v250q0 338 -248 338 q-246 0 -245 -338v-250z" />
<glyph unicode="&#x153;" horiz-adv-x="1683" d="M98 442v187q0 215 127 342t330 127q180 0 305 -107q117 106 297 107q184 0 311 -117t127 -297v-233h-583v-15q0 -215 188 -215q135 0 293 51l57 -235q-172 -63 -350 -64q-211 0 -336 109q-119 -109 -309 -109q-203 0 -330 127t-127 342zM389 453q0 -231 166 -231t166 231 v165q0 231 -166 231.5t-166 -231.5v-165zM1012 655h291v29q0 72 -39 119t-107 47q-63 0 -104 -47t-41 -119v-29z" />
<glyph unicode="&#x154;" horiz-adv-x="1169" d="M143 0v1384h494q203 0 329 -130t126 -312q0 -127 -64.5 -229.5t-181.5 -153.5l262 -559h-336l-225 516h-103v-516h-301zM317 1628l453 197l78 -195l-457 -172zM444 756h179q74 0 119.5 51t45.5 135q0 82 -47 134t-118 52h-179v-372z" />
<glyph unicode="&#x155;" horiz-adv-x="761" d="M123 0v684q0 182 124 298t310 116q104 0 203 -33l-55 -238q-82 23 -146 23q-68 0 -106.5 -46t-38.5 -120v-684h-291zM174 1346l453 196l78 -194l-457 -172z" />
<glyph unicode="&#x156;" horiz-adv-x="1169" d="M143 0v1384h494q203 0 329 -130t126 -312q0 -127 -64.5 -229.5t-181.5 -153.5l262 -559h-336l-225 516h-103v-516h-301zM408 -459l53 332h252l-115 -332h-190zM444 756h179q74 0 119.5 51t45.5 135q0 82 -47 134t-118 52h-179v-372z" />
<glyph unicode="&#x157;" horiz-adv-x="761" d="M94 -459l53 332h252l-114 -332h-191zM123 0v684q0 182 124 298t310 116q104 0 203 -33l-55 -238q-82 23 -146 23q-68 0 -106.5 -46t-38.5 -120v-684h-291z" />
<glyph unicode="&#x158;" horiz-adv-x="1169" d="M143 0v1384h494q203 0 329 -130t126 -312q0 -127 -64.5 -229.5t-181.5 -153.5l262 -559h-336l-225 516h-103v-516h-301zM274 1642l109 166l199 -125l200 125l109 -166l-307 -174zM444 756h179q74 0 119.5 51t45.5 135q0 82 -47 134t-118 52h-179v-372z" />
<glyph unicode="&#x159;" horiz-adv-x="761" d="M113 1360l108 166l199 -125l201 125l108 -166l-307 -174zM123 0v684q0 182 124 298t310 116q104 0 203 -33l-55 -238q-82 23 -146 23q-68 0 -106.5 -46t-38.5 -120v-684h-291z" />
<glyph unicode="&#x15a;" horiz-adv-x="1069" d="M72 59l57 250q217 -80 387 -80q78 0 124 43t46 113q0 68 -59.5 117t-144.5 86t-170 84t-144 136t-59 214q0 176 133 282.5t333 106.5q178 0 394 -86l-78 -240q-174 70 -316 70q-156 0 -155 -129q0 -61 59.5 -107.5t144.5 -82t170 -82.5t144 -140.5t59 -226.5 q0 -197 -140 -305.5t-341 -108.5q-208 0 -444 86zM268 1628l453 197l78 -195l-457 -172z" />
<glyph unicode="&#x15b;" horiz-adv-x="884" d="M57 39l58 233q143 -51 280 -51q55 0 92 23.5t37 58.5q0 43 -45 73t-108.5 56.5t-128 61t-109.5 107.5t-45 175q0 141 108.5 231.5t286.5 90.5q145 0 291 -51l-61 -240q-137 43 -230 43q-98 0 -98 -74q0 -41 45 -69.5t108.5 -53t127 -59.5t108.5 -108.5t45 -178.5 q0 -137 -110.5 -235.5t-313.5 -98.5q-158 0 -338 66zM156 1346l452 196l78 -194l-457 -172z" />
<glyph unicode="&#x15c;" horiz-adv-x="1069" d="M72 59l57 250q217 -80 387 -80q78 0 124 43t46 113q0 68 -59.5 117t-144.5 86t-170 84t-144 136t-59 214q0 176 133 282.5t333 106.5q178 0 394 -86l-78 -240q-174 70 -316 70q-156 0 -155 -129q0 -61 59.5 -107.5t144.5 -82t170 -82.5t144 -140.5t59 -226.5 q0 -197 -140 -305.5t-341 -108.5q-208 0 -444 86zM225 1636l307 174l310 -174l-109 -166l-198 125l-201 -125z" />
<glyph unicode="&#x15d;" horiz-adv-x="884" d="M57 39l58 233q143 -51 280 -51q55 0 92 23.5t37 58.5q0 43 -45 73t-108.5 56.5t-128 61t-109.5 107.5t-45 175q0 141 108.5 231.5t286.5 90.5q145 0 291 -51l-61 -240q-137 43 -230 43q-98 0 -98 -74q0 -41 45 -69.5t108.5 -53t127 -59.5t108.5 -108.5t45 -178.5 q0 -137 -110.5 -235.5t-313.5 -98.5q-158 0 -338 66zM131 1354l307 174l310 -174l-109 -166l-199 125l-200 -125z" />
<glyph unicode="&#x15e;" horiz-adv-x="1069" d="M72 59l57 250q217 -80 387 -80q78 0 124 43t46 113q0 68 -59.5 117t-144.5 86t-170 84t-144 136t-59 214q0 176 133 282.5t333 106.5q178 0 394 -86l-78 -240q-174 70 -316 70q-156 0 -155 -129q0 -61 59.5 -107.5t144.5 -82t170 -82.5t144 -140.5t59 -226.5 q0 -166 -101 -269.5t-259 -131.5v-166q0 -129 -80 -190.5t-188 -61.5q-88 0 -172 24l26 197q76 -16 127 -16q70 -1 70 73v131q-166 14 -348 82z" />
<glyph unicode="&#x15f;" horiz-adv-x="884" d="M57 39l58 233q143 -51 280 -51q55 0 92 23.5t37 58.5q0 43 -45 73t-108.5 56.5t-128 61t-109.5 107.5t-45 175q0 141 108.5 231.5t286.5 90.5q145 0 291 -51l-61 -240q-137 43 -230 43q-98 0 -98 -74q0 -41 45 -69.5t108.5 -53t127 -59.5t108.5 -108.5t45 -178 t-65.5 -189.5t-188.5 -120v-178q0 -129 -79.5 -190.5t-188.5 -61.5q-88 0 -172 24l27 197q76 -16 127 -16q69 -1 69 73v129q-150 10 -291 64z" />
<glyph unicode="&#x160;" horiz-adv-x="1069" d="M72 59l57 250q217 -80 387 -80q78 0 124 43t46 113q0 68 -59.5 117t-144.5 86t-170 84t-144 136t-59 214q0 176 133 282.5t333 106.5q178 0 394 -86l-78 -240q-174 70 -316 70q-156 0 -155 -129q0 -61 59.5 -107.5t144.5 -82t170 -82.5t144 -140.5t59 -226.5 q0 -197 -140 -305.5t-341 -108.5q-208 0 -444 86zM236 1642l108 166l199 -125l200 125l109 -166l-307 -174z" />
<glyph unicode="&#x161;" horiz-adv-x="884" d="M57 39l58 233q143 -51 280 -51q55 0 92 23.5t37 58.5q0 43 -45 73t-108.5 56.5t-128 61t-109.5 107.5t-45 175q0 141 108.5 231.5t286.5 90.5q145 0 291 -51l-61 -240q-137 43 -230 43q-98 0 -98 -74q0 -41 45 -69.5t108.5 -53t127 -59.5t108.5 -108.5t45 -178.5 q0 -137 -110.5 -235.5t-313.5 -98.5q-158 0 -338 66zM131 1360l109 166l198 -125l201 125l109 -166l-308 -174z" />
<glyph unicode="&#x162;" horiz-adv-x="1075" d="M51 1128v256h973v-256h-336v-1128h-301v1128h-336zM369 -459l53 332h252l-115 -332h-190z" />
<glyph unicode="&#x163;" horiz-adv-x="696" d="M23 1071h174v289l292 39v-328h173v-194h-173v-877h-292v877h-131zM162 -459l53 332h252l-115 -332h-190z" />
<glyph unicode="&#x164;" horiz-adv-x="1075" d="M51 1128v256h973v-256h-336v-1128h-301v1128h-336zM229 1642l109 166l199 -125l200 125l109 -166l-307 -174z" />
<glyph unicode="&#x165;" horiz-adv-x="690" d="M25 1069h172v289l286 39v-328h168v-195h-168v-876h-286v876h-129zM598 1169v371l242 27l-60 -398h-182z" />
<glyph unicode="&#x166;" horiz-adv-x="1075" d="M51 1128v256h973v-256h-336v-305h156v-196h-156v-627h-301v627h-160v196h160v305h-336z" />
<glyph unicode="&#x167;" horiz-adv-x="696" d="M23 1071h174v289l292 39v-328h173v-194h-173v-197h173v-195h-173v-485h-292v485h-136v195h136v197h-131z" />
<glyph unicode="&#x168;" horiz-adv-x="1310" d="M133 463v921h301v-897q0 -121 60.5 -189.5t161 -68.5t161 70t60.5 188v897h301v-921q0 -213 -153 -351.5t-370 -138.5q-219 0 -370.5 137.5t-151.5 352.5zM336 1653q25 55 77 94t128 39q51 0 120.5 -46t104.5 -46q57 0 96 59l109 -127q-25 -55 -77 -94t-128 -39 q-51 0 -121 46t-104 46q-57 0 -97 -59z" />
<glyph unicode="&#x169;" horiz-adv-x="1124" d="M123 424v647h291v-637q0 -104 39 -158.5t108 -54.5q147 0 148 213v637h292v-647q0 -213 -125.5 -332t-314.5 -119q-190 0 -314 119t-124 332zM244 1370q25 55 77 94t128 39q51 0 120.5 -46t104.5 -46q57 0 96 59l109 -127q-25 -55 -77 -94t-128 -39q-51 0 -121 46.5 t-104 46.5q-57 0 -97 -60z" />
<glyph unicode="&#x16a;" horiz-adv-x="1310" d="M133 463v921h301v-897q0 -121 60.5 -189.5t161 -68.5t161 70t60.5 188v897h301v-921q0 -213 -153 -351.5t-370 -138.5q-219 0 -370.5 137.5t-151.5 352.5zM395 1548v185h520v-185h-520z" />
<glyph unicode="&#x16b;" horiz-adv-x="1124" d="M123 424v647h291v-637q0 -104 39 -158.5t108 -54.5q147 0 148 213v637h292v-647q0 -213 -125.5 -332t-314.5 -119q-190 0 -314 119t-124 332zM301 1266v184h520v-184h-520z" />
<glyph unicode="&#x16c;" horiz-adv-x="1310" d="M133 463v921h301v-897q0 -121 60.5 -189.5t161 -68.5t161 70t60.5 188v897h301v-921q0 -213 -153 -351.5t-370 -138.5q-219 0 -370.5 137.5t-151.5 352.5zM373 1790h182q2 -51 29.5 -87t66.5 -36q43 0 71 35t28 88h184q-2 -125 -85 -211t-197.5 -86t-195.5 86t-83 211z " />
<glyph unicode="&#x16d;" horiz-adv-x="1124" d="M123 424v647h291v-637q0 -104 39 -158.5t108 -54.5q147 0 148 213v637h292v-647q0 -213 -125.5 -332t-314.5 -119q-190 0 -314 119t-124 332zM281 1507h182q2 -51 29.5 -87t66.5 -36q43 0 70.5 35t27.5 88h185q-2 -125 -85 -211t-198 -86t-195.5 86t-82.5 211z" />
<glyph unicode="&#x16e;" horiz-adv-x="1310" d="M133 463v921h301v-897q0 -121 60.5 -189.5t161 -68.5t161 70t60.5 188v897h301v-921q0 -213 -153 -351.5t-370 -138.5q-219 0 -370.5 137.5t-151.5 352.5zM444 1669q0 84 61.5 145.5t149.5 61.5q84 0 145.5 -61.5t61.5 -145.5q0 -86 -61.5 -148.5t-145.5 -62.5 q-88 0 -149.5 62.5t-61.5 148.5zM592 1669q0 -27 18.5 -45t45 -18t44 18t17.5 45t-17.5 44.5t-44 17.5t-45 -17.5t-18.5 -44.5z" />
<glyph unicode="&#x16f;" horiz-adv-x="1124" d="M123 424v647h291v-637q0 -104 39 -158.5t108 -54.5q147 0 148 213v637h292v-647q0 -213 -125.5 -332t-314.5 -119q-190 0 -314 119t-124 332zM352 1386q0 84 61.5 145.5t149.5 61.5q84 0 145.5 -61.5t61.5 -145.5q0 -86 -61.5 -148t-145.5 -62q-88 0 -149.5 62t-61.5 148 zM500 1386.5q0 -26.5 18.5 -45t45 -18.5t44 18.5t17.5 45t-17.5 44t-44 17.5t-45 -17.5t-18.5 -44z" />
<glyph unicode="&#x170;" horiz-adv-x="1310" d="M133 463v921h301v-897q0 -121 60.5 -189.5t161 -68.5t161 70t60.5 188v897h301v-921q0 -213 -153 -351.5t-370 -138.5q-219 0 -370.5 137.5t-151.5 352.5zM221 1614l344 225l113 -182l-354 -209zM709 1614l344 225l112 -182l-356 -209z" />
<glyph unicode="&#x171;" horiz-adv-x="1124" d="M123 424v647h291v-637q0 -104 39 -158.5t108 -54.5q147 0 148 213v637h292v-647q0 -213 -125.5 -332t-314.5 -119q-190 0 -314 119t-124 332zM135 1331l344 225l113 -182l-354 -209zM623 1331l344 225l112 -182l-356 -209z" />
<glyph unicode="&#x172;" horiz-adv-x="1310" d="M133 463v921h301v-897q0 -121 60.5 -189.5t161 -68.5t161 70t60.5 188v897h301v-921q0 -188 -120 -319.5t-304 -161.5q-131 -102 -131 -201q0 -55 59 -55q37 0 68 12l28 -174q-53 -23 -131 -23q-121 0 -181 56.5t-60 152.5q0 133 124 238q-174 37 -285.5 165t-111.5 310z " />
<glyph unicode="&#x173;" horiz-adv-x="1124" d="M123 424v647h291v-637q0 -104 39 -158.5t108 -54.5q147 0 148 213v637h292v-647q0 -180 -92 -294t-239 -144q-135 -106 -135 -205q0 -55 59 -55q37 0 68 12l28 -174q-53 -23 -131 -23q-121 0 -181.5 56.5t-60.5 152.5q0 133 125 238q-143 33 -231 145.5t-88 290.5z" />
<glyph unicode="&#x174;" horiz-adv-x="1738" d="M72 1384h307l86 -702q10 -82 22 -307q39 211 70 305l150 481h321l154 -481q35 -111 69 -299q12 221 23 301l86 702h307l-225 -1384h-334l-197 651q-20 72 -43 195q-16 -113 -41 -195l-196 -651h-334zM559 1636l307 174l310 -174l-109 -166l-199 125l-200 -125z" />
<glyph unicode="&#x175;" horiz-adv-x="1628" d="M82 1071h291l49 -682q10 -164 127 -164q57 0 89 47t32 119v610h284v-610q0 -72 32 -119t89 -47q115 0 129 164l51 682h291l-55 -702q-14 -186 -125 -291t-287 -105q-180 0 -268 142q-88 -141 -268 -142q-172 0 -284 107t-126 289zM506 1354l307 174l309 -174l-108 -166 l-199 125l-201 -125z" />
<glyph unicode="&#x176;" horiz-adv-x="1185" d="M31 1384h323l238 -548l239 548h324l-412 -858v-526h-301v526zM283 1636l307 174l309 -174l-108 -166l-199 125l-201 -125z" />
<glyph unicode="&#x177;" horiz-adv-x="1044" d="M41 1071h291l96 -665q25 -158 121 -158h49l102 823h293l-202 -1503h-287l59 432h-24q-343 0 -400 385zM209 1354l307 174l309 -174l-108 -166l-199 125l-201 -125z" />
<glyph unicode="&#x178;" horiz-adv-x="1185" d="M31 1384h323l238 -548l239 548h324l-412 -858v-526h-301v526zM264 1640.5q0 55.5 40 95.5t93 40q55 0 94 -40t39 -95.5t-38.5 -93.5t-94.5 -38q-53 0 -93 38t-40 93.5zM655 1640.5q0 55.5 39 95.5t92 40q55 0 94.5 -40t39.5 -95.5t-39 -93.5t-95 -38q-53 0 -92 38 t-39 93.5z" />
<glyph unicode="&#x179;" horiz-adv-x="1155" d="M82 0v199l567 942h-555v243h932v-198l-573 -938h620l-26 -248h-965zM309 1628l453 197l78 -195l-457 -172z" />
<glyph unicode="&#x17a;" horiz-adv-x="999" d="M92 0v199l434 632h-417v240h770v-197l-416 -634h444l-20 -240h-795zM236 1346l452 196l78 -194l-457 -172z" />
<glyph unicode="&#x17b;" horiz-adv-x="1155" d="M82 0v199l567 942h-555v243h932v-198l-573 -938h620l-26 -248h-965zM442 1640.5q0 55.5 39 95.5t92 40q55 0 94.5 -40t39.5 -95.5t-39 -93.5t-95 -38q-53 0 -92 38t-39 93.5z" />
<glyph unicode="&#x17c;" horiz-adv-x="999" d="M92 0v199l434 632h-417v240h770v-197l-416 -634h444l-20 -240h-795zM369 1358q0 55 38.5 95t92.5 40q55 0 94 -40t39 -95t-39 -93t-94 -38q-53 0 -92 38t-39 93z" />
<glyph unicode="&#x17d;" horiz-adv-x="1155" d="M82 0v199l567 942h-555v243h932v-198l-573 -938h620l-26 -248h-965zM266 1642l109 166l198 -125l201 125l109 -166l-308 -174z" />
<glyph unicode="&#x17e;" horiz-adv-x="999" d="M92 0v199l434 632h-417v240h770v-197l-416 -634h444l-20 -240h-795zM193 1360l108 166l199 -125l200 125l109 -166l-307 -174z" />
<glyph unicode="&#x192;" horiz-adv-x="1067" d="M-45 -406l72 236q80 -27 143 -27q111 0 127 119l117 834h-174v194h202l33 230q23 162 135.5 249t255.5 87q113 0 215 -43l-71 -236q-80 27 -144 27q-111 0 -127 -119l-28 -195h254l-43 -194h-238l-123 -869q-23 -162 -135.5 -249t-255.5 -87q-115 0 -215 43z" />
<glyph unicode="&#x218;" horiz-adv-x="1069" d="M72 59l57 250q217 -80 387 -80q78 0 124 43t46 113q0 68 -59.5 117t-144.5 86t-170 84t-144 136t-59 214q0 176 133 282.5t333 106.5q178 0 394 -86l-78 -240q-174 70 -316 70q-156 0 -155 -129q0 -61 59.5 -107.5t144.5 -82t170 -82.5t144 -140.5t59 -226.5 q0 -197 -140 -305.5t-341 -108.5q-208 0 -444 86zM375 -459l53 332h252l-115 -332h-190z" />
<glyph unicode="&#x219;" horiz-adv-x="884" d="M57 39l58 233q143 -51 280 -51q55 0 92 23.5t37 58.5q0 43 -45 73t-108.5 56.5t-128 61t-109.5 107.5t-45 175q0 141 108.5 231.5t286.5 90.5q145 0 291 -51l-61 -240q-137 43 -230 43q-98 0 -98 -74q0 -41 45 -69.5t108.5 -53t127 -59.5t108.5 -108.5t45 -178.5 q0 -137 -110.5 -235.5t-313.5 -98.5q-158 0 -338 66zM285 -459l53 332h252l-115 -332h-190z" />
<glyph unicode="&#x2c6;" horiz-adv-x="985" d="M184 1354l308 174l309 -174l-109 -166l-198 125l-201 -125z" />
<glyph unicode="&#x2c7;" horiz-adv-x="985" d="M184 1360l109 166l199 -125l200 125l109 -166l-307 -174z" />
<glyph unicode="&#x2d8;" horiz-adv-x="858" d="M150 1507h182q2 -51 29.5 -87t66.5 -36q43 0 70.5 35t27.5 88h185q-2 -125 -85 -211t-198 -86t-195.5 86t-82.5 211z" />
<glyph unicode="&#x2d9;" horiz-adv-x="555" d="M145 1358q0 55 39 95t92 40q55 0 94.5 -40t39.5 -95t-39 -93t-95 -38q-53 0 -92 38t-39 93z" />
<glyph unicode="&#x2da;" horiz-adv-x="708" d="M145 1386q0 84 61.5 145.5t149.5 61.5q84 0 145.5 -61.5t61.5 -145.5q0 -86 -61.5 -148t-145.5 -62q-88 0 -149.5 62t-61.5 148zM293 1386.5q0 -26.5 18.5 -45t45 -18.5t44 18.5t17.5 45t-17.5 44t-44 17.5t-45 -17.5t-18.5 -44z" />
<glyph unicode="&#x2db;" horiz-adv-x="647" d="M135 -250q0 143 144 250h229q-68 -47 -112 -107.5t-44 -111.5q0 -55 60 -55q36 0 67 12l29 -174q-53 -23 -131 -23q-121 0 -181.5 56.5t-60.5 152.5z" />
<glyph unicode="&#x2dc;" horiz-adv-x="933" d="M152 1370q25 55 77 94t127 39q51 0 121 -46t105 -46q57 0 96 59l108 -127q-25 -55 -77 -94t-127 -39q-51 0 -121 46.5t-105 46.5q-57 0 -96 -60z" />
<glyph unicode="&#x2dd;" horiz-adv-x="1263" d="M160 1331l344 225l112 -182l-354 -209zM647 1331l344 225l113 -182l-356 -209z" />
<glyph unicode="&#x3a9;" horiz-adv-x="1413" d="M90 0v205h234v125q-111 82 -172.5 200.5t-61.5 253.5v111q0 246 168 413t449 167q279 0 447.5 -171t168.5 -409v-111q0 -141 -61.5 -259.5t-171.5 -198.5v-121h233v-205h-487v489q94 49 150 137.5t56 180.5v65q0 135 -89 246t-246 111q-162 0 -248 -107.5t-86 -249.5v-65 q0 -94 54 -183t153 -137v-487h-490z" />
<glyph unicode="&#x3c0;" horiz-adv-x="1503" d="M106 829v242h1293v-242h-168v-829h-279v829h-401v-829h-279v829h-166z" />
<glyph unicode="&#x401;" horiz-adv-x="1091" d="M143 0v1384h828v-256h-527v-307h443l-13 -246h-430v-319h545v-256h-846zM236 1640.5q0 55.5 39.5 95.5t93.5 40q55 0 94 -40t39 -95.5t-39 -93.5t-94 -38q-53 0 -93 38t-40 93.5zM627 1640.5q0 55.5 39 95.5t92 40q55 0 94 -40t39 -95.5t-39 -93.5t-94 -38q-53 0 -92 38 t-39 93.5z" />
<glyph unicode="&#x402;" horiz-adv-x="1478" d="M51 1128v256h973v-256h-336v-280q203 37 309 37q160 0 269.5 -99.5t109.5 -269.5v-176q0 -170 -109.5 -269.5t-269.5 -99.5q-98 1 -204 17v252q2 0 6 -1t6 -1q61 -10 88 -11q86 0 135 45t49 129v54q0 84 -49 129t-135 45q-37 0 -106.5 -12.5t-98.5 -22.5v-594h-301v1128 h-336z" />
<glyph unicode="&#x403;" horiz-adv-x="972" d="M143 0v1384h799v-256h-498v-1128h-301zM283 1628l452 197l78 -195l-457 -172z" />
<glyph unicode="&#x404;" horiz-adv-x="1165" d="M109 543v299q0 276 155.5 422.5t409.5 146.5q203 0 399 -63l-57 -242q-172 53 -340 53q-264 0 -266 -332h438l-23 -245h-415v-7q0 -350 266 -350q180 1 340 56l57 -244q-197 -63 -399 -64q-254 0 -409.5 146.5t-155.5 423.5z" />
<glyph unicode="&#x405;" horiz-adv-x="1069" d="M72 59l57 250q217 -80 387 -80q78 0 124 43t46 113q0 68 -59.5 117t-144.5 86t-170 84t-144 136t-59 214q0 176 133 282.5t333 106.5q178 0 394 -86l-78 -240q-174 70 -316 70q-156 0 -155 -129q0 -61 59.5 -107.5t144.5 -82t170 -82.5t144 -140.5t59 -226.5 q0 -197 -140 -305.5t-341 -108.5q-208 0 -444 86z" />
<glyph unicode="&#x406;" horiz-adv-x="587" d="M143 0v1384h301v-1384h-301z" />
<glyph unicode="&#x407;" horiz-adv-x="587" d="M-33 1640.5q0 55.5 40 95.5t93 40q55 0 94 -40t39 -95.5t-38.5 -93.5t-94.5 -38q-53 0 -93 38t-40 93.5zM143 0v1384h301v-1384h-301zM358 1640.5q0 55.5 39 95.5t92 40q55 0 94.5 -40t39.5 -95.5t-39 -93.5t-95 -38q-53 0 -92 38t-39 93.5z" />
<glyph unicode="&#x408;" horiz-adv-x="991" d="M31 47l71 240q166 -57 289 -58q176 0 176 248v907h301v-913q0 -231 -121.5 -364.5t-345.5 -133.5q-161 0 -370 74z" />
<glyph unicode="&#x409;" horiz-adv-x="1951" d="M0 229q80 14 127 42t91 95.5t65.5 192.5t34 324.5t12.5 500.5h903v-512h213q205 0 330 -127t125 -309t-125 -309t-330 -127h-514v1135h-316q0 -219 -14 -389.5t-36.5 -290t-64.5 -203.5t-86 -135t-113 -81t-132.5 -41t-155.5 -15zM1233 250h203q72 0 115.5 51t43.5 135 t-43.5 135.5t-115.5 51.5h-203v-373z" />
<glyph unicode="&#x40a;" horiz-adv-x="1890" d="M143 0v1384h301v-553h426v553h301v-553h213q207 0 331 -117.5t124 -297.5t-124 -298t-331 -118h-514v582h-426v-582h-301zM1171 250h203q74 0 117 42t43 124t-43 124t-117 42h-203v-332z" />
<glyph unicode="&#x40b;" horiz-adv-x="1478" d="M51 1128v256h973v-256h-336v-280q203 37 309 37q160 0 269.5 -99.5t109.5 -269.5v-516h-299v455q0 84 -49 129t-135 45q-37 0 -106.5 -12.5t-98.5 -22.5v-594h-301v1128h-336z" />
<glyph unicode="&#x40c;" horiz-adv-x="1261" d="M143 0v1384h301v-563l158 49q63 20 93 52t46 90l103 372h299l-123 -466q-43 -160 -158 -220l359 -698h-355l-280 590l-142 -51v-539h-301zM406 1628l452 197l78 -195l-457 -172z" />
<glyph unicode="&#x40e;" horiz-adv-x="1179" d="M61 1384h299l86 -522q25 -158 121 -157h129l121 679h301l-178 -997q-68 -387 -399 -387h-287l-33 250h301q51 0 79 38t42 120l8 49h-102q-338 0 -399 385zM309 1759l183 21q6 -51 34.5 -82t67.5 -31q88 0 104 113l185 -21q-10 -125 -88 -195.5t-201 -70.5t-200 70.5 t-85 195.5z" />
<glyph unicode="&#x40f;" horiz-adv-x="1314" d="M143 0v1384h301v-1134h426v1134h301v-1384h-376v-227l-275 -41v268h-377z" />
<glyph unicode="&#x410;" horiz-adv-x="1261" d="M41 0l416 1384h348l416 -1384h-306l-92 334h-385l-92 -334h-305zM506 578h250l-72 262q-25 84 -53 235q-20 -111 -53 -235z" />
<glyph unicode="&#x411;" horiz-adv-x="1183" d="M143 0v1384h840v-249h-539v-269h213q205 0 330 -125t125 -305q0 -182 -125 -309t-330 -127h-514zM444 250h203q72 0 116 51t44 135t-43 132t-117 48h-203v-366z" />
<glyph unicode="&#x412;" horiz-adv-x="1193" d="M143 0v1384h453q217 0 346 -108.5t129 -280.5q0 -186 -174 -268q225 -82 225 -305q0 -178 -145.5 -300t-370.5 -122h-463zM444 256h160q98 0 155.5 47t57.5 119q0 76 -50 121t-146 45h-177v-332zM444 831h129q92 0 142.5 42t50.5 108q0 68 -44 107.5t-134 39.5h-144v-297 z" />
<glyph unicode="&#x413;" horiz-adv-x="972" d="M143 0v1384h799v-256h-498v-1128h-301z" />
<glyph unicode="&#x414;" horiz-adv-x="1427" d="M20 250h123q94 117 158 459t68 675h874v-1134h143v-477l-274 -41v268h-817v-227l-275 -41v518zM469 250h473v885h-303q-16 -266 -65.5 -527.5t-104.5 -357.5z" />
<glyph unicode="&#x415;" horiz-adv-x="1091" d="M143 0v1384h828v-256h-527v-307h443l-13 -246h-430v-319h545v-256h-846z" />
<glyph unicode="&#x416;" horiz-adv-x="1792" d="M41 0l315 692q-115 61 -155 219l-123 473h299l102 -378q16 -57 46 -89t93 -53l127 -43v563h302v-563l127 43q63 20 92.5 52t46.5 90l102 378h299l-123 -473q-43 -160 -157 -219l317 -692h-354l-240 582l-110 -43v-539h-302v539l-112 43l-238 -582h-354z" />
<glyph unicode="&#x417;" horiz-adv-x="1110" d="M82 45l57 248q193 -68 336 -68q109 0 177.5 53.5t68.5 139.5q0 84 -43 126t-156 42h-190l-15 243h158q190 0 191 183q0 61 -41 104t-133 43q-135 0 -310 -69l-71 235q215 86 444 86q197 0 311.5 -102.5t114.5 -270.5q0 -98 -51 -185t-131 -118q109 -31 164 -110.5 t55 -196.5q0 -209 -142.5 -332t-359.5 -123q-102 0 -233 20.5t-201 51.5z" />
<glyph unicode="&#x418;" horiz-adv-x="1335" d="M143 0v1384h301v-600q0 -94 -6 -211l510 811h244v-1384h-301v590q0 111 8 217l-510 -807h-246z" />
<glyph unicode="&#x419;" horiz-adv-x="1335" d="M143 0v1384h301v-600q0 -94 -6 -211l510 811h244v-1384h-301v590q0 111 8 217l-510 -807h-246zM397 1759l183 21q6 -51 34.5 -82t67.5 -31q88 0 104 113l185 -21q-10 -125 -88 -195.5t-201 -70.5t-199.5 70.5t-85.5 195.5z" />
<glyph unicode="&#x41a;" horiz-adv-x="1261" d="M143 0v1384h301v-563l158 49q63 20 93 52t46 90l103 372h299l-123 -466q-43 -160 -158 -220l359 -698h-355l-280 590l-142 -51v-539h-301z" />
<glyph unicode="&#x41b;" horiz-adv-x="1376" d="M0 229q80 14 127 42t91 95.5t65.5 192.5t34 324.5t12.5 500.5h903v-1384h-301v1135h-316q0 -219 -14 -389.5t-36.5 -290t-64.5 -203.5t-86 -135t-113 -81t-132.5 -41t-155.5 -15z" />
<glyph unicode="&#x41c;" horiz-adv-x="1695" d="M72 0l147 1384h342l238 -669q16 -47 49 -178q23 100 49 178l238 669h342l147 -1384h-299l-59 709q-6 72 -15 264q-37 -158 -73 -262l-170 -478h-320l-170 478q-43 123 -76 264q-4 -162 -12 -266l-59 -709h-299z" />
<glyph unicode="&#x41d;" horiz-adv-x="1314" d="M143 0v1384h301v-555h426v555h301v-1384h-301v580h-426v-580h-301z" />
<glyph unicode="&#x41e;" horiz-adv-x="1312" d="M109 545v293q0 274 154.5 423.5t391.5 149.5q240 0 394.5 -149.5t154.5 -423.5v-293q0 -276 -154.5 -424t-394.5 -148q-238 0 -392 149t-154 423zM410 567q-1 -338 245 -338q248 0 248 338v250q0 338 -248 338q-246 0 -245 -338v-250z" />
<glyph unicode="&#x41f;" horiz-adv-x="1314" d="M143 0v1384h1028v-1384h-301v1135h-426v-1135h-301z" />
<glyph unicode="&#x420;" horiz-adv-x="1142" d="M143 0v1384h494q203 0 329 -130t126 -312t-125 -309t-330 -127h-193v-506h-301zM444 756h183q72 0 115.5 51t43.5 135t-44 135t-115 51h-183v-372z" />
<glyph unicode="&#x421;" horiz-adv-x="1165" d="M109 543v299q0 276 155.5 422.5t409.5 146.5q203 0 399 -63l-57 -246q-172 53 -340 53q-266 0 -266 -338v-248q0 -180 68.5 -260t197.5 -80q180 1 340 56l57 -248q-197 -63 -399 -64q-254 0 -409.5 146.5t-155.5 423.5z" />
<glyph unicode="&#x422;" horiz-adv-x="1075" d="M51 1128v256h973v-256h-336v-1128h-301v1128h-336z" />
<glyph unicode="&#x423;" horiz-adv-x="1179" d="M61 1384h299l86 -522q25 -158 121 -157h129l121 679h301l-178 -997q-68 -387 -399 -387h-287l-33 250h301q51 0 79 38t42 120l8 49h-102q-338 0 -399 385z" />
<glyph unicode="&#x424;" horiz-adv-x="1677" d="M61 714.5q0 143.5 50.5 250t140.5 167t197.5 90t238.5 31.5v158h301v-158q131 -2 238.5 -31.5t198 -89t140.5 -166t50 -250t-50 -250t-140.5 -166.5t-198 -90t-238.5 -32v-198h-301v198q-131 2 -238.5 32t-197.5 89t-140.5 165.5t-50.5 250zM367 717q-1 -281 321 -289 v576q-322 -8 -321 -287zM989 428q322 8 322 289q0 287 -322 287v-576z" />
<glyph unicode="&#x425;" horiz-adv-x="1216" d="M31 0l401 721l-358 663h334l200 -383l211 383h326l-359 -657l402 -727h-346l-232 442l-241 -442h-338z" />
<glyph unicode="&#x426;" horiz-adv-x="1355" d="M143 0v1384h301v-1134h426v1134h301v-1134h144v-477l-275 -41v268h-897z" />
<glyph unicode="&#x427;" horiz-adv-x="1234" d="M102 868v516h299v-454q0 -84 49.5 -129t135.5 -45q37 0 106.5 12t98.5 23v593h301v-1384h-301v537q-203 -37 -310 -37q-160 0 -269.5 99t-109.5 269z" />
<glyph unicode="&#x428;" horiz-adv-x="1857" d="M143 0v1384h301v-1134h334v1134h301v-1134h334v1134h301v-1384h-1571z" />
<glyph unicode="&#x429;" horiz-adv-x="1878" d="M143 0v1384h301v-1134h334v1134h301v-1134h334v1134h301v-1134h144v-477l-275 -41v268h-1440z" />
<glyph unicode="&#x42a;" horiz-adv-x="1351" d="M51 1135v249h582v-512h213q205 0 329.5 -124.5t124.5 -305.5q0 -182 -125.5 -312t-328.5 -130h-514v1135h-281zM633 250h203q72 0 115.5 51t43.5 135t-43.5 135.5t-115.5 51.5h-203v-373z" />
<glyph unicode="&#x42b;" horiz-adv-x="1673" d="M143 0v1384h301v-512h193q205 0 330 -127t125 -309t-125 -309t-330 -127h-494zM444 250h183q72 0 115.5 51t43.5 135t-43.5 135.5t-115.5 51.5h-183v-373zM1229 0v1384h301v-1384h-301z" />
<glyph unicode="&#x42c;" horiz-adv-x="1163" d="M143 0v1384h301v-512h213q205 0 330 -127t125 -309t-125 -309t-330 -127h-514zM444 250h203q72 0 116 51t44 135t-44 135.5t-116 51.5h-203v-373z" />
<glyph unicode="&#x42d;" horiz-adv-x="1165" d="M92 37l58 244q160 -55 339 -56q266 0 267 350v7h-416l-23 245h439q-2 332 -267 332q-168 0 -339 -53l-58 242q197 63 400 63q254 0 409.5 -146.5t155.5 -422.5v-299q0 -276 -156 -423t-409 -147q-203 1 -400 64z" />
<glyph unicode="&#x42e;" horiz-adv-x="1783" d="M143 0v1384h301v-555h197v9q0 276 144.5 424.5t371.5 148.5q229 0 373.5 -148.5t144.5 -424.5v-293q0 -276 -144.5 -424t-373.5 -148t-372.5 148t-143.5 424v35h-197v-580h-301zM942 567q0 -184 54.5 -261t161 -77t161.5 78t55 260v250q0 338 -217 338q-106 0 -160.5 -79 t-54.5 -259v-250z" />
<glyph unicode="&#x42f;" horiz-adv-x="1177" d="M61 0l258 549q-115 51 -178 157.5t-63 235.5q0 182 126 312t328 130h502v-1384h-301v506h-115l-221 -506h-336zM381 942q0 -84 46 -135t120 -51h186v372h-186q-72 0 -119 -52t-47 -134z" />
<glyph unicode="&#x430;" horiz-adv-x="1044" d="M78 342q0 164 112.5 248t305.5 84h133v24q0 74 -35 113t-98 39q-127 0 -297 -53l-64 231q225 70 361 70q190 0 308 -110.5t118 -289.5v-356v-342h-252l-19 59q-66 -86 -205 -86q-174 0 -271 102.5t-97 266.5zM375 344q0 -49 30.5 -86t94.5 -37q59 0 94 38t35 83v127h-135 q-119 0 -119 -125z" />
<glyph unicode="&#x431;" horiz-adv-x="1134" d="M123 442v476q0 139 35 239t103.5 159.5t148 92.5t190.5 51l401 66v-240l-380 -65q-222 -39 -222 -232q94 68 228 68q174 0 291.5 -113t117.5 -321v-181q0 -215 -127 -342t-329.5 -127t-329.5 127t-127 342zM414 453q0 -231 165.5 -231.5t165.5 231.5v125 q0 231 -165.5 231t-165.5 -231v-125z" />
<glyph unicode="&#x432;" horiz-adv-x="1105" d="M123 0v698v373h452q184 0 286 -72.5t102 -218.5q0 -152 -142 -217q182 -66 183 -248q0 -160 -127 -237.5t-324 -77.5h-430zM416 231h135q63 0 99 36t36 83q0 51 -34 85t-101 34h-135v-238zM416 668h104q72 0 113 29.5t41 78.5q0 100 -144 101h-114v-209z" />
<glyph unicode="&#x433;" horiz-adv-x="798" d="M123 0v1071h657v-242h-366v-829h-291z" />
<glyph unicode="&#x434;" horiz-adv-x="1206" d="M20 -215v457h115l105 444q43 184 133 284.5t266 100.5h414v-829h114v-422l-245 -35v215h-656v-180zM438 242h322v587h-80q-104 1 -141 -163z" />
<glyph unicode="&#x435;" horiz-adv-x="1060" d="M98 436v209q0 213 124 333t313 120q184 0 311 -117t127 -297v-233h-584v-15q0 -215 189 -215q135 0 292 51l58 -235q-172 -63 -350 -64q-219 0 -349.5 121t-130.5 342zM389 655h291v29q0 72 -39 119t-106 47q-63 0 -104.5 -47t-41.5 -119v-29z" />
<glyph unicode="&#x436;" horiz-adv-x="1529" d="M23 0l270 522q-51 31 -80 83t-51 143l-84 323h284l64 -256q23 -92 76 -110l116 -33v399h293v-399l117 33q53 18 76 110l63 256h285l-84 -323q-23 -90 -51.5 -142.5t-79.5 -83.5l270 -522h-323l-201 424l-72 -18v-406h-293v406l-71 18l-201 -424h-323z" />
<glyph unicode="&#x437;" horiz-adv-x="985" d="M82 35l51 237q150 -53 279 -53q78 0 127 28.5t49 82t-29 80t-102 26.5h-154l-18 223h137q125 0 125 111q0 35 -31 58.5t-92 23.5q-113 0 -258 -55l-64 227q190 74 402 74q170 0 263 -79t93 -204q0 -88 -43 -150.5t-100 -84.5q72 -23 121 -91.5t49 -150.5 q0 -172 -115 -268.5t-319 -96.5q-80 0 -196 17.5t-175 44.5z" />
<glyph unicode="&#x438;" horiz-adv-x="1167" d="M133 0v1071h289v-403q0 -53 -10 -203l379 606h243v-1071h-289v395q0 55 11 209l-377 -604h-246z" />
<glyph unicode="&#x439;" horiz-adv-x="1167" d="M133 0v1071h289v-403q0 -53 -10 -203l379 606h243v-1071h-289v395q0 55 11 209l-377 -604h-246zM303 1487l182 20q6 -51 32 -81.5t65 -30.5q82 -1 98 112l184 -20q-2 -123 -83 -194.5t-199 -71.5q-117 0 -197 71.5t-82 194.5z" />
<glyph unicode="&#x43a;" horiz-adv-x="1064" d="M133 0v1071h293v-399l137 33q53 18 76 110l63 256h285l-84 -323q-23 -90 -51.5 -142.5t-79.5 -83.5l270 -522h-323l-201 424l-92 -18v-406h-293z" />
<glyph unicode="&#x43b;" horiz-adv-x="1099" d="M35 0l139 686q37 182 130 283.5t269 101.5h394v-1071h-293v829h-60q-106 0 -141 -163l-137 -666h-301z" />
<glyph unicode="&#x43c;" horiz-adv-x="1454" d="M72 0l108 1071h367l180 -571l182 571h367l106 -1071h-297l-55 670l-158 -490h-288l-160 492l-55 -672h-297z" />
<glyph unicode="&#x43d;" horiz-adv-x="1144" d="M133 0v1071h293v-393h293v393h293v-1071h-293v436h-293v-436h-293z" />
<glyph unicode="&#x43e;" horiz-adv-x="1110" d="M98 442v187q0 215 127 342t330 127t330 -127t127 -342v-187q0 -215 -127 -342t-330 -127t-330 127t-127 342zM389 453q0 -231 166 -231.5t166 231.5v165q0 231 -166 231.5t-166 -231.5v-165z" />
<glyph unicode="&#x43f;" horiz-adv-x="1142" d="M133 0v1071h877v-1071h-293v829h-291v-829h-293z" />
<glyph unicode="&#x440;" horiz-adv-x="1130" d="M133 -432v1503h240l30 -92q47 59 101.5 89t148.5 30q168 0 273.5 -120t105.5 -329v-225q0 -215 -124 -333t-300 -118q-96 0 -182 50v-455h-293zM426 258q92 -37 156 -37q158 0 157 213v205q0 102 -43 156.5t-112.5 54.5t-113.5 -54.5t-44 -156.5v-381z" />
<glyph unicode="&#x441;" horiz-adv-x="954" d="M98 442v187q0 238 128 353.5t345 115.5q150 0 314 -51l-62 -238q-141 41 -235 41q-98 0 -147.5 -50t-49.5 -171v-187q0 -121 49 -171t148 -50q94 0 235 41l64 -237q-174 -51 -316 -52q-217 0 -345 115.5t-128 353.5z" />
<glyph unicode="&#x442;" horiz-adv-x="907" d="M51 829v242h805v-242h-256v-829h-293v829h-256z" />
<glyph unicode="&#x443;" horiz-adv-x="1054" d="M51 1071h291l96 -665q25 -158 121 -158h49l103 823h293l-203 -1503h-287l59 432h-24q-342 0 -399 385z" />
<glyph unicode="&#x444;" horiz-adv-x="1619" d="M98 424v223q0 215 112 333t267 118q100 0 187 -49v436l292 41v-477q86 49 193 49q152 0 262.5 -118t110.5 -333v-223q0 -219 -103.5 -335t-273.5 -116q-102 0 -189 50v-455h-292v455q-86 -49 -197 -50q-168 0 -268.5 115t-100.5 336zM391 434q0 -213 137 -213 q43 0 136 37v555q-92 37 -136 37q-70 0 -103.5 -49t-33.5 -162v-205zM956 258q92 -37 136 -37q137 0 137 213v205q0 113 -34 162t-103 49q-43 0 -136 -37v-555z" />
<glyph unicode="&#x445;" horiz-adv-x="1028" d="M20 0l326 549l-299 522h322l147 -266l154 266h313l-299 -514l326 -557h-330l-166 301l-172 -301h-322z" />
<glyph unicode="&#x446;" horiz-adv-x="1163" d="M133 0v1071h293v-829h291v829h293v-829h114v-432l-245 -35v225h-746z" />
<glyph unicode="&#x447;" horiz-adv-x="1079" d="M98 645v426h285v-338q0 -135 133 -135q70 0 137 29v444h293v-1071h-293v389q-162 -29 -252 -29q-125 0 -214 78t-89 207z" />
<glyph unicode="&#x448;" horiz-adv-x="1619" d="M133 0v1071h293v-829h238v829h292v-829h238v829h293v-1071h-1354z" />
<glyph unicode="&#x449;" horiz-adv-x="1640" d="M133 0v1071h293v-829h238v829h292v-829h238v829h293v-829h115v-432l-246 -35v225h-1223z" />
<glyph unicode="&#x44a;" horiz-adv-x="1163" d="M41 846v225h494v-379h153q193 0 305.5 -83t112.5 -251q0 -172 -118 -265t-304 -93h-442v846h-201zM535 231h149q125 0 125 119q0 121 -119 121h-155v-240z" />
<glyph unicode="&#x44b;" horiz-adv-x="1515" d="M133 0v1071h293v-379h154q193 0 305 -83t112 -251q0 -172 -117.5 -265t-304.5 -93h-442zM426 231h149q125 0 125 119q0 121 -118 121h-156v-240zM1090 0v1071h292v-1071h-292z" />
<glyph unicode="&#x44c;" horiz-adv-x="1054" d="M133 0v1071h293v-379h154q193 0 305 -83t112 -251q0 -172 -117.5 -265t-304.5 -93h-442zM426 231h149q125 0 125 119q0 121 -118 121h-156v-240z" />
<glyph unicode="&#x44d;" horiz-adv-x="954" d="M68 25l63 231q141 -41 236 -41q195 0 196 223h-278l-21 238h297q-20 180 -194 180q-94 0 -236 -41l-61 232q164 51 313 51q217 0 345 -115.5t128 -353.5v-187q0 -238 -128 -353.5t-345 -115.5q-141 0 -315 52z" />
<glyph unicode="&#x44e;" horiz-adv-x="1581" d="M133 0v1071h293v-393h166q14 195 135 307.5t309 112.5q201 0 324 -126t123 -343v-187q0 -217 -123 -343t-324 -126q-199 0 -321.5 125t-124.5 338h-164v-436h-293zM881 453q0 -115 33.5 -173.5t121.5 -58.5t122 58.5t34 173.5v165q0 115 -34 173.5t-122 58.5 t-121.5 -58.5t-33.5 -173.5v-165z" />
<glyph unicode="&#x44f;" horiz-adv-x="1044" d="M57 0l199 430q-178 82 -178 293q0 170 116.5 259t305.5 89h422v-1071h-293v385h-92l-156 -385h-324zM375 721q0 -131 119 -131h135v260h-129q-63 0 -94 -37t-31 -92z" />
<glyph unicode="&#x451;" horiz-adv-x="1060" d="M98 436v209q0 213 124 333t313 120q184 0 311 -117t127 -297v-233h-584v-15q0 -215 189 -215q135 0 292 51l58 -235q-172 -63 -350 -64q-219 0 -349.5 121t-130.5 342zM203 1358q0 55 40 95t93 40q55 0 94 -40t39 -95t-39 -93t-94 -38q-53 0 -93 38t-40 93zM389 655h291 v29q0 72 -39 119t-106 47q-63 0 -104.5 -47t-41.5 -119v-29zM594 1358q0 55 39 95t92 40q55 0 94 -40t39 -95t-39 -93t-94 -38q-53 0 -92 38t-39 93z" />
<glyph unicode="&#x452;" horiz-adv-x="1136" d="M51 1202v195h82v102h293v-102h162v-195h-162v-153q90 49 182 49q176 0 291 -106.5t115 -321.5v-1084l-293 -41v1108q0 109 -35 153t-104 44q-63 0 -156 -37v-813h-293v1202h-82z" />
<glyph unicode="&#x453;" horiz-adv-x="798" d="M123 0v1071h657v-242h-366v-829h-291zM176 1346l453 196l78 -194l-457 -172z" />
<glyph unicode="&#x454;" horiz-adv-x="954" d="M98 442v187q0 238 128 353.5t345 115.5q150 0 314 -51l-62 -232q-141 41 -235 41q-174 0 -195 -180h297l-20 -238h-279q2 -223 197 -223q94 0 235 41l64 -231q-174 -51 -316 -52q-217 0 -345 115.5t-128 353.5z" />
<glyph unicode="&#x455;" horiz-adv-x="884" d="M57 39l58 233q143 -51 280 -51q55 0 92 23.5t37 58.5q0 43 -45 73t-108.5 56.5t-128 61t-109.5 107.5t-45 175q0 141 108.5 231.5t286.5 90.5q145 0 291 -51l-61 -240q-137 43 -230 43q-98 0 -98 -74q0 -41 45 -69.5t108.5 -53t127 -59.5t108.5 -108.5t45 -178.5 q0 -137 -110.5 -235.5t-313.5 -98.5q-158 0 -338 66z" />
<glyph unicode="&#x456;" horiz-adv-x="559" d="M113 1374.5q0 67.5 49 113.5t116.5 46t116.5 -46t49 -114q0 -66 -49 -114t-116.5 -48t-116.5 47.5t-49 115zM133 0v1071h293v-1071h-293z" />
<glyph unicode="&#x457;" horiz-adv-x="559" d="M-47 1358q0 55 40 95t93 40q55 0 94 -40t39 -95t-39 -93t-94 -38q-53 0 -93 38t-40 93zM133 0v1071h293v-1071h-293zM344 1358q0 55 39 95t92 40q55 0 94 -40t39 -95t-39 -93t-94 -38q-53 0 -92 38t-39 93z" />
<glyph unicode="&#x458;" horiz-adv-x="559" d="M113 1374.5q0 67.5 49 113.5t116.5 46t116.5 -46t49 -114q0 -66 -49 -114t-116.5 -48t-116.5 47.5t-49 115zM133 -455v1526h293v-1485z" />
<glyph unicode="&#x459;" horiz-adv-x="1595" d="M35 0l139 686q37 182 130 283.5t269 101.5h394v-379h153q193 0 305.5 -83t112.5 -251q0 -172 -117.5 -265t-304.5 -93h-442v829h-60q-106 0 -141 -163l-137 -666h-301zM967 231h149q125 0 125 119q0 121 -119 121h-155v-240z" />
<glyph unicode="&#x45a;" horiz-adv-x="1640" d="M133 0v1071h293v-379h293v379h293v-379h153q193 0 305.5 -83t112.5 -251q0 -172 -117.5 -265t-304.5 -93h-442v451h-293v-451h-293zM1012 231h149q125 0 125 119q0 121 -119 121h-155v-240z" />
<glyph unicode="&#x45b;" horiz-adv-x="1136" d="M51 1202v195h82v102h293v-102h162v-195h-162v-153q90 49 182 49q176 0 291 -106.5t115 -321.5v-670h-293v653q0 109 -35 153t-104 44q-63 0 -156 -37v-813h-293v1202h-82z" />
<glyph unicode="&#x45c;" horiz-adv-x="1064" d="M133 0v1071h293v-399l137 33q53 18 76 110l63 256h285l-84 -323q-23 -90 -51.5 -142.5t-79.5 -83.5l270 -522h-323l-201 424l-92 -18v-406h-293zM307 1346l453 196l78 -194l-457 -172z" />
<glyph unicode="&#x45e;" horiz-adv-x="1054" d="M51 1071h291l96 -665q25 -158 121 -158h49l103 823h293l-203 -1503h-287l59 432h-24q-342 0 -399 385zM256 1487l182 20q6 -51 32 -81.5t65 -30.5q82 -1 98 112l184 -20q-2 -123 -83 -194.5t-199 -71.5q-117 0 -197 71.5t-82 194.5z" />
<glyph unicode="&#x45f;" horiz-adv-x="1142" d="M133 0v1071h293v-829h291v829h293v-1071h-316v-190l-245 -35v225h-316z" />
<glyph unicode="&#x490;" horiz-adv-x="972" d="M143 0v1384h525v172l274 41v-469h-498v-1128h-301z" />
<glyph unicode="&#x491;" horiz-adv-x="798" d="M123 0v1071h412v162l245 35v-439h-366v-829h-291z" />
<glyph unicode="&#x1e80;" horiz-adv-x="1738" d="M72 1384h307l86 -702q10 -82 22 -307q39 211 70 305l150 481h321l154 -481q35 -111 69 -299q12 221 23 301l86 702h307l-225 -1384h-334l-197 651q-20 72 -43 195q-16 -113 -41 -195l-196 -651h-334zM602 1630l78 195l453 -197l-74 -170z" />
<glyph unicode="&#x1e81;" horiz-adv-x="1628" d="M82 1071h291l49 -682q10 -164 127 -164q57 0 89 47t32 119v610h284v-610q0 -72 32 -119t89 -47q115 0 129 164l51 682h291l-55 -702q-14 -186 -125 -291t-287 -105q-180 0 -268 142q-88 -141 -268 -142q-172 0 -284 107t-126 289zM549 1348l78 194l452 -196l-73 -170z " />
<glyph unicode="&#x1e82;" horiz-adv-x="1738" d="M72 1384h307l86 -702q10 -82 22 -307q39 211 70 305l150 481h321l154 -481q35 -111 69 -299q12 221 23 301l86 702h307l-225 -1384h-334l-197 651q-20 72 -43 195q-16 -113 -41 -195l-196 -651h-334zM602 1628l453 197l78 -195l-457 -172z" />
<glyph unicode="&#x1e83;" horiz-adv-x="1628" d="M82 1071h291l49 -682q10 -164 127 -164q57 0 89 47t32 119v610h284v-610q0 -72 32 -119t89 -47q115 0 129 164l51 682h291l-55 -702q-14 -186 -125 -291t-287 -105q-180 0 -268 142q-88 -141 -268 -142q-172 0 -284 107t-126 289zM549 1346l452 196l78 -194l-456 -172z " />
<glyph unicode="&#x1e84;" horiz-adv-x="1738" d="M72 1384h307l86 -702q10 -82 22 -307q39 211 70 305l150 481h321l154 -481q35 -111 69 -299q12 221 23 301l86 702h307l-225 -1384h-334l-197 651q-20 72 -43 195q-16 -113 -41 -195l-196 -651h-334zM541 1640.5q0 55.5 40 95.5t93 40q55 0 94 -40t39 -95.5t-39 -93.5 t-94 -38q-53 0 -93 38t-40 93.5zM932 1640.5q0 55.5 39 95.5t92 40q55 0 94 -40t39 -95.5t-39 -93.5t-94 -38q-53 0 -92 38t-39 93.5z" />
<glyph unicode="&#x1e85;" horiz-adv-x="1628" d="M82 1071h291l49 -682q10 -164 127 -164q57 0 89 47t32 119v610h284v-610q0 -72 32 -119t89 -47q115 0 129 164l51 682h291l-55 -702q-14 -186 -125 -291t-287 -105q-180 0 -268 142q-88 -141 -268 -142q-172 0 -284 107t-126 289zM485 1358q0 55 40 95t93 40 q55 0 94.5 -40t39.5 -95t-39 -93t-95 -38q-53 0 -93 38t-40 93zM877 1358q0 55 38.5 95t92.5 40q55 0 94 -40t39 -95t-39 -93t-94 -38q-53 0 -92 38t-39 93z" />
<glyph unicode="&#x1ef2;" horiz-adv-x="1185" d="M31 1384h323l238 -548l239 548h324l-412 -858v-526h-301v526zM326 1630l77 195l453 -197l-74 -170z" />
<glyph unicode="&#x1ef3;" horiz-adv-x="1044" d="M41 1071h291l96 -665q25 -158 121 -158h49l102 823h293l-202 -1503h-287l59 432h-24q-343 0 -400 385zM281 1348l77 194l453 -196l-74 -170z" />
<glyph unicode="&#x2000;" horiz-adv-x="938" />
<glyph unicode="&#x2001;" horiz-adv-x="1876" />
<glyph unicode="&#x2002;" horiz-adv-x="938" />
<glyph unicode="&#x2003;" horiz-adv-x="1876" />
<glyph unicode="&#x2004;" horiz-adv-x="625" />
<glyph unicode="&#x2005;" horiz-adv-x="469" />
<glyph unicode="&#x2006;" horiz-adv-x="312" />
<glyph unicode="&#x2007;" horiz-adv-x="312" />
<glyph unicode="&#x2008;" horiz-adv-x="234" />
<glyph unicode="&#x2009;" horiz-adv-x="375" />
<glyph unicode="&#x200a;" horiz-adv-x="104" />
<glyph unicode="&#x2010;" horiz-adv-x="1021" d="M143 432v242h736v-242h-736z" />
<glyph unicode="&#x2011;" horiz-adv-x="1021" d="M143 432v242h736v-242h-736z" />
<glyph unicode="&#x2012;" horiz-adv-x="1021" d="M143 432v242h736v-242h-736z" />
<glyph unicode="&#x2013;" horiz-adv-x="1024" d="M0 432v242h1024v-242h-1024z" />
<glyph unicode="&#x2014;" horiz-adv-x="2048" d="M0 432v242h2048v-242h-2048z" />
<glyph unicode="&#x2018;" horiz-adv-x="555" d="M137 985l148 516l188 -31l-82 -485h-254z" />
<glyph unicode="&#x2019;" horiz-adv-x="559" d="M139 1016l82 485h254l-147 -516z" />
<glyph unicode="&#x201a;" horiz-adv-x="555" d="M115 -176l82 485h254l-148 -516z" />
<glyph unicode="&#x201c;" horiz-adv-x="940" d="M121 985l147 516l189 -31l-82 -485h-254zM500 985l147 516l189 -31l-82 -485h-254z" />
<glyph unicode="&#x201d;" horiz-adv-x="940" d="M125 1016l82 485h254l-148 -516zM504 1016l82 485h254l-148 -516z" />
<glyph unicode="&#x201e;" horiz-adv-x="915" d="M115 -176l82 485h254l-148 -516zM475 -176l82 485h254l-147 -516z" />
<glyph unicode="&#x2020;" horiz-adv-x="888" d="M115 819v225h194v299h279v-299h194v-225h-194v-819h-279v819h-194z" />
<glyph unicode="&#x2021;" horiz-adv-x="888" d="M115 324v225h194v246h-194v225h194v323h279v-323h194v-225h-194v-246h194v-225h-194v-324h-279v324h-194z" />
<glyph unicode="&#x2022;" horiz-adv-x="942" d="M152 575.5q0 133.5 94 226.5t225 93t225.5 -93t94.5 -226.5t-94.5 -226.5t-225.5 -93t-225 93t-94 226.5z" />
<glyph unicode="&#x2026;" horiz-adv-x="1671" d="M111 151.5q0 71.5 51 119.5t120.5 48t120 -48t50.5 -119.5t-50.5 -123t-120 -51.5t-120.5 51.5t-51 123zM666 151.5q0 71.5 50 119.5t119.5 48t120 -48t50.5 -119.5t-50.5 -123t-120 -51.5t-119.5 51.5t-50 123zM1219 151.5q0 71.5 51 119.5t120.5 48t120 -48 t50.5 -119.5t-50.5 -123t-120 -51.5t-120.5 51.5t-51 123z" />
<glyph unicode="&#x202f;" horiz-adv-x="375" />
<glyph unicode="&#x2030;" horiz-adv-x="2627" d="M102 936v137q0 152 93.5 245t236.5 93q145 0 237.5 -93t92.5 -245v-137q0 -152 -92 -243t-238 -91q-143 0 -236.5 91t-93.5 243zM315 940q0 -152 117 -152q123 0 123 152v129q0 150 -123 150q-117 0 -117 -150v-129zM487 0l650 1384h213l-645 -1384h-218zM1079 311v135 q0 154 92.5 246t237.5 92t238.5 -92t93.5 -246v-135q0 -152 -93.5 -245t-238.5 -93t-237.5 93.5t-92.5 244.5zM1290 315q0 -150 119 -149q55 0 88 36.5t33 112.5v127q0 76 -33 115t-88 39q-53 0 -86 -39t-33 -115v-127zM1864 311v135q0 154 92 246t237.5 92t238.5 -92 t93 -246v-135q0 -152 -93 -245t-238.5 -93t-237.5 93.5t-92 244.5zM2075 315q0 -150 118 -149q55 0 88 36.5t33 112.5v127q0 76 -32.5 115t-88.5 39q-53 0 -85.5 -39t-32.5 -115v-127z" />
<glyph unicode="&#x2039;" horiz-adv-x="702" d="M100 575l308 414l194 -143l-196 -268l196 -273l-194 -143z" />
<glyph unicode="&#x203a;" horiz-adv-x="702" d="M100 305l197 268l-197 273l195 143l307 -414l-307 -413z" />
<glyph unicode="&#x205f;" horiz-adv-x="469" />
<glyph unicode="&#x20ac;" horiz-adv-x="1114" d="M76 467v147h135v156h-135v148h135q6 225 156.5 359t371.5 134q160 0 332 -45l-53 -248q-162 39 -277 39q-100 0 -162.5 -64.5t-68.5 -174.5h375l-29 -148h-346v-156h313l-28 -147h-285q6 -113 67.5 -176.5t163.5 -63.5q115 0 277 39l53 -248q-172 -45 -332 -45 q-221 0 -371.5 133.5t-156.5 360.5h-135z" />
<glyph unicode="&#x2116;" horiz-adv-x="2004" d="M143 0v1384h244l475 -790q-6 117 -6 211v579h301v-1384h-246l-475 786q8 -106 8 -217v-569h-301zM1325 756v121q0 133 81 215t208 82t208 -82t81 -215v-121q0 -133 -81 -213t-208 -80t-208 80t-81 213zM1368 219v178h494v-178h-494zM1511 760q0 -133 103 -133 q108 0 108 133v112q0 131 -108 132q-102 0 -103 -132v-112z" />
<glyph unicode="&#x2122;" horiz-adv-x="1589" d="M143 1217v167h531l-15 -167h-155v-457h-193v457h-168zM700 760l84 624h187l102 -305l103 305h186l84 -624h-195l-26 260l-68 -182h-168l-67 182l-27 -260h-195z" />
<glyph unicode="&#x2206;" horiz-adv-x="1591" d="M49 0l600 1438h295l598 -1438h-1493zM442 242h707l-352 854z" />
<glyph unicode="&#x220f;" horiz-adv-x="1617" d="M111 1143v241h1402v-241h-167v-1411h-279v1411h-512v-1411h-281v1411h-163z" />
<glyph unicode="&#x2211;" horiz-adv-x="1409" d="M174 -35l539 598l-539 596v225h1098v-241h-717l524 -580l-522 -579h715v-242h-1098v223z" />
<glyph unicode="&#x221a;" horiz-adv-x="1310" d="M10 1071h475l105 -405q61 -248 80 -334q74 305 82 334l243 833h305l-469 -1499h-323l-270 877h-185z" />
<glyph unicode="&#x222b;" horiz-adv-x="845" d="M-12 -408l55 242q86 -31 145 -31q97 0 97 115v1256q0 162 105.5 252t250.5 90q90 0 217 -41l-53 -242q-96 31 -148 31q-96 0 -96 -115v-1255q0 -162 -104.5 -252.5t-249.5 -90.5q-90 0 -219 41z" />
<glyph unicode="&#x2248;" horiz-adv-x="1249" d="M145 326q70 104 143.5 165.5t174.5 61.5q68 0 130 -40t112.5 -80t85.5 -40q69 0 139 109l174 -158q-70 -104 -143.5 -165.5t-169.5 -61.5q-72 0 -135.5 40t-112.5 79.5t-84 39.5q-74 0 -140 -108zM145 817q70 104 143.5 165.5t174.5 61.5q68 0 130 -39.5t112.5 -79.5 t85.5 -40q69 -1 139 108l174 -157q-70 -104 -143.5 -166t-169.5 -62q-72 0 -135.5 40t-112.5 80t-84 40q-74 0 -140 -109z" />
<glyph unicode="&#x2260;" horiz-adv-x="1169" d="M111 244v241h317l61 172h-378v244h469l104 289l223 -78l-78 -211h230v-244h-318l-61 -172h379v-241h-467l-107 -293l-223 80l78 213h-229z" />
<glyph unicode="&#x2264;" horiz-adv-x="1091" d="M111 -10h839v-240h-839v240zM111 459v190l747 428l123 -241l-524 -281l524 -281l-123 -241z" />
<glyph unicode="&#x2265;" horiz-adv-x="1091" d="M111 274l524 281l-524 281l122 241l748 -428v-190l-748 -426zM141 -10h840v-240h-840v240z" />
<glyph unicode="&#x25ca;" horiz-adv-x="1390" d="M49 684l639 696l637 -698l-637 -696zM438 686l250 -276l250 272l-250 274z" />
<glyph unicode="&#x25fc;" horiz-adv-x="1075" d="M0 0v1075h1075v-1075h-1075z" />
<glyph unicode="&#xe001;" horiz-adv-x="798" d="M123 0v664q0 188 114.5 297.5t288.5 109.5h254v-242h-219q-74 0 -110.5 -44t-36.5 -107v-678h-291z" />
<glyph unicode="&#xe002;" horiz-adv-x="1134" d="M98 422v190q0 215 128 333t304 118q125 0 205 -45v33q0 131 -54 180t-167 49q-111 0 -260 -45l-53 217q215 63 334 64q217 0 347 -116t130 -353v-625q0 -205 -133.5 -327t-323.5 -122t-323.5 122t-133.5 327zM389 432q0 -102 47 -156.5t119 -54.5t119 54.5t47 156.5v350 q-78 33 -164 33q-74 0 -121 -51t-47 -162v-170z" />
<glyph unicode="&#xe003;" horiz-adv-x="1792" d="M31 0l444 735l-418 649h351l337 -563v563h302v-563l337 563h351l-418 -649l444 -735h-354l-360 604v-604h-302v604l-360 -604h-354z" />
<glyph unicode="&#xe004;" horiz-adv-x="1251" d="M143 0v1384h301v-563l400 563h350l-479 -649l506 -735h-355l-422 604v-604h-301z" />
<glyph unicode="&#xf8ff;" horiz-adv-x="0" />
<glyph horiz-adv-x="858" d="M150 1487l182 20q6 -51 31.5 -81.5t64.5 -30.5q82 -1 98 112l185 -20q-2 -123 -83 -194.5t-200 -71.5q-117 0 -196.5 71.5t-81.5 194.5z" />
<glyph horiz-adv-x="1075" d="M53 -168l58 242q213 -63 348 -64q98 0 166.5 61.5t68.5 174.5q0 199 -262 198h-299l25 730h792l-43 -240h-491l-13 -254h56q244 0 388 -109.5t144 -322.5q0 -156 -81 -270.5t-196.5 -165t-244.5 -50.5q-191 0 -416 70z" />
<glyph horiz-adv-x="976" d="M57 35l58 239q197 -55 307 -55q76 0 127 46t51 126q0 143 -207 144h-266l23 641h712l-37 -236h-422l-10 -174h25q217 0 348 -93t131 -280q0 -201 -140.5 -310.5t-322.5 -109.5q-168 1 -377 62z" />
<glyph d="M129 -168l57 242q213 -63 349 -64q98 0 166.5 61.5t68.5 174.5q0 199 -262 198h-299l24 730h793l-43 -240h-491l-13 -254h56q244 0 388 -109.5t144 -322.5q0 -156 -81 -270.5t-196.5 -165t-244.5 -50.5q-191 0 -416 70z" />
<glyph horiz-adv-x="1046" d="M92 35l58 239q197 -55 307 -55q76 0 127 46t51 126q0 143 -207 144h-266l22 641h713l-37 -236h-422l-10 -174h25q217 0 348 -93t131 -280q0 -201 -140.5 -310.5t-322.5 -109.5q-168 1 -377 62z" />
<glyph horiz-adv-x="1159" d="M86 287l268 887h271l-256 -873h260v424l278 47v-471h191v-240h-191v-270l-278 -20v290h-508z" />
<glyph d="M92 498l268 886h271l-256 -872h260v424l278 47v-471h191v-240h-191v-270l-278 -20v290h-508z" />
<glyph d="M92 287l268 887h271l-256 -873h260v424l278 47v-471h191v-240h-191v-270l-278 -20v290h-508z" />
<glyph horiz-adv-x="1046" d="M70 436l229 740h268l-217 -725h187v350l276 47v-397h162v-236h-162v-213l-276 -18v231h-433z" />
<glyph horiz-adv-x="1073" d="M37 1176h319l181 -435l180 435h319l-352 -730v-446h-293v446zM229 1456l308 174l309 -174l-109 -166l-198 125l-201 -125z" />
<glyph horiz-adv-x="1009" d="M74 0v127q0 111 39 202t98 146t128 106.5t128 85t98 77.5t39 90q0 53 -36 85.5t-105 32.5q-135 0 -283 -82l-100 215q188 115 391 115q184 0 307 -101.5t123 -264.5q0 -90 -51 -171t-125 -138.5t-146.5 -105.5t-124 -94t-51.5 -85h512l-20 -240h-821z" />
<glyph horiz-adv-x="1169" d="M133 0v1096q283 106 465 106q199 0 333 -122t134 -332v-306q0 -215 -124 -328.5t-343 -113.5h-465zM246 1462l108 166l199 -125l201 125l108 -166l-307 -174zM426 248h172q96 0 135 47t39 170v258q0 231 -174 231q-92 0 -172 -26v-680z" />
<glyph horiz-adv-x="1169" d="M20 487v185h113v424q283 106 465 106q199 0 333 -122t134 -332v-306q0 -215 -124 -328.5t-343 -113.5h-465v487h-113zM426 248h172q96 0 135 47t39 170v258q0 231 -174 231q-92 0 -172 -26v-256h178v-185h-178v-239z" />
<glyph horiz-adv-x="1134" d="M104 465v246q0 240 138.5 365.5t361.5 125.5q154 0 393 -74l-63 -233q-197 59 -328 59q-104 0 -156.5 -60t-52.5 -206v-192q0 -150 52.5 -212.5t156.5 -62.5q87 0 150 12v226h-119v200h391v-610q-227 -76 -424 -76q-223 0 -361.5 126t-138.5 366zM301 1610h182 q2 -51 30 -87t67 -36q43 0 70.5 35t27.5 88h184q-2 -125 -85 -211t-197.5 -86t-195.5 86t-83 211z" />
<glyph horiz-adv-x="1134" d="M104 465v246q0 240 138.5 365.5t361.5 125.5q154 0 393 -74l-63 -233q-197 59 -328 59q-104 0 -156.5 -60t-52.5 -206v-192q0 -150 52.5 -212.5t156.5 -62.5q87 0 150 12v226h-119v200h391v-610q-227 -76 -424 -76q-223 0 -361.5 126t-138.5 366zM268 1456l307 174 l310 -174l-109 -166l-198 125l-201 -125z" />
<glyph horiz-adv-x="1134" d="M104 465v246q0 240 138.5 365.5t361.5 125.5q154 0 393 -74l-63 -233q-197 59 -328 59q-104 0 -156.5 -60t-52.5 -206v-192q0 -150 52.5 -212.5t156.5 -62.5q87 0 150 12v226h-119v200h391v-610q-227 -76 -424 -76q-223 0 -361.5 126t-138.5 366zM434 -459l53 332h252 l-114 -332h-191z" />
<glyph horiz-adv-x="833" d="M154 1450l77 195l453 -197l-74 -170z" />
<glyph horiz-adv-x="1179" d="M133 0v1176h293v-459h328v459h293v-1176h-293v479h-328v-479h-293z" />
<glyph horiz-adv-x="1179" d="M61 815v184h72v177h293v-177h328v177h293v-177h67v-184h-67v-815h-293v479h-328v-479h-293v815h-72zM426 717h328v98h-328v-98z" />
<glyph horiz-adv-x="1263" d="M160 1434l344 225l112 -182l-354 -209zM647 1434l344 225l113 -182l-356 -209z" />
<glyph horiz-adv-x="559" d="M133 0v1176h293v-1176h-293z" />
<glyph horiz-adv-x="559" d="M14 1448l453 197l78 -195l-457 -172zM133 0v1176h293v-1176h-293z" />
<glyph horiz-adv-x="1169" d="M102 446v443q0 223 135.5 372.5t376.5 149.5q154 0 347 -61l-64 -240q-154 53 -283 53q-94 0 -156.5 -66.5t-62.5 -172.5v-47q104 82 238 81q203 0 326.5 -132t123.5 -363q0 -227 -142 -358.5t-349 -131.5q-205 0 -347.5 128t-142.5 345zM393 444q0 -94 52.5 -158.5 t144.5 -64.5q94 0 145 68.5t51 173.5q0 274 -196 274q-113 0 -197 -82v-211z" />
<glyph horiz-adv-x="962" d="M51 53l55 240q190 -70 351 -70q61 0 94 31t33 80t-51.5 83t-124 59.5t-146.5 61t-125 107.5t-51 178q0 117 77 207t224 119v207h195v-199q102 -12 272 -72l-76 -229q-156 61 -262 62q-80 0 -108.5 -23t-28.5 -68t51 -75.5t124 -55t146.5 -59.5t125 -111.5t51.5 -189.5 q0 -125 -76 -218t-226 -126v-207h-194v192q-154 10 -330 76z" />
<glyph horiz-adv-x="559" d="M-29 1456l308 174l309 -174l-109 -166l-198 125l-201 -125zM133 0v1176h293v-1176h-293z" />
<glyph horiz-adv-x="559" d="M-49 1460.5q0 55.5 40 95t93 39.5q55 0 94 -39.5t39 -95t-39 -93.5t-94 -38q-53 0 -93 38t-40 93.5zM133 0v1176h293v-1176h-293zM342 1460.5q0 55.5 39 95t92 39.5q55 0 94 -39.5t39 -95t-39 -93.5t-94 -38q-53 0 -92 38t-39 93.5z" />
<glyph horiz-adv-x="559" d="M14 1450l78 195l453 -197l-74 -170zM133 0v1176h293v-1176h-293z" />
<glyph horiz-adv-x="1425" d="M133 0v1176h293v-1176h-293zM561 43l70 229q150 -49 254 -49q133 1 133 191v762l293 -13v-755q0 -199 -107.5 -315t-310.5 -116q-139 0 -332 66z" />
<glyph horiz-adv-x="559" d="M18 1368v184h521v-184h-521zM133 0v1176h293v-1176h-293z" />
<glyph horiz-adv-x="899" d="M35 39l69 231q150 -49 254 -49q134 1 134 191v764l292 -13v-757q0 -201 -107.5 -317t-309.5 -116q-135 0 -332 66z" />
<glyph horiz-adv-x="899" d="M35 39l69 231q150 -49 254 -49q134 1 134 191v764l292 -13v-757q0 -201 -107.5 -317t-309.5 -116q-135 0 -332 66zM324 1456l307 174l309 -174l-109 -166l-198 125l-201 -125z" />
<glyph horiz-adv-x="1130" d="M133 0v1176h293v-377l272 377h344l-387 -508l441 -668h-348l-269 428l-53 -63v-365h-293z" />
<glyph horiz-adv-x="948" d="M133 0v1176h293v-928h469l-10 -248h-752z" />
<glyph horiz-adv-x="948" d="M18 1448l453 197l78 -195l-457 -172zM133 0v1176h293v-928h469l-10 -248h-752z" />
<glyph horiz-adv-x="948" d="M133 0v1176h293v-928h469l-10 -248h-752zM604 805v371l242 26l-60 -397h-182z" />
<glyph horiz-adv-x="987" d="M133 0v1176h739v-248h-446v-217h373l-11 -236h-362v-227h463v-248q-68 -47 -112 -107.5t-44 -111.5q0 -55 60 -55q36 0 67 12l29 -174q-53 -23 -131 -23q-121 0 -181.5 56.5t-60.5 152.5q0 143 143 250h-526z" />
<glyph horiz-adv-x="948" d="M133 0v1176h293v-928h469l-10 -248h-752zM580 575.5q0 61.5 43 104.5t102 43q61 0 104 -43t43 -104.5t-43 -102.5t-104 -41q-59 0 -102 41t-43 102.5z" />
<glyph horiz-adv-x="948" d="M20 567l113 39v570h293v-465l113 41l55 -144l-168 -59v-301h469l-10 -248h-752v444l-59 -20z" />
<glyph horiz-adv-x="1515" d="M72 0l123 1176h329l191 -539q14 -41 43 -152q14 74 41 152l190 539h330l125 -1176h-289l-41 530q-2 37 -5 125t-5 119q-29 -127 -70 -242l-125 -344h-305l-125 344q-39 113 -69 244q-2 -129 -11 -246l-39 -530h-288z" />
<glyph horiz-adv-x="837" d="M160 1368v184h520v-184h-520z" />
<glyph horiz-adv-x="1167" d="M133 0v1176h238l377 -598q-6 102 -7 182v416h293v-1176h-237l-379 598q8 -92 8 -188v-410h-293z" />
<glyph horiz-adv-x="987" d="M133 0v1176h739v-248h-446v-217h373l-11 -236h-362v-227h463v-248h-756zM236 1448l452 197l78 -195l-457 -172z" />
<glyph horiz-adv-x="1556" d="M74 1176h297l57 -525q12 -109 18 -284q31 166 68 282l107 334h307l110 -334q43 -129 70 -276q14 250 18 278l58 525h299l-193 -1176h-321l-154 508q-25 80 -39 168q-12 -96 -35 -168l-157 -508h-320z" />
<glyph horiz-adv-x="1167" d="M133 0v1176h238l377 -598q-6 102 -7 182v416h293v-1176h-237l-379 598q8 -92 8 -188v-410h-293zM426 -459l53 332h252l-115 -332h-190z" />
<glyph horiz-adv-x="1175" d="M92 711q0 227 142.5 358t351.5 131q205 0 346 -128t141 -345v-442q0 -223 -135 -373t-375 -150q-154 0 -348 62l66 239q154 -53 282 -53q94 0 155.5 67t61.5 173v47q-104 -82 -237 -82q-201 0 -326 132t-125 364zM389 711q0 -274 199 -275q106 0 194 82v211 q0 94 -51 158.5t-143 64.5q-94 0 -146.5 -68.5t-52.5 -172.5z" />
<glyph horiz-adv-x="1056" d="M80 778.5q0 196.5 128 310t314 113.5q182 0 309 -111.5t127 -299.5v-367q0 -190 -120.5 -320.5t-333.5 -130.5q-135 0 -318 56l68 237q131 -47 250 -47q66 0 114 45t48 121v39q-80 -70 -191 -70q-178 0 -286.5 114t-108.5 310.5zM375 778q0 -209 149 -209q83 0 144 70 v154q0 72 -38 118.5t-106 46.5q-72 0 -110.5 -51t-38.5 -129z" />
<glyph horiz-adv-x="1073" d="M37 1176h319l181 -435l180 435h319l-352 -730v-446h-293v446z" />
<glyph d="M106 922q0 227 142.5 358t351.5 131q205 0 346 -128t141 -345v-442q0 -223 -135 -373t-374 -150q-156 0 -349 62l66 239q154 -53 283 -53q94 0 155.5 67t61.5 173v47q-104 -82 -238 -82q-201 0 -326 132t-125 364zM403 922q0 -274 199 -275q107 0 195 82v211 q0 94 -51.5 158.5t-143.5 64.5q-94 0 -146.5 -68.5t-52.5 -172.5z" />
<glyph d="M106 711q0 227 142.5 358t351.5 131q205 0 346 -128t141 -345v-442q0 -223 -135 -373t-374 -150q-156 0 -349 62l66 239q154 -53 283 -53q94 0 155.5 67t61.5 173v47q-104 -82 -238 -82q-201 0 -326 132t-125 364zM403 711q0 -274 199 -275q107 0 195 82v211 q0 94 -51.5 158.5t-143.5 64.5q-94 0 -146.5 -68.5t-52.5 -172.5z" />
<glyph horiz-adv-x="1046" d="M82 778.5q0 196.5 128 310t314 113.5q182 0 309.5 -111.5t127.5 -299.5v-367q0 -190 -121 -320.5t-334 -130.5q-137 0 -318 56l68 237q131 -47 250 -47q66 0 114 45t48 121v39q-80 -70 -191 -70q-178 0 -286.5 114t-108.5 310.5zM377 778q0 -209 149 -209q83 0 144 70 v154q0 72 -38 118.5t-106 46.5q-72 0 -110.5 -51t-38.5 -129z" />
<glyph horiz-adv-x="1050" d="M86 436l229 740h269l-217 -725h186v350l276 47v-397h162v-236h-162v-213l-276 -18v231h-432z" />
<glyph horiz-adv-x="1138" d="M45 0l354 1176h340l355 -1176h-299l-74 270h-305l-72 -270h-299zM305 1450l78 195l453 -197l-74 -170zM479 504h180l-45 168q-25 92 -45 223q-29 -164 -45 -223z" />
<glyph horiz-adv-x="1206" d="M72 371v252h170l20 208h-143v252h170l37 369h254l-37 -369h192l37 369h254l-37 -369h144v-252h-170l-21 -208h141v-252h-168l-36 -371h-254l37 371h-193l-37 -371h-254l37 371h-143zM496 623h192l21 208h-193z" />
<glyph horiz-adv-x="987" d="M133 0v1176h739v-248h-446v-217h373l-11 -236h-362v-227h463v-248h-756zM172 1460.5q0 55.5 40 95t93 39.5q55 0 94 -39.5t39 -95t-39 -93.5t-94 -38q-53 0 -93 38t-40 93.5zM563 1460.5q0 55.5 39 95t92 39.5q55 0 94 -39.5t39 -95t-38.5 -93.5t-94.5 -38q-53 0 -92 38 t-39 93.5z" />
<glyph d="M41 1384h301l256 -596l256 596h301l-340 -725h176v-165h-243v-142h243v-164h-243v-188h-297v188h-244v164h244v142h-244v165h176z" />
<glyph d="M68 371v252h170l20 208h-143v252h170l37 369h253l-36 -369h192l37 369h254l-37 -369h143v-252h-170l-20 -208h141v-252h-168l-37 -371h-253l36 371h-192l-37 -371h-254l37 371h-143zM492 623h192l21 208h-193z" />
<glyph d="M68 371v252h170l20 208h-143v252h170l37 369h253l-36 -369h192l37 369h254l-37 -369h143v-252h-170l-20 -208h141v-252h-168l-37 -371h-253l36 371h-192l-37 -371h-254l37 371h-143zM492 623h192l21 208h-193z" />
<glyph horiz-adv-x="1138" d="M45 0l354 1176h340l355 -1176h-299l-74 270h-305l-72 -270h-299zM309 1368v184h520v-184h-520zM479 504h180l-45 168q-25 92 -45 223q-29 -164 -45 -223z" />
<glyph horiz-adv-x="1134" d="M104 465v246q0 240 138.5 365.5t361.5 125.5q154 0 393 -74l-63 -233q-197 59 -328 59q-104 0 -156.5 -60t-52.5 -206v-192q0 -150 52.5 -212.5t156.5 -62.5q87 0 150 12v226h-119v200h391v-610q-227 -76 -424 -76q-223 0 -361.5 126t-138.5 366zM438 1460.5 q0 55.5 39 95t92 39.5q55 0 94 -39.5t39 -95t-38.5 -93.5t-94.5 -38q-53 0 -92 38t-39 93.5z" />
<glyph horiz-adv-x="1179" d="M104 467v242q0 236 137.5 364.5t346.5 128.5q213 0 350 -128.5t137 -364.5v-242q0 -238 -137 -366t-350 -128q-211 0 -347.5 128t-136.5 366zM397 489q0 -150 48.5 -209t142.5 -59q92 0 143 60.5t51 207.5v199q0 266 -194 266q-190 0 -191 -266v-199z" />
<glyph horiz-adv-x="1034" d="M86 344q0 166 131 258q-113 86 -113 244t116 257t300 99q123 0 289 -67l-84 -222q-115 47 -199 48q-72 0 -103.5 -33t-31.5 -82q0 -51 29 -92t90 -41h78v-211h-84q-63 0 -97 -44t-34 -114q0 -55 36.5 -92t100.5 -37q150 0 149 129v369h334v-211h-78v-158 q0 -160 -110.5 -265.5t-294.5 -105.5q-188 0 -306 106.5t-118 264.5z" />
<glyph horiz-adv-x="1179" d="M104 467v242q0 236 137.5 364.5t346.5 128.5q213 0 350 -128.5t137 -364.5v-242q0 -238 -137 -366t-350 -128q-211 0 -347.5 128t-136.5 366zM285 1448l452 197l78 -195l-457 -172zM397 489q0 -150 48.5 -209t142.5 -59q92 0 143 60.5t51 207.5v199q0 266 -194 266 q-190 0 -191 -266v-199z" />
<glyph horiz-adv-x="1046" d="M84 0v186l469 756h-459v234h826v-189l-471 -749h514l-27 -238h-852zM252 1448l453 197l77 -195l-456 -172z" />
<glyph horiz-adv-x="1179" d="M104 467v242q0 236 137.5 364.5t346.5 128.5q213 0 350 -128.5t137 -364.5v-242q0 -238 -137 -366t-350 -128q-211 0 -347.5 128t-136.5 366zM309 1610h183q2 -51 29.5 -87t66.5 -36q43 0 70.5 35t27.5 88h184q-2 -125 -85 -211t-197.5 -86t-195.5 86t-83 211zM397 489 q0 -150 48.5 -209t142.5 -59q92 0 143 60.5t51 207.5v199q0 266 -194 266q-190 0 -191 -266v-199z" />
<glyph horiz-adv-x="1138" d="M45 0l354 1176h340l355 -1176q-68 -47 -112 -107.5t-44 -111.5q0 -55 59 -55q37 0 68 12l29 -174q-53 -23 -131 -23q-121 0 -181.5 56.5t-60.5 152.5q0 143 143 250h-69l-74 270h-305l-72 -270h-299zM479 504h180l-45 168q-25 92 -45 223q-29 -164 -45 -223z" />
<glyph horiz-adv-x="1179" d="M104 467v242q0 236 137.5 364.5t346.5 128.5q213 0 350 -128.5t137 -364.5v-242q0 -238 -137 -366t-350 -128q-211 0 -347.5 128t-136.5 366zM283 1456l307 174l309 -174l-108 -166l-199 125l-201 -125zM397 489q0 -150 48.5 -209t142.5 -59q92 0 143 60.5t51 207.5v199 q0 266 -194 266q-190 0 -191 -266v-199z" />
<glyph horiz-adv-x="1179" d="M133 0v1176h293v-459h328v459h293v-1176h-293v479h-328v-479h-293zM283 1456l307 174l309 -174l-108 -166l-199 125l-201 -125z" />
<glyph horiz-adv-x="1642" d="M104 467v242q0 236 137.5 364.5t346.5 128.5q86 0 176 -26h764v-248h-488q35 -86 35 -183v-34h379l-10 -236h-369v-29q0 -104 -37 -198h506v-248h-782q-86 -27 -174 -27q-211 0 -347.5 128t-136.5 366zM397 489q0 -150 48.5 -209t142.5 -59q92 0 143 60.5t51 207.5v199 q0 266 -194 266q-190 0 -191 -266v-199z" />
<glyph horiz-adv-x="1189" d="M94 377q0 205 221 330q-180 123 -180 319q0 158 126 271.5t333 113.5q180 0 321.5 -107.5t141 -277.5t-188.5 -289q227 -135 228 -362q0 -182 -159 -292t-343 -110q-193 0 -346.5 108.5t-153.5 295.5zM391 377q0 -66 59.5 -111t143.5 -45t144.5 46t60.5 110 q0 68 -58.5 112t-179.5 95q-170 -92 -170 -207zM432 1030q0 -55 47.5 -95t141.5 -81q139 76 139 176q0 61 -47 97t-119 36t-117 -35.5t-45 -97.5z" />
<glyph horiz-adv-x="647" d="M135 -250q0 143 144 250h229q-68 -47 -112 -107.5t-44 -111.5q0 -55 60 -55q36 0 67 12l29 -174q-53 -23 -131 -23q-121 0 -181.5 56.5t-60.5 152.5z" />
<glyph d="M102 502v170q0 248 140.5 388t355.5 140q213 0 354.5 -141t141.5 -387v-170q0 -248 -140.5 -388.5t-355.5 -140.5q-213 0 -354.5 140.5t-141.5 388.5zM399 502q0 -281 199 -281q94 0 146.5 71t52.5 210v170q0 139 -52.5 209.5t-146.5 70.5q-199 0 -199 -280v-170z" />
<glyph d="M94 377q0 205 221 330q-180 123 -180 319q0 158 126 271.5t333 113.5q180 0 321.5 -107.5t141 -277.5t-188.5 -289q227 -135 228 -362q0 -182 -159 -292t-343 -110q-193 0 -346.5 108.5t-153.5 295.5zM391 377q0 -66 59.5 -111t143.5 -45t144.5 46t60.5 110 q0 68 -58.5 112t-179.5 95q-170 -92 -170 -207zM432 1030q0 -55 47.5 -95t141.5 -81q139 76 139 176q0 61 -47 97t-119 36t-117 -35.5t-45 -97.5z" />
<glyph horiz-adv-x="1107" d="M98 463v252q0 238 127 362.5t328 124.5t329 -124.5t128 -362.5v-252q0 -240 -129 -365t-328 -125t-327 125t-128 365zM389 463q0 -244 164 -244q166 0 166 244v252q0 242 -166 241q-164 0 -164 -241v-252z" />
<glyph horiz-adv-x="1138" d="M45 0l354 1176h340l355 -1176h-299l-74 270h-305l-72 -270h-299zM360 1489q0 84 61.5 145.5t149.5 61.5q84 0 145.5 -61.5t61.5 -145.5q0 -86 -61.5 -148.5t-145.5 -62.5q-88 0 -149.5 62.5t-61.5 148.5zM479 504h180l-45 168q-25 92 -45 223q-29 -164 -45 -223z M508 1489q0 -27 18.5 -45.5t45 -18.5t44 18.5t17.5 45.5t-17.5 44t-44 17t-45 -17t-18.5 -44z" />
<glyph horiz-adv-x="559" d="M53 -250q0 143 144 250h-64v1176h293v-1176q-68 -47 -112 -107.5t-44 -111.5q0 -55 60 -55q36 0 67 12l29 -174q-53 -23 -131 -23q-121 0 -181.5 56.5t-60.5 152.5z" />
<glyph horiz-adv-x="1179" d="M104 467v242q0 236 137.5 364.5t346.5 128.5q213 0 350 -128.5t137 -364.5v-242q0 -238 -137 -366t-350 -128q-211 0 -347.5 128t-136.5 366zM330 1368v184h520v-184h-520zM397 489q0 -150 48.5 -209t142.5 -59q92 0 143 60.5t51 207.5v199q0 266 -194 266 q-190 0 -191 -266v-199z" />
<glyph horiz-adv-x="825" d="M88 872v242l588 86v-1200h-291v911z" />
<glyph horiz-adv-x="768" d="M82 877v249l551 74v-1200h-291v915z" />
<glyph horiz-adv-x="1046" d="M76 328q0 164 178 268q-143 109 -143 266q0 137 113.5 238.5t297.5 101.5q158 0 286 -94t128 -246q0 -141 -160 -239q195 -117 195 -297q0 -164 -139.5 -258.5t-309.5 -94.5q-180 0 -313 93.5t-133 261.5zM371 328q0 -49 43 -79t108.5 -30t109.5 30t44 79 q0 45 -47.5 77.5t-141.5 71.5q-117 -66 -116 -149zM406 866q0 -70 133 -133q102 57 102 133q0 41 -34 65.5t-85 24.5t-83.5 -25.5t-32.5 -64.5z" />
<glyph d="M299 1075v250l598 86v-1411h-291v1122z" />
<glyph horiz-adv-x="448" />
<glyph d="M303 864v250l588 86v-1200h-291v911z" />
<glyph horiz-adv-x="1619" d="M100 336q0 215 92.5 396t274.5 296t422 115q279 0 447.5 -178.5t168.5 -470.5q0 -70 -4 -123h-364l-11 -90q-14 -123 -116.5 -202t-241.5 -79q-131 0 -212 68.5t-81 183.5q0 133 98.5 201.5t255.5 68.5h91l4 25q12 84 -80 84q-109 0 -234 -43l-30 188q162 55 286 55 q135 0 223.5 -72.5t71.5 -197.5l-4 -39h148q0 203 -124 317.5t-327 114.5q-242 0 -398.5 -166.5t-156.5 -431.5q0 -223 129 -352t348 -129q191 0 408 131l80 -166q-221 -154 -502 -153q-299 0 -480.5 187t-181.5 462zM713 276q0 -74 80 -73q88 0 98 86l8 82h-92 q-94 0 -94 -95z" />
<glyph horiz-adv-x="1046" d="M248 877v249l551 74v-1200h-291v915z" />
<glyph horiz-adv-x="948" d="M133 0v1176h293v-928h469l-10 -248h-752zM336 -459l53 332h252l-115 -332h-190z" />
<glyph horiz-adv-x="1179" d="M104 467v242q0 236 137.5 364.5t346.5 128.5q100 0 190 -31l62 125l157 -75l-69 -140q147 -133 147 -372v-242q0 -238 -137 -366t-350 -128q-104 0 -193 31l-61 -125l-156 76l70 139q-143 133 -144 373zM397 489q0 -56 4 -81l263 532q-31 14 -76 14q-190 0 -191 -266 v-199zM508 233q29 -12 80 -12q92 0 143 60.5t51 207.5v199q0 45 -6 86z" />
<glyph horiz-adv-x="1179" d="M104 467v242q0 236 137.5 364.5t346.5 128.5q213 0 350 -128.5t137 -364.5v-242q0 -238 -137 -366t-350 -128q-211 0 -347.5 128t-136.5 366zM272 1473q25 55 77 94t128 39q51 0 121 -46.5t104 -46.5q58 1 97 60l108 -127q-25 -55 -77 -94t-128 -39q-51 0 -120.5 46 t-104.5 46q-57 0 -96 -59zM397 489q0 -150 48.5 -209t142.5 -59q92 0 143 60.5t51 207.5v199q0 266 -194 266q-190 0 -191 -266v-199z" />
<glyph horiz-adv-x="534" d="M104 139q0 70 48.5 115t113.5 45q68 0 116 -46t48 -113.5t-48 -116t-116 -48.5q-66 0 -114 48.5t-48 115.5zM123 1159l289 35l-13 -819h-264z" />
<glyph horiz-adv-x="1030" d="M133 0v1176h438q182 0 294 -113t112 -270q0 -156 -111.5 -266.5t-294.5 -110.5h-145v-416h-293zM426 655h135q53 0 86 38t33 99.5t-33 99.5t-86 38h-135v-275z" />
<glyph horiz-adv-x="1179" d="M104 467v242q0 236 137.5 364.5t346.5 128.5q213 0 350 -129t137 -364v-242q0 -319 -246 -440l97 -250l-213 -119q-121 315 -125 315q-211 0 -347.5 128t-136.5 366zM397 489q0 -150 48.5 -209t142.5 -59q92 0 143 60.5t51 207.5v199q0 266 -194 266q-190 0 -191 -266 v-199z" />
<glyph horiz-adv-x="858" d="M150 1610h182q2 -51 29.5 -87t66.5 -36q43 0 70.5 35t27.5 88h185q-2 -125 -85 -211t-198 -86t-195.5 86t-82.5 211z" />
<glyph horiz-adv-x="1167" d="M133 0v1176h238l377 -598q-6 102 -7 182v416h293v-1176h-237l-379 598q8 -92 8 -188v-410h-293zM319 1448l453 197l78 -195l-457 -172z" />
<glyph horiz-adv-x="1167" d="M133 0v1176h238l377 -598q-6 102 -7 182v416h293v-1176h-237l-379 598q8 -92 8 -188v-410h-293zM276 1462l109 166l199 -125l200 125l109 -166l-307 -174z" />
<glyph horiz-adv-x="835" d="M74 94q0 78 53 154t106.5 137t53.5 104v103l266 -35v-63q0 -63 -33 -125t-71.5 -100t-71.5 -81t-33 -77q0 -41 26.5 -67t69.5 -26q84 0 197 78l115 -188q-154 -119 -316 -119q-150 0 -256 86t-106 219zM258 852q0 66 48 114t114 48q68 0 116 -47t48 -115 q0 -70 -49.5 -115t-115 -45t-113.5 46t-48 114z" />
<glyph horiz-adv-x="1048" d="M104 465v246q0 240 138.5 365.5t361.5 125.5q182 0 348 -53l-55 -238q-141 43 -291 43q-104 0 -156.5 -61.5t-52.5 -206.5v-194q0 -145 53.5 -208t155.5 -63q162 0 291 47l55 -239q-164 -55 -348 -56q-223 0 -361.5 126t-138.5 366z" />
<glyph d="M119 43l57 242q213 -63 348 -64q98 0 167 61.5t69 174.5q0 199 -262 198h-299l24 729h793l-43 -239h-492l-12 -254h55q244 0 388.5 -109.5t144.5 -322.5q0 -156 -81 -270.5t-196.5 -165t-244.5 -50.5q-191 0 -416 70z" />
<glyph horiz-adv-x="987" d="M133 0v1176h739v-248h-446v-217h373l-11 -236h-362v-227h463v-248h-756zM197 1462l108 166l199 -125l201 125l108 -166l-307 -174z" />
<glyph horiz-adv-x="1056" d="M133 0v1176h438q182 0 294 -113t112 -270q0 -231 -207 -322l225 -471h-325l-189 426h-55v-426h-293zM426 655h129q55 0 91 38t36 99.5t-36 99.5t-91 38h-129v-275z" />
<glyph horiz-adv-x="1138" d="M45 0l354 1176h340l355 -1176h-299l-74 270h-305l-72 -270h-299zM479 504h180l-45 168q-25 92 -45 223q-29 -164 -45 -223z" />
<glyph horiz-adv-x="1056" d="M133 0v1176h438q182 0 294 -113t112 -270q0 -231 -207 -322l225 -471h-325l-189 426h-55v-426h-293zM264 1448l453 197l78 -195l-457 -172zM426 655h129q55 0 91 38t36 99.5t-36 99.5t-91 38h-129v-275z" />
<glyph horiz-adv-x="1056" d="M133 0v1176h438q182 0 294 -113t112 -270q0 -231 -207 -322l225 -471h-325l-189 426h-55v-426h-293zM221 1462l109 166l198 -125l201 125l109 -166l-308 -174zM426 655h129q55 0 91 38t36 99.5t-36 99.5t-91 38h-129v-275z" />
<glyph horiz-adv-x="1056" d="M133 0v1176h438q182 0 294 -113t112 -270q0 -231 -207 -322l225 -471h-325l-189 426h-55v-426h-293zM371 -459l53 332h252l-115 -332h-190zM426 655h129q55 0 91 38t36 99.5t-36 99.5t-91 38h-129v-275z" />
<glyph horiz-adv-x="1167" d="M133 0v1176h238l377 -598q-6 102 -7 182v416h293v-1176h-237l-379 598q8 -92 8 -188v-410h-293zM266 1473q25 55 77 94t128 39q51 0 121 -46.5t104 -46.5q58 1 97 60l108 -127q-25 -55 -77 -94t-128 -39q-51 0 -120.5 46t-104.5 46q-57 0 -96 -59z" />
<glyph horiz-adv-x="1099" d="M76 305v242h151l15 141h-125v242h151l31 303h246l-33 -303h139l31 303h246l-31 -303h125v-242h-152l-14 -141h123v-242h-150l-30 -305h-246l33 305h-140l-30 -305h-246l31 305h-125zM471 547h139l17 141h-140z" />
<glyph horiz-adv-x="1138" d="M45 0l354 1176h340l355 -1176h-299l-74 270h-305l-72 -270h-299zM305 1448l453 197l78 -195l-457 -172zM479 504h180l-45 168q-25 92 -45 223q-29 -164 -45 -223z" />
<glyph horiz-adv-x="708" d="M145 1489q0 84 61.5 145.5t149.5 61.5q84 0 145.5 -61.5t61.5 -145.5q0 -86 -61.5 -148.5t-145.5 -62.5q-88 0 -149.5 62.5t-61.5 148.5zM293 1489q0 -27 18.5 -45.5t45 -18.5t44 18.5t17.5 45.5t-17.5 44t-44 17t-45 -17t-18.5 -44z" />
<glyph horiz-adv-x="1048" d="M104 465v246q0 240 138.5 365.5t361.5 125.5q182 0 348 -53l-55 -238q-141 43 -291 43q-104 0 -156.5 -61.5t-52.5 -206.5v-194q0 -145 53.5 -208t155.5 -63q162 0 291 47l55 -239q-72 -27 -192 -45v-164q0 -129 -80 -190.5t-188 -61.5q-88 0 -173 24l27 197 q76 -16 127 -16q70 -1 70 73v131q-201 16 -320 140.5t-119 347.5z" />
<glyph horiz-adv-x="1134" d="M104 465v246q0 240 138.5 365.5t361.5 125.5q154 0 393 -74l-63 -233q-197 59 -328 59q-104 0 -156.5 -60t-52.5 -206v-192q0 -150 52.5 -212.5t156.5 -62.5q87 0 150 12v226h-119v200h391v-610q-227 -76 -424 -76q-223 0 -361.5 126t-138.5 366z" />
<glyph horiz-adv-x="972" d="M74 49l55 244q193 -72 340 -72q61 0 94 32t33 79q0 49 -50 87t-123 69.5t-144.5 72.5t-122 118t-50.5 183q0 154 120 247t298 93q154 0 350 -78l-75 -231q-150 61 -275 61q-115 0 -114 -90q0 -47 50 -80.5t122.5 -63.5t144.5 -71t122 -120.5t50 -194.5 q0 -172 -126 -266.5t-304 -94.5q-186 0 -395 76z" />
<glyph horiz-adv-x="972" d="M74 49l55 244q193 -72 340 -72q61 0 94 32t33 79q0 49 -50 87t-123 69.5t-144.5 72.5t-122 118t-50.5 183q0 154 120 247t298 93q154 0 350 -78l-75 -231q-150 61 -275 61q-115 0 -114 -90q0 -47 50 -80.5t122.5 -63.5t144.5 -71t122 -120.5t50 -194.5 q0 -172 -126 -266.5t-304 -94.5q-186 0 -395 76zM221 1448l453 197l78 -195l-457 -172z" />
<glyph horiz-adv-x="972" d="M74 49l55 244q193 -72 340 -72q61 0 94 32t33 79q0 49 -50 87t-123 69.5t-144.5 72.5t-122 118t-50.5 183q0 154 120 247t298 93q154 0 350 -78l-75 -231q-150 61 -275 61q-115 0 -114 -90q0 -47 50 -80.5t122.5 -63.5t144.5 -71t122 -120.5t50 -194.5 q0 -172 -126 -266.5t-304 -94.5q-186 0 -395 76zM178 1462l109 166l198 -125l201 125l109 -166l-308 -174z" />
<glyph horiz-adv-x="1138" d="M45 0l354 1176h340l355 -1176h-299l-74 270h-305l-72 -270h-299zM289 1610h182q2 -51 29.5 -87t66.5 -36q43 0 71 35t28 88h184q-2 -125 -85 -211t-197.5 -86t-195.5 86t-83 211zM479 504h180l-45 168q-25 92 -45 223q-29 -164 -45 -223z" />
<glyph horiz-adv-x="987" d="M133 0v1176h739v-248h-446v-217h373l-11 -236h-362v-227h463v-248h-756zM252 1450l78 195l452 -197l-73 -170z" />
<glyph horiz-adv-x="972" d="M74 49l55 244q193 -72 340 -72q61 0 94 32t33 79q0 49 -50 87t-123 69.5t-144.5 72.5t-122 118t-50.5 183q0 154 120 247t298 93q154 0 350 -78l-75 -231q-150 61 -275 61q-115 0 -114 -90q0 -47 50 -80.5t122.5 -63.5t144.5 -71t122 -120.5t50 -194.5q0 -137 -82 -226.5 t-213 -117.5v-170q0 -129 -80 -190.5t-188 -61.5q-88 0 -172 24l26 197q76 -16 127 -16q70 -1 70 73v131q-158 12 -313 72z" />
<glyph horiz-adv-x="1048" d="M104 465v246q0 240 138.5 365.5t361.5 125.5q182 0 348 -53l-55 -238q-141 43 -291 43q-104 0 -156.5 -61.5t-52.5 -206.5v-194q0 -145 53.5 -208t155.5 -63q162 0 291 47l55 -239q-164 -55 -348 -56q-223 0 -361.5 126t-138.5 366zM434 1460.5q0 55.5 39 95t92 39.5 q55 0 94 -39.5t39 -95t-38.5 -93.5t-94.5 -38q-53 0 -92 38t-39 93.5z" />
<glyph horiz-adv-x="1955" d="M74 49l55 244q193 -72 340 -72q61 0 94 32t33 79q0 49 -50 87t-123 69.5t-144.5 72.5t-122 118t-50.5 183q0 154 120 247t298 93q154 0 350 -78l-75 -231q-150 61 -275 61q-115 0 -114 -90q0 -47 50 -80.5t122.5 -63.5t144.5 -71t122 -120.5t50 -194.5 q0 -172 -126 -266.5t-304 -94.5q-186 0 -395 76zM1057 49l55 244q193 -72 340 -72q61 0 94 32t33 79q0 49 -50 87t-122 69.5t-144.5 72.5t-122.5 118t-50 183q0 154 119.5 247t297.5 93q154 0 351 -78l-76 -231q-152 61 -275 61q-115 0 -114 -90q0 -47 50 -80.5t122.5 -63.5 t144.5 -71t122 -120.5t50 -194.5q0 -172 -126 -266.5t-304 -94.5q-186 0 -395 76z" />
<glyph horiz-adv-x="972" d="M74 49l55 244q193 -72 340 -72q61 0 94 32t33 79q0 49 -50 87t-123 69.5t-144.5 72.5t-122 118t-50.5 183q0 154 120 247t298 93q154 0 350 -78l-75 -231q-150 61 -275 61q-115 0 -114 -90q0 -47 50 -80.5t122.5 -63.5t144.5 -71t122 -120.5t50 -194.5 q0 -172 -126 -266.5t-304 -94.5q-186 0 -395 76zM178 1456l307 174l310 -174l-109 -166l-199 125l-200 -125z" />
<glyph horiz-adv-x="972" d="M74 49l55 244q193 -72 340 -72q61 0 94 32t33 79q0 49 -50 87t-123 69.5t-144.5 72.5t-122 118t-50.5 183q0 154 120 247t298 93q154 0 350 -78l-75 -231q-150 61 -275 61q-115 0 -114 -90q0 -47 50 -80.5t122.5 -63.5t144.5 -71t122 -120.5t50 -194.5 q0 -172 -126 -266.5t-304 -94.5q-186 0 -395 76zM315 -459l54 332h252l-115 -332h-191z" />
<glyph horiz-adv-x="641" d="M55 -408l27 197q76 -16 127 -16q70 -1 70 73v154h217v-180q0 -129 -80 -190.5t-189 -61.5q-88 0 -172 24z" />
<glyph horiz-adv-x="559" d="M-2 1610h182q2 -51 30 -87t66 -36q43 0 71 35t28 88h184q-2 -125 -85 -211t-197.5 -86t-195.5 86t-83 211zM133 0v1176h293v-1176h-293z" />
<glyph horiz-adv-x="976" d="M45 1176h850v-236q-166 -193 -221.5 -403.5t-55.5 -536.5h-301q0 606 267 940h-514z" />
<glyph d="M121 1384h954v-237q-195 -233 -267.5 -489.5t-72.5 -657.5h-301q0 723 328 1145h-617z" />
<glyph horiz-adv-x="1179" d="M104 467v242q0 236 137.5 364.5t346.5 128.5q213 0 350 -128.5t137 -364.5v-242q0 -238 -137 -366t-350 -128q-211 0 -347.5 128t-136.5 366zM221 1434l344 225l113 -182l-354 -209zM397 489q0 -150 48.5 -209t142.5 -59q92 0 143 60.5t51 207.5v199q0 266 -194 266 q-190 0 -191 -266v-199zM709 1434l344 225l112 -182l-356 -209z" />
<glyph horiz-adv-x="1179" d="M104 467v242q0 236 137.5 364.5t346.5 128.5q213 0 350 -128.5t137 -364.5v-242q0 -238 -137 -366t-350 -128q-211 0 -347.5 128t-136.5 366zM336 1450l78 195l452 -197l-73 -170zM397 489q0 -150 48.5 -209t142.5 -59q92 0 143 60.5t51 207.5v199q0 266 -194 266 q-190 0 -191 -266v-199z" />
<glyph d="M121 1174h954v-238q-195 -233 -267.5 -489.5t-72.5 -657.5h-301q0 723 328 1145h-617z" />
<glyph horiz-adv-x="903" d="M100 379v158q0 336 314 389v204h194v-198q82 -8 189 -39l-62 -227q-123 35 -198.5 34.5t-113.5 -35t-38 -124.5v-166q0 -90 38 -125t113.5 -35t198.5 35l62 -227q-92 -29 -189 -39v-199h-194v205q-313 51 -314 389z" />
<glyph horiz-adv-x="1046" d="M98 1176h850v-236q-166 -193 -221 -403.5t-55 -536.5h-301q0 606 266 940h-514z" />
<glyph horiz-adv-x="559" d="M-39 1473q25 55 77 94t128 39q51 0 120.5 -46.5t104.5 -46.5q57 1 96 60l109 -127q-25 -55 -77 -94t-128 -39q-51 0 -120.5 46t-104.5 46q-57 0 -96 -59zM133 0v1176h293v-1176h-293z" />
<glyph horiz-adv-x="1062" d="M98 385v367q0 190 122 320t337 130q135 0 313 -55l-63 -238q-133 47 -250 47q-76 0 -121 -49t-45 -116v-39q84 70 191 69q180 0 287.5 -113.5t107.5 -310t-127 -310.5t-313 -114q-184 0 -311.5 112t-127.5 300zM389 383q0 -70 39 -117t108.5 -47t107.5 50t38 128 q0 209 -145 209q-87 1 -148 -69v-154z" />
<glyph d="M203 442v187q0 205 96 319.5t266 141.5v235h207v-233q96 -8 217 -45l-61 -238q-141 41 -236 41q-98 0 -147 -50t-49 -171v-187q0 -121 49 -171t147 -50q94 0 236 41l63 -237q-121 -37 -219 -45v-234h-207v236q-168 27 -265 141.5t-97 318.5z" />
<glyph d="M106 446v443q0 223 135.5 372.5t376.5 149.5q154 0 347 -61l-64 -240q-154 53 -283 53q-94 0 -156.5 -66.5t-62.5 -172.5v-47q104 82 238 81q203 0 326.5 -132t123.5 -363q0 -227 -142 -358.5t-349 -131.5q-205 0 -347.5 128t-142.5 345zM397 444q0 -94 52.5 -158.5 t144.5 -64.5q94 0 145.5 68.5t51.5 173.5q0 274 -197 274q-113 0 -197 -82v-211z" />
<glyph horiz-adv-x="1046" d="M172 379v158q0 336 313 389v204h195v-198q82 -8 188 -39l-61 -227q-123 35 -199 34.5t-113.5 -35t-37.5 -124.5v-166q0 -90 37.5 -125t113.5 -35t199 35l61 -227q-92 -29 -188 -39v-199h-195v205q-313 51 -313 389z" />
<glyph horiz-adv-x="942" d="M119 434v154h90q-49 182 -49 260q0 166 114.5 260t284.5 94q143 0 311 -76l-77 -221q-117 49 -215 49q-127 0 -127 -123q0 -39 5 -75.5t11 -57t17.5 -58.5t15.5 -52h260v-154h-242q-4 -98 -104 -217h448v-217h-741v193q106 117 112 241h-114z" />
<glyph d="M174 559v166h102q-51 201 -51 274q0 195 128 303.5t321 108.5q158 0 346 -82l-82 -225q-133 55 -246 55q-166 0 -166 -178q0 -72 47 -256h324v-166h-293q4 -53 4 -82q0 -66 -36.5 -134.5t-88.5 -113.5h527v-229h-832v205q133 168 133 272q0 29 -4 82h-133z" />
<glyph d="M195 559v166h102q-51 201 -51 274q0 195 128 303.5t320 108.5q158 0 346 -82l-82 -225q-133 55 -245 55q-166 0 -166 -178q0 -72 47 -256h324v-166h-293q4 -53 4 -82q0 -66 -37 -134.5t-88 -113.5h526v-229h-831v205q133 168 133 272q0 29 -4 82h-133z" />
<glyph horiz-adv-x="1130" d="M133 0v1176h293v-377l272 377h344l-387 -508l441 -668h-348l-269 428l-53 -63v-365h-293zM416 -459l53 332h252l-115 -332h-190z" />
<glyph horiz-adv-x="473" d="M84 -459l53 332h252l-115 -332h-190z" />
<glyph horiz-adv-x="970" d="M57 928v248h856v-248h-282v-928h-293v928h-281z" />
<glyph horiz-adv-x="1077" d="M133 0v1176h402q193 0 308 -93.5t115 -244.5q0 -156 -147 -222q193 -66 193 -251q0 -158 -131 -261.5t-324 -103.5h-416zM426 246h121q72 0 117 34.5t45 84.5q0 55 -39 89.5t-109 34.5h-135v-243zM426 715h88q70 0 110 31.5t40 78.5q0 104 -138 105h-100v-215z" />
<glyph horiz-adv-x="970" d="M57 928v248h856v-248h-282v-219h121v-187h-121v-522h-293v522h-125v187h125v219h-281z" />
<glyph horiz-adv-x="970" d="M57 928v248h856v-248h-282v-928h-293v928h-281zM178 1462l109 166l198 -125l201 125l109 -166l-308 -174z" />
<glyph horiz-adv-x="858" d="M143 1759l183 21q6 -51 34.5 -82t67.5 -31q88 0 104 113l185 -21q-10 -125 -88 -195.5t-201 -70.5t-199.5 70.5t-85.5 195.5z" />
<glyph horiz-adv-x="837" d="M74 1081q154 119 315 119q150 0 256.5 -86t106.5 -219q0 -78 -53.5 -153.5t-106.5 -137t-53 -104.5v-103l-267 35v64q0 63 33 124.5t72 99.5t71.5 81t32.5 78q0 41 -26.5 66.5t-69.5 25.5q-84 0 -197 -78zM242 137q0 70 49 115t114.5 45t113.5 -46t48 -114 q0 -66 -47.5 -114t-113.5 -48q-68 0 -116 47.5t-48 114.5z" />
<glyph horiz-adv-x="970" d="M57 928v248h856v-248h-282v-928h-293v928h-281zM328 -459l53 332h252l-115 -332h-190z" />
<glyph horiz-adv-x="1138" d="M45 0l354 1176h340l355 -1176h-299l-74 270h-305l-72 -270h-299zM252 1473q25 55 77 94t128 39q51 0 120.5 -46.5t104.5 -46.5q57 1 96 60l109 -127q-25 -55 -77 -94t-128 -39q-51 0 -120.5 46t-104.5 46q-57 0 -97 -59zM479 504h180l-45 168q-25 92 -45 223 q-29 -164 -45 -223z" />
<glyph horiz-adv-x="1030" d="M133 0v1176h293v-230h145q182 0 294 -112.5t112 -270.5q0 -156 -112 -266.5t-294 -110.5h-145v-186h-293zM426 426h135q53 0 86 38t33 99.5t-33 99t-86 37.5h-135v-274z" />
<glyph horiz-adv-x="1060" d="M35 -160l71 232q174 -61 318 -62q109 0 177.5 57.5t68.5 149.5q0 178 -205 178h-176l-43 223l336 316h-498l-37 240h842l18 -240l-334 -316q158 -4 276 -117.5t118 -283.5q0 -207 -158 -331t-379 -124q-174 0 -395 78z" />
<glyph horiz-adv-x="1169" d="M133 0v1096q283 106 465 106q199 0 333 -122t134 -332v-306q0 -215 -124 -328.5t-343 -113.5h-465zM426 248h172q96 0 135 47t39 170v258q0 231 -174 231q-92 0 -172 -26v-680z" />
<glyph d="M111 51l71 232q174 -61 318 -62q109 0 177 57.5t68 149.5q0 178 -204 178h-176l-43 223l335 316h-497l-37 239h842l18 -239l-334 -316q158 -4 275.5 -117.5t117.5 -283.5q0 -207 -157.5 -331t-378.5 -124q-174 0 -395 78z" />
<glyph d="M131 -160l72 232q174 -61 317 -62q109 0 177.5 57.5t68.5 149.5q0 178 -205 178h-176l-43 223l336 316h-498l-37 240h842l19 -240l-334 -316q158 -4 275.5 -117.5t117.5 -283.5q0 -207 -157.5 -331t-379.5 -124q-174 0 -395 78z" />
<glyph horiz-adv-x="985" d="M184 1462l109 166l199 -125l200 125l109 -166l-307 -174z" />
<glyph horiz-adv-x="933" d="M152 1473q25 55 77 94t127 39q51 0 121 -46.5t105 -46.5q57 1 96 60l108 -127q-25 -55 -77 -94t-127 -39q-51 0 -121 46t-105 46q-57 0 -96 -59z" />
<glyph horiz-adv-x="962" d="M68 0v150q0 117 53 211t129 154t151.5 110.5t129 103.5t53.5 109q0 119 -138 118q-109 0 -262 -73l-100 217q186 102 381 102q180 0 298 -102.5t118 -261.5q0 -90 -50.5 -173t-123 -142.5t-145.5 -110t-123 -96.5t-50 -83h490v-233h-811z" />
<glyph d="M135 0v160q0 119 45 220t112.5 164.5t146.5 124t146.5 104.5t112.5 101.5t45 118.5q0 76 -47 123t-135 47q-131 0 -307 -86l-100 221q213 113 421 113q203 0 334 -115.5t131 -302.5q0 -106 -60 -202.5t-147.5 -165t-173.5 -130t-146 -127t-60 -128.5h585v-240h-903z" />
<glyph horiz-adv-x="1048" d="M104 465v246q0 240 138.5 365.5t361.5 125.5q182 0 348 -53l-55 -238q-141 43 -291 43q-104 0 -156.5 -61.5t-52.5 -206.5v-194q0 -145 53.5 -208t155.5 -63q162 0 291 47l55 -239q-164 -55 -348 -56q-223 0 -361.5 126t-138.5 366zM250 1462l108 166l199 -125l201 125 l108 -166l-307 -174z" />
<glyph horiz-adv-x="1046" d="M104 0v150q0 117 53.5 211t129 154t151.5 110.5t129.5 103.5t53.5 109q0 119 -138 118q-109 0 -262 -73l-100 217q186 102 381 102q180 0 298 -102.5t118 -261.5q0 -90 -50.5 -173t-123 -142.5t-145.5 -110t-123 -96.5t-50 -83h489v-233h-811z" />
<glyph horiz-adv-x="1177" d="M125 395v781h293v-752q0 -96 45 -149.5t125 -53.5q78 0 125 53.5t47 149.5v752h293v-781q0 -184 -135.5 -303t-330 -119t-328.5 119t-134 303z" />
<glyph horiz-adv-x="1095" d="M76 467v147h135v156h-135v148h135q6 225 156.5 359t371.5 134q160 0 332 -45l-53 -248q-162 39 -277 39q-100 0 -162.5 -64.5t-68.5 -174.5h375l-29 -148h-346v-156h313l-28 -147h-285q6 -113 67.5 -176.5t163.5 -63.5q115 0 277 39l53 -248q-172 -45 -332 -45 q-221 0 -371.5 133.5t-156.5 360.5h-135z" />
<glyph horiz-adv-x="1046" d="M49 305v242h152l14 141h-125v242h152l30 303h246l-33 -303h140l30 303h246l-31 -303h125v-242h-151l-15 -141h123v-242h-149l-31 -305h-246l33 305h-139l-31 -305h-246l31 305h-125zM444 547h140l16 141h-139z" />
<glyph horiz-adv-x="1177" d="M125 395v781h293v-752q0 -96 45 -149.5t125 -53.5q78 0 125 53.5t47 149.5v752h293v-781q0 -184 -135.5 -303t-330 -119t-328.5 119t-134 303zM324 1448l452 197l78 -195l-457 -172z" />
<glyph horiz-adv-x="942" d="M143 1460.5q0 55.5 40 95t93 39.5q55 0 94.5 -39.5t39.5 -95t-39 -93.5t-95 -38q-53 0 -93 38t-40 93.5zM535 1460.5q0 55.5 38.5 95t92.5 39.5q55 0 94 -39.5t39 -95t-39 -93.5t-94 -38q-53 0 -92 38t-39 93.5z" />
<glyph horiz-adv-x="1177" d="M125 395v781h293v-752q0 -96 45 -149.5t125 -53.5q78 0 125 53.5t47 149.5v752h293v-781q0 -184 -135.5 -303t-330 -119t-328.5 119t-134 303zM307 1610h182q2 -51 30 -87t67 -36q43 0 70.5 35t27.5 88h184q-2 -125 -85 -211t-197.5 -86t-195.5 86t-83 211z" />
<glyph horiz-adv-x="1177" d="M125 395v781h293v-752q0 -96 45 -149.5t125 -53.5q78 0 125 53.5t47 149.5v752h293v-781q0 -184 -135.5 -303t-330 -119t-328.5 119t-134 303zM281 1456l307 174l309 -174l-109 -166l-198 125l-201 -125z" />
<glyph horiz-adv-x="1058" d="M49 59l57 250q217 -80 396 -80q78 0 124 43t46 113q0 68 -60.5 113t-146.5 75.5t-172 71.5t-146.5 126t-60.5 210q0 147 95 246.5t251 130.5v239h207v-233q127 -12 307 -80l-78 -240q-180 70 -303 70q-98 0 -137 -32.5t-39 -96.5q0 -47 33 -81t84 -56.5t113.5 -44 t125 -53t113.5 -74.5t84 -117t33 -172q0 -162 -96.5 -264.5t-249.5 -134.5v-242h-207v229q-180 12 -373 84z" />
<glyph horiz-adv-x="1177" d="M125 395v781h293v-752q0 -96 45 -149.5t125 -53.5q78 0 125 53.5t47 149.5v752h293v-781q0 -184 -135.5 -303t-330 -119t-328.5 119t-134 303zM260 1460.5q0 55.5 40 95t93 39.5q55 0 94 -39.5t39 -95t-38.5 -93.5t-94.5 -38q-53 0 -93 38t-40 93.5zM651 1460.5 q0 55.5 39 95t92 39.5q55 0 94 -39.5t39 -95t-38.5 -93.5t-94.5 -38q-53 0 -92 38t-39 93.5z" />
<glyph horiz-adv-x="1177" d="M125 395v781h293v-752q0 -96 45 -149.5t125 -53.5q78 0 125 53.5t47 149.5v752h293v-781q0 -184 -135.5 -303t-330 -119t-328.5 119t-134 303zM324 1450l77 195l453 -197l-74 -170z" />
<glyph d="M127 59l57 250q217 -80 396 -80q78 0 124 43t46 113q0 68 -60.5 113t-146.5 75.5t-172 71.5t-146.5 126t-60.5 210q0 147 95 246.5t251 130.5v239h207v-233q127 -12 307 -80l-78 -240q-180 70 -303 70q-98 0 -137 -32.5t-39 -96.5q0 -47 32.5 -81t84 -56.5t114 -44 t125 -53t113.5 -74.5t84 -117t33 -172q0 -162 -96.5 -264.5t-249.5 -134.5v-242h-207v229q-180 12 -373 84z" />
<glyph horiz-adv-x="1177" d="M125 395v781h293v-752q0 -96 45 -149.5t125 -53.5q78 0 125 53.5t47 149.5v752h293v-781q0 -184 -135.5 -303t-330 -119t-328.5 119t-134 303zM160 1434l344 225l112 -182l-354 -209zM647 1434l344 225l113 -182l-356 -209z" />
<glyph d="M135 59l58 250q217 -80 395 -80q78 0 124 43t46 113q0 68 -60.5 113t-146.5 75.5t-172 71.5t-146.5 126t-60.5 210q0 147 95 246.5t251 130.5v239h207v-233q127 -12 307 -80l-78 -240q-180 70 -303 70q-98 0 -137 -32.5t-39 -96.5q0 -47 33 -81t84 -56.5t113.5 -44 t125 -53t113.5 -74.5t84 -117t33 -172q0 -162 -96.5 -264.5t-249.5 -134.5v-242h-207v229q-180 12 -373 84z" />
<glyph horiz-adv-x="1177" d="M125 395v781h293v-752q0 -96 45 -149.5t125 -53.5q78 0 125 53.5t47 149.5v752h293v-781q0 -184 -135.5 -303t-330 -119t-328.5 119t-134 303zM328 1368v184h520v-184h-520z" />
<glyph horiz-adv-x="1046" d="M100 53l56 240q190 -70 350 -70q61 0 94 31t33 80t-51.5 83t-124 59.5t-146 61t-125 107.5t-51.5 178q0 117 77 207t224 119v207h195v-199q102 -12 272 -72l-76 -229q-156 61 -262 62q-80 0 -108.5 -23t-28.5 -68t51 -75.5t124 -55t146.5 -59.5t125 -111.5t51.5 -189.5 q0 -125 -76 -218t-225 -126v-207h-195v192q-154 10 -330 76z" />
<glyph horiz-adv-x="1179" d="M104 467v242q0 236 137.5 364.5t346.5 128.5q213 0 350 -128.5t137 -364.5v-242q0 -238 -137 -366t-350 -128q-211 0 -347.5 128t-136.5 366zM262 1460.5q0 55.5 40 95t93 39.5q55 0 94 -39.5t39 -95t-38.5 -93.5t-94.5 -38q-53 0 -93 38t-40 93.5zM397 489 q0 -150 48.5 -209t142.5 -59q92 0 143 60.5t51 207.5v199q0 266 -194 266q-190 0 -191 -266v-199zM653 1460.5q0 55.5 39 95t92 39.5q55 0 94.5 -39.5t39.5 -95t-39 -93.5t-95 -38q-53 0 -92 38t-39 93.5z" />
<glyph horiz-adv-x="1060" d="M37 1174h954v-238q-195 -233 -267.5 -489.5t-72.5 -657.5h-301q0 723 328 1145h-617z" />
<glyph horiz-adv-x="1177" d="M125 395v781h293v-752q0 -96 45 -149.5t125 -53.5q78 0 125 53.5t47 149.5v752h293v-781q0 -154 -99.5 -265.5t-253.5 -143.5q-135 -106 -135 -205q0 -55 60 -55q36 0 67 12l29 -174q-53 -23 -131 -23q-121 0 -181.5 56.5t-60.5 152.5q0 135 125 236q-154 33 -251 143.5 t-97 265.5z" />
<glyph horiz-adv-x="555" d="M145 1460.5q0 55.5 39 95t92 39.5q55 0 94.5 -39.5t39.5 -95t-39 -93.5t-95 -38q-53 0 -92 38t-39 93.5z" />
<glyph horiz-adv-x="993" d="M102 442v187q0 205 96.5 319.5t266.5 141.5v235h207v-233q96 -8 217 -45l-62 -238q-141 41 -235 41q-98 0 -147.5 -50t-49.5 -171v-187q0 -121 49.5 -171t147.5 -50q94 0 235 41l64 -237q-121 -37 -219 -45v-234h-207v236q-168 27 -265.5 141.5t-97.5 318.5z" />
<glyph horiz-adv-x="1177" d="M125 395v781h293v-752q0 -96 45 -149.5t125 -53.5q78 0 125 53.5t47 149.5v752h293v-781q0 -184 -135.5 -303t-330 -119t-328.5 119t-134 303zM379 1489q0 84 61.5 145.5t149.5 61.5q84 0 145.5 -61.5t61.5 -145.5q0 -86 -61.5 -148.5t-145.5 -62.5q-88 0 -149.5 62.5 t-61.5 148.5zM526 1489q0 -27 18.5 -45.5t45 -18.5t44 18.5t17.5 45.5t-17.5 44t-44 17t-45 -17t-18.5 -44z" />
<glyph horiz-adv-x="1177" d="M125 395v781h293v-752q0 -96 45 -149.5t125 -53.5q78 0 125 53.5t47 149.5v752h293v-781q0 -184 -135.5 -303t-330 -119t-328.5 119t-134 303zM270 1473q25 55 77 94t128 39q51 0 121 -46.5t104 -46.5q58 1 97 60l108 -127q-25 -55 -77 -94t-128 -39q-51 0 -120.5 46 t-104.5 46q-57 0 -96 -59z" />
<glyph horiz-adv-x="1138" d="M45 1176h309l172 -672q27 -109 43 -207q27 143 43 207l172 672h310l-357 -1176h-336z" />
<glyph horiz-adv-x="987" d="M133 0v1176h739v-248h-446v-217h373l-11 -236h-362v-227h463v-248h-756z" />
<glyph horiz-adv-x="1556" d="M74 1176h297l57 -525q12 -109 18 -284q31 166 68 282l107 334h307l110 -334q43 -129 70 -276q14 250 18 278l58 525h299l-193 -1176h-321l-154 508q-25 80 -39 168q-12 -96 -35 -168l-157 -508h-320zM512 1448l453 197l77 -195l-456 -172z" />
<glyph horiz-adv-x="1556" d="M74 1176h297l57 -525q12 -109 18 -284q31 166 68 282l107 334h307l110 -334q43 -129 70 -276q14 250 18 278l58 525h299l-193 -1176h-321l-154 508q-25 80 -39 168q-12 -96 -35 -168l-157 -508h-320zM463 1456l307 174l309 -174l-108 -166l-199 125l-201 -125z" />
<glyph horiz-adv-x="1556" d="M74 1176h297l57 -525q12 -109 18 -284q31 166 68 282l107 334h307l110 -334q43 -129 70 -276q14 250 18 278l58 525h299l-193 -1176h-321l-154 508q-25 80 -39 168q-12 -96 -35 -168l-157 -508h-320zM440 1460.5q0 55.5 40 95t93 39.5q55 0 94.5 -39.5t39.5 -95 t-39 -93.5t-95 -38q-53 0 -93 38t-40 93.5zM831 1460.5q0 55.5 39 95t93 39.5q55 0 94 -39.5t39 -95t-39 -93.5t-94 -38q-53 0 -92.5 38t-39.5 93.5z" />
<glyph d="M100 467v147h136v156h-136v148h136q6 225 156.5 359t371.5 134q160 0 332 -45l-54 -248q-162 39 -276 39q-100 0 -162.5 -64.5t-68.5 -174.5h374l-28 -148h-346v-156h313l-29 -147h-284q6 -113 67.5 -176.5t163.5 -63.5q114 0 276 39l54 -248q-172 -45 -332 -45 q-221 0 -371.5 133.5t-156.5 360.5h-136z" />
<glyph horiz-adv-x="1046" d="M78 385v367q0 190 122 320t337 130q135 0 313 -55l-64 -238q-133 47 -249 47q-76 0 -121 -49t-45 -116v-39q84 70 190 69q180 0 287.5 -113.5t107.5 -310t-127 -310.5t-313 -114q-184 0 -311 112t-127 300zM369 383q0 -70 38.5 -117t108.5 -47t108 50t38 128 q0 209 -146 209q-86 1 -147 -69v-154z" />
<glyph horiz-adv-x="1046" d="M145 434v154h91q-49 182 -50 260q0 166 115 260t285 94q143 0 311 -76l-78 -221q-117 49 -215 49q-127 0 -127 -123q0 -39 5 -75.5t11.5 -57t17.5 -58.5t15 -52h260v-154h-241q-4 -98 -105 -217h449v-217h-742v193q106 117 113 241h-115z" />
<glyph horiz-adv-x="987" d="M133 0v1176h739v-248h-446v-217h373l-11 -236h-362v-227h463v-248h-756zM219 1610h182q2 -51 30 -87t67 -36q43 0 70.5 35t27.5 88h184q-2 -125 -85 -211t-197.5 -86t-195.5 86t-83 211z" />
<glyph horiz-adv-x="1556" d="M74 1176h297l57 -525q12 -109 18 -284q31 166 68 282l107 334h307l110 -334q43 -129 70 -276q14 250 18 278l58 525h299l-193 -1176h-321l-154 508q-25 80 -39 168q-12 -96 -35 -168l-157 -508h-320zM510 1450l78 195l452 -197l-73 -170z" />
<glyph horiz-adv-x="1095" d="M33 0l344 606l-305 570h321l154 -299l164 299h311l-303 -551l342 -625h-334l-178 352l-193 -352h-323z" />
<glyph horiz-adv-x="1073" d="M37 1176h319l181 -435l180 435h319l-352 -730v-446h-293v446zM274 1448l453 197l78 -195l-457 -172z" />
<glyph horiz-adv-x="1048" d="M104 465v246q0 240 138.5 365.5t361.5 125.5q182 0 348 -53l-55 -238q-141 43 -291 43q-104 0 -156.5 -61.5t-52.5 -206.5v-194q0 -145 53.5 -208t155.5 -63q162 0 291 47l55 -239q-164 -55 -348 -56q-223 0 -361.5 126t-138.5 366zM262 1456l307 174l310 -174l-109 -166 l-199 125l-200 -125z" />
<glyph horiz-adv-x="987" d="M133 0v1176h739v-248h-446v-217h373l-11 -236h-362v-227h463v-248h-756zM199 1456l307 174l309 -174l-108 -166l-199 125l-201 -125z" />
<glyph horiz-adv-x="1073" d="M37 1176h319l181 -435l180 435h319l-352 -730v-446h-293v446zM211 1460.5q0 55.5 40 95t93 39.5q55 0 94 -39.5t39 -95t-39 -93.5t-94 -38q-53 0 -93 38t-40 93.5zM602 1460.5q0 55.5 39 95t92 39.5q55 0 94 -39.5t39 -95t-39 -93.5t-94 -38q-53 0 -92 38t-39 93.5z" />
<glyph horiz-adv-x="1081" d="M-16 1384h301l256 -596l256 596h301l-340 -725h176v-165h-244v-142h244v-164h-244v-188h-297v188h-243v164h243v142h-243v165h176z" />
<glyph horiz-adv-x="1607" d="M10 0l684 1176h779l18 -248h-453l25 -217h403l-20 -236h-365l17 -227h454l19 -248h-729l-25 270h-330l-147 -270h-330zM614 504h185l-25 291z" />
<glyph horiz-adv-x="1019" d="M14 1176h289l207 -482l207 482h289l-289 -605h141v-153h-203v-115h203v-151h-203v-152h-288v152h-205v151h205v115h-205v153h141z" />
<glyph d="M100 467v147h136v156h-136v148h136q6 225 156.5 359t371.5 134q160 0 332 -45l-54 -248q-162 39 -276 39q-100 0 -162.5 -64.5t-68.5 -174.5h374l-28 -148h-346v-156h313l-29 -147h-284q6 -113 67.5 -176.5t163.5 -63.5q114 0 276 39l54 -248q-172 -45 -332 -45 q-221 0 -371.5 133.5t-156.5 360.5h-136z" />
<glyph d="M41 1384h301l256 -596l256 596h301l-340 -725h176v-165h-243v-142h243v-164h-243v-188h-297v188h-244v164h244v142h-244v165h176z" />
<glyph horiz-adv-x="987" d="M133 0v1176h739v-248h-446v-217h373l-11 -236h-362v-227h463v-248h-756zM375 1460.5q0 55.5 39 95t92 39.5q55 0 94 -39.5t39 -95t-39 -93.5t-94 -38q-53 0 -92 38t-39 93.5z" />
<glyph horiz-adv-x="966" d="M35 45l69 227q154 -53 285 -53q82 0 134 40t52 106q0 123 -147 122h-162l-41 218l277 235h-420l-37 236h762l16 -236l-274 -238q150 -12 236.5 -107t86.5 -230q0 -178 -140 -285t-337 -107q-155 0 -360 72z" />
<glyph horiz-adv-x="1046" d="M27 1176h288l207 -482l207 482h289l-289 -605h141v-153h-202v-115h202v-151h-202v-152h-289v152h-205v151h205v115h-205v153h141z" />
<glyph horiz-adv-x="1073" d="M37 1176h319l181 -435l180 435h319l-352 -730v-446h-293v446zM274 1450l78 195l453 -197l-74 -170z" />
<glyph horiz-adv-x="1138" d="M45 0l354 1176h340l355 -1176h-299l-74 270h-305l-72 -270h-299zM262 1456l307 174l310 -174l-109 -166l-199 125l-200 -125zM479 504h180l-45 168q-25 92 -45 223q-29 -164 -45 -223z" />
<glyph horiz-adv-x="1046" d="M84 0v186l469 742h-459v248h826v-189l-471 -739h514l-27 -248h-852z" />
<glyph horiz-adv-x="1046" d="M80 45l70 227q154 -53 284 -53q82 0 134.5 40t52.5 106q0 123 -148 122h-162l-41 218l277 235h-420l-37 236h762l16 -236l-274 -238q150 -12 237 -107t87 -230q0 -178 -140.5 -285t-337.5 -107q-155 0 -360 72z" />
<glyph d="M176 0v127q0 111 39 202t98.5 146t128 106.5t128 85t98.5 77.5t39 90q0 53 -36 85.5t-106 32.5q-135 0 -282 -82l-101 215q188 115 391 115q184 0 307.5 -101.5t123.5 -264.5q0 -90 -51.5 -171t-125 -138.5t-146.5 -105.5t-124 -94t-51 -85h512l-21 -240h-821z" />
<glyph horiz-adv-x="1046" d="M84 0v186l469 756h-459v234h826v-189l-471 -749h514l-27 -238h-852zM215 1462l109 166l198 -125l201 125l108 -166l-307 -174z" />
<glyph horiz-adv-x="1079" d="M92 328q0 164 178 268q-143 109 -143 266q0 137 113.5 238.5t298.5 101.5q158 0 285.5 -94t127.5 -246q1 -141 -159 -239q195 -117 194 -297q0 -164 -139 -258.5t-309 -94.5q-180 0 -313.5 93.5t-133.5 261.5zM387 328q0 -49 43 -79t108.5 -30t109.5 30t44 79 q0 45 -47 77.5t-141 71.5q-117 -66 -117 -149zM422 866q0 -70 133 -133q102 57 102 133q0 41 -33.5 65.5t-85 24.5t-84 -25.5t-32.5 -64.5z" />
<glyph horiz-adv-x="1046" d="M84 0v186l469 756h-459v234h826v-189l-471 -749h514l-27 -238h-852zM385 1460.5q0 55.5 39 95t92 39.5q55 0 94 -39.5t39 -95t-39 -93.5t-94 -38q-53 0 -92 38t-39 93.5z" />
<glyph d="M203 442v187q0 205 96 319.5t266 141.5v235h207v-233q96 -8 217 -45l-61 -238q-141 41 -236 41q-98 0 -147 -50t-49 -171v-187q0 -121 49 -171t147 -50q94 0 236 41l63 -237q-121 -37 -219 -45v-234h-207v236q-168 27 -265 141.5t-97 318.5z" />
<glyph d="M106 446v443q0 223 135.5 372.5t376.5 149.5q154 0 347 -61l-64 -240q-154 53 -283 53q-94 0 -156.5 -66.5t-62.5 -172.5v-47q104 82 238 81q203 0 326.5 -132t123.5 -363q0 -227 -142 -358.5t-349 -131.5q-205 0 -347.5 128t-142.5 345zM397 444q0 -94 52.5 -158.5 t144.5 -64.5q94 0 145.5 68.5t51.5 173.5q0 274 -197 274q-113 0 -197 -82v-211z" />
<glyph horiz-adv-x="833" d="M152 1448l452 197l78 -195l-457 -172z" />
<glyph d="M96 377q0 205 221 330q-180 123 -180 319q0 158 126 271.5t333 113.5q180 0 321.5 -107.5t141 -277.5t-188.5 -289q227 -135 228 -362q0 -182 -159 -292t-343 -110q-193 0 -346.5 108.5t-153.5 295.5zM393 377q0 -66 59.5 -111t143.5 -45t144.5 46t60.5 110 q0 68 -58.5 112t-179.5 95q-170 -92 -170 -207zM434 1030q0 -55 47.5 -95t141.5 -81q139 76 139 176q0 61 -47 97t-119 36t-117 -35.5t-45 -97.5z" />
<glyph d="M88 541v305q0 279 142.5 422t367.5 143q223 0 366.5 -144.5t143.5 -420.5v-305q0 -279 -144.5 -423.5t-365.5 -144.5q-223 0 -366.5 144.5t-143.5 423.5zM379 541q0 -319 219 -319t219 319v305q0 317 -219 317t-219 -317v-305z" />
<glyph horiz-adv-x="1026" d="M119 559v166h102q-51 201 -51 274q0 195 128 303.5t320 108.5q158 0 347 -82l-82 -225q-133 55 -246 55q-166 0 -166 -178q0 -72 47 -256h324v-166h-293q4 -53 4 -82q0 -66 -37 -134.5t-88 -113.5h526v-229h-831v205q133 168 133 272q0 29 -4 82h-133z" />
<glyph horiz-adv-x="985" d="M184 1456l308 174l309 -174l-109 -166l-198 125l-201 -125z" />
<glyph horiz-adv-x="1138" d="M45 0l354 1176h340l355 -1176h-299l-74 270h-305l-72 -270h-299zM242 1460.5q0 55.5 40 95t93 39.5q55 0 94 -39.5t39 -95t-39 -93.5t-94 -38q-53 0 -93 38t-40 93.5zM479 504h180l-45 168q-25 92 -45 223q-29 -164 -45 -223zM633 1460.5q0 55.5 39 95t92 39.5 q55 0 94 -39.5t39 -95t-39 -93.5t-94 -38q-53 0 -92 38t-39 93.5z" />
<glyph horiz-adv-x="1046" d="M82 395v131h111v123h-111v131h111q6 193 141 307.5t330 114.5q143 0 299 -41l-54 -237q-143 35 -243 34q-78 0 -127.5 -48t-55.5 -130h314l-25 -131h-289v-123h260l-26 -131h-234q6 -82 55.5 -130t127.5 -48q100 0 243 35l54 -238q-156 -41 -299 -41q-197 0 -331 114 t-140 308h-111z" />
<glyph d="M102 502v170q0 248 140.5 388t355.5 140q213 0 354.5 -141t141.5 -387v-170q0 -248 -140.5 -388.5t-355.5 -140.5q-213 0 -354.5 140.5t-141.5 388.5zM399 502q0 -281 199 -281q94 0 146.5 71t52.5 210v170q0 139 -52.5 209.5t-146.5 70.5q-199 0 -199 -280v-170z" />
<glyph horiz-adv-x="1046" d="M68 463v252q0 238 127 362.5t327.5 124.5t328.5 -124.5t128 -362.5v-252q0 -240 -129 -365t-327.5 -125t-326.5 125t-128 365zM358 463q0 -244 164 -244q166 0 166 244v252q0 242 -166 241q-164 0 -164 -241v-252z" />
<glyph horiz-adv-x="987" d="M133 0v1176h739v-248h-446v-217h373l-11 -236h-362v-227h463v-248h-756zM250 1368v184h520v-184h-520z" />
<glyph horiz-adv-x="1167" d="M133 0v1176h238l377 -598q-6 102 -7 182v416h293v-1526l-284 -35v463l-332 520q8 -92 8 -188v-410h-293z" />
<glyph horiz-adv-x="1011" d="M82 395v131h111v123h-111v131h111q6 193 141 307.5t330 114.5q143 0 299 -41l-54 -237q-143 35 -243 34q-78 0 -127.5 -48t-55.5 -130h314l-25 -131h-289v-123h260l-26 -131h-234q6 -82 55.5 -130t127.5 -48q100 0 243 35l54 -238q-156 -41 -299 -41q-197 0 -331 114 t-140 308h-111z" />
<glyph horiz-adv-x="473" d="M84 -459l53 332h252l-115 -332h-190z" />
<glyph horiz-adv-x="1169" d="M20 487v185h113v424q283 106 465 106q199 0 333 -122t134 -332v-306q0 -215 -124 -328.5t-343 -113.5h-465v487h-113zM426 248h172q96 0 135 47t39 170v258q0 231 -174 231q-92 0 -172 -26v-256h178v-185h-178v-239z" />
<glyph horiz-adv-x="1048" d="M104 465v246q0 240 138.5 365.5t361.5 125.5q182 0 348 -53l-55 -238q-141 43 -291 43q-104 0 -156.5 -61.5t-52.5 -206.5v-194q0 -145 53.5 -208t155.5 -63q162 0 291 47l55 -239q-164 -55 -348 -56q-223 0 -361.5 126t-138.5 366zM283 1448l452 197l78 -195l-457 -172z " />
<glyph horiz-adv-x="534" d="M104 854q0 68 48.5 116t115.5 48q66 0 114 -48t48 -116q0 -70 -48 -115t-114 -45q-68 0 -116 46t-48 114zM123 -201l12 819h264l13 -784z" />
<glyph horiz-adv-x="972" d="M133 0v1176h737v-248h-444v-219h358l-12 -236h-346v-473h-293z" />
</font>
</defs>
</svg>
