<?xml version="1.0" standalone="no"?>
<!DOCTYPE svg PUBLIC "-//W3C//DTD SVG 1.1//EN" "http://www.w3.org/Graphics/SVG/1.1/DTD/svg11.dtd" >
<svg xmlns="http://www.w3.org/2000/svg" xmlns:xlink="http://www.w3.org/1999/xlink" version="1.1">
<metadata></metadata>
<defs>
<font id="russialight" horiz-adv-x="1169" >
<font-face units-per-em="2048" ascent="1556" descent="-492" />
<missing-glyph horiz-adv-x="512" />
<glyph unicode="ff" horiz-adv-x="1263" d="M59 940v107h142v184q0 140 90 217.5t219 77.5q71 0 133 -19l-25 -121q-58 15 -106 15q-74 0 -125 -43t-51 -127v-184h495v184q0 140 90.5 217.5t219.5 77.5q71 0 133 -19l-25 -121q-58 15 -106 15q-74 0 -125 -43t-51 -127v-184h280l-41 -107h-239v-940h-136v940h-495 v-940h-135v940h-142z" />
<glyph unicode="fi" horiz-adv-x="1116" d="M59 940v107h142v174q0 141 91 223t218 82q71 0 133 -19l-25 -121q-58 15 -106 15q-72 0 -124 -47.5t-52 -132.5v-174h280l-41 -107h-239v-940h-135v940h-142zM778 1339q0 38 28 65.5t68 27.5q39 0 68 -27.5t29 -65.5t-29 -66t-68 -28q-40 0 -68 28t-28 66zM807 0v1047 h135v-1047h-135z" />
<glyph unicode="fl" horiz-adv-x="1116" d="M59 940v107h142v174q0 141 91 223t218 82q71 0 133 -19l-25 -121q-58 15 -106 15q-72 0 -124 -47.5t-52 -132.5v-174h280l-41 -107h-239v-940h-135v940h-142zM807 0v1485l135 41v-1526h-135z" />
<glyph unicode="ffi" horiz-adv-x="1746" d="M59 940v107h142v184q0 140 90 217.5t219 77.5q71 0 133 -19l-25 -121q-58 15 -106 15q-74 0 -125 -43t-51 -127v-184h495v184q0 140 90.5 217.5t219.5 77.5q71 0 133 -19l-25 -121q-58 15 -106 15q-74 0 -125 -43t-51 -127v-184h280l-41 -107h-239v-940h-136v940h-495 v-940h-135v940h-142zM1407 1339q0 38 28 65.5t68 27.5q39 0 67.5 -27.5t28.5 -65.5t-29 -66t-67 -28q-40 0 -68 28t-28 66zM1438 0v1047h135v-1047h-135z" />
<glyph unicode="ffl" horiz-adv-x="1746" d="M59 940v107h142v174q0 141 91 223t218 82q71 0 133 -19l-25 -121q-58 15 -106 15q-72 0 -124 -47.5t-52 -132.5v-174h495v184q0 140 90.5 217.5t219.5 77.5q71 0 133 -19l-25 -121q-58 15 -106 15q-74 0 -125 -43t-51 -127v-184h280l-41 -107h-239v-940h-136v940h-495 v-940h-135v940h-142zM1438 0v1485l135 41v-1526h-135z" />
<glyph unicode="fy" horiz-adv-x="1611" d="M59 940v107h142v184q0 140 90 217.5t219 77.5q71 0 133 -19l-25 -121q-58 15 -106 15q-74 0 -125 -43t-51 -127v-184h504l92 -668q16 -122 69 -187t158 -65h131l115 920h135l-186 -1479h-135l55 432h-117q-310 0 -360 360l-80 580h-381v-940h-135v940h-142z" />
<glyph unicode="ty" horiz-adv-x="1581" d="M25 1047h180v307l135 39v-346h469l92 -668q16 -122 69 -187t158 -65h132l114 920h135l-186 -1479h-135l55 432h-117q-310 0 -360 360l-80 580h-346v-940h-135v940h-135z" />
<glyph unicode="ft" horiz-adv-x="1232" d="M59 940v107h142v184q0 140 90 217.5t219 77.5q71 0 133 -19l-25 -121q-58 15 -106 15q-74 0 -125 -43t-51 -127v-184h502v307l135 39v-346h223v-107h-223v-940h-135v940h-502v-940h-135v940h-142z" />
<glyph unicode="tt" horiz-adv-x="1202" d="M25 1047h180v307l135 39v-346h467v307l135 39v-346h223v-107h-223v-940h-135v940h-467v-940h-135v940h-135z" />
<glyph unicode=" "  horiz-adv-x="512" />
<glyph unicode="&#x09;" horiz-adv-x="512" />
<glyph unicode="&#xa0;" horiz-adv-x="512" />
<glyph unicode="!" horiz-adv-x="495" d="M154 78q0 39 28 65.5t68 26.5q37 0 64.5 -26.5t27.5 -65.5q0 -38 -27.5 -66t-64.5 -28q-40 0 -68 28t-28 66zM172 1362l158 41l-19 -963h-123z" />
<glyph unicode="&#x22;" horiz-adv-x="698" d="M154 1499h133l-19 -440h-96zM412 1499h133l-21 -440h-94z" />
<glyph unicode="#" horiz-adv-x="1114" d="M88 418v125h158l35 366h-144v125h156l41 418h125l-41 -418h340l41 418h125l-41 -418h143v-125h-156l-34 -366h143v-125h-156l-41 -418h-125l41 418h-340l-41 -418h-124l40 418h-145zM371 543h340l34 366h-339z" />
<glyph unicode="$" horiz-adv-x="1019" d="M94 43l25 127q202 -68 362 -68q117 0 200 65t83 183q0 60 -22 106.5t-59.5 77t-86 55t-101.5 44.5t-106.5 41.5t-102 51t-86 67t-59.5 95.5t-22 132q0 141 93.5 234t248.5 112v231h129v-229q132 -8 282 -63l-34 -123q-182 59 -308 59q-125 0 -196.5 -56.5t-71.5 -160.5 q0 -56 22 -99t59.5 -71.5t86 -51.5t101.5 -43t106.5 -42t102 -53t86 -71t59.5 -101t22 -138q0 -158 -95 -254.5t-247 -119.5v-234h-129v229q-170 7 -342 68z" />
<glyph unicode="%" horiz-adv-x="1775" d="M145 958v142q0 142 85.5 226.5t218.5 84.5q132 0 218.5 -84.5t86.5 -226.5v-142q0 -143 -86 -227t-219 -84q-134 0 -219 84t-85 227zM264 963q0 -105 49.5 -156t135.5 -51t135 51t49 156v133q0 104 -49 154t-135 50t-135.5 -50t-49.5 -154v-133zM481 0l662 1384h133 l-662 -1384h-133zM1022 287v139q0 144 85 228.5t218 84.5q132 0 218.5 -85t86.5 -228v-139q0 -143 -86.5 -228.5t-218.5 -85.5q-133 0 -218 85t-85 229zM1141 291q0 -106 49 -156.5t135 -50.5t135 50.5t49 156.5v131q0 106 -49 156.5t-135 50.5t-135 -50.5t-49 -156.5v-131z " />
<glyph unicode="&#x26;" horiz-adv-x="1185" d="M133 369q0 111 53 206t150 150q-89 49 -137.5 133t-48.5 184q0 160 113 264.5t302 104.5q141 0 281 -51l-41 -121q-121 45 -236 45q-130 0 -203 -66.5t-73 -175.5q0 -116 69 -183.5t199 -67.5h96v-129h-104q-128 0 -202.5 -83.5t-74.5 -209.5q0 -121 76 -194t207 -73 q130 0 207.5 73t77.5 194v422h260v-129h-127v-293q0 -170 -112.5 -283t-307.5 -113q-196 0 -310 113t-114 283z" />
<glyph unicode="'" horiz-adv-x="442" d="M154 1499h135l-21 -440h-96z" />
<glyph unicode="(" horiz-adv-x="645" d="M186 -45v1259q0 194 114 292t304 98v-127q-64 0 -112.5 -12.5t-89 -41.5t-62 -83.5t-21.5 -131.5v-1247q0 -148 75.5 -208t209.5 -60v-125q-191 0 -304.5 97t-113.5 290z" />
<glyph unicode=")" horiz-adv-x="643" d="M41 -307q64 0 112.5 12.5t88.5 42t61 83t21 130.5v1247q0 77 -21.5 131.5t-61.5 83.5t-88.5 41.5t-111.5 12.5v127q189 0 302.5 -98.5t113.5 -291.5v-1259q0 -193 -113.5 -290t-302.5 -97v125z" />
<glyph unicode="*" horiz-adv-x="991" d="M154 1006l249 129l-249 133l59 98l236 -149l-11 282h117l-12 -282l237 149l58 -98l-250 -133l250 -129l-58 -101l-237 150l12 -283h-117l11 283l-236 -150z" />
<glyph unicode="+" horiz-adv-x="1150" d="M154 508v125h360v358h123v-358h360v-125h-360v-358h-123v358h-360z" />
<glyph unicode="," horiz-adv-x="507" d="M117 -293l84 447h149l-133 -465z" />
<glyph unicode="-" horiz-adv-x="993" d="M184 508v125h625v-125h-625z" />
<glyph unicode="." horiz-adv-x="495" d="M154 72q0 39 27.5 65.5t66.5 26.5t66.5 -26.5t27.5 -65.5q0 -38 -28 -66.5t-66 -28.5t-66 28.5t-28 66.5z" />
<glyph unicode="/" horiz-adv-x="747" d="M119 -129l385 1628h125l-385 -1628h-125z" />
<glyph unicode="0" horiz-adv-x="1185" d="M133 526v334q0 142 36 249.5t100 172.5t145.5 97t179.5 32q97 0 178.5 -32t145 -97t99.5 -172.5t36 -249.5v-334q0 -141 -36 -249.5t-100 -173.5t-145.5 -97.5t-177.5 -32.5q-97 0 -179 32.5t-146 97.5t-100 173t-36 250zM268 526q0 -220 87.5 -324t238.5 -104t237.5 104 t86.5 324v334q0 220 -87 323t-237 103t-238 -103.5t-88 -322.5v-334z" />
<glyph unicode="1" horiz-adv-x="765" d="M104 1190v129l467 86v-1405h-135v1255z" />
<glyph unicode="2" horiz-adv-x="1079" d="M125 0v115q0 88 22.5 165t60.5 133.5t87.5 106.5t104 90t108.5 77t103.5 73.5t87.5 74.5t60.5 85t22.5 100q0 111 -70.5 188.5t-201.5 77.5q-92 0 -163 -20.5t-152 -59.5l-50 115q63 30 99.5 45t109.5 30t156 15q184 0 298 -104.5t114 -280.5q0 -82 -36.5 -153t-95 -124 t-129 -103t-141 -102t-129 -109.5t-95 -137t-36.5 -172.5h660v-125h-795z" />
<glyph unicode="3" horiz-adv-x="1013" d="M86 29l39 121q148 -52 285 -52q152 0 251 84t99 232q0 128 -82 206t-250 78h-137l-25 123l398 441h-549l-17 122h715l23 -122l-406 -441q206 0 337.5 -106.5t131.5 -300.5q0 -133 -67 -235t-177.5 -154t-244.5 -52q-159 0 -324 56z" />
<glyph unicode="4" horiz-adv-x="1114" d="M104 451l289 933h133l-276 -929h424v460l135 21v-481h201v-127h-201v-326l-135 -20v346h-549z" />
<glyph unicode="5" horiz-adv-x="1028" d="M78 33l24 119q171 -54 328 -54q58 0 115.5 19t109 56.5t83.5 105t32 153.5q0 54 -9.5 97t-34 81t-63 63t-99 39.5t-140.5 14.5h-272l24 657h690l-41 -122h-520l-14 -412h155q224 0 343.5 -105.5t119.5 -308.5q0 -112 -42 -202.5t-111.5 -146t-153 -85t-172.5 -29.5 q-181 0 -352 60z" />
<glyph unicode="6" horiz-adv-x="1116" d="M133 422v485q0 105 29.5 195.5t85.5 160t144.5 109t199.5 39.5q134 0 293 -47l-29 -125q-150 47 -264 47q-159 0 -241.5 -106.5t-82.5 -272.5v-84q149 82 303 82q121 0 219 -52t158 -159t60 -254q0 -112 -35 -202t-95.5 -147t-139.5 -87.5t-169 -30.5q-122 0 -219.5 51 t-157 154.5t-59.5 243.5zM268 420q0 -136 78.5 -229t220.5 -93q143 0 222 97.5t79 244.5q0 152 -80.5 247t-220.5 95q-153 0 -299 -82v-280z" />
<glyph unicode="7" horiz-adv-x="972" d="M51 1384h871v-118q-61 -77 -102 -134.5t-89 -135.5t-79 -148t-62 -163.5t-48.5 -192.5t-28.5 -224t-11 -268h-142q0 181 21.5 343t57.5 288t90 243.5t111 207t130 180.5h-711z" />
<glyph unicode="8" horiz-adv-x="1144" d="M121 342q0 74 24 134t70 105t94.5 76.5t116.5 63.5q-58 30 -101 60.5t-82 72t-59 96t-20 119.5q0 145 110 243.5t297 98.5q180 0 297 -96.5t117 -245.5q0 -64 -20 -116.5t-59.5 -92.5t-82 -69.5t-102.5 -59.5q68 -31 116.5 -62.5t94 -77t69 -108t23.5 -139.5 q0 -111 -61.5 -196.5t-163.5 -130t-228 -44.5q-118 0 -219.5 43t-166 129t-64.5 197zM260 344q0 -112 88.5 -179t222.5 -67q131 0 222.5 66t91.5 180q0 35 -10 66t-24.5 55t-41.5 48.5t-50 41t-62 37.5t-65 33t-71 32q-57 -25 -94 -44.5t-80 -49t-68 -59t-42 -71t-17 -89.5z M303 1069q0 -54 21 -96.5t65 -76t86 -55.5t109 -50q48 21 83 39.5t70.5 44.5t58 53t36.5 63t14 78q0 100 -76 158.5t-199 58.5q-121 0 -194.5 -58.5t-73.5 -158.5z" />
<glyph unicode="9" horiz-adv-x="1099" d="M92 944q0 221 124.5 344t313.5 123q90 0 169 -30t139 -85.5t94.5 -141.5t34.5 -191v-486q0 -141 -50.5 -253.5t-156 -181.5t-252.5 -69q-134 0 -293 47l27 125q153 -47 266 -47q159 0 241 106.5t82 272.5v84q-149 -82 -303 -82q-188 0 -312 123t-124 342zM231 944 q0 -152 80.5 -247t220.5 -95q153 0 299 82v281q0 136 -78.5 228.5t-220.5 92.5q-143 0 -222 -97.5t-79 -244.5z" />
<glyph unicode=":" horiz-adv-x="495" d="M154 72q0 39 27.5 65.5t66.5 26.5t66.5 -26.5t27.5 -65.5q0 -38 -28 -66.5t-66 -28.5t-66 28.5t-28 66.5zM154 774q0 38 28 65t66 27t66 -27t28 -65t-28 -66t-66 -28t-66 28t-28 66z" />
<glyph unicode=";" horiz-adv-x="526" d="M117 -293l84 447h149l-133 -465zM180 774q0 38 28 65t66 27q39 0 67 -27t28 -65t-28.5 -66t-66.5 -28t-66 28t-28 66z" />
<glyph unicode="&#x3c;" horiz-adv-x="1026" d="M154 571l641 529l77 -96l-520 -433l520 -430l-77 -98z" />
<glyph unicode="=" horiz-adv-x="1146" d="M154 297v123h839v-123h-839zM154 725v123h839v-123h-839z" />
<glyph unicode="&#x3e;" horiz-adv-x="1026" d="M154 141l520 430l-520 433l77 96l641 -529l-641 -528z" />
<glyph unicode="?" horiz-adv-x="909" d="M119 1309q159 102 305 102q69 0 131 -20t112 -59.5t79.5 -104.5t29.5 -148q0 -66 -28 -129t-67.5 -113t-79 -98.5t-67.5 -104.5t-28 -112v-184l-133 41v139q0 67 27.5 131t67 115.5t79 100.5t67 104.5t27.5 109.5q0 95 -57 149t-160 54q-114 0 -244 -86zM344 72 q0 39 28 65.5t68 26.5q37 0 64.5 -26.5t27.5 -65.5q0 -38 -27.5 -66.5t-64.5 -28.5q-40 0 -68 28.5t-28 66.5z" />
<glyph unicode="@" horiz-adv-x="1798" d="M150 375q0 148 37 284.5t109.5 250t172.5 198t232 131.5t282 47q202 0 358 -98.5t238 -265t82 -371.5q0 -52 -10 -107h-443l-20 -165q-14 -117 -113 -198t-235 -81q-126 0 -207.5 72t-81.5 178q0 141 96.5 220t251.5 79h205l8 61q11 94 -33.5 157.5t-142.5 63.5t-231 -36 l-13 100q141 43 258 43q151 0 224.5 -89.5t54.5 -238.5l-8 -61h321q0 100 -25 193.5t-74 173t-116 139t-158 93.5t-194 34q-134 0 -251 -46t-200.5 -124.5t-144 -181.5t-90 -217.5t-29.5 -231.5q0 -128 39.5 -240t111.5 -196t182.5 -132.5t244.5 -48.5q113 0 233.5 43 t206.5 109l53 -92q-114 -81 -228.5 -122.5t-275.5 -41.5q-158 0 -287 55.5t-213.5 152t-130.5 226.5t-46 281zM670 264q0 -68 49.5 -113t132.5 -45q86 0 148 50.5t71 122.5l21 165h-205q-97 0 -157 -44.5t-60 -135.5z" />
<glyph unicode="A" horiz-adv-x="1208" d="M72 0l452 1384h160l453 -1384h-144l-127 393h-526l-125 -393h-143zM379 516h448l-161 510q-25 78 -62 213q-21 -86 -61 -213z" />
<glyph unicode="B" horiz-adv-x="1150" d="M184 0v1384h408q193 0 304.5 -98.5t111.5 -253.5q0 -95 -48.5 -174t-136.5 -129q84 -32 139 -90.5t76 -120.5t21 -129q0 -44 -11 -88t-34 -88.5t-62 -82t-90 -67t-123.5 -46.5t-158.5 -17h-396zM324 129h254q166 0 251.5 69.5t85.5 190.5t-78.5 190.5t-242.5 69.5h-270 v-520zM324 774h249q135 0 213 65t78 177q0 114 -71 176.5t-205 62.5h-264v-481z" />
<glyph unicode="C" horiz-adv-x="1146" d="M143 522v340q0 268 143.5 408.5t377.5 140.5q103 0 190.5 -15.5t200.5 -49.5l-27 -125q-206 61 -362 61q-176 0 -279.5 -107.5t-103.5 -318.5v-330q0 -215 103 -319.5t280 -104.5q159 0 362 60l27 -127q-110 -32 -197 -47t-194 -15q-234 0 -377.5 140.5t-143.5 408.5z " />
<glyph unicode="D" horiz-adv-x="1271" d="M184 0v1307q288 104 473 104q97 0 182 -33t149.5 -94.5t102 -157t37.5 -213.5v-428q0 -239 -121.5 -362t-349.5 -123h-473zM324 129h333q167 0 249.5 87.5t82.5 275.5v413q0 179 -91.5 278t-242.5 99q-149 0 -331 -63v-1090z" />
<glyph unicode="E" horiz-adv-x="1069" d="M184 0v1384h723v-129h-583v-495h499l-12 -125h-487v-506h602v-129h-742z" />
<glyph unicode="F" horiz-adv-x="1028" d="M184 0v1384h721v-129h-581v-495h483l-14 -125h-469v-635h-140z" />
<glyph unicode="G" horiz-adv-x="1232" d="M143 522v340q0 268 143.5 408.5t377.5 140.5q102 0 186.5 -15t198.5 -48l-31 -125q-183 59 -352 59q-176 0 -279.5 -107t-103.5 -317v-332q0 -210 103.5 -317t279.5 -107q52 0 108 7.5t81.5 13t88.5 20.5v465h-156v121h291v-682q-218 -74 -415 -74q-234 0 -377.5 140.5 t-143.5 408.5z" />
<glyph unicode="H" horiz-adv-x="1292" d="M184 0v1384h140v-614h645v614h139v-1384h-139v641h-645v-641h-140z" />
<glyph unicode="I" horiz-adv-x="507" d="M184 0v1384h140v-1384h-140z" />
<glyph unicode="J" horiz-adv-x="966" d="M72 33l30 123q152 -54 281 -54q142 0 211.5 93t69.5 245v944l139 -14v-936q0 -214 -111.5 -337.5t-302.5 -123.5q-157 0 -317 60z" />
<glyph unicode="K" horiz-adv-x="1185" d="M184 0v1384h140v-776l565 776h153l-446 -626l518 -758h-162l-440 641l-188 -266v-375h-140z" />
<glyph unicode="L" horiz-adv-x="1030" d="M184 0v1384h140v-1255h614l-14 -129h-740z" />
<glyph unicode="M" horiz-adv-x="1656" d="M113 0l172 1384h170l315 -809q33 -85 57 -178q33 112 60 178l315 809h170l172 -1384h-137l-131 1047q-11 83 -14 172q-35 -107 -60 -172l-293 -771h-161l-293 771q-40 99 -62 165q-10 -153 -12 -165l-131 -1047h-137z" />
<glyph unicode="N" horiz-adv-x="1277" d="M184 0v1384h109l665 -1118q-4 72 -4 195v923h140v-1384h-119l-660 1100q9 -108 9 -197v-903h-140z" />
<glyph unicode="O" horiz-adv-x="1280" d="M143 522v336q0 135 39 242t107.5 174t158 102t193.5 35t192.5 -35t157 -102t107.5 -174t39 -242v-336q0 -135 -39 -241.5t-107.5 -172.5t-157 -100.5t-192.5 -34.5t-193.5 34t-158 100.5t-107.5 173t-39 241.5zM283 528q0 -209 98 -317.5t260 -108.5t259 108.5t97 317.5 v324q0 212 -97 321t-259 109t-260 -109t-98 -321v-324z" />
<glyph unicode="P" horiz-adv-x="1120" d="M184 0v1384h445q176 0 287.5 -118t111.5 -291q0 -170 -111.5 -290t-287.5 -120h-305v-565h-140zM324 694h305q121 0 188.5 78t67.5 203q0 126 -67 203t-189 77h-305v-561z" />
<glyph unicode="Q" horiz-adv-x="1282" d="M143 522v336q0 135 39 242t107.5 174t158 102t193.5 35t193 -35t157.5 -102t108 -174t39.5 -242v-336q0 -204 -85 -335t-229 -183l99 -256l-119 -84l-117 311q-8 0 -24 -1t-23 -1q-104 0 -193.5 34t-158 100.5t-107.5 173t-39 241.5zM283 528q0 -209 98 -317.5 t260 -108.5t260 108.5t98 317.5v324q0 212 -98 321t-260 109t-260 -109t-98 -321v-324z" />
<glyph unicode="R" horiz-adv-x="1130" d="M184 0v1384h447q176 0 286.5 -118t110.5 -291q0 -139 -77.5 -245.5t-207.5 -139.5l279 -590h-156l-264 575h-278v-575h-140zM324 694h307q120 0 188 78t68 203q0 126 -67.5 203t-188.5 77h-307v-561z" />
<glyph unicode="S" horiz-adv-x="1017" d="M102 43l25 127q202 -68 362 -68q117 0 200 65t83 183q0 60 -22 108t-59.5 81t-86 60.5t-101.5 51t-106.5 48t-102 57t-86 73t-59.5 99.5t-22 133q0 157 114.5 253.5t297.5 96.5q168 0 342 -65l-35 -123q-182 59 -307 59t-197 -56.5t-72 -160.5q0 -56 22 -100.5t59.5 -75 t86 -56.5t101.5 -49.5t106.5 -49t102 -59.5t86 -76.5t59.5 -105t22 -139.5q0 -121 -59 -209t-154 -130t-213 -42q-179 0 -387 70z" />
<glyph unicode="T" horiz-adv-x="1060" d="M72 1255v129h917v-129h-389v-1255h-139v1255h-389z" />
<glyph unicode="U" horiz-adv-x="1284" d="M174 436v948h139v-942q0 -148 93 -244t239 -96q144 0 236 96t92 244v942h137v-948q0 -202 -135 -332.5t-330 -130.5q-198 0 -334.5 130.5t-136.5 332.5z" />
<glyph unicode="V" horiz-adv-x="1208" d="M72 1384h143l328 -1026q33 -109 61 -223q15 65 62 223l327 1026h144l-453 -1384h-160z" />
<glyph unicode="W" horiz-adv-x="1665" d="M92 1384h139l185 -1046q11 -70 22 -191q32 121 54 191l256 833h170l256 -833q40 -146 51 -191q11 125 24 191l185 1046h139l-254 -1384h-166l-272 866q-40 134 -50 178q-16 -69 -47 -178l-272 -866h-166z" />
<glyph unicode="X" horiz-adv-x="1181" d="M72 0l438 731l-387 653h153l316 -532l319 532h144l-387 -645l442 -739h-156l-366 618l-371 -618h-145z" />
<glyph unicode="Y" horiz-adv-x="1130" d="M61 1384h146l358 -712l359 712h145l-434 -852v-532h-139v532z" />
<glyph unicode="Z" horiz-adv-x="1110" d="M102 0v117l695 1138h-684v129h856v-110l-697 -1145h736l-19 -129h-887z" />
<glyph unicode="[" horiz-adv-x="555" d="M186 -432v2036h328v-127h-195v-1784h195v-125h-328z" />
<glyph unicode="\" horiz-adv-x="747" d="M119 1499h125l385 -1628h-125z" />
<glyph unicode="]" horiz-adv-x="555" d="M41 -307h195v1784h-195v127h328v-2036h-328v125z" />
<glyph unicode="^" horiz-adv-x="1187" d="M182 911l342 588h142l342 -588l-111 -53l-301 528l-303 -528z" />
<glyph unicode="_" horiz-adv-x="1024" d="M0 -207h1024v-123h-1024v123z" />
<glyph unicode="`" horiz-adv-x="782" d="M174 1348l53 127l381 -166l-39 -103z" />
<glyph unicode="a" horiz-adv-x="978" d="M102 301q0 147 100 231t267 84h242v72q0 126 -60.5 193t-177.5 67t-268 -45l-29 119q151 51 297 51q172 0 272.5 -101.5t100.5 -283.5v-387q0 -137 -107.5 -232.5t-261.5 -95.5q-159 0 -267 96t-108 232zM242 305q0 -87 65.5 -147t169.5 -60q102 0 168 58.5t66 144.5v197 h-242q-113 0 -170 -53t-57 -140z" />
<glyph unicode="b" horiz-adv-x="1067" d="M133 410v1075l135 41v-539q132 86 273 86q81 0 150.5 -26.5t124.5 -78.5t86.5 -137.5t31.5 -195.5v-225q0 -104 -32.5 -188t-88 -138t-128 -82.5t-153.5 -28.5t-152.5 28.5t-127 82.5t-87.5 138t-32 188zM268 420q0 -159 73.5 -240.5t190.5 -81.5q116 0 191.5 82 t75.5 240v205q0 88 -21.5 152t-60 100.5t-85 53.5t-102.5 17q-121 0 -262 -90v-438z" />
<glyph unicode="c" horiz-adv-x="960" d="M133 432v184q0 227 114 342t310 115q135 0 291 -47l-23 -121q-165 43 -266 43q-147 0 -219 -84.5t-72 -261.5v-156q0 -178 72 -263t219 -85q118 0 266 41l23 -119q-156 -47 -291 -47q-196 0 -310 115.5t-114 343.5z" />
<glyph unicode="d" horiz-adv-x="1064" d="M133 410v225q0 110 31.5 195.5t86.5 137.5t124.5 78.5t150.5 26.5q143 0 271 -86v512h135v-1089q0 -205 -114.5 -321t-282.5 -116q-81 0 -153.5 28.5t-128 82.5t-88 138t-32.5 188zM268 420q0 -158 75 -240t192 -82q116 0 189 81.5t73 240.5v438q-141 90 -260 90 q-120 0 -194.5 -76.5t-74.5 -246.5v-205z" />
<glyph unicode="e" horiz-adv-x="1036" d="M133 399v256q0 197 111 307.5t278 110.5q165 0 278 -106.5t113 -272.5v-209h-645v-86q0 -152 73 -226.5t202 -74.5q116 0 280 47l27 -122q-155 -50 -307 -50q-185 0 -297.5 110.5t-112.5 315.5zM268 604h510v90q0 113 -71.5 183.5t-184.5 70.5q-115 0 -184.5 -74 t-69.5 -219v-51z" />
<glyph unicode="f" horiz-adv-x="632" d="M59 940v107h142v174q0 141 91 223t218 82q71 0 133 -19l-25 -121q-58 15 -106 15q-72 0 -124 -47.5t-52 -132.5v-174h280l-41 -107h-239v-940h-135v940h-142z" />
<glyph unicode="g" horiz-adv-x="960" d="M72 -367l45 119q209 -86 354 -86q138 0 207.5 48t69.5 118q0 43 -29.5 72.5t-76.5 45t-104 27.5t-114.5 25.5t-104.5 32t-76.5 54.5t-29.5 87q0 64 63 113q-80 44 -125 122.5t-45 180.5v129q0 157 101.5 254.5t259.5 97.5q75 0 145 -26l297 20l-8 -109l-156 -10 q78 -94 78 -227v-129q0 -157 -99 -253.5t-257 -96.5q-41 0 -82 6q-37 -29 -37 -58q0 -23 29.5 -39.5t77.5 -28t105.5 -23t114.5 -31t105 -46t77.5 -73.5t29.5 -109q0 -59 -26 -112t-75.5 -95t-130.5 -67t-184 -25q-198 0 -399 92zM240 592q0 -103 56.5 -164t170.5 -61 q112 0 167.5 61t55.5 164v129q0 105 -55 166t-168 61t-170 -62.5t-57 -164.5v-129z" />
<glyph unicode="h" horiz-adv-x="1118" d="M174 0v1499h135v-512q53 35 125.5 60.5t147.5 25.5q82 0 147.5 -23t117 -71t79.5 -129.5t28 -192.5v-657h-135v647q0 166 -65 233.5t-183 67.5q-125 0 -262 -90v-858h-135z" />
<glyph unicode="i" horiz-adv-x="483" d="M145 1339q0 38 28.5 65.5t68.5 27.5q39 0 67.5 -27.5t28.5 -65.5t-29 -66t-67 -28q-40 0 -68.5 28t-28.5 66zM174 0v1047h135v-1047h-135z" />
<glyph unicode="j" horiz-adv-x="483" d="M143 1339q0 38 29 65.5t70 27.5q37 0 66.5 -27.5t29.5 -65.5t-29.5 -66t-66.5 -28q-41 0 -70 28t-29 66zM174 -455v1502h135v-1461z" />
<glyph unicode="k" horiz-adv-x="964" d="M174 0v1499h135v-932l232 84q50 18 75.5 48.5t40.5 88.5l70 259h135l-76 -275q-26 -92 -60.5 -145t-107.5 -80l285 -547h-143l-260 504l-191 -72v-432h-135z" />
<glyph unicode="l" horiz-adv-x="483" d="M174 0v1485l135 41v-1526h-135z" />
<glyph unicode="m" horiz-adv-x="1673" d="M164 0v668q0 194 104.5 299.5t263.5 105.5q106 0 185.5 -61.5t118.5 -169.5q40 109 119 170t184 61q163 0 266.5 -105t103.5 -300v-668h-135v647q0 147 -63.5 224t-171.5 77q-107 0 -171.5 -87t-64.5 -249v-612h-133v612q0 161 -65 248.5t-173 87.5q-107 0 -170 -77 t-63 -224v-647h-135z" />
<glyph unicode="n" horiz-adv-x="1105" d="M164 0v657q0 195 112 305.5t279 110.5q169 0 278 -110t109 -306v-657h-135v647q0 146 -69.5 223.5t-182.5 77.5q-115 0 -185.5 -77.5t-70.5 -223.5v-647h-135z" />
<glyph unicode="o" horiz-adv-x="1091" d="M133 434v180q0 229 112.5 344t299.5 115q188 0 300.5 -115.5t112.5 -345.5v-178q0 -229 -113 -345t-300 -116q-186 0 -299 116.5t-113 344.5zM268 444q0 -346 277 -346q278 0 278 346v158q0 96 -20.5 165t-59 107.5t-87 56t-111.5 17.5q-277 0 -277 -346v-158z" />
<glyph unicode="p" horiz-adv-x="1067" d="M133 -432v1069q0 104 32 188t87.5 137.5t127 82t152.5 28.5q82 0 154 -28.5t127.5 -82t88 -137.5t32.5 -188v-225q0 -110 -31.5 -196t-86.5 -138t-124.5 -78.5t-150.5 -26.5q-141 0 -273 86v-491h-135zM268 188q141 -90 262 -90q56 0 102.5 17t85 53.5t60 101t21.5 152.5 v205q0 158 -75.5 239.5t-191.5 81.5q-117 0 -190.5 -81.5t-73.5 -239.5v-439z" />
<glyph unicode="q" horiz-adv-x="1067" d="M133 412v225q0 104 32.5 188t88 137.5t127.5 82t154 28.5q81 0 152.5 -28.5t127 -82t87.5 -137.5t32 -188v-1055l-135 -41v518q-132 -86 -273 -86q-81 0 -150.5 26.5t-124.5 78.5t-86.5 138t-31.5 196zM268 422q0 -88 21.5 -152.5t60 -101t85 -53.5t102.5 -17 q121 0 262 90v439q0 159 -72.5 240t-191.5 81q-116 0 -191.5 -81.5t-75.5 -239.5v-205z" />
<glyph unicode="r" horiz-adv-x="710" d="M164 0v690q0 171 110 277t275 106q46 0 121 -12l-25 -123q-60 10 -94 10q-111 0 -181.5 -71t-70.5 -187v-690h-135z" />
<glyph unicode="s" horiz-adv-x="851" d="M100 23l25 122q169 -47 268 -47t159 48t60 122q0 54 -27 94.5t-70.5 65t-95.5 46t-104.5 46t-96 57t-70.5 87t-27 127.5q0 124 89 203t243 79q127 0 264 -45l-35 -121q-128 41 -229 41q-94 0 -143.5 -43t-49.5 -114q0 -44 21 -77.5t55.5 -54.5t79 -41.5t90.5 -37.5 t90.5 -44t79 -59t55.5 -85t21 -120q0 -56 -22 -108t-64 -95.5t-113 -69.5t-160 -26q-153 0 -293 50z" />
<glyph unicode="t" horiz-adv-x="600" d="M25 1047h180v307l135 39v-346h223v-107h-223v-940h-135v940h-135z" />
<glyph unicode="u" horiz-adv-x="1105" d="M164 389v658h135v-648q0 -146 70 -223.5t184 -77.5q113 0 183.5 77.5t70.5 223.5v648h135v-658q0 -195 -111 -305.5t-278 -110.5q-169 0 -279 110t-110 306z" />
<glyph unicode="v" horiz-adv-x="997" d="M61 1047h140l248 -736q10 -30 49 -178q28 111 51 178l248 736h139l-358 -1047h-158z" />
<glyph unicode="w" horiz-adv-x="1581" d="M113 1047h135l45 -693q8 -115 64 -184.5t151 -69.5t155 71.5t60 186.5v611h133v-611q0 -115 60 -186.5t155 -71.5t152 69.5t65 184.5l45 693h135l-49 -703q-12 -172 -105.5 -271.5t-242.5 -99.5q-86 0 -159 40.5t-121 113.5q-47 -72 -122 -113t-161 -41 q-147 0 -240.5 101t-105.5 272z" />
<glyph unicode="x" horiz-adv-x="989" d="M61 0l355 541l-328 506h152l254 -398l260 398h145l-328 -502l357 -545h-152l-282 436l-287 -436h-146z" />
<glyph unicode="y" horiz-adv-x="980" d="M72 1047h137l92 -668q16 -122 69 -187t158 -65h131l115 920h135l-186 -1479h-135l55 432h-117q-310 0 -360 360z" />
<glyph unicode="z" horiz-adv-x="952" d="M123 0v123l534 801h-522v123h674v-123l-535 -801h555l-20 -123h-686z" />
<glyph unicode="{" horiz-adv-x="817" d="M106 524v127q128 0 190 58t62 209v296q0 194 114 292t304 98v-127q-133 0 -208.5 -60t-75.5 -209v-290q0 -229 -160 -332q160 -100 160 -330v-295q0 -77 21.5 -130.5t61.5 -83t88.5 -42t112.5 -12.5v-125q-191 0 -304.5 97t-113.5 290v301q0 147 -62.5 207.5t-189.5 60.5 z" />
<glyph unicode="|" horiz-adv-x="501" d="M184 -410v1909h133v-1909h-133z" />
<glyph unicode="}" horiz-adv-x="815" d="M41 -307q64 0 112.5 12.5t88.5 42t61 83t21 130.5v295q0 115 42.5 199t118.5 131q-161 104 -161 332v290q0 77 -21.5 131.5t-61.5 83.5t-88.5 41.5t-111.5 12.5v127q189 0 302.5 -98.5t113.5 -291.5v-296q0 -150 62.5 -208.5t189.5 -58.5v-127q-126 0 -189 -60.5 t-63 -207.5v-301q0 -193 -113.5 -290t-302.5 -97v125z" />
<glyph unicode="~" horiz-adv-x="1120" d="M154 582q39 55 97.5 98t131.5 43q53 0 107 -25.5t90 -55.5t79 -55.5t78 -25.5q32 0 60.5 15.5t43.5 30.5t38 44l88 -76q-39 -55 -98 -98t-132 -43q-54 0 -107.5 25.5t-89 55.5t-78.5 55.5t-79 25.5q-32 0 -60.5 -15.5t-42.5 -30.5t-38 -44z" />
<glyph unicode="&#xa1;" horiz-adv-x="495" d="M154 1104q0 38 27.5 66t64.5 28q40 0 68 -28t28 -66q0 -39 -28 -65.5t-68 -26.5q-37 0 -64.5 26.5t-27.5 65.5zM166 -221l18 962h123l17 -921z" />
<glyph unicode="&#xa2;" horiz-adv-x="980" d="M133 432v184q0 209 97.5 323t267.5 132v229h129v-231q88 -7 221 -43l-23 -121q-165 43 -266 43q-147 0 -219 -84.5t-72 -261.5v-156q0 -178 72 -263t219 -85q118 0 266 41l23 -119q-133 -36 -221 -43v-231h-129v229q-171 18 -268 132.5t-97 324.5z" />
<glyph unicode="&#xa3;" horiz-adv-x="983" d="M125 563v117h135q-6 27 -20.5 82t-22.5 87t-15 79.5t-7 89.5q0 190 107 291.5t282 101.5q153 0 293 -57l-41 -119q-130 47 -242 47q-129 0 -192.5 -73.5t-63.5 -202.5q0 -43 6.5 -90.5t12.5 -75.5t21 -85.5t19 -74.5h385v-117h-364q4 -40 4 -61q0 -191 -129 -375h577 v-127h-733v121q146 187 146 381q0 21 -4 61h-154z" />
<glyph unicode="&#xa4;" horiz-adv-x="1134" d="M166 262l115 115q-58 86 -58 194q0 106 60 195l-117 119l90 90l117 -119q88 59 194 59q105 0 193 -59l119 119l90 -90l-119 -119q61 -86 61 -195q0 -106 -59 -194l117 -115l-90 -90l-117 115q-89 -60 -195 -60q-107 0 -196 60l-115 -115zM344 571q0 -92 65.5 -157.5 t157.5 -65.5t158 65.5t66 157.5t-66 158t-158 66t-157.5 -66t-65.5 -158z" />
<glyph unicode="&#xa5;" horiz-adv-x="1028" d="M18 1384h158l340 -710l336 710h158l-379 -757h239v-117h-284v-148h284v-116h-284v-246h-140v246h-284v116h284v148h-284v117h237z" />
<glyph unicode="&#xa6;" horiz-adv-x="501" d="M184 283h133v-693h-133v693zM184 793v706h133v-706h-133z" />
<glyph unicode="&#xa7;" horiz-adv-x="1120" d="M147 -188l23 127q174 -62 326 -62q106 0 175.5 51.5t69.5 151.5q0 55 -19.5 98t-52 71t-75 51t-89 42t-93.5 39t-89.5 47t-75 62t-52 88.5t-19.5 121.5q0 151 113 240q-31 71 -31 150q0 145 103 233t268 88q152 0 301 -61l-33 -123q-150 55 -268 55q-110 0 -169 -49 t-59 -139q0 -63 31 -108.5t81 -73.5t110.5 -52t121 -54t110.5 -69.5t81 -107.5t31 -160q0 -147 -111 -240q29 -66 29 -149q0 -154 -112.5 -243t-276.5 -89q-170 0 -349 64zM319 705q0 -64 31 -110t84.5 -75t110.5 -52t123.5 -56t109.5 -72q45 51 45 129q0 70 -30 119.5 t-82.5 80.5t-107.5 53.5t-121.5 52.5t-108.5 63q-54 -51 -54 -133z" />
<glyph unicode="&#xa8;" horiz-adv-x="911" d="M174 1339q0 40 28 68.5t66 28.5t66 -28.5t28 -68.5q0 -37 -28 -64.5t-66 -27.5t-66 27.5t-28 64.5zM547 1339q0 39 28.5 68t65.5 29q40 0 68 -28.5t28 -68.5q0 -37 -28.5 -64.5t-67.5 -27.5q-37 0 -65.5 27.5t-28.5 64.5z" />
<glyph unicode="&#xa9;" horiz-adv-x="1564" d="M143 662q0 143 43.5 268t123.5 218t201 146.5t269 53.5q150 0 272.5 -53.5t202.5 -146.5t123 -218t43 -268q0 -144 -43 -269t-123 -219t-202.5 -147.5t-272.5 -53.5q-196 0 -342.5 93t-220.5 248t-74 348zM258 662q0 -163 59.5 -292t179.5 -206.5t283 -77.5 q124 0 225 44.5t166.5 122.5t100.5 183t35 226q0 120 -35 224t-100.5 182t-166.5 122.5t-225 44.5q-163 0 -283 -77.5t-179.5 -205.5t-59.5 -290zM506 559v201q0 124 77 196t191 72q100 0 205 -31l-18 -88q-103 27 -185 27q-77 0 -123.5 -52.5t-46.5 -135.5v-183 q0 -80 46.5 -130t123.5 -50q84 0 185 29l18 -90q-105 -31 -205 -31q-115 0 -191.5 71.5t-76.5 194.5z" />
<glyph unicode="&#xaa;" horiz-adv-x="739" d="M102 848q0 104 72.5 163.5t192.5 59.5h153v43q0 168 -151 168q-81 0 -193 -33l-22 99q119 36 215 36q123 0 195.5 -72t72.5 -198v-266q0 -99 -77.5 -167.5t-186.5 -68.5q-115 0 -193 68.5t-78 167.5zM219 850q0 -57 42.5 -96t111.5 -39q64 0 105.5 38.5t41.5 94.5v125 h-153q-74 0 -111 -33.5t-37 -89.5z" />
<glyph unicode="&#xab;" horiz-adv-x="985" d="M154 571l282 342l99 -82l-218 -260l218 -260l-99 -80zM473 571l281 342l98 -82l-215 -260l215 -260l-98 -80z" />
<glyph unicode="&#xac;" horiz-adv-x="1146" d="M154 510v125h839v-504h-125v379h-714z" />
<glyph unicode="&#xad;" horiz-adv-x="993" d="M184 508v125h625v-125h-625z" />
<glyph unicode="&#xae;" horiz-adv-x="1564" d="M143 662q0 143 43.5 268t123.5 218t201 146.5t269 53.5q150 0 272.5 -53.5t202.5 -146.5t123 -218t43 -268q0 -144 -43 -269t-123 -219t-202.5 -147.5t-272.5 -53.5q-196 0 -342.5 93t-220.5 248t-74 348zM258 662q0 -163 59.5 -292t179.5 -206.5t283 -77.5 q124 0 225 44.5t166.5 122.5t100.5 183t35 226q0 120 -35 224t-100.5 182t-166.5 122.5t-225 44.5q-163 0 -283 -77.5t-179.5 -205.5t-59.5 -290zM565 303v717h228q103 0 163 -63t60 -152q0 -62 -34 -119.5t-103 -83.5l145 -299h-104l-138 285h-116v-285h-101zM666 678h127 q59 0 90.5 36t31.5 91q0 54 -31 88.5t-91 34.5h-127v-250z" />
<glyph unicode="&#xaf;" horiz-adv-x="886" d="M184 1286v127h518v-127h-518z" />
<glyph unicode="&#xb0;" horiz-adv-x="811" d="M154 1274q0 100 74 174t178 74q101 0 176 -75.5t75 -176.5q0 -105 -74.5 -178.5t-176.5 -73.5q-105 0 -178.5 74.5t-73.5 181.5zM274 1272q0 -55 39 -94t95 -39q54 0 91.5 38.5t37.5 94.5q0 54 -38 91.5t-93 37.5q-54 0 -93 -37.5t-39 -91.5z" />
<glyph unicode="&#xb1;" horiz-adv-x="1089" d="M154 10h782v-119h-782v119zM154 508v125h329v325h123v-325h330v-125h-330v-326h-123v326h-329z" />
<glyph unicode="&#xb4;" horiz-adv-x="782" d="M174 1309l381 166l53 -127l-395 -142z" />
<glyph unicode="&#xb5;" horiz-adv-x="1116" d="M174 -432v1479h135v-664q0 -137 71 -211t183 -74q113 0 183.5 77.5t70.5 223.5v648h135v-658q0 -195 -111 -305.5t-278 -110.5q-151 0 -254 86v-491h-135z" />
<glyph unicode="&#xb6;" horiz-adv-x="1210" d="M133 1001q0 159 102 270t254 111h568v-1628h-131v1503h-213v-1503h-131v867h-93q-152 0 -254 111t-102 269z" />
<glyph unicode="&#xb7;" horiz-adv-x="567" d="M188 569q0 41 29 70t66 29q41 0 69.5 -29t28.5 -70q0 -37 -28.5 -64.5t-69.5 -27.5q-37 0 -66 28t-29 64z" />
<glyph unicode="&#xb8;" horiz-adv-x="595" d="M92 -420l17 117q42 -10 90 -10q61 0 88.5 27t27.5 85v201h127v-215q0 -60 -20 -103.5t-54 -67.5t-73.5 -35t-85.5 -11q-71 0 -117 12z" />
<glyph unicode="&#xba;" horiz-adv-x="796" d="M102 936v127q0 158 81.5 239.5t213.5 81.5q134 0 215.5 -82t81.5 -241v-125q0 -158 -82 -241t-215 -83q-132 0 -213.5 83t-81.5 241zM219 944q0 -229 178 -229q181 0 181 229v109q0 123 -47 176t-134 53q-178 0 -178 -229v-109z" />
<glyph unicode="&#xbb;" horiz-adv-x="985" d="M133 313l215 260l-215 261l98 79l281 -340l-281 -342zM451 313l217 260l-217 261l98 79l282 -340l-282 -342z" />
<glyph unicode="&#xbf;" horiz-adv-x="909" d="M119 94q0 66 28 129t67.5 113t79 98.5t67.5 104.5t28 112v185l133 -41v-140q0 -67 -27.5 -131t-67 -115.5t-79 -100.5t-67 -104.5t-27.5 -109.5q0 -95 57 -149t160 -54q114 0 244 86l61 -112q-161 -103 -305 -103q-69 0 -131 20t-112 59.5t-79.5 104.5t-29.5 148z M362 1102q0 38 28 66t65 28q40 0 68 -28t28 -66q0 -39 -28 -65.5t-68 -26.5q-38 0 -65.5 26.5t-27.5 65.5z" />
<glyph unicode="&#xc0;" horiz-adv-x="1208" d="M72 0l452 1384h160l453 -1384h-144l-127 393h-526l-125 -393h-143zM379 516h448l-161 510q-25 78 -62 213q-21 -86 -61 -213zM387 1655l53 127l381 -166l-39 -103z" />
<glyph unicode="&#xc1;" horiz-adv-x="1208" d="M72 0l452 1384h160l453 -1384h-144l-127 393h-526l-125 -393h-143zM379 516h448l-161 510q-25 78 -62 213q-21 -86 -61 -213zM387 1616l381 166l53 -127l-395 -142z" />
<glyph unicode="&#xc2;" horiz-adv-x="1208" d="M72 0l452 1384h160l453 -1384h-144l-127 393h-526l-125 -393h-143zM338 1620l266 162l266 -162l-63 -107l-203 140l-203 -140zM379 516h448l-161 510q-25 78 -62 213q-21 -86 -61 -213z" />
<glyph unicode="&#xc3;" horiz-adv-x="1208" d="M72 0l452 1384h160l453 -1384h-144l-127 393h-526l-125 -393h-143zM322 1647q17 39 58.5 75.5t102.5 36.5q37 0 74.5 -15.5t62.5 -34.5t54.5 -34.5t52.5 -15.5q52 0 94 59l66 -67q-17 -39 -59.5 -76t-100.5 -37q-37 0 -75 15.5t-63 33.5t-54 33.5t-52 15.5q-51 0 -96 -57 zM379 516h448l-161 510q-25 78 -62 213q-21 -86 -61 -213z" />
<glyph unicode="&#xc4;" horiz-adv-x="1208" d="M72 0l452 1384h160l453 -1384h-144l-127 393h-526l-125 -393h-143zM324 1647q0 40 28 68t66 28t66 -28t28 -68q0 -37 -28 -65t-66 -28t-66 28t-28 65zM379 516h448l-161 510q-25 78 -62 213q-21 -86 -61 -213zM696 1647q0 39 29 67.5t66 28.5q40 0 68 -28t28 -68 q0 -37 -28.5 -65t-67.5 -28q-37 0 -66 28t-29 65z" />
<glyph unicode="&#xc5;" horiz-adv-x="1208" d="M72 0l452 1384h160l453 -1384h-144l-127 393h-526l-125 -393h-143zM379 516h448l-161 510q-25 78 -62 213q-21 -86 -61 -213zM428 1690q0 71 52.5 122.5t125.5 51.5q70 0 122 -52t52 -122q0 -72 -51.5 -124.5t-122.5 -52.5q-73 0 -125.5 52.5t-52.5 124.5zM535 1690 q0 -30 20.5 -52t50.5 -22q29 0 50.5 22.5t21.5 51.5q0 30 -21 51.5t-51 21.5q-31 0 -51 -21t-20 -52z" />
<glyph unicode="&#xc6;" horiz-adv-x="1839" d="M68 0l833 1384h731l6 -129h-555l35 -495h502l-33 -125h-463l37 -506h576l8 -129h-715l-29 393h-542l-232 -393h-159zM530 516h463l-47 705z" />
<glyph unicode="&#xc7;" horiz-adv-x="1146" d="M143 522v340q0 268 143.5 408.5t377.5 140.5q103 0 190.5 -15.5t200.5 -49.5l-27 -125q-206 61 -362 61q-176 0 -279.5 -107.5t-103.5 -318.5v-330q0 -215 103 -319.5t280 -104.5q159 0 362 60l27 -127q-163 -49 -307 -60v-190q0 -60 -20 -103.5t-54.5 -67.5t-74 -35 t-85.5 -11q-70 0 -117 12l17 117q42 -10 90 -10q61 0 89 27.5t28 84.5v176q-216 13 -347 152.5t-131 394.5z" />
<glyph unicode="&#xc8;" horiz-adv-x="1069" d="M184 0v1384h723v-129h-583v-495h499l-12 -125h-487v-506h602v-129h-742zM330 1655l53 127l381 -166l-39 -103z" />
<glyph unicode="&#xc9;" horiz-adv-x="1069" d="M184 0v1384h723v-129h-583v-495h499l-12 -125h-487v-506h602v-129h-742zM317 1616l381 166l54 -127l-396 -142z" />
<glyph unicode="&#xca;" horiz-adv-x="1069" d="M184 0v1384h723v-129h-583v-495h499l-12 -125h-487v-506h602v-129h-742zM268 1620l267 162l266 -162l-64 -107l-202 140l-203 -140z" />
<glyph unicode="&#xcb;" horiz-adv-x="1069" d="M184 0v1384h723v-129h-583v-495h499l-12 -125h-487v-506h602v-129h-742zM270 1647q0 39 28 67.5t67 28.5q38 0 66 -28t28 -68q0 -37 -28 -65t-66 -28t-66.5 28t-28.5 65zM643 1647q0 39 28.5 67.5t65.5 28.5q40 0 68.5 -28t28.5 -68q0 -37 -29 -65t-68 -28 q-37 0 -65.5 28t-28.5 65z" />
<glyph unicode="&#xcc;" horiz-adv-x="507" d="M37 1655l53 127l381 -166l-39 -103zM184 0v1384h140v-1384h-140z" />
<glyph unicode="&#xcd;" horiz-adv-x="507" d="M37 1616l381 166l53 -127l-395 -142zM184 0v1384h140v-1384h-140z" />
<glyph unicode="&#xce;" horiz-adv-x="507" d="M-12 1620l266 162l266 -162l-63 -107l-203 140l-203 -140zM184 0v1384h140v-1384h-140z" />
<glyph unicode="&#xcf;" horiz-adv-x="507" d="M-27 1647q0 39 28.5 67.5t66.5 28.5t66 -28t28 -68q0 -37 -28 -65t-66 -28t-66.5 28t-28.5 65zM184 0v1384h140v-1384h-140zM346 1647q0 39 28.5 67.5t65.5 28.5q40 0 68.5 -28t28.5 -68q0 -37 -29 -65t-68 -28q-37 0 -65.5 28t-28.5 65z" />
<glyph unicode="&#xd0;" horiz-adv-x="1271" d="M55 649v107h129v551q288 104 473 104q97 0 182 -33t149.5 -94.5t102 -157t37.5 -213.5v-428q0 -239 -121.5 -362t-349.5 -123h-473v649h-129zM324 129h333q167 0 249.5 87.5t82.5 275.5v413q0 179 -91.5 278t-242.5 99q-149 0 -331 -63v-463h327v-107h-327v-520z" />
<glyph unicode="&#xd1;" horiz-adv-x="1277" d="M184 0v1384h109l665 -1118q-4 72 -4 195v923h140v-1384h-119l-660 1100q9 -108 9 -197v-903h-140zM356 1647q17 39 59 75.5t103 36.5q37 0 74.5 -15.5t62.5 -34.5t54.5 -34.5t52.5 -15.5q52 0 94 59l66 -67q-17 -39 -59.5 -76t-100.5 -37q-37 0 -75 15.5t-63 33.5 t-54 33.5t-52 15.5q-51 0 -96 -57z" />
<glyph unicode="&#xd2;" horiz-adv-x="1280" d="M143 522v336q0 135 39 242t107.5 174t158 102t193.5 35t192.5 -35t157 -102t107.5 -174t39 -242v-336q0 -135 -39 -241.5t-107.5 -172.5t-157 -100.5t-192.5 -34.5t-193.5 34t-158 100.5t-107.5 173t-39 241.5zM283 528q0 -209 98 -317.5t260 -108.5t259 108.5t97 317.5 v324q0 212 -97 321t-259 109t-260 -109t-98 -321v-324zM422 1655l53 127l381 -166l-39 -103z" />
<glyph unicode="&#xd3;" horiz-adv-x="1280" d="M143 522v336q0 135 39 242t107.5 174t158 102t193.5 35t192.5 -35t157 -102t107.5 -174t39 -242v-336q0 -135 -39 -241.5t-107.5 -172.5t-157 -100.5t-192.5 -34.5t-193.5 34t-158 100.5t-107.5 173t-39 241.5zM283 528q0 -209 98 -317.5t260 -108.5t259 108.5t97 317.5 v324q0 212 -97 321t-259 109t-260 -109t-98 -321v-324zM422 1616l381 166l53 -127l-395 -142z" />
<glyph unicode="&#xd4;" horiz-adv-x="1280" d="M143 522v336q0 135 39 242t107.5 174t158 102t193.5 35t192.5 -35t157 -102t107.5 -174t39 -242v-336q0 -135 -39 -241.5t-107.5 -172.5t-157 -100.5t-192.5 -34.5t-193.5 34t-158 100.5t-107.5 173t-39 241.5zM283 528q0 -209 98 -317.5t260 -108.5t259 108.5t97 317.5 v324q0 212 -97 321t-259 109t-260 -109t-98 -321v-324zM373 1620l266 162l266 -162l-63 -107l-203 140l-203 -140z" />
<glyph unicode="&#xd5;" horiz-adv-x="1280" d="M143 522v336q0 135 39 242t107.5 174t158 102t193.5 35t192.5 -35t157 -102t107.5 -174t39 -242v-336q0 -135 -39 -241.5t-107.5 -172.5t-157 -100.5t-192.5 -34.5t-193.5 34t-158 100.5t-107.5 173t-39 241.5zM283 528q0 -209 98 -317.5t260 -108.5t259 108.5t97 317.5 v324q0 212 -97 321t-259 109t-260 -109t-98 -321v-324zM356 1647q17 39 59 75.5t103 36.5q37 0 74.5 -15.5t62.5 -34.5t54.5 -34.5t52.5 -15.5q52 0 94 59l66 -67q-17 -39 -59.5 -76t-100.5 -37q-37 0 -75 15.5t-63 33.5t-54 33.5t-52 15.5q-51 0 -96 -57z" />
<glyph unicode="&#xd6;" horiz-adv-x="1280" d="M143 522v336q0 135 39 242t107.5 174t158 102t193.5 35t192.5 -35t157 -102t107.5 -174t39 -242v-336q0 -135 -39 -241.5t-107.5 -172.5t-157 -100.5t-192.5 -34.5t-193.5 34t-158 100.5t-107.5 173t-39 241.5zM283 528q0 -209 98 -317.5t260 -108.5t259 108.5t97 317.5 v324q0 212 -97 321t-259 109t-260 -109t-98 -321v-324zM360 1647q0 39 28 67.5t67 28.5q38 0 66 -28t28 -68q0 -37 -28 -65t-66 -28t-66.5 28t-28.5 65zM733 1647q0 39 28.5 67.5t65.5 28.5q40 0 68.5 -28t28.5 -68q0 -37 -29 -65t-68 -28q-37 0 -65.5 28t-28.5 65z" />
<glyph unicode="&#xd7;" horiz-adv-x="991" d="M154 317l256 254l-254 256l86 86l254 -256l254 258l88 -88l-256 -256l254 -254l-86 -86l-254 254l-254 -256z" />
<glyph unicode="&#xd8;" horiz-adv-x="1280" d="M143 522v336q0 135 39 242t107.5 174t158 102t193.5 35q135 0 244 -59l73 151l113 -53l-84 -172q150 -150 150 -420v-336q0 -135 -39 -241.5t-107.5 -172.5t-157 -100.5t-192.5 -34.5q-141 0 -260 64l-76 -156l-112 53l88 183q-138 148 -138 405zM283 528q0 -166 65 -274 l479 981q-80 47 -186 47q-162 0 -260 -109t-98 -321v-324zM440 158q79 -56 201 -56q162 0 259 108.5t97 317.5v324q0 186 -75 293z" />
<glyph unicode="&#xd9;" horiz-adv-x="1284" d="M174 436v948h139v-942q0 -148 93 -244t239 -96q144 0 236 96t92 244v942h137v-948q0 -202 -135 -332.5t-330 -130.5q-198 0 -334.5 130.5t-136.5 332.5zM424 1655l53 127l381 -166l-39 -103z" />
<glyph unicode="&#xda;" horiz-adv-x="1284" d="M174 436v948h139v-942q0 -148 93 -244t239 -96q144 0 236 96t92 244v942h137v-948q0 -202 -135 -332.5t-330 -130.5q-198 0 -334.5 130.5t-136.5 332.5zM424 1616l381 166l53 -127l-395 -142z" />
<glyph unicode="&#xdb;" horiz-adv-x="1284" d="M174 436v948h139v-942q0 -148 93 -244t239 -96q144 0 236 96t92 244v942h137v-948q0 -202 -135 -332.5t-330 -130.5q-198 0 -334.5 130.5t-136.5 332.5zM375 1620l266 162l266 -162l-63 -107l-203 140l-203 -140z" />
<glyph unicode="&#xdc;" horiz-adv-x="1284" d="M174 436v948h139v-942q0 -148 93 -244t239 -96q144 0 236 96t92 244v942h137v-948q0 -202 -135 -332.5t-330 -130.5q-198 0 -334.5 130.5t-136.5 332.5zM362 1647q0 39 28 67.5t67 28.5q38 0 66 -28t28 -68q0 -37 -28 -65t-66 -28t-66.5 28t-28.5 65zM735 1647 q0 39 28.5 67.5t65.5 28.5q40 0 68.5 -28t28.5 -68q0 -37 -29 -65t-68 -28q-37 0 -65.5 28t-28.5 65z" />
<glyph unicode="&#xdd;" horiz-adv-x="1130" d="M61 1384h146l358 -712l359 712h145l-434 -852v-532h-139v532zM348 1616l381 166l53 -127l-395 -142z" />
<glyph unicode="&#xde;" horiz-adv-x="1120" d="M184 0v1384h140v-272h305q176 0 287.5 -118.5t111.5 -291.5q0 -170 -111.5 -289.5t-287.5 -119.5h-305v-293h-140zM324 422h305q121 0 188.5 77.5t67.5 202.5q0 126 -67 203.5t-189 77.5h-305v-561z" />
<glyph unicode="&#xdf;" horiz-adv-x="1198" d="M59 940v107h140v145q0 85 29 151t77.5 105t105.5 58.5t119 19.5q61 0 119 -20t107 -58t78.5 -101.5t29.5 -142.5q0 -58 -26 -109.5t-62.5 -89.5t-73 -73t-62.5 -74t-26 -78q0 -50 26.5 -85.5t69.5 -57.5t94.5 -41.5t103 -44t94.5 -57.5t69.5 -89.5t26.5 -132.5 q0 -56 -21.5 -108t-62.5 -95.5t-110 -69.5t-156 -26q-152 0 -289 50l24 122q162 -47 265 -47q95 0 152.5 47.5t57.5 122.5q0 54 -26.5 93.5t-68.5 63.5t-93.5 44t-102.5 44t-93 55t-68.5 85t-26.5 127q0 53 18.5 99t46.5 77t60 62.5t60 56.5t46.5 58.5t18.5 68.5 q0 98 -61 148.5t-138 50.5q-35 0 -68 -11t-62.5 -34.5t-47.5 -65.5t-18 -98v-1192h-135v940h-140z" />
<glyph unicode="&#xe0;" horiz-adv-x="978" d="M102 301q0 147 100 231t267 84h242v72q0 126 -60.5 193t-177.5 67t-268 -45l-29 119q151 51 297 51q172 0 272.5 -101.5t100.5 -283.5v-387q0 -137 -107.5 -232.5t-261.5 -95.5q-159 0 -267 96t-108 232zM242 305q0 -87 65.5 -147t169.5 -60q102 0 168 58.5t66 144.5v197 h-242q-113 0 -170 -53t-57 -140zM256 1348l53 127l381 -166l-39 -103z" />
<glyph unicode="&#xe1;" horiz-adv-x="978" d="M102 301q0 147 100 231t267 84h242v72q0 126 -60.5 193t-177.5 67t-268 -45l-29 119q151 51 297 51q172 0 272.5 -101.5t100.5 -283.5v-387q0 -137 -107.5 -232.5t-261.5 -95.5q-159 0 -267 96t-108 232zM242 305q0 -87 65.5 -147t169.5 -60q102 0 168 58.5t66 144.5v197 h-242q-113 0 -170 -53t-57 -140zM242 1309l381 166l53 -127l-395 -142z" />
<glyph unicode="&#xe2;" horiz-adv-x="978" d="M102 301q0 147 100 231t267 84h242v72q0 126 -60.5 193t-177.5 67t-268 -45l-29 119q151 51 297 51q172 0 272.5 -101.5t100.5 -283.5v-387q0 -137 -107.5 -232.5t-261.5 -95.5q-159 0 -267 96t-108 232zM201 1313l266 162l266 -162l-63 -107l-203 140l-203 -140z M242 305q0 -87 65.5 -147t169.5 -60q102 0 168 58.5t66 144.5v197h-242q-113 0 -170 -53t-57 -140z" />
<glyph unicode="&#xe3;" horiz-adv-x="978" d="M102 301q0 147 100 231t267 84h242v72q0 126 -60.5 193t-177.5 67t-268 -45l-29 119q151 51 297 51q172 0 272.5 -101.5t100.5 -283.5v-387q0 -137 -107.5 -232.5t-261.5 -95.5q-159 0 -267 96t-108 232zM184 1339q17 39 59 76t103 37q37 0 74.5 -15.5t62.5 -34.5 t54.5 -34.5t52.5 -15.5q52 0 94 59l66 -68q-17 -38 -59.5 -75t-100.5 -37q-37 0 -75 15.5t-63 33.5t-54 33.5t-52 15.5q-51 0 -96 -57zM242 305q0 -87 65.5 -147t169.5 -60q102 0 168 58.5t66 144.5v197h-242q-113 0 -170 -53t-57 -140z" />
<glyph unicode="&#xe4;" horiz-adv-x="978" d="M102 301q0 147 100 231t267 84h242v72q0 126 -60.5 193t-177.5 67t-268 -45l-29 119q151 51 297 51q172 0 272.5 -101.5t100.5 -283.5v-387q0 -137 -107.5 -232.5t-261.5 -95.5q-159 0 -267 96t-108 232zM176 1339q0 40 28 68.5t66 28.5t66.5 -28.5t28.5 -68.5 q0 -37 -28.5 -64.5t-66.5 -27.5t-66 27.5t-28 64.5zM242 305q0 -87 65.5 -147t169.5 -60q102 0 168 58.5t66 144.5v197h-242q-113 0 -170 -53t-57 -140zM549 1339q0 39 28.5 68t65.5 29q40 0 68 -28.5t28 -68.5q0 -37 -28.5 -64.5t-67.5 -27.5q-37 0 -65.5 27.5t-28.5 64.5z " />
<glyph unicode="&#xe5;" horiz-adv-x="978" d="M102 301q0 147 100 231t267 84h242v72q0 126 -60.5 193t-177.5 67t-268 -45l-29 119q151 51 297 51q172 0 272.5 -101.5t100.5 -283.5v-387q0 -137 -107.5 -232.5t-261.5 -95.5q-159 0 -267 96t-108 232zM242 305q0 -87 65.5 -147t169.5 -60q102 0 168 58.5t66 144.5v197 h-242q-113 0 -170 -53t-57 -140zM295 1382q0 71 52.5 122.5t125.5 51.5q71 0 122.5 -52t51.5 -122q0 -72 -51.5 -124t-122.5 -52q-73 0 -125.5 52t-52.5 124zM401 1382q0 -30 21 -51.5t51 -21.5q29 0 50.5 22t21.5 51q0 31 -21.5 52.5t-50.5 21.5q-31 0 -51.5 -21.5 t-20.5 -52.5z" />
<glyph unicode="&#xe6;" horiz-adv-x="1613" d="M102 301q0 147 100 229t267 82h242v76q0 126 -60.5 193t-177.5 67t-268 -45l-29 119q151 51 297 51q214 0 309 -155q52 76 133 115.5t179 39.5q165 0 278 -106.5t113 -272.5v-209h-645v-86q0 -152 72.5 -226.5t201.5 -74.5q122 0 281 47l26 -122q-159 -50 -307 -50 q-212 0 -321 142q-118 -142 -316 -142q-159 0 -267 96t-108 232zM242 305q0 -87 65.5 -147t169.5 -60q88 0 146 29.5t112 101.5q-24 74 -24 170v95h-242q-113 0 -170 -51t-57 -138zM840 604h510v90q0 113 -71.5 183.5t-184.5 70.5q-115 0 -184.5 -74t-69.5 -219v-51z" />
<glyph unicode="&#xe7;" horiz-adv-x="960" d="M133 432v184q0 227 114 342t310 115q135 0 291 -47l-23 -121q-165 43 -266 43q-147 0 -219 -84.5t-72 -261.5v-156q0 -178 72 -263t219 -85q118 0 266 41l23 -119q-122 -37 -225 -45v-190q0 -60 -20 -103.5t-54.5 -67.5t-74 -35t-85.5 -11q-71 0 -117 12l17 117 q42 -10 90 -10q61 0 89 27.5t28 84.5v178q-170 18 -266.5 132t-96.5 323z" />
<glyph unicode="&#xe8;" horiz-adv-x="1036" d="M133 399v256q0 197 111 307.5t278 110.5q165 0 278 -106.5t113 -272.5v-209h-645v-86q0 -152 73 -226.5t202 -74.5q116 0 280 47l27 -122q-155 -50 -307 -50q-185 0 -297.5 110.5t-112.5 315.5zM268 604h510v90q0 113 -71.5 183.5t-184.5 70.5q-115 0 -184.5 -74 t-69.5 -219v-51zM301 1348l53 127l381 -166l-39 -103z" />
<glyph unicode="&#xe9;" horiz-adv-x="1036" d="M133 399v256q0 197 111 307.5t278 110.5q165 0 278 -106.5t113 -272.5v-209h-645v-86q0 -152 73 -226.5t202 -74.5q116 0 280 47l27 -122q-155 -50 -307 -50q-185 0 -297.5 110.5t-112.5 315.5zM268 604h510v90q0 113 -71.5 183.5t-184.5 70.5q-115 0 -184.5 -74 t-69.5 -219v-51zM301 1309l381 166l53 -127l-395 -142z" />
<glyph unicode="&#xea;" horiz-adv-x="1036" d="M133 399v256q0 197 111 307.5t278 110.5q165 0 278 -106.5t113 -272.5v-209h-645v-86q0 -152 73 -226.5t202 -74.5q116 0 280 47l27 -122q-155 -50 -307 -50q-185 0 -297.5 110.5t-112.5 315.5zM252 1313l266 162l266 -162l-63 -107l-203 140l-203 -140zM268 604h510v90 q0 113 -71.5 183.5t-184.5 70.5q-115 0 -184.5 -74t-69.5 -219v-51z" />
<glyph unicode="&#xeb;" horiz-adv-x="1036" d="M133 399v256q0 197 111 307.5t278 110.5q165 0 278 -106.5t113 -272.5v-209h-645v-86q0 -152 73 -226.5t202 -74.5q116 0 280 47l27 -122q-155 -50 -307 -50q-185 0 -297.5 110.5t-112.5 315.5zM236 1339q0 40 28 68.5t66 28.5t66 -28.5t28 -68.5q0 -37 -28 -64.5 t-66 -27.5t-66 27.5t-28 64.5zM268 604h510v90q0 113 -71.5 183.5t-184.5 70.5q-115 0 -184.5 -74t-69.5 -219v-51zM608 1339q0 39 28.5 68t65.5 29q40 0 68.5 -28.5t28.5 -68.5q0 -37 -28.5 -64.5t-68.5 -27.5q-37 0 -65.5 27.5t-28.5 64.5z" />
<glyph unicode="&#xec;" horiz-adv-x="483" d="M25 1348l53 127l381 -166l-39 -103zM174 0v1047h135v-1047h-135z" />
<glyph unicode="&#xed;" horiz-adv-x="483" d="M25 1309l381 166l53 -127l-396 -142zM174 0v1047h135v-1047h-135z" />
<glyph unicode="&#xee;" horiz-adv-x="483" d="M-25 1313l267 162l266 -162l-64 -107l-202 140l-203 -140zM174 0v1047h135v-1047h-135z" />
<glyph unicode="&#xef;" horiz-adv-x="483" d="M-41 1339q0 40 28 68.5t66 28.5t66 -28.5t28 -68.5q0 -37 -28 -64.5t-66 -27.5t-66 27.5t-28 64.5zM174 0v1047h135v-1047h-135zM332 1339q0 39 28.5 68t65.5 29q40 0 68 -28.5t28 -68.5q0 -37 -28.5 -64.5t-67.5 -27.5q-37 0 -65.5 27.5t-28.5 64.5z" />
<glyph unicode="&#xf0;" horiz-adv-x="1091" d="M133 434v125q0 229 112.5 344t299.5 115q155 0 284 -90v133q0 306 -225 332l-80 -217l-100 38l65 181q-108 -8 -227 -45l-22 112q172 52 292 54l70 188l100 -39l-57 -158q147 -27 230 -136t83 -300v-637q0 -229 -113 -345t-300 -116q-186 0 -299 116.5t-113 344.5z M268 444q0 -346 277 -346q278 0 278 346v351q-54 42 -130 70t-148 28q-277 0 -277 -346v-103z" />
<glyph unicode="&#xf1;" horiz-adv-x="1105" d="M164 0v657q0 195 112 305.5t279 110.5q169 0 278 -110t109 -306v-657h-135v647q0 146 -69.5 223.5t-182.5 77.5q-115 0 -185.5 -77.5t-70.5 -223.5v-647h-135zM270 1339q17 39 59 76t103 37q37 0 74.5 -15.5t62.5 -34.5t54.5 -34.5t52.5 -15.5q52 0 94 59l66 -68 q-17 -38 -59.5 -75t-100.5 -37q-37 0 -75 15.5t-63 33.5t-54 33.5t-52 15.5q-51 0 -96 -57z" />
<glyph unicode="&#xf2;" horiz-adv-x="1091" d="M133 434v180q0 229 112.5 344t299.5 115q188 0 300.5 -115.5t112.5 -345.5v-178q0 -229 -113 -345t-300 -116q-186 0 -299 116.5t-113 344.5zM268 444q0 -346 277 -346q278 0 278 346v158q0 96 -20.5 165t-59 107.5t-87 56t-111.5 17.5q-277 0 -277 -346v-158zM328 1348 l53 127l381 -166l-39 -103z" />
<glyph unicode="&#xf3;" horiz-adv-x="1091" d="M133 434v180q0 229 112.5 344t299.5 115q188 0 300.5 -115.5t112.5 -345.5v-178q0 -229 -113 -345t-300 -116q-186 0 -299 116.5t-113 344.5zM268 444q0 -346 277 -346q278 0 278 346v158q0 96 -20.5 165t-59 107.5t-87 56t-111.5 17.5q-277 0 -277 -346v-158zM328 1309 l381 166l53 -127l-395 -142z" />
<glyph unicode="&#xf4;" horiz-adv-x="1091" d="M133 434v180q0 229 112.5 344t299.5 115q188 0 300.5 -115.5t112.5 -345.5v-178q0 -229 -113 -345t-300 -116q-186 0 -299 116.5t-113 344.5zM268 444q0 -346 277 -346q278 0 278 346v158q0 96 -20.5 165t-59 107.5t-87 56t-111.5 17.5q-277 0 -277 -346v-158zM279 1313 l266 162l266 -162l-63 -107l-203 140l-203 -140z" />
<glyph unicode="&#xf5;" horiz-adv-x="1091" d="M133 434v180q0 229 112.5 344t299.5 115q188 0 300.5 -115.5t112.5 -345.5v-178q0 -229 -113 -345t-300 -116q-186 0 -299 116.5t-113 344.5zM262 1339q17 39 59 76t103 37q37 0 74.5 -15.5t62.5 -34.5t54.5 -34.5t52.5 -15.5q52 0 94 59l65 -68q-17 -39 -59 -75.5 t-100 -36.5q-37 0 -75 15.5t-63 33.5t-54 33.5t-52 15.5q-51 0 -96 -57zM268 444q0 -346 277 -346q278 0 278 346v158q0 96 -20.5 165t-59 107.5t-87 56t-111.5 17.5q-277 0 -277 -346v-158z" />
<glyph unicode="&#xf6;" horiz-adv-x="1091" d="M133 434v180q0 229 112.5 344t299.5 115q188 0 300.5 -115.5t112.5 -345.5v-178q0 -229 -113 -345t-300 -116q-186 0 -299 116.5t-113 344.5zM264 1339q0 40 28 68.5t66 28.5t66.5 -28.5t28.5 -68.5q0 -37 -28.5 -64.5t-66.5 -27.5t-66 27.5t-28 64.5zM268 444 q0 -346 277 -346q278 0 278 346v158q0 96 -20.5 165t-59 107.5t-87 56t-111.5 17.5q-277 0 -277 -346v-158zM637 1339q0 39 28.5 68t65.5 29q40 0 68 -28.5t28 -68.5q0 -37 -28.5 -64.5t-67.5 -27.5q-37 0 -65.5 27.5t-28.5 64.5z" />
<glyph unicode="&#xf8;" horiz-adv-x="1093" d="M135 434v180q0 229 112.5 344t299.5 115q100 0 184 -35l70 140l104 -52l-74 -153q130 -120 130 -361v-178q0 -229 -113.5 -345t-300.5 -116q-103 0 -187 35l-67 -139l-105 51l74 154q-127 121 -127 360zM270 444q0 -153 56 -241l350 721q-55 24 -129 24q-277 0 -277 -346 v-158zM418 123q58 -25 129 -25q278 0 278 346v158q0 160 -57 242z" />
<glyph unicode="&#xf9;" horiz-adv-x="1105" d="M164 389v658h135v-648q0 -146 70 -223.5t184 -77.5q113 0 183.5 77.5t70.5 223.5v648h135v-658q0 -195 -111 -305.5t-278 -110.5q-169 0 -279 110t-110 306zM336 1348l53 127l381 -166l-39 -103z" />
<glyph unicode="&#xfa;" horiz-adv-x="1105" d="M164 389v658h135v-648q0 -146 70 -223.5t184 -77.5q113 0 183.5 77.5t70.5 223.5v648h135v-658q0 -195 -111 -305.5t-278 -110.5q-169 0 -279 110t-110 306zM336 1309l381 166l53 -127l-395 -142z" />
<glyph unicode="&#xfb;" horiz-adv-x="1105" d="M164 389v658h135v-648q0 -146 70 -223.5t184 -77.5q113 0 183.5 77.5t70.5 223.5v648h135v-658q0 -195 -111 -305.5t-278 -110.5q-169 0 -279 110t-110 306zM287 1313l266 162l266 -162l-63 -107l-203 140l-203 -140z" />
<glyph unicode="&#xfc;" horiz-adv-x="1105" d="M164 389v658h135v-648q0 -146 70 -223.5t184 -77.5q113 0 183.5 77.5t70.5 223.5v648h135v-658q0 -195 -111 -305.5t-278 -110.5q-169 0 -279 110t-110 306zM270 1339q0 40 28.5 68.5t66.5 28.5t66 -28.5t28 -68.5q0 -37 -28 -64.5t-66 -27.5t-66.5 27.5t-28.5 64.5z M643 1339q0 39 28.5 68t65.5 29q40 0 68.5 -28.5t28.5 -68.5q0 -37 -28.5 -64.5t-68.5 -27.5q-37 0 -65.5 27.5t-28.5 64.5z" />
<glyph unicode="&#xfd;" horiz-adv-x="980" d="M72 1047h137l92 -668q16 -122 69 -187t158 -65h131l115 920h135l-186 -1479h-135l55 432h-117q-310 0 -360 360zM272 1309l381 166l54 -127l-396 -142z" />
<glyph unicode="&#xfe;" horiz-adv-x="1107" d="M174 -432v1931h135v-522q110 96 264 96q82 0 154 -28.5t127.5 -82t88 -137.5t32.5 -188v-225q0 -110 -31.5 -196t-86.5 -138t-124.5 -78.5t-150.5 -26.5q-141 0 -273 86v-491h-135zM309 188q141 -90 262 -90q56 0 102.5 17t85 53.5t60 101t21.5 152.5v205 q0 158 -75.5 239.5t-191.5 81.5q-114 0 -189 -78t-75 -227v-455z" />
<glyph unicode="&#xff;" horiz-adv-x="980" d="M72 1047h137l92 -668q16 -122 69 -187t158 -65h131l115 920h135l-186 -1479h-135l55 432h-117q-310 0 -360 360zM209 1339q0 40 28 68.5t66 28.5t66 -28.5t28 -68.5q0 -37 -28 -64.5t-66 -27.5t-66 27.5t-28 64.5zM582 1339q0 39 28.5 68t65.5 29q40 0 68 -28.5t28 -68.5 q0 -37 -28.5 -64.5t-67.5 -27.5q-37 0 -65.5 27.5t-28.5 64.5z" />
<glyph unicode="&#x100;" horiz-adv-x="1208" d="M72 0l452 1384h160l453 -1384h-144l-127 393h-526l-125 -393h-143zM344 1593v127h518v-127h-518zM379 516h448l-161 510q-25 78 -62 213q-21 -86 -61 -213z" />
<glyph unicode="&#x101;" horiz-adv-x="978" d="M102 301q0 147 100 231t267 84h242v72q0 126 -60.5 193t-177.5 67t-268 -45l-29 119q151 51 297 51q172 0 272.5 -101.5t100.5 -283.5v-387q0 -137 -107.5 -232.5t-261.5 -95.5q-159 0 -267 96t-108 232zM205 1286v127h518v-127h-518zM242 305q0 -87 65.5 -147t169.5 -60 q102 0 168 58.5t66 144.5v197h-242q-113 0 -170 -53t-57 -140z" />
<glyph unicode="&#x102;" horiz-adv-x="1208" d="M72 0l452 1384h160l453 -1384h-144l-127 393h-526l-125 -393h-143zM375 1767h119q0 -52 31.5 -87t78.5 -35q45 0 77 35t32 87h118q0 -103 -64.5 -169t-162.5 -66q-99 0 -164 66t-65 169zM379 516h448l-161 510q-25 78 -62 213q-21 -86 -61 -213z" />
<glyph unicode="&#x103;" horiz-adv-x="978" d="M102 301q0 147 100 231t267 84h242v72q0 126 -60.5 193t-177.5 67t-268 -45l-29 119q151 51 297 51q172 0 272.5 -101.5t100.5 -283.5v-387q0 -137 -107.5 -232.5t-261.5 -95.5q-159 0 -267 96t-108 232zM227 1460h119q0 -52 32 -87.5t79 -35.5q45 0 76.5 35.5t31.5 87.5 h119q0 -103 -64.5 -169t-162.5 -66q-99 0 -164.5 66t-65.5 169zM242 305q0 -87 65.5 -147t169.5 -60q102 0 168 58.5t66 144.5v197h-242q-113 0 -170 -53t-57 -140z" />
<glyph unicode="&#x104;" horiz-adv-x="1208" d="M72 0l452 1384h160l453 -1384q-43 -33 -71 -58t-57.5 -58.5t-44 -70t-14.5 -75.5q0 -41 24 -63.5t62 -22.5q46 0 76 12l25 -102q-52 -19 -99 -19q-91 0 -145.5 51t-54.5 136q0 78 48.5 148.5t119.5 121.5h-13l-127 393h-526l-125 -393h-143zM379 516h448l-161 510 q-25 78 -62 213q-21 -86 -61 -213z" />
<glyph unicode="&#x105;" horiz-adv-x="978" d="M102 301q0 147 100 231t267 84h242v72q0 126 -60.5 193t-177.5 67t-268 -45l-29 119q151 51 297 51q172 0 272.5 -101.5t100.5 -283.5v-387q0 -108 -70 -193t-182 -118q-81 -63 -126.5 -122t-45.5 -130q0 -41 24 -63.5t62 -22.5q46 0 76 12l24 -102q-52 -19 -98 -19 q-91 0 -146 51t-55 136q0 131 135 245q-147 10 -244.5 103.5t-97.5 222.5zM242 305q0 -87 65.5 -147t169.5 -60q102 0 168 58.5t66 144.5v197h-242q-113 0 -170 -53t-57 -140z" />
<glyph unicode="&#x106;" horiz-adv-x="1146" d="M143 522v340q0 268 143.5 408.5t377.5 140.5q103 0 190.5 -15.5t200.5 -49.5l-27 -125q-206 61 -362 61q-176 0 -279.5 -107.5t-103.5 -318.5v-330q0 -215 103 -319.5t280 -104.5q159 0 362 60l27 -127q-110 -32 -197 -47t-194 -15q-234 0 -377.5 140.5t-143.5 408.5z M418 1616l381 166l53 -127l-395 -142z" />
<glyph unicode="&#x107;" horiz-adv-x="960" d="M133 432v184q0 227 114 342t310 115q135 0 291 -47l-23 -121q-165 43 -266 43q-147 0 -219 -84.5t-72 -261.5v-156q0 -178 72 -263t219 -85q118 0 266 41l23 -119q-156 -47 -291 -47q-196 0 -310 115.5t-114 343.5zM293 1309l381 166l53 -127l-395 -142z" />
<glyph unicode="&#x108;" horiz-adv-x="1146" d="M143 522v340q0 268 143.5 408.5t377.5 140.5q103 0 190.5 -15.5t200.5 -49.5l-27 -125q-206 61 -362 61q-176 0 -279.5 -107.5t-103.5 -318.5v-330q0 -215 103 -319.5t280 -104.5q159 0 362 60l27 -127q-110 -32 -197 -47t-194 -15q-234 0 -377.5 140.5t-143.5 408.5z M377 1620l266 162l266 -162l-63 -107l-203 140l-203 -140z" />
<glyph unicode="&#x109;" horiz-adv-x="960" d="M133 432v184q0 227 114 342t310 115q135 0 291 -47l-23 -121q-165 43 -266 43q-147 0 -219 -84.5t-72 -261.5v-156q0 -178 72 -263t219 -85q118 0 266 41l23 -119q-156 -47 -291 -47q-196 0 -310 115.5t-114 343.5zM250 1313l266 162l266 -162l-63 -107l-203 140 l-203 -140z" />
<glyph unicode="&#x10a;" horiz-adv-x="1146" d="M143 522v340q0 268 143.5 408.5t377.5 140.5q103 0 190.5 -15.5t200.5 -49.5l-27 -125q-206 61 -362 61q-176 0 -279.5 -107.5t-103.5 -318.5v-330q0 -215 103 -319.5t280 -104.5q159 0 362 60l27 -127q-110 -32 -197 -47t-194 -15q-234 0 -377.5 140.5t-143.5 408.5z M535 1647q0 39 28.5 67.5t65.5 28.5q40 0 68 -28t28 -68q0 -37 -28.5 -65t-67.5 -28q-37 0 -65.5 28t-28.5 65z" />
<glyph unicode="&#x10b;" horiz-adv-x="960" d="M133 432v184q0 227 114 342t310 115q135 0 291 -47l-23 -121q-165 43 -266 43q-147 0 -219 -84.5t-72 -261.5v-156q0 -178 72 -263t219 -85q118 0 266 41l23 -119q-156 -47 -291 -47q-196 0 -310 115.5t-114 343.5zM422 1339q0 39 28.5 68t65.5 29q40 0 68 -28.5 t28 -68.5q0 -37 -28.5 -64.5t-67.5 -27.5q-37 0 -65.5 27.5t-28.5 64.5z" />
<glyph unicode="&#x10c;" horiz-adv-x="1146" d="M143 522v340q0 268 143.5 408.5t377.5 140.5q103 0 190.5 -15.5t200.5 -49.5l-27 -125q-206 61 -362 61q-176 0 -279.5 -107.5t-103.5 -318.5v-330q0 -215 103 -319.5t280 -104.5q159 0 362 60l27 -127q-110 -32 -197 -47t-194 -15q-234 0 -377.5 140.5t-143.5 408.5z M375 1675l63 107l203 -142l203 142l63 -107l-266 -164z" />
<glyph unicode="&#x10d;" horiz-adv-x="960" d="M133 432v184q0 227 114 342t310 115q135 0 291 -47l-23 -121q-165 43 -266 43q-147 0 -219 -84.5t-72 -261.5v-156q0 -178 72 -263t219 -85q118 0 266 41l23 -119q-156 -47 -291 -47q-196 0 -310 115.5t-114 343.5zM254 1368l63 107l203 -142l203 142l63 -107l-266 -164z " />
<glyph unicode="&#x10e;" horiz-adv-x="1271" d="M184 0v1307q288 104 473 104q97 0 182 -33t149.5 -94.5t102 -157t37.5 -213.5v-428q0 -239 -121.5 -362t-349.5 -123h-473zM324 129h333q167 0 249.5 87.5t82.5 275.5v413q0 179 -91.5 278t-242.5 99q-149 0 -331 -63v-1090zM369 1675l63 107l203 -142l203 142l63 -107 l-266 -164z" />
<glyph unicode="&#x10f;" horiz-adv-x="1064" d="M133 410v225q0 110 31.5 195.5t86.5 137.5t124.5 78.5t150.5 26.5q143 0 271 -86v512h135v-1089q0 -205 -114.5 -321t-282.5 -116q-81 0 -153.5 28.5t-128 82.5t-88 138t-32.5 188zM268 420q0 -158 75 -240t192 -82q116 0 189 81.5t73 240.5v438q-141 90 -260 90 q-120 0 -194.5 -76.5t-74.5 -246.5v-205zM1065 1128v371l147 21l-47 -392h-100z" />
<glyph unicode="&#x110;" horiz-adv-x="1271" d="M55 649v107h129v551q288 104 473 104q97 0 182 -33t149.5 -94.5t102 -157t37.5 -213.5v-428q0 -239 -121.5 -362t-349.5 -123h-473v649h-129zM324 129h333q167 0 249.5 87.5t82.5 275.5v413q0 179 -91.5 278t-242.5 99q-149 0 -331 -63v-463h327v-107h-327v-520z" />
<glyph unicode="&#x111;" horiz-adv-x="1064" d="M133 410v225q0 110 31.5 195.5t86.5 137.5t124.5 78.5t150.5 26.5q143 0 271 -86v264h-242v107h242v141h135v-141h88v-107h-88v-841q0 -205 -114.5 -321t-282.5 -116q-81 0 -153.5 28.5t-128 82.5t-88 138t-32.5 188zM268 420q0 -158 75 -240t192 -82q116 0 189 81.5 t73 240.5v438q-141 90 -260 90q-120 0 -194.5 -76.5t-74.5 -246.5v-205z" />
<glyph unicode="&#x112;" horiz-adv-x="1069" d="M184 0v1384h723v-129h-583v-495h499l-12 -125h-487v-506h602v-129h-742zM285 1593v127h518v-127h-518z" />
<glyph unicode="&#x113;" horiz-adv-x="1036" d="M133 399v256q0 197 111 307.5t278 110.5q165 0 278 -106.5t113 -272.5v-209h-645v-86q0 -152 73 -226.5t202 -74.5q116 0 280 47l27 -122q-155 -50 -307 -50q-185 0 -297.5 110.5t-112.5 315.5zM258 1286v127h518v-127h-518zM268 604h510v90q0 113 -71.5 183.5 t-184.5 70.5q-115 0 -184.5 -74t-69.5 -219v-51z" />
<glyph unicode="&#x114;" horiz-adv-x="1069" d="M184 0v1384h723v-129h-583v-495h499l-12 -125h-487v-506h602v-129h-742zM305 1767h119q0 -52 32 -87t79 -35q45 0 76.5 35t31.5 87h119q0 -103 -64.5 -169t-162.5 -66q-99 0 -164.5 66t-65.5 169z" />
<glyph unicode="&#x115;" horiz-adv-x="1036" d="M133 399v256q0 197 111 307.5t278 110.5q165 0 278 -106.5t113 -272.5v-209h-645v-86q0 -152 73 -226.5t202 -74.5q116 0 280 47l27 -122q-155 -50 -307 -50q-185 0 -297.5 110.5t-112.5 315.5zM268 604h510v90q0 113 -71.5 183.5t-184.5 70.5q-115 0 -184.5 -74 t-69.5 -219v-51zM289 1460h119q0 -53 31.5 -88t78.5 -35q45 0 77 35.5t32 87.5h118q0 -103 -64.5 -169t-162.5 -66q-99 0 -164 66t-65 169z" />
<glyph unicode="&#x116;" horiz-adv-x="1069" d="M184 0v1384h723v-129h-583v-495h499l-12 -125h-487v-506h602v-129h-742zM465 1647q0 39 28.5 67.5t65.5 28.5q40 0 68 -28t28 -68q0 -37 -28.5 -65t-67.5 -28q-37 0 -65.5 28t-28.5 65z" />
<glyph unicode="&#x117;" horiz-adv-x="1036" d="M133 399v256q0 197 111 307.5t278 110.5q165 0 278 -106.5t113 -272.5v-209h-645v-86q0 -152 73 -226.5t202 -74.5q116 0 280 47l27 -122q-155 -50 -307 -50q-185 0 -297.5 110.5t-112.5 315.5zM268 604h510v90q0 113 -71.5 183.5t-184.5 70.5q-115 0 -184.5 -74 t-69.5 -219v-51zM422 1339q0 39 28.5 68t65.5 29q40 0 68 -28.5t28 -68.5q0 -37 -28.5 -64.5t-67.5 -27.5q-37 0 -65.5 27.5t-28.5 64.5z" />
<glyph unicode="&#x118;" horiz-adv-x="1069" d="M184 0v1384h723v-129h-583v-495h499l-12 -125h-487v-506h602v-129q-43 -33 -71 -58t-57.5 -58.5t-44 -70t-14.5 -75.5q0 -41 24 -63.5t62 -22.5q46 0 76 12l25 -102q-52 -19 -99 -19q-91 0 -145.5 51t-54.5 136q0 78 48.5 148.5t119.5 121.5h-611z" />
<glyph unicode="&#x119;" horiz-adv-x="1036" d="M133 399v256q0 197 111 307.5t278 110.5q165 0 278 -106.5t113 -272.5v-209h-645v-86q0 -152 73 -226.5t202 -74.5q121 0 280 47l27 -122q-186 -143 -186 -285q0 -41 24 -63.5t62 -22.5q45 0 75 12l25 -102q-52 -19 -98 -19q-91 0 -146 51t-55 136q0 64 35 133t88 119 q-88 -9 -131 -9q-185 0 -297.5 110.5t-112.5 315.5zM268 604h510v90q0 113 -71.5 183.5t-184.5 70.5q-115 0 -184.5 -74t-69.5 -219v-51z" />
<glyph unicode="&#x11a;" horiz-adv-x="1069" d="M184 0v1384h723v-129h-583v-495h499l-12 -125h-487v-506h602v-129h-742zM295 1675l63 107l203 -142l203 142l63 -107l-266 -164z" />
<glyph unicode="&#x11b;" horiz-adv-x="1036" d="M133 399v256q0 197 111 307.5t278 110.5q165 0 278 -106.5t113 -272.5v-209h-645v-86q0 -152 73 -226.5t202 -74.5q116 0 280 47l27 -122q-155 -50 -307 -50q-185 0 -297.5 110.5t-112.5 315.5zM252 1368l63 107l203 -142l203 142l63 -107l-266 -164zM268 604h510v90 q0 113 -71.5 183.5t-184.5 70.5q-115 0 -184.5 -74t-69.5 -219v-51z" />
<glyph unicode="&#x11c;" horiz-adv-x="1232" d="M143 522v340q0 268 143.5 408.5t377.5 140.5q102 0 186.5 -15t198.5 -48l-31 -125q-183 59 -352 59q-176 0 -279.5 -107t-103.5 -317v-332q0 -210 103.5 -317t279.5 -107q52 0 108 7.5t81.5 13t88.5 20.5v465h-156v121h291v-682q-218 -74 -415 -74q-234 0 -377.5 140.5 t-143.5 408.5zM373 1620l266 162l266 -162l-63 -107l-203 140l-203 -140z" />
<glyph unicode="&#x11d;" horiz-adv-x="960" d="M72 -367l45 119q209 -86 354 -86q138 0 207.5 48t69.5 118q0 43 -29.5 72.5t-76.5 45t-104 27.5t-114.5 25.5t-104.5 32t-76.5 54.5t-29.5 87q0 64 63 113q-80 44 -125 122.5t-45 180.5v129q0 157 101.5 254.5t259.5 97.5q75 0 145 -26l297 20l-8 -109l-156 -10 q78 -94 78 -227v-129q0 -157 -99 -253.5t-257 -96.5q-41 0 -82 6q-37 -29 -37 -58q0 -23 29.5 -39.5t77.5 -28t105.5 -23t114.5 -31t105 -46t77.5 -73.5t29.5 -109q0 -59 -26 -112t-75.5 -95t-130.5 -67t-184 -25q-198 0 -399 92zM195 1313l266 162l266 -162l-63 -107 l-203 140l-203 -140zM240 592q0 -103 56.5 -164t170.5 -61q112 0 167.5 61t55.5 164v129q0 105 -55 166t-168 61t-170 -62.5t-57 -164.5v-129z" />
<glyph unicode="&#x11e;" horiz-adv-x="1232" d="M143 522v340q0 268 143.5 408.5t377.5 140.5q102 0 186.5 -15t198.5 -48l-31 -125q-183 59 -352 59q-176 0 -279.5 -107t-103.5 -317v-332q0 -210 103.5 -317t279.5 -107q52 0 108 7.5t81.5 13t88.5 20.5v465h-156v121h291v-682q-218 -74 -415 -74q-234 0 -377.5 140.5 t-143.5 408.5zM412 1767h118q0 -52 32 -87t79 -35q45 0 77 35t32 87h118q0 -103 -64.5 -169t-162.5 -66q-99 0 -164 66t-65 169z" />
<glyph unicode="&#x11f;" horiz-adv-x="960" d="M72 -367l45 119q209 -86 354 -86q138 0 207.5 48t69.5 118q0 43 -29.5 72.5t-76.5 45t-104 27.5t-114.5 25.5t-104.5 32t-76.5 54.5t-29.5 87q0 64 63 113q-80 44 -125 122.5t-45 180.5v129q0 157 101.5 254.5t259.5 97.5q75 0 145 -26l297 20l-8 -109l-156 -10 q78 -94 78 -227v-129q0 -157 -99 -253.5t-257 -96.5q-41 0 -82 6q-37 -29 -37 -58q0 -23 29.5 -39.5t77.5 -28t105.5 -23t114.5 -31t105 -46t77.5 -73.5t29.5 -109q0 -59 -26 -112t-75.5 -95t-130.5 -67t-184 -25q-198 0 -399 92zM227 1460h119q0 -52 32 -87.5t79 -35.5 q45 0 76.5 35.5t31.5 87.5h119q0 -103 -64.5 -169t-162.5 -66q-99 0 -164.5 66t-65.5 169zM240 592q0 -103 56.5 -164t170.5 -61q112 0 167.5 61t55.5 164v129q0 105 -55 166t-168 61t-170 -62.5t-57 -164.5v-129z" />
<glyph unicode="&#x120;" horiz-adv-x="1232" d="M143 522v340q0 268 143.5 408.5t377.5 140.5q102 0 186.5 -15t198.5 -48l-31 -125q-183 59 -352 59q-176 0 -279.5 -107t-103.5 -317v-332q0 -210 103.5 -317t279.5 -107q52 0 108 7.5t81.5 13t88.5 20.5v465h-156v121h291v-682q-218 -74 -415 -74q-234 0 -377.5 140.5 t-143.5 408.5zM535 1647q0 39 28.5 67.5t65.5 28.5q40 0 68 -28t28 -68q0 -37 -28.5 -65t-67.5 -28q-37 0 -65.5 28t-28.5 65z" />
<glyph unicode="&#x121;" horiz-adv-x="960" d="M72 -367l45 119q209 -86 354 -86q138 0 207.5 48t69.5 118q0 43 -29.5 72.5t-76.5 45t-104 27.5t-114.5 25.5t-104.5 32t-76.5 54.5t-29.5 87q0 64 63 113q-80 44 -125 122.5t-45 180.5v129q0 157 101.5 254.5t259.5 97.5q75 0 145 -26l297 20l-8 -109l-156 -10 q78 -94 78 -227v-129q0 -157 -99 -253.5t-257 -96.5q-41 0 -82 6q-37 -29 -37 -58q0 -23 29.5 -39.5t77.5 -28t105.5 -23t114.5 -31t105 -46t77.5 -73.5t29.5 -109q0 -59 -26 -112t-75.5 -95t-130.5 -67t-184 -25q-198 0 -399 92zM240 592q0 -103 56.5 -164t170.5 -61 q112 0 167.5 61t55.5 164v129q0 105 -55 166t-168 61t-170 -62.5t-57 -164.5v-129zM354 1339q0 39 29 68t66 29q40 0 68 -28.5t28 -68.5q0 -37 -28.5 -64.5t-67.5 -27.5q-37 0 -66 28t-29 64z" />
<glyph unicode="&#x122;" horiz-adv-x="1232" d="M143 522v340q0 268 143.5 408.5t377.5 140.5q102 0 186.5 -15t198.5 -48l-31 -125q-183 59 -352 59q-176 0 -279.5 -107t-103.5 -317v-332q0 -210 103.5 -317t279.5 -107q52 0 108 7.5t81.5 13t88.5 20.5v465h-156v121h291v-682q-218 -74 -415 -74q-234 0 -377.5 140.5 t-143.5 408.5zM510 -459l63 326h142l-105 -326h-100z" />
<glyph unicode="&#x123;" horiz-adv-x="960" d="M72 -367l45 119q209 -86 354 -86q138 0 207.5 48t69.5 118q0 43 -29.5 72.5t-76.5 45t-104 27.5t-114.5 25.5t-104.5 32t-76.5 54.5t-29.5 87q0 64 63 113q-80 44 -125 122.5t-45 180.5v129q0 157 101.5 254.5t259.5 97.5q75 0 145 -26l297 20l-8 -109l-156 -10 q78 -94 78 -227v-129q0 -157 -99 -253.5t-257 -96.5q-41 0 -82 6q-37 -29 -37 -58q0 -23 29.5 -39.5t77.5 -28t105.5 -23t114.5 -31t105 -46t77.5 -73.5t29.5 -109q0 -59 -26 -112t-75.5 -95t-130.5 -67t-184 -25q-198 0 -399 92zM240 592q0 -103 56.5 -164t170.5 -61 q112 0 167.5 61t55.5 164v129q0 105 -55 166t-168 61t-170 -62.5t-57 -164.5v-129zM408 1192l63 326h141l-104 -326h-100z" />
<glyph unicode="&#x124;" horiz-adv-x="1292" d="M184 0v1384h140v-614h645v614h139v-1384h-139v641h-645v-641h-140zM379 1620l266 162l266 -162l-63 -107l-203 140l-203 -140z" />
<glyph unicode="&#x125;" horiz-adv-x="1118" d="M-29 1606l267 161l266 -161l-64 -107l-202 139l-203 -139zM174 0v1499h135v-512q53 35 125.5 60.5t147.5 25.5q82 0 147.5 -23t117 -71t79.5 -129.5t28 -192.5v-657h-135v647q0 166 -65 233.5t-183 67.5q-125 0 -262 -90v-858h-135z" />
<glyph unicode="&#x126;" horiz-adv-x="1292" d="M102 1014v106h82v264h140v-264h645v264h139v-264h82v-106h-82v-1014h-139v641h-645v-641h-140v1014h-82zM324 770h645v244h-645v-244z" />
<glyph unicode="&#x127;" horiz-adv-x="1118" d="M90 1251v107h84v141h135v-141h246v-107h-246v-264q53 35 125.5 60.5t147.5 25.5q82 0 147.5 -23t117 -71t79.5 -129.5t28 -192.5v-657h-135v647q0 166 -65 233.5t-183 67.5q-125 0 -262 -90v-858h-135v1251h-84z" />
<glyph unicode="&#x128;" horiz-adv-x="507" d="M-29 1647q17 39 59 75.5t103 36.5q37 0 74.5 -15.5t62.5 -34.5t54.5 -34.5t52.5 -15.5q52 0 94 59l66 -67q-17 -39 -59.5 -76t-100.5 -37q-37 0 -75 15.5t-63 33.5t-54 33.5t-52 15.5q-51 0 -96 -57zM184 0v1384h140v-1384h-140z" />
<glyph unicode="&#x129;" horiz-adv-x="483" d="M-41 1339q17 39 59 76t103 37q37 0 74.5 -15.5t62.5 -34.5t54.5 -34.5t52.5 -15.5q52 0 94 59l65 -68q-17 -39 -59 -75.5t-100 -36.5q-37 0 -75 15.5t-63 33.5t-54 33.5t-52 15.5q-51 0 -96 -57zM174 0v1047h135v-1047h-135z" />
<glyph unicode="&#x12a;" horiz-adv-x="507" d="M-4 1593v127h518v-127h-518zM184 0v1384h140v-1384h-140z" />
<glyph unicode="&#x12b;" horiz-adv-x="483" d="M-18 1286v127h518v-127h-518zM174 0v1047h135v-1047h-135z" />
<glyph unicode="&#x12c;" horiz-adv-x="507" d="M27 1796h118q0 -52 32 -87.5t79 -35.5q45 0 77 35.5t32 87.5h118q0 -103 -64.5 -169t-162.5 -66q-99 0 -164 66t-65 169zM184 0v1384h140v-1384h-140z" />
<glyph unicode="&#x12d;" horiz-adv-x="483" d="M12 1460h119q0 -52 32 -87.5t79 -35.5q45 0 76.5 35.5t31.5 87.5h119q0 -103 -64.5 -169t-162.5 -66q-99 0 -164.5 66t-65.5 169zM174 0v1047h135v-1047h-135z" />
<glyph unicode="&#x12e;" horiz-adv-x="507" d="M25 -270q0 78 48.5 148.5t119.5 121.5h-9v1384h140v-1384q-43 -33 -71 -58t-57.5 -58.5t-44 -70t-14.5 -75.5q0 -41 24 -63.5t62 -22.5q46 0 76 12l25 -102q-52 -19 -99 -19q-91 0 -145.5 51t-54.5 136z" />
<glyph unicode="&#x12f;" horiz-adv-x="483" d="M10 -270q0 78 48 148t116 122v1047h135v-1047q-89 -69 -137.5 -128.5t-48.5 -133.5q0 -41 24 -63.5t62 -22.5q46 0 76 12l24 -102q-52 -19 -98 -19q-91 0 -146 51t-55 136zM145 1339q0 38 28.5 65.5t68.5 27.5q39 0 67.5 -27.5t28.5 -65.5t-29 -66t-67 -28 q-40 0 -68.5 28t-28.5 66z" />
<glyph unicode="&#x130;" horiz-adv-x="507" d="M160 1647q0 39 28.5 67.5t65.5 28.5q40 0 68 -28t28 -68q0 -37 -28.5 -65t-67.5 -28q-37 0 -65.5 28t-28.5 65zM184 0v1384h140v-1384h-140z" />
<glyph unicode="&#x131;" horiz-adv-x="483" d="M174 0v1047h135v-1047h-135z" />
<glyph unicode="&#x132;" horiz-adv-x="1474" d="M184 0v1384h140v-1384h-140zM580 33l30 123q152 -54 281 -54q142 0 211 93t69 245v944l140 -14v-936q0 -214 -111.5 -337.5t-302.5 -123.5q-157 0 -317 60z" />
<glyph unicode="&#x133;" horiz-adv-x="964" d="M145 1339q0 38 28.5 65.5t68.5 27.5q39 0 67.5 -27.5t28.5 -65.5t-29 -66t-67 -28q-40 0 -68.5 28t-28.5 66zM174 0v1047h135v-1047h-135zM625 1339q0 38 28.5 65.5t69.5 27.5q37 0 66.5 -27.5t29.5 -65.5t-29.5 -66t-66.5 -28q-41 0 -69.5 27.5t-28.5 66.5zM655 -455 v1502h136v-1461z" />
<glyph unicode="&#x134;" horiz-adv-x="966" d="M72 33l30 123q152 -54 281 -54q142 0 211.5 93t69.5 245v944l139 -14v-936q0 -214 -111.5 -337.5t-302.5 -123.5q-157 0 -317 60zM459 1620l266 162l266 -162l-63 -107l-203 140l-203 -140z" />
<glyph unicode="&#x135;" horiz-adv-x="483" d="M-23 1313l267 162l266 -162l-64 -107l-202 140l-203 -140zM174 -455v1502h135v-1461z" />
<glyph unicode="&#x136;" horiz-adv-x="1185" d="M184 0v1384h140v-776l565 776h153l-446 -626l518 -758h-162l-440 641l-188 -266v-375h-140zM487 -459l64 326h141l-104 -326h-101z" />
<glyph unicode="&#x137;" horiz-adv-x="964" d="M174 0v1499h135v-932l232 84q50 18 75.5 48.5t40.5 88.5l70 259h135l-76 -275q-26 -92 -60.5 -145t-107.5 -80l285 -547h-143l-260 504l-191 -72v-432h-135zM377 -459l63 326h142l-105 -326h-100z" />
<glyph unicode="&#x139;" horiz-adv-x="1030" d="M41 1616l381 166l53 -127l-395 -142zM184 0v1384h140v-1255h614l-14 -129h-740z" />
<glyph unicode="&#x13a;" horiz-adv-x="483" d="M23 1636l380 166l54 -127l-396 -141zM174 0v1485l135 41v-1526h-135z" />
<glyph unicode="&#x13b;" horiz-adv-x="1030" d="M184 0v1384h140v-1255h614l-14 -129h-740zM438 -459l64 326h141l-104 -326h-101z" />
<glyph unicode="&#x13c;" horiz-adv-x="483" d="M106 -459l64 326h141l-104 -326h-101zM174 0v1485l135 41v-1526h-135z" />
<glyph unicode="&#x13d;" horiz-adv-x="1030" d="M184 0v1384h140v-1255h614l-14 -129h-740zM604 1014v370l148 21l-47 -391h-101z" />
<glyph unicode="&#x13e;" horiz-adv-x="483" d="M174 0v1485l135 41v-1526h-135zM442 1128v371l148 21l-47 -392h-101z" />
<glyph unicode="&#x13f;" horiz-adv-x="1030" d="M184 0v1384h140v-1255h614l-14 -129h-740zM549 569q0 41 28.5 70t65.5 29q41 0 69.5 -29t28.5 -70q0 -37 -28.5 -64.5t-69.5 -27.5q-37 0 -65.5 27.5t-28.5 64.5z" />
<glyph unicode="&#x140;" horiz-adv-x="591" d="M174 0v1485l135 41v-1526h-135zM432 569q0 41 28.5 70t65.5 29q41 0 70 -29t29 -70q0 -37 -29 -64.5t-70 -27.5q-37 0 -65.5 27.5t-28.5 64.5z" />
<glyph unicode="&#x141;" horiz-adv-x="1030" d="M25 647l159 58v679h140v-628l213 78l34 -97l-247 -90v-518h614l-14 -129h-740v596l-125 -45z" />
<glyph unicode="&#x142;" horiz-adv-x="483" d="M6 662l168 59v764l135 41v-756l135 49l35 -96l-170 -61v-662h-135v612l-133 -47z" />
<glyph unicode="&#x143;" horiz-adv-x="1277" d="M184 0v1384h109l665 -1118q-4 72 -4 195v923h140v-1384h-119l-660 1100q9 -108 9 -197v-903h-140zM422 1616l381 166l53 -127l-395 -142z" />
<glyph unicode="&#x144;" horiz-adv-x="1105" d="M164 0v657q0 195 112 305.5t279 110.5q169 0 278 -110t109 -306v-657h-135v647q0 146 -69.5 223.5t-182.5 77.5q-115 0 -185.5 -77.5t-70.5 -223.5v-647h-135zM336 1309l381 166l53 -127l-395 -142z" />
<glyph unicode="&#x145;" horiz-adv-x="1277" d="M184 0v1384h109l665 -1118q-4 72 -4 195v923h140v-1384h-119l-660 1100q9 -108 9 -197v-903h-140zM532 -459l64 326h141l-104 -326h-101z" />
<glyph unicode="&#x146;" horiz-adv-x="1105" d="M164 0v657q0 195 112 305.5t279 110.5q169 0 278 -110t109 -306v-657h-135v647q0 146 -69.5 223.5t-182.5 77.5q-115 0 -185.5 -77.5t-70.5 -223.5v-647h-135zM446 -459l64 326h141l-104 -326h-101z" />
<glyph unicode="&#x147;" horiz-adv-x="1277" d="M184 0v1384h109l665 -1118q-4 72 -4 195v923h140v-1384h-119l-660 1100q9 -108 9 -197v-903h-140zM373 1675l63 107l203 -142l203 142l63 -107l-266 -164z" />
<glyph unicode="&#x148;" horiz-adv-x="1105" d="M164 0v657q0 195 112 305.5t279 110.5q169 0 278 -110t109 -306v-657h-135v647q0 146 -69.5 223.5t-182.5 77.5q-115 0 -185.5 -77.5t-70.5 -223.5v-647h-135zM287 1368l63 107l203 -142l203 142l63 -107l-266 -164z" />
<glyph unicode="&#x14a;" horiz-adv-x="1277" d="M184 0v1384h109l665 -1118q-4 72 -4 195v923h140v-1798l-136 -41v482l-643 1073q9 -108 9 -197v-903h-140z" />
<glyph unicode="&#x14b;" horiz-adv-x="1105" d="M164 0v653q0 195 112 305.5t279 110.5q169 0 278 -110t109 -306v-1061l-135 -41v1092q0 146 -69.5 223.5t-182.5 77.5q-115 0 -185.5 -77.5t-70.5 -223.5v-643h-135z" />
<glyph unicode="&#x14c;" horiz-adv-x="1280" d="M143 522v336q0 135 39 242t107.5 174t158 102t193.5 35t192.5 -35t157 -102t107.5 -174t39 -242v-336q0 -135 -39 -241.5t-107.5 -172.5t-157 -100.5t-192.5 -34.5t-193.5 34t-158 100.5t-107.5 173t-39 241.5zM283 528q0 -209 98 -317.5t260 -108.5t259 108.5t97 317.5 v324q0 212 -97 321t-259 109t-260 -109t-98 -321v-324zM381 1593v127h518v-127h-518z" />
<glyph unicode="&#x14d;" horiz-adv-x="1091" d="M133 434v180q0 229 112.5 344t299.5 115q188 0 300.5 -115.5t112.5 -345.5v-178q0 -229 -113 -345t-300 -116q-186 0 -299 116.5t-113 344.5zM268 444q0 -346 277 -346q278 0 278 346v158q0 96 -20.5 165t-59 107.5t-87 56t-111.5 17.5q-277 0 -277 -346v-158zM287 1286 v127h518v-127h-518z" />
<glyph unicode="&#x14e;" horiz-adv-x="1280" d="M143 522v336q0 135 39 242t107.5 174t158 102t193.5 35t192.5 -35t157 -102t107.5 -174t39 -242v-336q0 -135 -39 -241.5t-107.5 -172.5t-157 -100.5t-192.5 -34.5t-193.5 34t-158 100.5t-107.5 173t-39 241.5zM283 528q0 -209 98 -317.5t260 -108.5t259 108.5t97 317.5 v324q0 212 -97 321t-259 109t-260 -109t-98 -321v-324zM412 1767h118q0 -52 32 -87t79 -35q45 0 77 35t32 87h118q0 -103 -64.5 -169t-162.5 -66q-99 0 -164 66t-65 169z" />
<glyph unicode="&#x14f;" horiz-adv-x="1091" d="M133 434v180q0 229 112.5 344t299.5 115q188 0 300.5 -115.5t112.5 -345.5v-178q0 -229 -113 -345t-300 -116q-186 0 -299 116.5t-113 344.5zM268 444q0 -346 277 -346q278 0 278 346v158q0 96 -20.5 165t-59 107.5t-87 56t-111.5 17.5q-277 0 -277 -346v-158zM317 1460 h119q0 -52 32 -87.5t79 -35.5q45 0 76.5 35.5t31.5 87.5h119q0 -103 -64.5 -169t-162.5 -66q-99 0 -164.5 66t-65.5 169z" />
<glyph unicode="&#x150;" horiz-adv-x="1280" d="M143 522v336q0 135 39 242t107.5 174t158 102t193.5 35t192.5 -35t157 -102t107.5 -174t39 -242v-336q0 -135 -39 -241.5t-107.5 -172.5t-157 -100.5t-192.5 -34.5t-193.5 34t-158 100.5t-107.5 173t-39 241.5zM283 528q0 -209 98 -317.5t260 -108.5t259 108.5t97 317.5 v324q0 212 -97 321t-259 109t-260 -109t-98 -321v-324zM322 1593l319 211l70 -116l-332 -189zM723 1595l319 211l70 -116l-332 -189z" />
<glyph unicode="&#x151;" horiz-adv-x="1091" d="M133 434v180q0 229 112.5 344t299.5 115q188 0 300.5 -115.5t112.5 -345.5v-178q0 -229 -113 -345t-300 -116q-186 0 -299 116.5t-113 344.5zM213 1286l319 211l70 -117l-332 -188zM268 444q0 -346 277 -346q278 0 278 346v158q0 96 -20.5 165t-59 107.5t-87 56 t-111.5 17.5q-277 0 -277 -346v-158zM614 1288l320 211l70 -117l-332 -188z" />
<glyph unicode="&#x152;" horiz-adv-x="1822" d="M143 522v336q0 135 39 242t107.5 174t158 102t193.5 35q81 0 170 -27h850v-129h-653q129 -148 129 -397v-98h440l-12 -125h-428v-113q0 -246 -127 -393h669v-129h-868q-89 -27 -170 -27q-104 0 -193.5 34t-158 100.5t-107.5 173t-39 241.5zM283 528q0 -209 98 -317.5 t260 -108.5t259 108.5t97 317.5v324q0 212 -97 321t-259 109t-260 -109t-98 -321v-324z" />
<glyph unicode="&#x153;" horiz-adv-x="1726" d="M133 434v180q0 229 112.5 344t299.5 115q237 0 342 -176q52 85 136.5 130.5t188.5 45.5q166 0 279 -106.5t113 -272.5v-209h-646v-86q0 -152 73 -226.5t202 -74.5q121 0 280 47l27 -122q-159 -50 -307 -50q-240 0 -346 177q-105 -177 -342 -177q-186 0 -299 116.5 t-113 344.5zM268 444q0 -346 277 -346q278 0 278 346v158q0 96 -20.5 165t-59 107.5t-87 56t-111.5 17.5q-277 0 -277 -346v-158zM958 604h510v90q0 113 -71.5 183.5t-184.5 70.5q-115 0 -184.5 -74t-69.5 -219v-51z" />
<glyph unicode="&#x154;" horiz-adv-x="1130" d="M184 0v1384h447q176 0 286.5 -118t110.5 -291q0 -139 -77.5 -245.5t-207.5 -139.5l279 -590h-156l-264 575h-278v-575h-140zM324 694h307q120 0 188 78t68 203q0 126 -67.5 203t-188.5 77h-307v-561zM348 1616l381 166l53 -127l-395 -142z" />
<glyph unicode="&#x155;" horiz-adv-x="710" d="M164 0v690q0 171 110 277t275 106q46 0 121 -12l-25 -123q-60 10 -94 10q-111 0 -181.5 -71t-70.5 -187v-690h-135zM182 1309l381 166l53 -127l-395 -142z" />
<glyph unicode="&#x156;" horiz-adv-x="1130" d="M184 0v1384h447q176 0 286.5 -118t110.5 -291q0 -139 -77.5 -245.5t-207.5 -139.5l279 -590h-156l-264 575h-278v-575h-140zM324 694h307q120 0 188 78t68 203q0 126 -67.5 203t-188.5 77h-307v-561zM459 -459l63 326h142l-105 -326h-100z" />
<glyph unicode="&#x157;" horiz-adv-x="710" d="M90 -459l64 326h141l-105 -326h-100zM164 0v690q0 171 110 277t275 106q46 0 121 -12l-25 -123q-60 10 -94 10q-111 0 -181.5 -71t-70.5 -187v-690h-135z" />
<glyph unicode="&#x158;" horiz-adv-x="1130" d="M184 0v1384h447q176 0 286.5 -118t110.5 -291q0 -139 -77.5 -245.5t-207.5 -139.5l279 -590h-156l-264 575h-278v-575h-140zM299 1675l63 107l203 -142l203 142l63 -107l-266 -164zM324 694h307q120 0 188 78t68 203q0 126 -67.5 203t-188.5 77h-307v-561z" />
<glyph unicode="&#x159;" horiz-adv-x="710" d="M119 1368l63 107l203 -142l203 142l63 -107l-266 -164zM164 0v690q0 171 110 277t275 106q46 0 121 -12l-25 -123q-60 10 -94 10q-111 0 -181.5 -71t-70.5 -187v-690h-135z" />
<glyph unicode="&#x15a;" horiz-adv-x="1017" d="M102 43l25 127q202 -68 362 -68q117 0 200 65t83 183q0 60 -22 108t-59.5 81t-86 60.5t-101.5 51t-106.5 48t-102 57t-86 73t-59.5 99.5t-22 133q0 157 114.5 253.5t297.5 96.5q168 0 342 -65l-35 -123q-182 59 -307 59t-197 -56.5t-72 -160.5q0 -56 22 -100.5t59.5 -75 t86 -56.5t101.5 -49.5t106.5 -49t102 -59.5t86 -76.5t59.5 -105t22 -139.5q0 -121 -59 -209t-154 -130t-213 -42q-179 0 -387 70zM291 1616l381 166l53 -127l-395 -142z" />
<glyph unicode="&#x15b;" horiz-adv-x="851" d="M100 23l25 122q169 -47 268 -47t159 48t60 122q0 54 -27 94.5t-70.5 65t-95.5 46t-104.5 46t-96 57t-70.5 87t-27 127.5q0 124 89 203t243 79q127 0 264 -45l-35 -121q-128 41 -229 41q-94 0 -143.5 -43t-49.5 -114q0 -44 21 -77.5t55.5 -54.5t79 -41.5t90.5 -37.5 t90.5 -44t79 -59t55.5 -85t21 -120q0 -56 -22 -108t-64 -95.5t-113 -69.5t-160 -26q-153 0 -293 50zM209 1309l381 166l53 -127l-395 -142z" />
<glyph unicode="&#x15c;" horiz-adv-x="1017" d="M102 43l25 127q202 -68 362 -68q117 0 200 65t83 183q0 60 -22 108t-59.5 81t-86 60.5t-101.5 51t-106.5 48t-102 57t-86 73t-59.5 99.5t-22 133q0 157 114.5 253.5t297.5 96.5q168 0 342 -65l-35 -123q-182 59 -307 59t-197 -56.5t-72 -160.5q0 -56 22 -100.5t59.5 -75 t86 -56.5t101.5 -49.5t106.5 -49t102 -59.5t86 -76.5t59.5 -105t22 -139.5q0 -121 -59 -209t-154 -130t-213 -42q-179 0 -387 70zM242 1620l266 162l266 -162l-63 -107l-203 140l-203 -140z" />
<glyph unicode="&#x15d;" horiz-adv-x="851" d="M100 23l25 122q169 -47 268 -47t159 48t60 122q0 54 -27 94.5t-70.5 65t-95.5 46t-104.5 46t-96 57t-70.5 87t-27 127.5q0 124 89 203t243 79q127 0 264 -45l-35 -121q-128 41 -229 41q-94 0 -143.5 -43t-49.5 -114q0 -44 21 -77.5t55.5 -54.5t79 -41.5t90.5 -37.5 t90.5 -44t79 -59t55.5 -85t21 -120q0 -56 -22 -108t-64 -95.5t-113 -69.5t-160 -26q-153 0 -293 50zM160 1313l266 162l266 -162l-63 -107l-203 140l-203 -140z" />
<glyph unicode="&#x15e;" horiz-adv-x="1017" d="M102 43l25 127q202 -68 362 -68q117 0 200 65t83 183q0 60 -22 108t-59.5 81t-86 60.5t-101.5 51t-106.5 48t-102 57t-86 73t-59.5 99.5t-22 133q0 157 114.5 253.5t297.5 96.5q168 0 342 -65l-35 -123q-182 59 -307 59t-197 -56.5t-72 -160.5q0 -56 22 -100.5t59.5 -75 t86 -56.5t101.5 -49.5t106.5 -49t102 -59.5t86 -76.5t59.5 -105t22 -139.5q0 -158 -95 -254.5t-247 -119.5v-195q0 -60 -20 -103.5t-54 -67.5t-73.5 -35t-85.5 -11q-70 0 -117 12l17 117q42 -10 90 -10q61 0 88.5 27t27.5 85v176q-172 7 -344 68z" />
<glyph unicode="&#x15f;" horiz-adv-x="851" d="M100 23l25 122q169 -47 268 -47t159 48t60 122q0 54 -27 94.5t-70.5 65t-95.5 46t-104.5 46t-96 57t-70.5 87t-27 127.5q0 124 89 203t243 79q127 0 264 -45l-35 -121q-128 41 -229 41q-94 0 -143.5 -43t-49.5 -114q0 -44 21 -77.5t55.5 -54.5t79 -41.5t90.5 -37.5 t90.5 -44t79 -59t55.5 -85t21 -120q0 -99 -63.5 -179.5t-184.5 -106.5v-201q0 -60 -20 -103.5t-54.5 -67.5t-74 -35t-85.5 -11q-70 0 -116 12l16 117q42 -10 90 -10q61 0 89 27.5t28 84.5v174q-146 3 -277 50z" />
<glyph unicode="&#x160;" horiz-adv-x="1017" d="M102 43l25 127q202 -68 362 -68q117 0 200 65t83 183q0 60 -22 108t-59.5 81t-86 60.5t-101.5 51t-106.5 48t-102 57t-86 73t-59.5 99.5t-22 133q0 157 114.5 253.5t297.5 96.5q168 0 342 -65l-35 -123q-182 59 -307 59t-197 -56.5t-72 -160.5q0 -56 22 -100.5t59.5 -75 t86 -56.5t101.5 -49.5t106.5 -49t102 -59.5t86 -76.5t59.5 -105t22 -139.5q0 -121 -59 -209t-154 -130t-213 -42q-179 0 -387 70zM242 1675l63 107l203 -142l203 142l63 -107l-266 -164z" />
<glyph unicode="&#x161;" horiz-adv-x="851" d="M100 23l25 122q169 -47 268 -47t159 48t60 122q0 54 -27 94.5t-70.5 65t-95.5 46t-104.5 46t-96 57t-70.5 87t-27 127.5q0 124 89 203t243 79q127 0 264 -45l-35 -121q-128 41 -229 41q-94 0 -143.5 -43t-49.5 -114q0 -44 21 -77.5t55.5 -54.5t79 -41.5t90.5 -37.5 t90.5 -44t79 -59t55.5 -85t21 -120q0 -56 -22 -108t-64 -95.5t-113 -69.5t-160 -26q-153 0 -293 50zM160 1368l63 107l203 -142l203 142l63 -107l-266 -164z" />
<glyph unicode="&#x162;" horiz-adv-x="1060" d="M72 1255v129h917v-129h-389v-1255h-139v1255h-389zM395 -459l64 326h141l-104 -326h-101z" />
<glyph unicode="&#x163;" horiz-adv-x="600" d="M25 1047h180v307l135 39v-346h223v-107h-223v-940h-135v940h-135zM135 -459l64 326h141l-104 -326h-101z" />
<glyph unicode="&#x164;" horiz-adv-x="1060" d="M72 1255v129h917v-129h-389v-1255h-139v1255h-389zM264 1675l64 107l202 -142l203 142l64 -107l-267 -164z" />
<glyph unicode="&#x165;" horiz-adv-x="595" d="M29 1047h176v307l131 39v-346h221v-115h-221v-932h-131v932h-135zM508 1169v371l147 21l-47 -392h-100z" />
<glyph unicode="&#x166;" horiz-adv-x="1060" d="M72 1255v129h917v-129h-389v-479h238v-106h-238v-670h-139v670h-225v106h225v479h-389z" />
<glyph unicode="&#x167;" horiz-adv-x="600" d="M25 1047h180v307l135 39v-346h223v-107h-223v-309h219v-107h-219v-524h-135v524h-133v107h133v309h-135z" />
<glyph unicode="&#x168;" horiz-adv-x="1284" d="M174 436v948h139v-942q0 -148 93 -244t239 -96q144 0 236 96t92 244v942h137v-948q0 -202 -135 -332.5t-330 -130.5q-198 0 -334.5 130.5t-136.5 332.5zM358 1647q17 39 59 75.5t103 36.5q37 0 74.5 -15.5t62.5 -34.5t54.5 -34.5t52.5 -15.5q52 0 94 59l66 -67 q-17 -39 -59.5 -76t-100.5 -37q-37 0 -75 15.5t-63 33.5t-54 33.5t-52 15.5q-51 0 -96 -57z" />
<glyph unicode="&#x169;" horiz-adv-x="1105" d="M164 389v658h135v-648q0 -146 70 -223.5t184 -77.5q113 0 183.5 77.5t70.5 223.5v648h135v-658q0 -195 -111 -305.5t-278 -110.5q-169 0 -279 110t-110 306zM270 1339q17 39 59 76t103 37q37 0 74.5 -15.5t62.5 -34.5t54.5 -34.5t52.5 -15.5q52 0 94 59l66 -68 q-17 -38 -59.5 -75t-100.5 -37q-37 0 -75 15.5t-63 33.5t-54 33.5t-52 15.5q-51 0 -96 -57z" />
<glyph unicode="&#x16a;" horiz-adv-x="1284" d="M174 436v948h139v-942q0 -148 93 -244t239 -96q144 0 236 96t92 244v942h137v-948q0 -202 -135 -332.5t-330 -130.5q-198 0 -334.5 130.5t-136.5 332.5zM383 1593v127h518v-127h-518z" />
<glyph unicode="&#x16b;" horiz-adv-x="1105" d="M164 389v658h135v-648q0 -146 70 -223.5t184 -77.5q113 0 183.5 77.5t70.5 223.5v648h135v-658q0 -195 -111 -305.5t-278 -110.5q-169 0 -279 110t-110 306zM293 1286v127h518v-127h-518z" />
<glyph unicode="&#x16c;" horiz-adv-x="1284" d="M174 436v948h139v-942q0 -148 93 -244t239 -96q144 0 236 96t92 244v942h137v-948q0 -202 -135 -332.5t-330 -130.5q-198 0 -334.5 130.5t-136.5 332.5zM414 1767h118q0 -52 32 -87t79 -35q45 0 77 35t32 87h118q0 -103 -64.5 -169t-162.5 -66q-99 0 -164 66t-65 169z " />
<glyph unicode="&#x16d;" horiz-adv-x="1105" d="M164 389v658h135v-648q0 -146 70 -223.5t184 -77.5q113 0 183.5 77.5t70.5 223.5v648h135v-658q0 -195 -111 -305.5t-278 -110.5q-169 0 -279 110t-110 306zM324 1460h118q0 -52 32 -87.5t79 -35.5q45 0 77 35.5t32 87.5h118q0 -103 -64.5 -169t-162.5 -66q-99 0 -164 66 t-65 169z" />
<glyph unicode="&#x16e;" horiz-adv-x="1284" d="M174 436v948h139v-942q0 -148 93 -244t239 -96q144 0 236 96t92 244v942h137v-948q0 -202 -135 -332.5t-330 -130.5q-198 0 -334.5 130.5t-136.5 332.5zM467 1690q0 71 52.5 122.5t125.5 51.5q71 0 122.5 -52t51.5 -122q0 -72 -51.5 -124.5t-122.5 -52.5 q-73 0 -125.5 52.5t-52.5 124.5zM573 1690q0 -30 21 -52t51 -22q29 0 50.5 22.5t21.5 51.5q0 30 -21.5 51.5t-50.5 21.5q-31 0 -51.5 -21t-20.5 -52z" />
<glyph unicode="&#x16f;" horiz-adv-x="1105" d="M164 389v658h135v-648q0 -146 70 -223.5t184 -77.5q113 0 183.5 77.5t70.5 223.5v648h135v-658q0 -195 -111 -305.5t-278 -110.5q-169 0 -279 110t-110 306zM377 1382q0 71 52.5 122.5t125.5 51.5q71 0 122.5 -52t51.5 -122q0 -72 -51.5 -124t-122.5 -52q-73 0 -125.5 52 t-52.5 124zM483 1382q0 -30 21 -51.5t51 -21.5q29 0 50.5 22t21.5 51q0 31 -21.5 52.5t-50.5 21.5q-31 0 -51.5 -21.5t-20.5 -52.5z" />
<glyph unicode="&#x170;" horiz-adv-x="1284" d="M174 436v948h139v-942q0 -148 93 -244t239 -96q144 0 236 96t92 244v942h137v-948q0 -202 -135 -332.5t-330 -130.5q-198 0 -334.5 130.5t-136.5 332.5zM358 1593l320 211l70 -116l-332 -189zM760 1595l319 211l70 -116l-332 -189z" />
<glyph unicode="&#x171;" horiz-adv-x="1105" d="M164 389v658h135v-648q0 -146 70 -223.5t184 -77.5q113 0 183.5 77.5t70.5 223.5v648h135v-658q0 -195 -111 -305.5t-278 -110.5q-169 0 -279 110t-110 306zM258 1286l320 211l69 -117l-332 -188zM659 1288l320 211l70 -117l-332 -188z" />
<glyph unicode="&#x172;" horiz-adv-x="1284" d="M174 436v948h139v-942q0 -148 93 -244t239 -96q144 0 236 96t92 244v942h137v-948q0 -181 -110.5 -306t-278.5 -150q-74 -60 -116 -117.5t-42 -124.5q0 -41 24 -63.5t62 -22.5q46 0 76 12l25 -102q-52 -19 -99 -19q-91 0 -145.5 51t-54.5 136q0 131 137 247 q-178 19 -296 145.5t-118 313.5z" />
<glyph unicode="&#x173;" horiz-adv-x="1105" d="M164 389v658h135v-648q0 -146 70 -223.5t184 -77.5q113 0 183.5 77.5t70.5 223.5v648h135v-658q0 -165 -81 -269.5t-212 -133.5q-78 -62 -122 -121t-44 -127q0 -41 24 -63.5t62 -22.5q46 0 76 12l25 -102q-52 -19 -99 -19q-91 0 -145.5 51t-54.5 136q0 68 38 132t97 113 q-152 16 -247 123.5t-95 290.5z" />
<glyph unicode="&#x174;" horiz-adv-x="1665" d="M92 1384h139l185 -1046q11 -70 22 -191q32 121 54 191l256 833h170l256 -833q40 -146 51 -191q11 125 24 191l185 1046h139l-254 -1384h-166l-272 866q-40 134 -50 178q-16 -69 -47 -178l-272 -866h-166zM565 1620l266 162l267 -162l-64 -107l-203 140l-202 -140z" />
<glyph unicode="&#x175;" horiz-adv-x="1581" d="M113 1047h135l45 -693q8 -115 64 -184.5t151 -69.5t155 71.5t60 186.5v611h133v-611q0 -115 60 -186.5t155 -71.5t152 69.5t65 184.5l45 693h135l-49 -703q-12 -172 -105.5 -271.5t-242.5 -99.5q-86 0 -159 40.5t-121 113.5q-47 -72 -122 -113t-161 -41 q-147 0 -240.5 101t-105.5 272zM524 1313l267 162l266 -162l-64 -107l-202 140l-203 -140z" />
<glyph unicode="&#x176;" horiz-adv-x="1130" d="M61 1384h146l358 -712l359 712h145l-434 -852v-532h-139v532zM299 1620l266 162l266 -162l-63 -107l-203 140l-203 -140z" />
<glyph unicode="&#x177;" horiz-adv-x="980" d="M72 1047h137l92 -668q16 -122 69 -187t158 -65h131l115 920h135l-186 -1479h-135l55 432h-117q-310 0 -360 360zM223 1313l266 162l267 -162l-64 -107l-203 140l-202 -140z" />
<glyph unicode="&#x178;" horiz-adv-x="1130" d="M61 1384h146l358 -712l359 712h145l-434 -852v-532h-139v532zM283 1647q0 40 28 68t66 28t66 -28t28 -68q0 -37 -28 -65t-66 -28t-66 28t-28 65zM655 1647q0 39 29 67.5t66 28.5q40 0 68 -28t28 -68q0 -37 -28.5 -65t-67.5 -28q-37 0 -66 28t-29 65z" />
<glyph unicode="&#x179;" horiz-adv-x="1110" d="M102 0v117l695 1143h-684v124h856v-110l-697 -1149h736l-19 -125h-887zM328 1616l381 166l53 -127l-395 -142z" />
<glyph unicode="&#x17a;" horiz-adv-x="952" d="M123 0v123l534 801h-522v123h674v-123l-535 -801h555l-20 -123h-686zM258 1309l381 166l53 -127l-395 -142z" />
<glyph unicode="&#x17b;" horiz-adv-x="1110" d="M102 0v117l695 1143h-684v124h856v-110l-697 -1149h736l-19 -125h-887zM459 1647q0 39 28.5 67.5t65.5 28.5q40 0 68 -28t28 -68q0 -37 -28.5 -65t-67.5 -28q-37 0 -65.5 28t-28.5 65z" />
<glyph unicode="&#x17c;" horiz-adv-x="952" d="M123 0v123l534 801h-522v123h674v-123l-535 -801h555l-20 -123h-686zM381 1339q0 39 28.5 68t65.5 29q40 0 68 -28.5t28 -68.5q0 -37 -28.5 -64.5t-67.5 -27.5q-37 0 -65.5 27.5t-28.5 64.5z" />
<glyph unicode="&#x17d;" horiz-adv-x="1110" d="M102 0v117l695 1143h-684v124h856v-110l-697 -1149h736l-19 -125h-887zM289 1675l63 107l203 -142l203 142l63 -107l-266 -164z" />
<glyph unicode="&#x17e;" horiz-adv-x="952" d="M123 0v123l534 801h-522v123h674v-123l-535 -801h555l-20 -123h-686zM209 1368l63 107l203 -142l203 142l63 -107l-266 -164z" />
<glyph unicode="&#x192;" horiz-adv-x="950" d="M-76 -428l33 121q62 -15 111 -15q71 0 125 43t65 129l133 959h-184v106h201l43 306q21 143 109 219t210 76q80 0 145 -21l-32 -121q-62 15 -111 15q-71 0 -125 -43t-65 -129l-43 -302h270l-41 -106h-244l-135 -963q-21 -143 -109 -219t-210 -76q-81 0 -146 21z" />
<glyph unicode="&#x218;" horiz-adv-x="1017" d="M102 43l25 127q202 -68 362 -68q117 0 200 65t83 183q0 60 -22 108t-59.5 81t-86 60.5t-101.5 51t-106.5 48t-102 57t-86 73t-59.5 99.5t-22 133q0 157 114.5 253.5t297.5 96.5q168 0 342 -65l-35 -123q-182 59 -307 59t-197 -56.5t-72 -160.5q0 -56 22 -100.5t59.5 -75 t86 -56.5t101.5 -49.5t106.5 -49t102 -59.5t86 -76.5t59.5 -105t22 -139.5q0 -121 -59 -209t-154 -130t-213 -42q-179 0 -387 70zM391 -459l64 326h141l-104 -326h-101z" />
<glyph unicode="&#x219;" horiz-adv-x="851" d="M100 23l25 122q169 -47 268 -47t159 48t60 122q0 54 -27 94.5t-70.5 65t-95.5 46t-104.5 46t-96 57t-70.5 87t-27 127.5q0 124 89 203t243 79q127 0 264 -45l-35 -121q-128 41 -229 41q-94 0 -143.5 -43t-49.5 -114q0 -44 21 -77.5t55.5 -54.5t79 -41.5t90.5 -37.5 t90.5 -44t79 -59t55.5 -85t21 -120q0 -56 -22 -108t-64 -95.5t-113 -69.5t-160 -26q-153 0 -293 50zM289 -459l63 326h142l-105 -326h-100z" />
<glyph unicode="&#x2c6;" horiz-adv-x="942" d="M205 1313l266 162l266 -162l-63 -107l-203 140l-203 -140z" />
<glyph unicode="&#x2c7;" horiz-adv-x="942" d="M205 1368l63 107l203 -142l203 142l63 -107l-266 -164z" />
<glyph unicode="&#x2d8;" horiz-adv-x="821" d="M182 1460h119q0 -52 32 -87.5t79 -35.5q45 0 76.5 35.5t31.5 87.5h119q0 -103 -64.5 -169t-162.5 -66q-99 0 -164.5 66t-65.5 169z" />
<glyph unicode="&#x2d9;" horiz-adv-x="538" d="M174 1339q0 39 28.5 68t65.5 29q40 0 68.5 -28.5t28.5 -68.5q0 -37 -28.5 -64.5t-68.5 -27.5q-37 0 -65.5 27.5t-28.5 64.5z" />
<glyph unicode="&#x2da;" horiz-adv-x="700" d="M174 1382q0 71 52.5 122.5t125.5 51.5q70 0 122 -52t52 -122q0 -72 -51.5 -124t-122.5 -52q-73 0 -125.5 52t-52.5 124zM281 1382q0 -30 20.5 -51.5t50.5 -21.5q29 0 50.5 22t21.5 51q0 31 -21.5 52.5t-50.5 21.5q-30 0 -50.5 -21.5t-20.5 -52.5z" />
<glyph unicode="&#x2db;" horiz-adv-x="638" d="M164 -270q0 78 48.5 148.5t119.5 121.5h131q-43 -33 -71 -58t-57.5 -58.5t-44 -70t-14.5 -75.5q0 -41 24 -63.5t62 -22.5q46 0 76 12l25 -102q-52 -19 -98 -19q-91 0 -146 51t-55 136z" />
<glyph unicode="&#x2dc;" horiz-adv-x="913" d="M174 1339q17 39 59 76t103 37q37 0 74.5 -15.5t62.5 -34.5t54.5 -34.5t52.5 -15.5q52 0 94 59l65 -68q-17 -39 -59 -75.5t-100 -36.5q-37 0 -75 15.5t-63 33.5t-54 33.5t-52 15.5q-51 0 -96 -57z" />
<glyph unicode="&#x2dd;" horiz-adv-x="1138" d="M174 1286l320 211l69 -117l-332 -188zM575 1288l320 211l70 -117l-332 -188z" />
<glyph unicode="&#x3a9;" horiz-adv-x="1435" d="M133 0v125h299v158q-144 69 -221.5 198.5t-77.5 288.5v141q0 115 40 217t113.5 179t185 121.5t245.5 44.5q108 0 202.5 -30t164 -83t119.5 -123.5t75 -153.5t25 -172v-141q0 -163 -77 -292t-220 -197v-156h297v-125h-431v379q95 32 164.5 100t101 144.5t31.5 152.5v129 q0 58 -16.5 118t-53 118.5t-88 104t-128 74t-166.5 28.5q-91 0 -168 -28.5t-128 -74t-87 -104.5t-52 -118.5t-16 -117.5v-129q0 -57 18.5 -115.5t53.5 -113.5t93.5 -100t131.5 -70v-377h-430z" />
<glyph unicode="&#x3c0;" horiz-adv-x="1503" d="M154 920v127h1196v-127h-168v-920h-133v920h-596v-920h-131v920h-168z" />
<glyph unicode="&#x401;" horiz-adv-x="1069" d="M184 0v1384h723v-129h-583v-495h499l-12 -125h-487v-506h602v-129h-742zM270 1647q0 39 28 67.5t67 28.5q38 0 66 -28t28 -68q0 -37 -28 -65t-66 -28t-66.5 28t-28.5 65zM643 1647q0 39 28.5 67.5t65.5 28.5q40 0 68.5 -28t28.5 -68q0 -37 -29 -65t-68 -28 q-37 0 -65.5 28t-28.5 65z" />
<glyph unicode="&#x402;" horiz-adv-x="1445" d="M72 1255v129h917v-129h-389v-542q100 44 186.5 68t198.5 24q73 0 135.5 -21t113.5 -64t80 -118t29 -174v-78q0 -99 -29 -173t-80 -116.5t-113 -63t-136 -20.5q-105 0 -199 23v127q86 -21 177 -21q107 0 174 57.5t67 172.5v106q0 116 -67.5 175t-173.5 59 q-78 0 -146.5 -14t-109.5 -30t-107 -48v-584h-139v1255h-389z" />
<glyph unicode="&#x403;" horiz-adv-x="942" d="M184 0v1384h697v-129h-557v-1255h-140zM336 1616l381 166l53 -127l-395 -142z" />
<glyph unicode="&#x404;" horiz-adv-x="1126" d="M143 522v340q0 268 143.5 408.5t377.5 140.5q103 0 190.5 -15.5t200.5 -49.5l-27 -125q-206 61 -362 61q-176 0 -279.5 -107.5t-103.5 -318.5v-86h516l-13 -129h-503v-115q0 -215 103 -319.5t280 -104.5q159 0 362 60l27 -127q-110 -32 -197 -47t-194 -15 q-234 0 -377.5 140.5t-143.5 408.5z" />
<glyph unicode="&#x405;" horiz-adv-x="1017" d="M102 43l25 127q202 -68 362 -68q117 0 200 65t83 183q0 60 -22 108t-59.5 81t-86 60.5t-101.5 51t-106.5 48t-102 57t-86 73t-59.5 99.5t-22 133q0 157 114.5 253.5t297.5 96.5q168 0 342 -65l-35 -123q-182 59 -307 59t-197 -56.5t-72 -160.5q0 -56 22 -100.5t59.5 -75 t86 -56.5t101.5 -49.5t106.5 -49t102 -59.5t86 -76.5t59.5 -105t22 -139.5q0 -121 -59 -209t-154 -130t-213 -42q-179 0 -387 70z" />
<glyph unicode="&#x406;" horiz-adv-x="507" d="M184 0v1384h140v-1384h-140z" />
<glyph unicode="&#x407;" horiz-adv-x="507" d="M-27 1647q0 39 28.5 67.5t66.5 28.5t66 -28t28 -68q0 -37 -28 -65t-66 -28t-66.5 28t-28.5 65zM184 0v1384h140v-1384h-140zM346 1647q0 39 28.5 67.5t65.5 28.5q40 0 68.5 -28t28.5 -68q0 -37 -29 -65t-68 -28q-37 0 -65.5 28t-28.5 65z" />
<glyph unicode="&#x408;" horiz-adv-x="966" d="M72 33l30 123q152 -54 281 -54q142 0 211.5 93t69.5 245v944l139 -14v-936q0 -214 -111.5 -337.5t-302.5 -123.5q-157 0 -317 60z" />
<glyph unicode="&#x409;" horiz-adv-x="1970" d="M41 129q60 8 91 16.5t78.5 38t72 78t55 139t45 219.5t25 321.5t10.5 442.5h756v-585h325q177 0 288 -115.5t111 -284.5q0 -171 -111 -285t-288 -114h-465v1255h-481q0 -166 -5 -304.5t-15.5 -251.5t-24.5 -202.5t-36 -159.5t-45.5 -121.5t-56.5 -89t-65.5 -62.5 t-77.5 -41t-86.5 -24.5t-97.5 -14.5zM1174 129h325q123 0 189.5 72.5t66.5 197.5q0 124 -67 197.5t-189 73.5h-325v-541z" />
<glyph unicode="&#x40a;" horiz-adv-x="1904" d="M184 0v1384h140v-585h645v585h139v-585h326q177 0 288 -115.5t111 -284.5q0 -171 -111 -285t-288 -114h-465v670h-645v-670h-140zM1108 129h326q123 0 189.5 72.5t66.5 197.5q0 124 -67 197.5t-189 73.5h-326v-541z" />
<glyph unicode="&#x40b;" horiz-adv-x="1466" d="M72 1255v129h917v-129h-389v-542q100 44 186.5 68t198.5 24q152 0 245 -91.5t93 -285.5v-428h-139v442q0 118 -58.5 176t-162.5 58q-78 0 -146.5 -14t-109.5 -30t-107 -48v-584h-139v1255h-389z" />
<glyph unicode="&#x40c;" horiz-adv-x="1185" d="M184 0v1384h140v-667l344 127q73 27 112 74.5t62 128.5l90 337h133l-92 -346q-32 -117 -83.5 -190.5t-152.5 -110.5l383 -737h-147l-359 692l-290 -110v-582h-140zM416 1616l381 166l53 -127l-395 -142z" />
<glyph unicode="&#x40e;" horiz-adv-x="1159" d="M115 1384h141l92 -540q21 -124 70.5 -187t152.5 -63h191l143 790h139l-200 -1105q-26 -141 -91.5 -210t-193.5 -69h-223l-17 127h195q92 0 136 39.5t61 136.5l28 162h-170q-159 0 -245 92t-115 268zM354 1749l119 23q9 -57 41.5 -92t83.5 -35q52 0 85 35t42 92l119 -23 q-15 -98 -83 -158.5t-163 -60.5q-94 0 -161.5 60.5t-82.5 158.5z" />
<glyph unicode="&#x40f;" horiz-adv-x="1292" d="M184 0v1384h140v-1255h645v1255h139v-1384h-383v-291l-135 -26v317h-406z" />
<glyph unicode="&#x410;" horiz-adv-x="1208" d="M72 0l452 1384h160l453 -1384h-144l-127 393h-526l-125 -393h-143zM379 516h448l-161 510q-25 78 -62 213q-21 -86 -61 -213z" />
<glyph unicode="&#x411;" horiz-adv-x="1140" d="M184 0v1384h758v-129h-618v-456h325q177 0 288.5 -115.5t111.5 -284.5q0 -171 -111.5 -285t-288.5 -114h-465zM324 129h325q123 0 189.5 72.5t66.5 197.5q0 124 -67 197.5t-189 73.5h-325v-541z" />
<glyph unicode="&#x412;" horiz-adv-x="1150" d="M184 0v1384h408q193 0 304.5 -98.5t111.5 -253.5q0 -95 -48.5 -174t-136.5 -129q84 -32 139 -90.5t76 -120.5t21 -129q0 -44 -11 -88t-34 -88.5t-62 -82t-90 -67t-123.5 -46.5t-158.5 -17h-396zM324 129h254q166 0 251.5 69.5t85.5 190.5t-78.5 190.5t-242.5 69.5h-270 v-520zM324 774h249q135 0 213 65t78 177q0 114 -71 176.5t-205 62.5h-264v-481z" />
<glyph unicode="&#x413;" horiz-adv-x="942" d="M184 0v1384h697v-129h-557v-1255h-140z" />
<glyph unicode="&#x414;" horiz-adv-x="1394" d="M20 129h154q117 187 186.5 529.5t69.5 725.5h739v-1255h181v-420l-136 -26v317h-1058v-291l-136 -26v446zM336 129h694v1126h-465q-19 -725 -229 -1126z" />
<glyph unicode="&#x415;" horiz-adv-x="1069" d="M184 0v1384h723v-129h-583v-495h499l-12 -125h-487v-506h602v-129h-742z" />
<glyph unicode="&#x416;" horiz-adv-x="1720" d="M66 0l340 731q-98 50 -139 112t-64 179l-72 362h133l70 -354q16 -83 59.5 -134.5t134.5 -84.5l263 -96v669h139v-669l262 96q91 33 134.5 84.5t59.5 134.5l70 354h133l-71 -362q-23 -117 -64 -179t-141 -112l342 -731h-148l-321 678l-256 -96v-582h-139v582l-259 96 l-319 -678h-147z" />
<glyph unicode="&#x417;" horiz-adv-x="1046" d="M92 47l25 127q214 -72 362 -72q135 0 223.5 77t88.5 200q0 270 -302 270h-106l-12 125h98q132 0 217.5 81t85.5 196q0 104 -84.5 167.5t-210.5 63.5q-120 0 -315 -63l-35 122q187 70 371 70q193 0 302 -100t109 -262q0 -96 -51.5 -183.5t-138.5 -136.5q215 -83 215 -346 q0 -186 -126 -298t-329 -112q-167 0 -387 74z" />
<glyph unicode="&#x418;" horiz-adv-x="1310" d="M184 0v1384h140v-933q0 -105 -5 -195l699 1128h108v-1384h-139v913q0 101 8 197l-692 -1110h-119z" />
<glyph unicode="&#x419;" horiz-adv-x="1310" d="M184 0v1384h140v-933q0 -105 -5 -195l699 1128h108v-1384h-139v913q0 101 8 197l-692 -1110h-119zM410 1749l118 23q9 -57 41.5 -92t83.5 -35q52 0 85 35t42 92l119 -23q-15 -98 -83 -158.5t-163 -60.5q-94 0 -161 60.5t-82 158.5z" />
<glyph unicode="&#x41a;" horiz-adv-x="1185" d="M184 0v1384h140v-667l344 127q73 27 112 74.5t62 128.5l90 337h133l-92 -346q-32 -117 -83.5 -190.5t-152.5 -110.5l383 -737h-147l-359 692l-290 -110v-582h-140z" />
<glyph unicode="&#x41b;" horiz-adv-x="1357" d="M41 129q60 8 91 16.5t78.5 38t72 78t55 139t45 219.5t25 321.5t10.5 442.5h756v-1384h-140v1255h-481q0 -166 -5 -304.5t-15.5 -251.5t-24.5 -202.5t-36 -159.5t-45.5 -121.5t-56.5 -89t-65.5 -62.5t-77.5 -41t-86.5 -24.5t-97.5 -14.5z" />
<glyph unicode="&#x41c;" horiz-adv-x="1656" d="M113 0l172 1384h170l315 -809q33 -85 57 -178q33 112 60 178l315 809h170l172 -1384h-137l-131 1047q-11 83 -14 172q-35 -107 -60 -172l-293 -771h-161l-293 771q-40 99 -62 165q-10 -153 -12 -165l-131 -1047h-137z" />
<glyph unicode="&#x41d;" horiz-adv-x="1292" d="M184 0v1384h140v-614h645v614h139v-1384h-139v641h-645v-641h-140z" />
<glyph unicode="&#x41e;" horiz-adv-x="1280" d="M143 522v336q0 135 39 242t107.5 174t158 102t193.5 35t192.5 -35t157 -102t107.5 -174t39 -242v-336q0 -135 -39 -241.5t-107.5 -172.5t-157 -100.5t-192.5 -34.5t-193.5 34t-158 100.5t-107.5 173t-39 241.5zM283 528q0 -209 98 -317.5t260 -108.5t259 108.5t97 317.5 v324q0 212 -97 321t-259 109t-260 -109t-98 -321v-324z" />
<glyph unicode="&#x41f;" horiz-adv-x="1292" d="M184 0v1384h924v-1384h-139v1255h-645v-1255h-140z" />
<glyph unicode="&#x420;" horiz-adv-x="1120" d="M184 0v1384h445q176 0 287.5 -118t111.5 -291q0 -170 -111.5 -290t-287.5 -120h-305v-565h-140zM324 694h305q121 0 188.5 78t67.5 203q0 126 -67 203t-189 77h-305v-561z" />
<glyph unicode="&#x421;" horiz-adv-x="1146" d="M143 522v340q0 268 143.5 408.5t377.5 140.5q103 0 190.5 -15.5t200.5 -49.5l-27 -125q-206 61 -362 61q-176 0 -279.5 -107.5t-103.5 -318.5v-330q0 -215 103 -319.5t280 -104.5q159 0 362 60l27 -127q-110 -32 -197 -47t-194 -15q-234 0 -377.5 140.5t-143.5 408.5z " />
<glyph unicode="&#x422;" horiz-adv-x="1060" d="M72 1255v129h917v-129h-389v-1255h-139v1255h-389z" />
<glyph unicode="&#x423;" horiz-adv-x="1159" d="M115 1384h141l92 -540q21 -124 70.5 -187t152.5 -63h191l143 790h139l-200 -1105q-26 -141 -91.5 -210t-193.5 -69h-223l-17 127h195q92 0 136 39.5t61 136.5l28 162h-170q-159 0 -245 92t-115 268z" />
<glyph unicode="&#x424;" horiz-adv-x="1497" d="M102 721q0 161 64.5 284t196.5 196.5t317 80.5v129h139v-129q277 -10 426.5 -162.5t149.5 -398.5q0 -162 -62 -286t-193.5 -200t-320.5 -83v-179h-139v179q-281 10 -429.5 165.5t-148.5 403.5zM242 723q0 -95 26.5 -173.5t78.5 -139t137 -95t196 -36.5v876 q-225 -6 -331.5 -120.5t-106.5 -311.5zM819 279q110 2 194.5 36.5t136.5 95t78.5 139t26.5 173.5q0 81 -25 155t-75.5 136t-137 100t-198.5 41v-876z" />
<glyph unicode="&#x425;" horiz-adv-x="1181" d="M72 0l438 731l-387 653h153l316 -532l319 532h144l-387 -645l442 -739h-156l-366 618l-371 -618h-145z" />
<glyph unicode="&#x426;" horiz-adv-x="1333" d="M184 0v1384h140v-1255h645v1255h139v-1255h180v-420l-135 -26v317h-969z" />
<glyph unicode="&#x427;" horiz-adv-x="1187" d="M141 956v428h140v-442q0 -118 58.5 -175.5t162.5 -57.5q78 0 146.5 14t109 30t106.5 48v583h140v-1384h-140v672q-100 -44 -186.5 -68t-198.5 -24q-152 0 -245 91t-93 285z" />
<glyph unicode="&#x428;" horiz-adv-x="1871" d="M184 0v1384h140v-1255h542v1255h140v-1255h542v1255h140v-1384h-1504z" />
<glyph unicode="&#x429;" horiz-adv-x="1912" d="M184 0v1384h140v-1255h542v1255h140v-1255h542v1255h140v-1255h180v-420l-135 -26v317h-1549z" />
<glyph unicode="&#x42a;" horiz-adv-x="1290" d="M61 1255v129h433v-585h325q177 0 288.5 -115.5t111.5 -284.5q0 -171 -111.5 -285t-288.5 -114h-465v1255h-293zM494 129h325q123 0 189.5 72.5t66.5 197.5q0 124 -67 197.5t-189 73.5h-325v-541z" />
<glyph unicode="&#x42b;" horiz-adv-x="1552" d="M184 0v1384h140v-585h325q177 0 288.5 -115.5t111.5 -284.5q0 -171 -111.5 -285t-288.5 -114h-465zM324 129h325q123 0 189.5 72.5t66.5 197.5q0 124 -67 197.5t-189 73.5h-325v-541zM1229 0v1384h139v-1384h-139z" />
<glyph unicode="&#x42c;" horiz-adv-x="1120" d="M184 0v1384h140v-585h325q177 0 288.5 -115.5t111.5 -284.5q0 -171 -111.5 -285t-288.5 -114h-465zM324 129h325q123 0 189.5 72.5t66.5 197.5q0 124 -67 197.5t-189 73.5h-325v-541z" />
<glyph unicode="&#x42d;" horiz-adv-x="1146" d="M92 35l27 127q203 -60 362 -60q177 0 280 104.5t103 319.5v115h-504l-12 129h516v86q0 211 -103.5 318.5t-279.5 107.5q-156 0 -362 -61l-27 125q113 34 200.5 49.5t190.5 15.5q234 0 377.5 -140.5t143.5 -408.5v-340q0 -268 -143.5 -408.5t-377.5 -140.5q-107 0 -194 15 t-197 47z" />
<glyph unicode="&#x42e;" horiz-adv-x="1689" d="M184 0v1384h140v-614h290v88q0 135 37 242t101.5 174t148 102t180.5 35q96 0 179 -35t147.5 -102t101.5 -174t37 -242v-336q0 -135 -37 -241.5t-101.5 -172.5t-147.5 -100.5t-179 -34.5q-97 0 -180.5 34.5t-148 100.5t-101.5 172.5t-37 241.5v119h-290v-641h-140z M754 528q0 -209 90.5 -317.5t236.5 -108.5t236 108.5t90 317.5v324q0 211 -90 320.5t-236 109.5t-236.5 -109.5t-90.5 -320.5v-324z" />
<glyph unicode="&#x42f;" horiz-adv-x="1140" d="M102 975q0 173 111 291t287 118h456v-1384h-139v567h-293l-260 -567h-155l274 582q-128 33 -204.5 142.5t-76.5 250.5zM244 975q0 -125 68 -203t188 -78h317v561h-317q-121 0 -188.5 -77t-67.5 -203z" />
<glyph unicode="&#x430;" horiz-adv-x="978" d="M102 301q0 147 100 231t267 84h242v72q0 126 -60.5 193t-177.5 67t-268 -45l-29 119q151 51 297 51q172 0 272.5 -101.5t100.5 -283.5v-688h-109l-20 76q-44 -42 -112 -72.5t-146 -30.5q-160 0 -258.5 82t-98.5 246zM242 305q0 -104 62.5 -155.5t172.5 -51.5 q102 0 168 51.5t66 129.5v219h-242q-113 0 -170 -53t-57 -140z" />
<glyph unicode="&#x431;" horiz-adv-x="1110" d="M164 434v484q0 139 29.5 238t87.5 158t127 89.5t165 46.5l400 66v-130l-416 -71q-130 -23 -194 -109.5t-64 -279.5q93 131 315 131q74 0 138.5 -28t115 -82.5t80 -144.5t29.5 -206v-162q0 -229 -110.5 -345t-297.5 -116q-185 0 -295 116t-110 345zM299 444 q0 -186 71 -266t199 -80q273 0 273 346v142q0 187 -71.5 266.5t-201.5 79.5q-270 0 -270 -346v-142z" />
<glyph unicode="&#x432;" horiz-adv-x="1030" d="M174 0v1047h389q147 0 231.5 -75t84.5 -192q0 -72 -37 -132t-103 -97q63 -24 105 -68t58 -90.5t16 -97.5q0 -52 -20 -101.5t-60.5 -94t-113.5 -72t-169 -27.5h-381zM309 119h228q241 0 241 176q0 86 -56.5 135t-174.5 49h-238v-360zM309 598h223q97 0 152 45.5t55 124.5 t-50 119.5t-146 40.5h-234v-330z" />
<glyph unicode="&#x433;" horiz-adv-x="819" d="M174 0v1047h604v-121h-469v-926h-135z" />
<glyph unicode="&#x434;" horiz-adv-x="1146" d="M31 121h147l117 565q36 176 124 268.5t247 92.5h276v-926h160v-393l-125 -23v295h-821v-272l-125 -23v416zM315 121h492v805h-139q-103 0 -157.5 -67t-80.5 -191z" />
<glyph unicode="&#x435;" horiz-adv-x="1036" d="M133 399v256q0 197 111 307.5t278 110.5q165 0 278 -106.5t113 -272.5v-209h-645v-86q0 -152 73 -226.5t202 -74.5q116 0 280 47l27 -122q-155 -50 -307 -50q-185 0 -297.5 110.5t-112.5 315.5zM268 604h510v90q0 113 -71.5 183.5t-184.5 70.5q-115 0 -184.5 -74 t-69.5 -219v-51z" />
<glyph unicode="&#x436;" horiz-adv-x="1482" d="M72 0l266 549q-62 28 -97 73.5t-63 149.5l-76 275h136l69 -259q16 -59 42 -91.5t75 -49.5l250 -84v484h135v-484l250 84q49 17 75 49.5t42 91.5l69 259h135l-75 -275q-29 -103 -64 -149t-96 -74l266 -549h-143l-242 506l-217 -78v-428h-135v428l-219 78l-240 -506h-143z " />
<glyph unicode="&#x437;" horiz-adv-x="878" d="M82 35l37 115q166 -56 268 -56q104 0 167.5 50.5t63.5 138.5q0 194 -215 194h-81l-15 119h84q94 0 155.5 59t61.5 140q0 157 -221 157q-80 0 -244 -51l-24 115q152 57 293 57q149 0 237 -77t88 -199q0 -74 -39 -141t-106 -105q164 -62 164 -264q0 -141 -100.5 -227.5 t-256.5 -86.5q-142 0 -317 62z" />
<glyph unicode="&#x438;" horiz-adv-x="1126" d="M174 0v1047h135v-625q0 -133 -4 -186l535 811h112v-1047h-135v610q0 108 6 191l-530 -801h-119z" />
<glyph unicode="&#x439;" horiz-adv-x="1126" d="M174 0v1047h135v-625q0 -133 -4 -186l535 811h112v-1047h-135v610q0 108 6 191l-530 -801h-119zM330 1438l112 22q9 -55 40.5 -89t80.5 -34t80.5 34t40.5 89l113 -22q-15 -96 -79.5 -154.5t-154.5 -58.5t-154 58.5t-79 154.5z" />
<glyph unicode="&#x43a;" horiz-adv-x="1024" d="M174 0v1047h135v-490l281 102q51 19 76.5 48t40.5 86l69 254h135l-75 -271q-30 -108 -66.5 -150t-107.5 -69l290 -557h-143l-264 512l-236 -90v-422h-135z" />
<glyph unicode="&#x43b;" horiz-adv-x="1030" d="M72 0l141 686q36 176 124 268.5t247 92.5h272v-1047h-135v926h-135q-103 0 -157.5 -67t-80.5 -191l-139 -668h-137z" />
<glyph unicode="&#x43c;" horiz-adv-x="1347" d="M102 0l129 1047h187l256 -711l256 711h186l129 -1047h-133l-108 901l-248 -692h-164l-248 690l-106 -899h-136z" />
<glyph unicode="&#x43d;" horiz-adv-x="1114" d="M174 0v1047h135v-445h496v445h135v-1047h-135v479h-496v-479h-135z" />
<glyph unicode="&#x43e;" horiz-adv-x="1091" d="M133 434v180q0 229 112.5 344t299.5 115q188 0 300.5 -115.5t112.5 -345.5v-178q0 -229 -113 -345t-300 -116q-186 0 -299 116.5t-113 344.5zM268 444q0 -346 277 -346q278 0 278 346v158q0 96 -20.5 165t-59 107.5t-87 56t-111.5 17.5q-277 0 -277 -346v-158z" />
<glyph unicode="&#x43f;" horiz-adv-x="1105" d="M174 0v1047h758v-1047h-135v926h-488v-926h-135z" />
<glyph unicode="&#x440;" horiz-adv-x="1107" d="M174 -432v1479h109l20 -91q41 50 118 83.5t171 33.5q75 0 143 -28.5t122 -82t86 -138t32 -187.5v-225q0 -110 -31.5 -196t-86.5 -138t-124.5 -78.5t-150.5 -26.5q-141 0 -273 86v-491h-135zM309 188q141 -90 262 -90q56 0 102.5 17t85 53.5t60 101t21.5 152.5v205 q0 160 -72 240.5t-193 80.5q-117 0 -191.5 -62.5t-74.5 -185.5v-512z" />
<glyph unicode="&#x441;" horiz-adv-x="960" d="M133 432v184q0 227 114 342t310 115q135 0 291 -47l-23 -121q-165 43 -266 43q-147 0 -219 -84.5t-72 -261.5v-156q0 -178 72 -263t219 -85q118 0 266 41l23 -119q-156 -47 -291 -47q-196 0 -310 115.5t-114 343.5z" />
<glyph unicode="&#x442;" horiz-adv-x="827" d="M41 926v121h786v-121h-325v-926h-135v926h-326z" />
<glyph unicode="&#x443;" horiz-adv-x="983" d="M74 1047h137l92 -668q16 -122 69 -187t158 -65h132l114 920h135l-186 -1479h-135l55 432h-117q-310 0 -360 360z" />
<glyph unicode="&#x444;" horiz-adv-x="1589" d="M133 412v225q0 220 93.5 328t258.5 108q50 0 100 -17t76.5 -33t65.5 -44v506l135 41v-547q39 28 65.5 44t76.5 33t100 17q165 0 258.5 -108t93.5 -328v-225q0 -220 -94 -329.5t-258 -109.5q-51 0 -99 14.5t-74.5 29.5t-68.5 42v-491h-135v491q-42 -27 -68.5 -42 t-74.5 -29.5t-99 -14.5q-164 0 -258 109.5t-94 329.5zM268 422q0 -174 57.5 -249t170.5 -75q43 0 83.5 12.5t67 28t80.5 49.5v670q-54 34 -80.5 49.5t-67 28t-83.5 12.5q-113 0 -170.5 -73.5t-57.5 -247.5v-205zM862 188q53 -34 80.5 -49.5t68 -28t83.5 -12.5 q113 0 170 74.5t57 249.5v205q0 174 -57 247.5t-170 73.5q-43 0 -83.5 -12.5t-68 -28t-80.5 -49.5v-670z" />
<glyph unicode="&#x445;" horiz-adv-x="989" d="M61 0l355 541l-328 506h152l254 -398l260 398h145l-328 -502l357 -545h-152l-282 436l-287 -436h-146z" />
<glyph unicode="&#x446;" horiz-adv-x="1136" d="M174 0v1047h135v-926h488v926h135v-926h160v-393l-125 -23v295h-793z" />
<glyph unicode="&#x447;" horiz-adv-x="1024" d="M125 702v345h135v-330q0 -89 45 -132.5t123 -43.5q86 0 151 18t136 53v435h135v-1047h-135v487q-158 -69 -324 -69q-117 0 -191.5 69t-74.5 215z" />
<glyph unicode="&#x448;" horiz-adv-x="1605" d="M174 0v1047h135v-926h426v926h135v-926h426v926h136v-1047h-1258z" />
<glyph unicode="&#x449;" horiz-adv-x="1636" d="M174 0v1047h135v-926h426v926h135v-926h426v926h136v-926h159v-393l-125 -23v295h-1292z" />
<glyph unicode="&#x44a;" horiz-adv-x="1126" d="M41 926v121h391v-431h301q132 0 216.5 -90t84.5 -219q0 -130 -84 -218.5t-217 -88.5h-436v926h-256zM432 121h293q81 0 125.5 51t44.5 135t-44.5 136.5t-125.5 52.5h-293v-375z" />
<glyph unicode="&#x44b;" horiz-adv-x="1380" d="M174 0v1047h135v-431h301q132 0 216.5 -90t84.5 -219q0 -130 -84 -218.5t-217 -88.5h-436zM309 121h293q81 0 125.5 51t44.5 135t-44.5 136.5t-125.5 52.5h-293v-375zM1071 0v1047h135v-1047h-135z" />
<glyph unicode="&#x44c;" horiz-adv-x="1003" d="M174 0v1047h135v-431h301q132 0 216.5 -90t84.5 -219q0 -130 -84 -218.5t-217 -88.5h-436zM309 121h293q81 0 125.5 51t44.5 135t-44.5 136.5t-125.5 52.5h-293v-375z" />
<glyph unicode="&#x44d;" horiz-adv-x="960" d="M113 20l22 117q148 -41 266 -41q156 0 223.5 90t67.5 295h-373l-10 119h383q0 179 -72 264.5t-219 85.5q-101 0 -266 -43l-22 119q156 47 290 47q196 0 310 -115t114 -342v-184q0 -228 -114 -343.5t-310 -115.5q-134 0 -290 47z" />
<glyph unicode="&#x44e;" horiz-adv-x="1452" d="M174 0v1047h135v-445h213q0 121 30 213t85 147.5t126 83t157 27.5q181 0 290 -115.5t109 -345.5v-178q0 -228 -110 -344.5t-289 -116.5q-178 0 -288 116.5t-110 344.5v45h-213v-479h-135zM657 444q0 -346 263 -346q120 0 192 81t72 265v158q0 346 -264 346 q-119 0 -191 -80.5t-72 -265.5v-158z" />
<glyph unicode="&#x44f;" horiz-adv-x="1003" d="M102 733q0 131 84 222.5t217 91.5h426v-1047h-135v420h-241l-191 -420h-156l209 432q-97 24 -155 109t-58 192zM240 733q0 -86 46.5 -140t127.5 -54h280v387h-280q-81 0 -127.5 -54t-46.5 -139z" />
<glyph unicode="&#x451;" horiz-adv-x="1036" d="M133 399v256q0 197 111 307.5t278 110.5q165 0 278 -106.5t113 -272.5v-209h-645v-86q0 -152 73 -226.5t202 -74.5q116 0 280 47l27 -122q-155 -50 -307 -50q-185 0 -297.5 110.5t-112.5 315.5zM244 1339q0 40 28 68.5t66 28.5t66 -28.5t28 -68.5q0 -37 -28 -64.5 t-66 -27.5t-66 27.5t-28 64.5zM268 604h510v90q0 113 -71.5 183.5t-184.5 70.5q-115 0 -184.5 -74t-69.5 -219v-51zM616 1339q0 39 29 68t66 29q40 0 68 -28.5t28 -68.5q0 -37 -28.5 -64.5t-67.5 -27.5q-37 0 -66 28t-29 64z" />
<glyph unicode="&#x452;" horiz-adv-x="1118" d="M90 1251v107h84v141h135v-141h246v-107h-246v-264q53 35 125.5 60.5t147.5 25.5q82 0 147.5 -23t117 -71t79.5 -129.5t28 -192.5v-1071l-135 -41v1102q0 166 -65 233.5t-183 67.5q-125 0 -262 -90v-858h-135v1251h-84z" />
<glyph unicode="&#x453;" horiz-adv-x="819" d="M174 0v1047h604v-121h-469v-926h-135zM274 1309l381 166l54 -127l-396 -142z" />
<glyph unicode="&#x454;" horiz-adv-x="960" d="M133 432v184q0 227 114 342t310 115q135 0 291 -47l-23 -119q-165 43 -266 43q-147 0 -219 -85.5t-72 -264.5h383l-10 -119h-373q0 -205 67.5 -295t223.5 -90q118 0 266 41l23 -117q-156 -47 -291 -47q-196 0 -310 115.5t-114 343.5z" />
<glyph unicode="&#x455;" horiz-adv-x="851" d="M100 23l25 122q169 -47 268 -47t159 48t60 122q0 54 -27 94.5t-70.5 65t-95.5 46t-104.5 46t-96 57t-70.5 87t-27 127.5q0 124 89 203t243 79q127 0 264 -45l-35 -121q-128 41 -229 41q-94 0 -143.5 -43t-49.5 -114q0 -44 21 -77.5t55.5 -54.5t79 -41.5t90.5 -37.5 t90.5 -44t79 -59t55.5 -85t21 -120q0 -56 -22 -108t-64 -95.5t-113 -69.5t-160 -26q-153 0 -293 50z" />
<glyph unicode="&#x456;" horiz-adv-x="483" d="M145 1339q0 38 28.5 65.5t68.5 27.5q39 0 67.5 -27.5t28.5 -65.5t-29 -66t-67 -28q-40 0 -68.5 28t-28.5 66zM174 0v1047h135v-1047h-135z" />
<glyph unicode="&#x457;" horiz-adv-x="483" d="M-39 1339q0 40 28 68.5t66 28.5t66.5 -28.5t28.5 -68.5q0 -37 -28.5 -64.5t-66.5 -27.5t-66 27.5t-28 64.5zM174 0v1047h135v-1047h-135zM334 1339q0 39 28.5 68t65.5 29q40 0 68 -28.5t28 -68.5q0 -37 -28.5 -64.5t-67.5 -27.5q-37 0 -65.5 27.5t-28.5 64.5z" />
<glyph unicode="&#x458;" horiz-adv-x="483" d="M143 1339q0 38 29 65.5t70 27.5q37 0 66.5 -27.5t29.5 -65.5t-29.5 -66t-66.5 -28q-41 0 -70 28t-29 66zM174 -455v1502h135v-1461z" />
<glyph unicode="&#x459;" horiz-adv-x="1550" d="M72 0l141 686q36 176 124 268.5t247 92.5h272v-431h301q132 0 216.5 -90t84.5 -219q0 -130 -84 -218.5t-217 -88.5h-436v926h-135q-103 0 -157.5 -67t-80.5 -191l-139 -668h-137zM856 121h293q81 0 125.5 51t44.5 135t-44.5 136.5t-125.5 52.5h-293v-375z" />
<glyph unicode="&#x45a;" horiz-adv-x="1634" d="M174 0v1047h135v-431h496v431h135v-431h301q132 0 216.5 -90t84.5 -219q0 -130 -84 -218.5t-217 -88.5h-436v494h-496v-494h-135zM940 121h293q81 0 125.5 51t44.5 135t-44.5 136.5t-125.5 52.5h-293v-375z" />
<glyph unicode="&#x45b;" horiz-adv-x="1118" d="M90 1251v107h84v141h135v-141h246v-107h-246v-264q53 35 125.5 60.5t147.5 25.5q82 0 147.5 -23t117 -71t79.5 -129.5t28 -192.5v-657h-135v647q0 166 -65 233.5t-183 67.5q-125 0 -262 -90v-858h-135v1251h-84z" />
<glyph unicode="&#x45c;" horiz-adv-x="1024" d="M174 0v1047h135v-490l281 102q51 19 76.5 48t40.5 86l69 254h135l-75 -271q-30 -108 -66.5 -150t-107.5 -69l290 -557h-143l-264 512l-236 -90v-422h-135zM336 1309l381 166l53 -127l-395 -142z" />
<glyph unicode="&#x45e;" horiz-adv-x="983" d="M74 1047h137l92 -668q16 -122 69 -187t158 -65h132l114 920h135l-186 -1479h-135l55 432h-117q-310 0 -360 360zM281 1438l112 22q9 -55 40.5 -89t80.5 -34t80.5 34t40.5 89l113 -22q-15 -96 -79.5 -154.5t-154.5 -58.5t-154 58.5t-79 154.5z" />
<glyph unicode="&#x45f;" horiz-adv-x="1105" d="M174 0v1047h135v-926h488v926h135v-1047h-303v-272l-125 -23v295h-330z" />
<glyph unicode="&#x490;" horiz-adv-x="942" d="M184 0v1384h561v203l136 27v-359h-557v-1255h-140z" />
<glyph unicode="&#x491;" horiz-adv-x="819" d="M174 0v1047h479v192l125 23v-336h-469v-926h-135z" />
<glyph unicode="&#x1e80;" horiz-adv-x="1665" d="M92 1384h139l185 -1046q11 -70 22 -191q32 121 54 191l256 833h170l256 -833q40 -146 51 -191q11 125 24 191l185 1046h139l-254 -1384h-166l-272 866q-40 134 -50 178q-16 -69 -47 -178l-272 -866h-166zM614 1655l54 127l381 -166l-39 -103z" />
<glyph unicode="&#x1e81;" horiz-adv-x="1581" d="M113 1047h135l45 -693q8 -115 64 -184.5t151 -69.5t155 71.5t60 186.5v611h133v-611q0 -115 60 -186.5t155 -71.5t152 69.5t65 184.5l45 693h135l-49 -703q-12 -172 -105.5 -271.5t-242.5 -99.5q-86 0 -159 40.5t-121 113.5q-47 -72 -122 -113t-161 -41 q-147 0 -240.5 101t-105.5 272zM573 1348l54 127l381 -166l-39 -103z" />
<glyph unicode="&#x1e82;" horiz-adv-x="1665" d="M92 1384h139l185 -1046q11 -70 22 -191q32 121 54 191l256 833h170l256 -833q40 -146 51 -191q11 125 24 191l185 1046h139l-254 -1384h-166l-272 866q-40 134 -50 178q-16 -69 -47 -178l-272 -866h-166zM614 1616l381 166l54 -127l-396 -142z" />
<glyph unicode="&#x1e83;" horiz-adv-x="1581" d="M113 1047h135l45 -693q8 -115 64 -184.5t151 -69.5t155 71.5t60 186.5v611h133v-611q0 -115 60 -186.5t155 -71.5t152 69.5t65 184.5l45 693h135l-49 -703q-12 -172 -105.5 -271.5t-242.5 -99.5q-86 0 -159 40.5t-121 113.5q-47 -72 -122 -113t-161 -41 q-147 0 -240.5 101t-105.5 272zM573 1309l381 166l54 -127l-396 -142z" />
<glyph unicode="&#x1e84;" horiz-adv-x="1665" d="M92 1384h139l185 -1046q11 -70 22 -191q32 121 54 191l256 833h170l256 -833q40 -146 51 -191q11 125 24 191l185 1046h139l-254 -1384h-166l-272 866q-40 134 -50 178q-16 -69 -47 -178l-272 -866h-166zM551 1647q0 40 28 68t66 28t66 -28t28 -68q0 -37 -28 -65t-66 -28 t-66 28t-28 65zM924 1647q0 39 28.5 67.5t65.5 28.5q40 0 68 -28t28 -68q0 -37 -28.5 -65t-67.5 -28q-37 0 -65.5 28t-28.5 65z" />
<glyph unicode="&#x1e85;" horiz-adv-x="1581" d="M113 1047h135l45 -693q8 -115 64 -184.5t151 -69.5t155 71.5t60 186.5v611h133v-611q0 -115 60 -186.5t155 -71.5t152 69.5t65 184.5l45 693h135l-49 -703q-12 -172 -105.5 -271.5t-242.5 -99.5q-86 0 -159 40.5t-121 113.5q-47 -72 -122 -113t-161 -41 q-147 0 -240.5 101t-105.5 272zM508 1339q0 40 28 68.5t66 28.5t66 -28.5t28 -68.5q0 -37 -28 -64.5t-66 -27.5t-66 27.5t-28 64.5zM881 1339q0 39 28.5 68t65.5 29q40 0 68 -28.5t28 -68.5q0 -37 -28.5 -64.5t-67.5 -27.5q-37 0 -65.5 27.5t-28.5 64.5z" />
<glyph unicode="&#x1ef2;" horiz-adv-x="1130" d="M61 1384h146l358 -712l359 712h145l-434 -852v-532h-139v532zM348 1655l53 127l381 -166l-39 -103z" />
<glyph unicode="&#x1ef3;" horiz-adv-x="980" d="M72 1047h137l92 -668q16 -122 69 -187t158 -65h131l115 920h135l-186 -1479h-135l55 432h-117q-310 0 -360 360zM272 1348l54 127l381 -166l-39 -103z" />
<glyph unicode="&#x2000;" horiz-adv-x="932" />
<glyph unicode="&#x2001;" horiz-adv-x="1864" />
<glyph unicode="&#x2002;" horiz-adv-x="932" />
<glyph unicode="&#x2003;" horiz-adv-x="1864" />
<glyph unicode="&#x2004;" horiz-adv-x="621" />
<glyph unicode="&#x2005;" horiz-adv-x="466" />
<glyph unicode="&#x2006;" horiz-adv-x="310" />
<glyph unicode="&#x2007;" horiz-adv-x="310" />
<glyph unicode="&#x2008;" horiz-adv-x="233" />
<glyph unicode="&#x2009;" horiz-adv-x="372" />
<glyph unicode="&#x200a;" horiz-adv-x="103" />
<glyph unicode="&#x2010;" horiz-adv-x="993" d="M184 508v125h625v-125h-625z" />
<glyph unicode="&#x2011;" horiz-adv-x="993" d="M184 508v125h625v-125h-625z" />
<glyph unicode="&#x2012;" horiz-adv-x="993" d="M184 508v125h625v-125h-625z" />
<glyph unicode="&#x2013;" horiz-adv-x="1024" d="M0 510v125h1024v-125h-1024z" />
<glyph unicode="&#x2014;" horiz-adv-x="2048" d="M0 510v125h2048v-125h-2048z" />
<glyph unicode="&#x2018;" horiz-adv-x="466" d="M137 1059l127 440l98 -16l-79 -424h-146z" />
<glyph unicode="&#x2019;" horiz-adv-x="466" d="M141 1075l80 424h146l-127 -440z" />
<glyph unicode="&#x201a;" horiz-adv-x="507" d="M121 -270l80 424h145l-127 -441z" />
<glyph unicode="&#x201c;" horiz-adv-x="731" d="M143 1059l127 440l99 -16l-80 -424h-146zM408 1059l127 440l98 -16l-80 -424h-145z" />
<glyph unicode="&#x201d;" horiz-adv-x="731" d="M139 1075l80 424h146l-127 -440zM403 1075l80 424h146l-127 -440z" />
<glyph unicode="&#x201e;" horiz-adv-x="772" d="M121 -270l80 424h145l-127 -441zM385 -270l80 424h145l-127 -441z" />
<glyph unicode="&#x2020;" horiz-adv-x="911" d="M154 877v114h235v352h133v-352h236v-114h-236v-877h-133v877h-235z" />
<glyph unicode="&#x2021;" horiz-adv-x="911" d="M154 379v113h235v358h-235v115h235v378h133v-378h236v-115h-236v-358h236v-113h-236v-379h-133v379h-235z" />
<glyph unicode="&#x2022;" horiz-adv-x="1013" d="M195 571q0 129 91 221.5t220 92.5t221 -92.5t92 -221.5t-92 -220t-221 -91t-220 91t-91 220z" />
<glyph unicode="&#x2026;" horiz-adv-x="1642" d="M154 72q0 39 28 65.5t68 26.5q38 0 66 -26.5t28 -65.5q0 -38 -28.5 -66.5t-65.5 -28.5q-40 0 -68 28.5t-28 66.5zM725 72q0 39 28.5 65.5t67.5 26.5t66.5 -26.5t27.5 -65.5q0 -38 -28 -66.5t-66 -28.5t-67 28.5t-29 66.5zM1300 72q0 39 28.5 65.5t68.5 26.5 q37 0 64.5 -26.5t27.5 -65.5q0 -38 -27.5 -66.5t-64.5 -28.5q-40 0 -68.5 28.5t-28.5 66.5z" />
<glyph unicode="&#x202f;" horiz-adv-x="372" />
<glyph unicode="&#x2030;" horiz-adv-x="2527" d="M145 958v142q0 142 85.5 226.5t218.5 84.5q132 0 218.5 -84.5t86.5 -226.5v-142q0 -143 -86 -227t-219 -84q-134 0 -219 84t-85 227zM264 963q0 -105 49.5 -156t135.5 -51t135 51t49 156v133q0 104 -49 154t-135 50t-135.5 -50t-49.5 -154v-133zM481 0l662 1384h133 l-662 -1384h-133zM1022 287v139q0 144 85 228.5t218 84.5q132 0 218.5 -85t86.5 -228v-139q0 -143 -86.5 -228.5t-218.5 -85.5q-133 0 -218 85t-85 229zM1141 291q0 -106 49 -156.5t135 -50.5t135 50.5t49 156.5v131q0 106 -49 156.5t-135 50.5t-135 -50.5t-49 -156.5v-131z M1774 287v139q0 144 85 228.5t218 84.5q132 0 218.5 -85t86.5 -228v-139q0 -143 -86.5 -228.5t-218.5 -85.5q-133 0 -218 85t-85 229zM1892 291q0 -106 49.5 -156.5t135.5 -50.5t135 50.5t49 156.5v131q0 106 -49 156.5t-135 50.5t-135.5 -50.5t-49.5 -156.5v-131z" />
<glyph unicode="&#x2039;" horiz-adv-x="661" d="M137 571l283 342l98 -82l-217 -260l217 -260l-98 -80z" />
<glyph unicode="&#x203a;" horiz-adv-x="667" d="M143 313l217 260l-217 261l99 79l282 -340l-282 -342z" />
<glyph unicode="&#x205f;" horiz-adv-x="466" />
<glyph unicode="&#x20ac;" horiz-adv-x="1069" d="M76 467v121h174v209h-174v121h174q3 231 131 362t336 131q119 0 280 -33l-22 -127q-138 31 -256 31q-150 0 -238.5 -97t-91.5 -267h436l-24 -121h-412v-209h379l-25 -121h-354q3 -170 91.5 -267.5t238.5 -97.5q118 0 256 31l22 -127q-161 -33 -280 -33q-208 0 -336 131.5 t-131 362.5h-174z" />
<glyph unicode="&#x2116;" horiz-adv-x="1906" d="M184 0v1384h109l665 -1118q-4 72 -4 195v923h140v-1384h-119l-660 1100q9 -108 9 -197v-903h-140zM1247 752v125q0 125 75.5 199.5t193.5 74.5q117 0 192.5 -74.5t75.5 -199.5v-125q0 -126 -75.5 -200.5t-192.5 -74.5q-118 0 -193.5 74.5t-75.5 200.5zM1288 291v106h455 v-106h-455zM1364 760q0 -88 40.5 -130t111.5 -42q151 0 151 172v108q0 87 -40 128.5t-111 41.5t-111.5 -41.5t-40.5 -128.5v-108z" />
<glyph unicode="&#x2122;" horiz-adv-x="1568" d="M184 1284v98h473l-14 -98h-168v-512h-113v512h-178zM696 772l76 610h125l143 -376l144 376h125l75 -610h-104l-53 432l-131 -342h-111l-131 342l-53 -432h-105z" />
<glyph unicode="&#x2206;" horiz-adv-x="1538" d="M92 0l592 1448h174l588 -1448h-1354zM287 125h966l-483 1182z" />
<glyph unicode="&#x220f;" horiz-adv-x="1617" d="M154 1257v125h1310v-125h-168v-1527h-133v1527h-708v-1527h-133v1527h-168z" />
<glyph unicode="&#x2211;" horiz-adv-x="1409" d="M154 -137l565 694l-565 696v129h1101v-125h-933l567 -700l-567 -700h933v-125h-1101v131z" />
<glyph unicode="&#x221a;" horiz-adv-x="1202" d="M20 1047h273l246 -736q18 -55 47 -155q12 42 49 155l405 1188h142l-516 -1499h-156l-322 940h-122z" />
<glyph unicode="&#x222b;" horiz-adv-x="796" d="M31 -430l24 123q53 -15 103 -15q74 0 125 42.5t51 127.5v1371q0 95 43.5 164t111 101t148.5 32q60 0 129 -21l-25 -123q-63 17 -102 17q-74 0 -124 -43t-50 -127v-1371q0 -142 -89 -219.5t-216 -77.5q-55 0 -129 19z" />
<glyph unicode="&#x2248;" horiz-adv-x="1120" d="M154 377q39 55 97.5 98t131.5 43q53 0 107 -25.5t90 -55.5t79 -55.5t78 -25.5q32 0 60.5 15.5t43.5 30.5t38 44l88 -75q-39 -55 -98 -98.5t-132 -43.5q-54 0 -107.5 25.5t-89 55.5t-78.5 55.5t-79 25.5q-32 0 -60.5 -15.5t-42.5 -30.5t-38 -44zM154 827q24 34 52.5 62.5 t77.5 54t99 25.5q53 0 107 -25.5t90 -55.5t79 -55.5t78 -25.5q32 0 60.5 15.5t43.5 30.5t38 44l88 -76q-39 -55 -98 -98t-132 -43q-54 0 -107.5 25.5t-89 55.5t-78.5 55.5t-79 25.5q-32 0 -60.5 -15.5t-42.5 -30.5t-38 -44z" />
<glyph unicode="&#x2260;" horiz-adv-x="1146" d="M154 299v123h309l108 299h-417v123h462l80 219l107 -39l-66 -180h256v-123h-301l-108 -299h409v-123h-454l-84 -236l-109 39l72 197h-264z" />
<glyph unicode="&#x2264;" horiz-adv-x="1048" d="M154 520v103l684 376l57 -104l-588 -324l588 -323l-57 -105zM158 39h729v-117h-729v117z" />
<glyph unicode="&#x2265;" horiz-adv-x="1048" d="M154 248l587 323l-587 324l57 104l684 -376v-103l-684 -377zM162 39h729v-117h-729v117z" />
<glyph unicode="&#x25ca;" horiz-adv-x="1423" d="M92 666l610 669l613 -671l-610 -668zM270 666l435 -478l434 476l-437 479z" />
<glyph unicode="&#x25fc;" horiz-adv-x="1044" d="M0 0v1044h1044v-1044h-1044z" />
<glyph unicode="&#xf8ff;" horiz-adv-x="0" />
<glyph horiz-adv-x="1114" d="M104 215l289 934h133l-276 -930h424v461l135 20v-481h201v-127h-201v-325l-135 -21v346h-549z" />
<glyph horiz-adv-x="1028" d="M78 -203l24 119q168 -53 328 -53q58 0 115.5 19t109 56.5t83.5 105t32 153.5q0 54 -9.5 97t-34 81t-63 63t-99 39.5t-140.5 14.5h-272l24 657h690l-41 -123h-520l-14 -412h155q224 0 343.5 -105t119.5 -308q0 -112 -42 -202.5t-111.5 -146t-153 -85t-172.5 -29.5 q-184 0 -352 59z" />
<glyph horiz-adv-x="1116" d="M133 422v485q0 105 29.5 195.5t85.5 160t144.5 109t199.5 39.5q134 0 293 -47l-29 -125q-150 47 -264 47q-159 0 -241.5 -106.5t-82.5 -272.5v-84q149 82 303 82q121 0 219 -52t158 -159t60 -254q0 -112 -35 -202t-95.5 -147t-139.5 -87.5t-169 -30.5q-122 0 -219.5 51 t-157 154.5t-59.5 243.5zM268 420q0 -136 78.5 -229t220.5 -93q143 0 222 97.5t79 244.5q0 152 -80.5 247t-220.5 95q-153 0 -299 -82v-280z" />
<glyph horiz-adv-x="1144" d="M121 342q0 74 24 134t70 105t94.5 76.5t116.5 63.5q-58 30 -101 60.5t-82 72t-59 96t-20 119.5q0 145 110 243.5t297 98.5q180 0 297 -96.5t117 -245.5q0 -64 -20 -116.5t-59.5 -92.5t-82 -69.5t-102.5 -59.5q68 -31 116.5 -62.5t94 -77t69 -108t23.5 -139.5 q0 -111 -61.5 -196.5t-163.5 -130t-228 -44.5q-118 0 -219.5 43t-166 129t-64.5 197zM260 344q0 -112 88.5 -179t222.5 -67q131 0 222.5 66t91.5 180q0 35 -10 66t-24.5 55t-41.5 48.5t-50 41t-62 37.5t-65 33t-71 32q-57 -25 -94 -44.5t-80 -49t-68 -59t-42 -71t-17 -89.5z M303 1069q0 -54 21 -96.5t65 -76t86 -55.5t109 -50q48 21 83 39.5t70.5 44.5t58 53t36.5 63t14 78q0 100 -76 158.5t-199 58.5q-121 0 -194.5 -58.5t-73.5 -158.5z" />
<glyph horiz-adv-x="1120" d="M113 709q0 221 124.5 344t313.5 123q186 0 311 -120t125 -329v-485q0 -141 -50.5 -253.5t-156 -181.5t-252.5 -69q-133 0 -292 47l26 125q153 -47 266 -47q159 0 241.5 106.5t82.5 272.5v84q-149 -82 -303 -82q-188 0 -312 123t-124 342zM252 709q0 -152 80.5 -247 t220.5 -95q153 0 299 82v280q0 136 -78.5 229t-220.5 93q-143 0 -222 -97.5t-79 -244.5z" />
<glyph horiz-adv-x="1019" d="M94 43l25 127q202 -68 362 -68q117 0 200 65t83 183q0 60 -22 106.5t-59.5 77t-86 55t-101.5 44.5t-106.5 41.5t-102 51t-86 67t-59.5 95.5t-22 132q0 141 93.5 234t248.5 112v231h129v-229q132 -8 282 -63l-34 -123q-182 59 -308 59q-125 0 -196.5 -56.5t-71.5 -160.5 q0 -56 22 -99t59.5 -71.5t86 -51.5t101.5 -43t106.5 -42t102 -53t86 -71t59.5 -101t22 -138q0 -158 -95 -254.5t-247 -119.5v-234h-129v229q-170 7 -342 68z" />
<glyph horiz-adv-x="483" d="M-39 1442q0 40 28 68t66 28q39 0 67 -28t28 -68q0 -37 -28.5 -64.5t-66.5 -27.5t-66 27.5t-28 64.5zM174 0v1149h135v-1149h-135zM334 1442q0 39 28.5 67.5t65.5 28.5q40 0 68 -28t28 -68q0 -37 -28.5 -64.5t-67.5 -27.5q-37 0 -65.5 27.5t-28.5 64.5z" />
<glyph horiz-adv-x="983" d="M125 563v117h135q-6 27 -20.5 82t-22.5 87t-15 79.5t-7 89.5q0 190 107 291.5t282 101.5q155 0 293 -57l-41 -119q-118 47 -242 47q-129 0 -192.5 -73.5t-63.5 -202.5q0 -43 6.5 -90.5t12.5 -75.5t21 -85.5t19 -74.5h385v-117h-364q4 -40 4 -61q0 -191 -129 -375h577 v-127h-733v121q146 187 146 381q0 21 -4 61h-154z" />
<glyph horiz-adv-x="1069" d="M76 467v121h174v209h-174v121h174q3 231 131 362t336 131q119 0 280 -33l-22 -127q-138 31 -256 31q-150 0 -238.5 -97t-91.5 -267h436l-24 -121h-412v-209h379l-25 -121h-354q3 -170 91.5 -267.5t238.5 -97.5q118 0 256 31l22 -127q-161 -33 -280 -33q-208 0 -336 131.5 t-131 362.5h-174z" />
<glyph horiz-adv-x="1028" d="M18 1384h158l340 -710l336 710h158l-379 -757h239v-117h-284v-148h284v-116h-284v-246h-140v246h-284v116h284v148h-284v117h237z" />
<glyph horiz-adv-x="1114" d="M88 418v125h158l35 366h-144v125h156l41 418h125l-41 -418h340l41 418h125l-41 -418h143v-125h-156l-34 -366h143v-125h-156l-41 -418h-125l41 418h-340l-41 -418h-124l40 418h-145zM371 543h340l34 366h-339z" />
<glyph horiz-adv-x="483" d="M10 -270q0 78 48 148t116 122v1149h135v-1149q-89 -69 -137.5 -128.5t-48.5 -133.5q0 -41 24 -63.5t62 -22.5q46 0 76 12l24 -102q-52 -19 -98 -19q-91 0 -146 51t-55 136z" />
<glyph horiz-adv-x="929" d="M8 1411l381 166l53 -127l-395 -141zM174 0v1149h135v-1026h529l-13 -123h-651z" />
<glyph d="M350 1190v129l467 86v-1405h-135v1255z" />
<glyph horiz-adv-x="491" />
<glyph d="M186 0v115q0 88 22.5 165t60.5 133.5t87.5 106.5t104 90t109 77t104 73.5t87.5 74.5t60.5 85t22.5 100q0 111 -71 188.5t-202 77.5q-92 0 -163 -20.5t-152 -59.5l-49 115q64 30 100 45t108.5 30t155.5 15q184 0 298 -104.5t114 -280.5q0 -82 -36.5 -153t-94.5 -124 t-129 -103t-141.5 -102t-128.5 -109.5t-94.5 -137t-36.5 -172.5h659v-125h-795z" />
<glyph d="M131 451l289 933h133l-277 -929h424v460l136 21v-481h200v-127h-200v-326l-136 -20v346h-548z" />
<glyph d="M168 33l25 119q171 -54 327 -54q58 0 115.5 19t109 56.5t83.5 105t32 153.5q0 54 -9.5 97t-34 81t-63 63t-99 39.5t-140.5 14.5h-272l24 657h690l-41 -122h-520l-14 -412h156q224 0 343 -105.5t119 -308.5q0 -112 -42 -202.5t-111.5 -146t-153 -85t-172.5 -29.5 q-181 0 -352 60z" />
<glyph d="M164 422v485q0 105 29.5 195.5t85.5 160t144.5 109t199.5 39.5q133 0 292 -47l-28 -125q-150 47 -264 47q-159 0 -241.5 -106.5t-82.5 -272.5v-84q149 82 303 82q121 0 218.5 -52t157.5 -159t60 -254q0 -112 -35 -202t-95 -147t-139 -87.5t-169 -30.5q-122 0 -219.5 51 t-157 154.5t-59.5 243.5zM299 420q0 -136 78.5 -229t220.5 -93q143 0 222 97.5t79 244.5q0 152 -80.5 247t-220.5 95q-153 0 -299 -82v-280z" />
<glyph horiz-adv-x="1146" d="M174 0v1149h105l563 -891q-4 61 -4 174v717h135v-1149h-115l-557 877q8 -59 8 -177v-700h-135zM453 -459l63 326h141l-104 -326h-100z" />
<glyph d="M133 342q0 74 24 134t70 105t94.5 76.5t116.5 63.5q-58 30 -101 60.5t-82 72t-59 96t-20 119.5q0 145 110.5 243.5t297.5 98.5q180 0 296.5 -96.5t116.5 -245.5q0 -64 -20 -116.5t-59.5 -92.5t-82 -69.5t-102.5 -59.5q68 -31 116.5 -62.5t94 -77t69 -108t23.5 -139.5 q0 -112 -61 -197t-163 -129.5t-228 -44.5q-118 0 -220 43t-166.5 129t-64.5 197zM272 344q0 -111 89 -178.5t223 -67.5q131 0 222 66t91 180q0 35 -10 66t-24.5 55t-41.5 48.5t-50 41t-62 37.5t-65 33t-71 32q-57 -25 -94 -44.5t-80 -49t-68 -59t-42 -71t-17 -89.5z M315 1069q0 -54 21 -96.5t65 -76t86 -55.5t109 -50q48 21 83 39.5t70.5 44.5t58 53t36.5 63t14 78q0 100 -75.5 158.5t-198.5 58.5q-121 0 -195 -58.5t-74 -158.5z" />
<glyph d="M147 944q0 221 125 344t314 123q186 0 311 -119.5t125 -328.5v-486q0 -141 -50.5 -253.5t-156 -181.5t-252.5 -69q-134 0 -293 47l27 125q153 -47 266 -47q159 0 241.5 106.5t82.5 272.5v84q-149 -82 -303 -82q-188 0 -312.5 123t-124.5 342zM287 944q0 -152 80.5 -247 t220.5 -95q153 0 299 82v281q0 136 -78.5 228.5t-220.5 92.5q-143 0 -222 -97.5t-79 -244.5z" />
<glyph horiz-adv-x="1148" d="M137 434v277q0 114 34 203.5t94.5 146t139 86t170.5 29.5q91 0 169.5 -29.5t138.5 -86t94.5 -146.5t34.5 -203v-277q0 -223 -123.5 -342t-313.5 -119q-92 0 -170.5 29t-139 84.5t-94.5 145t-34 202.5zM272 442q0 -171 82.5 -257.5t220.5 -86.5t220 86.5t82 257.5v263 q0 172 -82 259t-220 87t-220.5 -87t-82.5 -259v-263zM307 1415l266 162l267 -162l-64 -106l-203 139l-202 -139z" />
<glyph d="M178 43l25 127q202 -68 362 -68q117 0 200 65t83 183q0 60 -22 106.5t-59.5 77t-86 55t-101.5 44.5t-106.5 41.5t-102 51t-86 67t-59.5 95.5t-22 132q0 141 93.5 234t248.5 112v231h129v-229q132 -8 282 -63l-34 -123q-182 59 -308 59q-125 0 -196.5 -56.5t-71.5 -160.5 q0 -56 22 -99t59.5 -71.5t86 -51.5t101.5 -43t106.5 -42t102 -53t86 -71t59.5 -101t22 -138q0 -158 -95 -254.5t-247 -119.5v-234h-129v229q-170 7 -342 68z" />
<glyph d="M227 432v184q0 209 97.5 323t267.5 132v229h129v-231q88 -7 221 -43l-22 -121q-165 43 -267 43q-147 0 -219 -84.5t-72 -261.5v-156q0 -178 72 -263t219 -85q119 0 267 41l22 -119q-133 -36 -221 -43v-231h-129v229q-171 18 -268 132.5t-97 324.5z" />
<glyph horiz-adv-x="1148" d="M137 434v277q0 114 34 203.5t94.5 146t139 86t170.5 29.5q91 0 169.5 -29.5t138.5 -86t94.5 -146.5t34.5 -203v-277q0 -223 -123.5 -342t-313.5 -119q-92 0 -170.5 29t-139 84.5t-94.5 145t-34 202.5zM272 442q0 -171 82.5 -257.5t220.5 -86.5t220 86.5t82 257.5v263 q0 172 -82 259t-220 87t-220.5 -87t-82.5 -259v-263zM315 1389v127h519v-127h-519z" />
<glyph d="M123 467v121h174v209h-174v121h174q3 231 131 362t336 131q119 0 280 -33l-22 -127q-138 31 -256 31q-150 0 -238.5 -97t-91.5 -267h436l-24 -121h-412v-209h379l-24 -121h-355q3 -170 91.5 -267.5t238.5 -97.5q118 0 256 31l22 -127q-161 -33 -280 -33 q-208 0 -336 131.5t-131 362.5h-174z" />
<glyph d="M88 1384h158l340 -710l336 710h157l-379 -757h240v-117h-285v-148h285v-116h-285v-246h-139v246h-285v116h285v148h-285v117h238z" />
<glyph d="M115 418v125h157l35 366h-143v125h155l41 418h125l-41 -418h340l41 418h125l-41 -418h144v-125h-156l-35 -366h144v-125h-156l-41 -418h-125l41 418h-340l-41 -418h-125l41 418h-145zM397 543h340l35 366h-340z" />
<glyph d="M334 961v129l459 86v-1176h-136v1026z" />
<glyph d="M215 0v76q0 80 20 146.5t54.5 113.5t78.5 87t93 70t98 58t93 56.5t78.5 60t54.5 74t20 92.5q0 93 -65 155t-175 62q-133 0 -282 -70l-50 113q172 82 332 82t269.5 -93t109.5 -249q0 -60 -20 -112t-54 -91.5t-77.5 -75t-92 -66t-97 -60t-92 -62t-77.5 -67.5t-54 -80.5 t-20 -96.5h594l-16 -123h-723z" />
<glyph d="M178 -207l39 121q145 -51 285 -51q152 0 251 84t99 231q0 128 -82 206.5t-250 78.5h-137l-25 123l398 440h-549l-17 123h715l23 -123l-406 -440q206 0 337.5 -107t131.5 -301q0 -133 -67 -234.5t-177.5 -153.5t-244.5 -52q-162 0 -324 55z" />
<glyph d="M131 215l289 934h133l-277 -930h424v461l136 20v-481h200v-127h-200v-325l-136 -21v346h-548z" />
<glyph d="M147 -203l25 119q168 -53 328 -53q58 0 115.5 19t109 56.5t83.5 105t32 153.5q0 54 -9.5 97t-34 81t-63 63t-99 39.5t-140.5 14.5h-273l25 657h690l-41 -123h-520l-15 -412h156q224 0 343.5 -105t119.5 -308q0 -112 -42 -202.5t-111.5 -146t-153 -85t-172.5 -29.5 q-185 0 -353 59z" />
<glyph d="M147 422v485q0 105 29.5 195.5t85.5 160t144.5 109t199.5 39.5q134 0 293 -47l-29 -125q-150 47 -264 47q-159 0 -241 -106.5t-82 -272.5v-84q149 82 303 82q121 0 218.5 -52t157.5 -159t60 -254q0 -112 -35 -202t-95 -147t-139 -87.5t-169 -30.5q-188 0 -312.5 120 t-124.5 329zM283 420q0 -136 78.5 -229t220.5 -93q143 0 222 97.5t79 244.5q0 152 -80.5 247t-220.5 95q-153 0 -299 -82v-280z" />
<glyph d="M150 1149h870v-119q-61 -77 -102 -134.5t-89 -135.5t-79 -148t-62 -163.5t-48.5 -192.5t-28.5 -224t-11 -268h-141q0 181 21.5 342.5t57 288t90 244t111 207t129.5 180.5h-710z" />
<glyph horiz-adv-x="921" d="M102 33l25 123q176 -58 317 -58q98 0 167 51.5t69 143.5q0 48 -19 86.5t-51 65t-73.5 48.5t-88 41.5t-92.5 40.5t-87.5 48t-73.5 61t-51 83.5t-19 111.5q0 134 101 215.5t261 81.5q144 0 304 -58l-35 -117q-155 50 -269 50q-103 0 -163 -44.5t-60 -123.5q0 -45 19 -81 t51 -60.5t73.5 -46t88 -41t92.5 -40.5t87.5 -50t73.5 -64.5t51 -88t19 -116.5q0 -152 -107.5 -237t-267.5 -85q-156 0 -342 60zM348 -459l64 326h141l-104 -326h-101z" />
<glyph d="M133 342q0 74 24 134t70 105t94.5 76.5t116.5 63.5q-58 30 -101 60.5t-82 72t-59 96t-20 119.5q0 145 110.5 243.5t297.5 98.5q180 0 296.5 -96.5t116.5 -245.5q0 -64 -20 -116.5t-59.5 -92.5t-82 -69.5t-102.5 -59.5q68 -31 116.5 -62.5t94 -77t69 -108t23.5 -139.5 q0 -112 -61 -197t-163 -129.5t-228 -44.5q-118 0 -220 43t-166.5 129t-64.5 197zM272 344q0 -111 89 -178.5t223 -67.5q131 0 222 66t91 180q0 35 -10 66t-24.5 55t-41.5 48.5t-50 41t-62 37.5t-65 33t-71 32q-57 -25 -94 -44.5t-80 -49t-68 -59t-42 -71t-17 -89.5z M315 1069q0 -54 21 -96.5t65 -76t86 -55.5t109 -50q48 21 83 39.5t70.5 44.5t58 53t36.5 63t14 78q0 100 -75.5 158.5t-198.5 58.5q-121 0 -195 -58.5t-74 -158.5z" />
<glyph d="M147 709q0 221 125 344t314 123q186 0 311 -120t125 -329v-485q0 -141 -50.5 -253.5t-156 -181.5t-252.5 -69q-134 0 -293 47l27 125q153 -47 266 -47q159 0 241.5 106.5t82.5 272.5v84q-149 -82 -303 -82q-188 0 -312.5 123t-124.5 342zM287 709q0 -152 80.5 -247 t220.5 -95q153 0 299 82v280q0 136 -78.5 229t-220.5 93q-143 0 -222 -97.5t-79 -244.5z" />
<glyph d="M178 43l25 127q202 -68 362 -68q117 0 200 65t83 183q0 60 -22 106.5t-59.5 77t-86 55t-101.5 44.5t-106.5 41.5t-102 51t-86 67t-59.5 95.5t-22 132q0 141 93.5 234t248.5 112v231h129v-229q132 -8 282 -63l-34 -123q-182 59 -308 59q-125 0 -196.5 -56.5t-71.5 -160.5 q0 -56 22 -99t59.5 -71.5t86 -51.5t101.5 -43t106.5 -42t102 -53t86 -71t59.5 -101t22 -138q0 -158 -95 -254.5t-247 -119.5v-234h-129v229q-170 7 -342 68z" />
<glyph d="M227 432v184q0 209 97.5 323t267.5 132v229h129v-231q88 -7 221 -43l-22 -121q-165 43 -267 43q-147 0 -219 -84.5t-72 -261.5v-156q0 -178 72 -263t219 -85q119 0 267 41l22 -119q-133 -36 -221 -43v-231h-129v229q-171 18 -268 132.5t-97 324.5z" />
<glyph d="M209 563v117h135q-6 27 -20.5 82t-22.5 87t-15 79.5t-7 89.5q0 190 107 291.5t282 101.5q155 0 293 -57l-41 -119q-118 47 -242 47q-129 0 -192.5 -73.5t-63.5 -202.5q0 -43 6.5 -90.5t12.5 -75.5t21 -85.5t19 -74.5h385v-117h-364q4 -40 4 -61q0 -191 -129 -375h577 v-127h-733v121q146 187 146 381q0 11 -5 61h-153z" />
<glyph d="M88 1384h158l340 -710l336 710h157l-379 -757h240v-117h-285v-148h285v-116h-285v-246h-139v246h-285v116h285v148h-285v117h238z" />
<glyph d="M115 418v125h157l35 366h-143v125h155l41 418h125l-41 -418h340l41 418h125l-41 -418h144v-125h-156l-35 -366h144v-125h-156l-41 -418h-125l41 418h-340l-41 -418h-125l41 418h-145zM397 543h340l35 366h-340z" />
<glyph horiz-adv-x="1105" d="M137 434v281q0 225 126 343t331 118q88 0 161 -13.5t179 -42.5l-29 -119q-159 50 -309 50q-151 0 -237.5 -85.5t-86.5 -256.5v-269q0 -171 86.5 -256.5t237.5 -85.5q96 0 235 31v369h-135v112h265v-573q-194 -64 -367 -64q-205 0 -331 118t-126 343zM328 1563h118 q0 -52 32 -87.5t79 -35.5q45 0 77 35.5t32 87.5h118q0 -103 -64.5 -169.5t-162.5 -66.5q-99 0 -164 66t-65 170z" />
<glyph horiz-adv-x="1087" d="M76 0l391 1149h154l391 -1149h-140l-106 319h-444l-107 -319h-139zM360 436h367l-131 393q-26 75 -53 183q-28 -115 -51 -183z" />
<glyph horiz-adv-x="972" d="M51 1149h871v-119q-61 -77 -102 -134.5t-89 -135.5t-79 -148t-62 -163.5t-48.5 -192.5t-28.5 -224t-11 -268h-142q0 181 21.5 343t57.5 288t90 243.5t111 207t130 180.5h-711z" />
<glyph horiz-adv-x="1150" d="M164 362v787h135v-780q0 -119 78 -195t201 -76q122 0 199 76t77 195v780h133v-787q0 -170 -118.5 -279.5t-290.5 -109.5q-174 0 -294 109.5t-120 279.5zM317 1389v127h519v-127h-519z" />
<glyph horiz-adv-x="1486" d="M94 1149h135l154 -832q11 -62 18 -172q26 100 48 170l215 656h159l215 -656q22 -70 45 -168q9 87 23 170l151 832h136l-219 -1149h-158l-232 696q-29 99 -41 150q-12 -51 -41 -150l-231 -696h-158zM526 1450l54 127l381 -166l-39 -102z" />
<glyph horiz-adv-x="1038" d="M174 0v1149h358q170 0 268.5 -83t98.5 -214q0 -78 -42.5 -143t-117.5 -105q105 -37 155 -112.5t50 -163.5q0 -59 -24 -115t-72 -105t-132.5 -78.5t-193.5 -29.5h-348zM309 123h211q139 0 212 55.5t73 149.5q0 95 -66.5 149.5t-203.5 54.5h-226v-409zM309 649h207 q114 0 179 51.5t65 139.5t-60 137t-172 49h-219v-377z" />
<glyph horiz-adv-x="1032" d="M137 434v281q0 225 126 343t331 118q152 0 342 -56l-27 -119q-187 50 -313 50q-151 0 -237.5 -85.5t-86.5 -258.5v-267q0 -175 86 -258.5t238 -83.5q157 0 313 49l27 -122q-184 -52 -342 -52q-205 0 -331 118t-126 343z" />
<glyph horiz-adv-x="1140" d="M174 0v1087q76 26 126 41t135 31.5t155 16.5q114 0 207 -47t150 -143.5t57 -227.5v-350q0 -201 -107 -304.5t-307 -103.5h-416zM309 123h281q140 0 209 70t69 221v336q0 144 -76 222.5t-204 78.5q-131 0 -279 -50v-878z" />
<glyph horiz-adv-x="964" d="M174 0v1149h637v-123h-502v-389h428l-10 -117h-418v-397h518v-123h-653z" />
<glyph horiz-adv-x="980" d="M133 432v184q0 209 97.5 323t267.5 132v229h129v-231q88 -7 221 -43l-23 -121q-165 43 -266 43q-147 0 -219 -84.5t-72 -261.5v-156q0 -178 72 -263t219 -85q118 0 266 41l23 -119q-133 -36 -221 -43v-231h-129v229q-171 18 -268 132.5t-97 324.5z" />
<glyph horiz-adv-x="929" d="M174 0v1149h635v-123h-500v-389h416l-14 -117h-402v-520h-135z" />
<glyph horiz-adv-x="1105" d="M137 434v281q0 225 126 343t331 118q88 0 161 -13.5t179 -42.5l-29 -119q-159 50 -309 50q-151 0 -237.5 -85.5t-86.5 -256.5v-269q0 -171 86.5 -256.5t237.5 -85.5q96 0 235 31v369h-135v112h265v-573q-194 -64 -367 -64q-205 0 -331 118t-126 343z" />
<glyph horiz-adv-x="1159" d="M174 0v1149h135v-504h541v504h135v-1149h-135v524h-541v-524h-135z" />
<glyph horiz-adv-x="876" d="M76 25l30 118q122 -45 244 -45q120 0 178 73.5t58 195.5v782l135 -12v-775q0 -181 -98 -285t-267 -104q-132 0 -280 52z" />
<glyph horiz-adv-x="1071" d="M174 0v1149h135v-614l473 614h152l-389 -518l450 -631h-157l-375 520l-154 -205v-315h-135z" />
<glyph horiz-adv-x="929" d="M174 0v1149h135v-1026h529l-13 -123h-651z" />
<glyph d="M125 526v334q0 142 36 249.5t100 172.5t145.5 97t179.5 32q97 0 178.5 -32t145 -97t99 -172.5t35.5 -249.5v-334q0 -142 -36 -250t-99.5 -173t-145 -97.5t-177.5 -32.5q-97 0 -179 32.5t-146 97.5t-100 173t-36 250zM260 526q0 -220 87.5 -324t238.5 -104t237 104t86 324 v334q0 220 -86.5 323t-236.5 103t-238 -103.5t-88 -322.5v-334z" />
<glyph horiz-adv-x="1146" d="M174 0v1149h105l563 -891q-4 61 -4 174v717h135v-1149h-115l-557 877q8 -59 8 -177v-700h-135z" />
<glyph d="M178 29l39 121q148 -52 285 -52q152 0 251 84t99 232q0 128 -82 206t-250 78h-137l-25 123l398 441h-549l-17 122h715l23 -122l-406 -441q206 0 337.5 -106.5t131.5 -300.5q0 -133 -67 -235t-177.5 -154t-244.5 -52q-159 0 -324 56z" />
<glyph horiz-adv-x="1148" d="M137 434v277q0 114 34 203.5t94.5 146t139 86t170.5 29.5q91 0 169.5 -29.5t138.5 -86t94.5 -146.5t34.5 -203v-277q0 -223 -123.5 -342t-313.5 -119q-92 0 -170.5 29t-139 84.5t-94.5 145t-34 202.5zM272 442q0 -171 82.5 -257.5t220.5 -86.5t220 86.5t82 257.5v263 q0 172 -82 259t-220 87t-220.5 -87t-82.5 -259v-263z" />
<glyph horiz-adv-x="1007" d="M174 0v1149h389q156 0 254 -99.5t98 -244.5q0 -142 -98 -242t-254 -100h-254v-463h-135zM309 584h254q101 0 158 61t57 160q0 98 -57 158.5t-158 60.5h-254v-440z" />
<glyph horiz-adv-x="1148" d="M137 434v277q0 114 34 203.5t94.5 146t139 86t170.5 29.5q91 0 169.5 -29.5t138.5 -86t94.5 -146.5t34.5 -203v-277q0 -170 -73 -279.5t-198 -154.5l88 -215l-112 -76l-105 266q-12 -2 -37 -2q-92 0 -170.5 29t-139 84.5t-94.5 145t-34 202.5zM272 442 q0 -171 82.5 -257.5t220.5 -86.5t220 86.5t82 257.5v263q0 172 -82 259t-220 87t-220.5 -87t-82.5 -259v-263z" />
<glyph horiz-adv-x="1017" d="M174 0v1149h391q156 0 253 -99.5t97 -244.5q0 -108 -63 -198t-180 -122l241 -485h-151l-227 471h-226v-471h-135zM309 584h256q99 0 156 61t57 160q0 97 -57 158t-156 61h-256v-440z" />
<glyph horiz-adv-x="921" d="M102 33l25 123q176 -58 317 -58q98 0 167 51.5t69 143.5q0 48 -19 86.5t-51 65t-73.5 48.5t-88 41.5t-92.5 40.5t-87.5 48t-73.5 61t-51 83.5t-19 111.5q0 134 101 215.5t261 81.5q144 0 304 -58l-35 -117q-155 50 -269 50q-103 0 -163 -44.5t-60 -123.5q0 -45 19 -81 t51 -60.5t73.5 -46t88 -41t92.5 -40.5t87.5 -50t73.5 -64.5t51 -88t19 -116.5q0 -152 -107.5 -237t-267.5 -85q-156 0 -342 60z" />
<glyph horiz-adv-x="958" d="M78 1024v125h803v-125h-334v-1024h-135v1024h-334z" />
<glyph d="M150 1384h870v-118q-61 -77 -102 -134.5t-89 -135.5t-79 -148t-62 -163.5t-48.5 -192.5t-28.5 -224t-11 -268h-141q0 181 21.5 342.5t57 288t90 244t111 207t129.5 180.5h-710z" />
<glyph horiz-adv-x="1087" d="M76 1149h139l277 -830q19 -55 51 -182q23 89 53 182l276 830h140l-391 -1149h-154z" />
<glyph horiz-adv-x="1486" d="M94 1149h135l154 -832q11 -62 18 -172q26 100 48 170l215 656h159l215 -656q22 -70 45 -168q9 87 23 170l151 832h136l-219 -1149h-158l-232 696q-29 99 -41 150q-12 -51 -41 -150l-231 -696h-158z" />
<glyph horiz-adv-x="1064" d="M76 0l379 604l-336 545h151l265 -430l268 430h143l-336 -539l379 -610h-153l-306 496l-309 -496h-145z" />
<glyph horiz-adv-x="1003" d="M104 0v106l601 918h-592v125h751v-102l-604 -924h639l-16 -123h-779z" />
<glyph horiz-adv-x="1062" d="M129 307q0 36 8.5 74t27 79.5t55 78.5t85.5 61q-88 40 -125 113.5t-37 148.5q0 136 99.5 225t265.5 89q114 0 250 -46l-39 -118q-109 39 -207 39q-107 0 -168 -52t-61 -137q0 -92 57.5 -146t165.5 -54h86v-119h-94q-105 0 -167.5 -68t-62.5 -168q0 -93 64 -151t172 -58 t172.5 58t64.5 151v355h238v-119h-109v-236q0 -144 -98.5 -239t-269.5 -95q-173 0 -273 95.5t-100 238.5z" />
<glyph horiz-adv-x="825" d="M117 1087q138 89 268 89q82 0 151 -28.5t114.5 -91.5t45.5 -151q0 -57 -23.5 -110.5t-57 -95t-67.5 -82t-57.5 -86.5t-23.5 -91v-147l-135 35v110q0 54 23 106t56 93t66.5 81t56.5 84t23 87q0 74 -45 118t-127 44q-95 0 -211 -72zM309 59q0 38 26 62t64 24q36 0 62 -25 t26 -61q0 -35 -26.5 -60.5t-61.5 -25.5q-37 0 -63.5 25.5t-26.5 60.5z" />
<glyph d="M209 563v117h135q-6 27 -20.5 82t-22.5 87t-15 79.5t-7 89.5q0 190 107 291.5t282 101.5q155 0 293 -57l-41 -119q-118 47 -242 47q-129 0 -192.5 -73.5t-63.5 -202.5q0 -43 6.5 -90.5t12.5 -75.5t21 -85.5t19 -74.5h385v-117h-364q4 -40 4 -61q0 -191 -129 -375h577 v-127h-733v121q146 187 146 381q0 11 -5 61h-153z" />
<glyph horiz-adv-x="825" d="M117 59q0 57 23.5 110.5t57.5 95t67.5 82t57 86.5t23.5 91v148l135 -35v-111q0 -46 -16.5 -90.5t-41.5 -78.5t-54.5 -70.5t-54.5 -67.5t-41.5 -69t-16.5 -74q0 -74 45 -118t127 -44q95 0 211 72l57 -109q-136 -88 -268 -88q-82 0 -151 28t-114.5 91t-45.5 151zM326 905 q0 35 26.5 60.5t61.5 25.5q37 0 63.5 -25.5t26.5 -60.5q0 -38 -26 -62t-64 -24q-36 0 -62 25t-26 61z" />
<glyph d="M133 485v181q0 242 128 376t323 134t323.5 -134t128.5 -376v-181q0 -123 -35.5 -222t-97 -161.5t-142.5 -95.5t-175 -33q-93 0 -174.5 33t-144 95.5t-98.5 161.5t-36 222zM268 485q0 -187 87 -287t231 -100q143 0 229 100t86 287v181q0 186 -86.5 285.5t-230.5 99.5 q-143 0 -229.5 -100t-86.5 -285v-181z" />
<glyph horiz-adv-x="468" d="M145 903q0 35 26.5 61.5t61.5 26.5q37 0 64 -26.5t27 -61.5q0 -36 -27 -61t-64 -25q-36 0 -62 25t-26 61zM158 -201l14 801h121l14 -766z" />
<glyph horiz-adv-x="1599" d="M141 315q0 154 52 293.5t144.5 244t231.5 166.5t303 62q177 0 313.5 -82t208.5 -222t72 -314q0 -38 -8 -92h-383l-18 -133q-12 -100 -99.5 -169t-207.5 -69q-113 0 -184.5 60.5t-71.5 152.5q0 120 85.5 186t221.5 66h170l6 47q10 73 -27 122.5t-119 49.5q-83 0 -204 -33 l-13 99q122 38 232 38q130 0 195.5 -75.5t50.5 -200.5l-7 -47h269q0 103 -34.5 197t-97 164.5t-155.5 112.5t-203 42q-142 0 -260.5 -56.5t-194.5 -150t-117.5 -210.5t-41.5 -242q0 -220 134 -364t364 -144q100 0 205.5 35t181.5 92l49 -88q-100 -70 -203 -105t-242 -35 q-185 0 -322 80.5t-206.5 216t-69.5 305.5zM612 227q0 -53 41 -88t109 -35q70 0 121 39.5t59 94.5l16 133h-167q-79 0 -129 -37t-50 -107z" />
<glyph horiz-adv-x="1019" d="M104 438v275q0 119 31.5 209.5t88 145t128.5 81.5t158 27t158 -27t128 -81.5t87.5 -145t31.5 -209.5v-275q0 -119 -32 -210t-88 -145.5t-128 -82t-157 -27.5t-157 27.5t-128.5 82t-88.5 145.5t-32 210zM240 438q0 -176 72 -258t198 -82q127 0 198.5 81.5t71.5 258.5v275 q0 175 -72 256.5t-198 81.5q-125 0 -197.5 -82t-72.5 -256v-275z" />
<glyph horiz-adv-x="1019" d="M299 969v127l420 71v-1167h-135v1022z" />
<glyph horiz-adv-x="1019" d="M156 0v102q0 92 31.5 169.5t81.5 130.5t110 98.5t120.5 84t110.5 76t81.5 84.5t31.5 101q0 86 -59 145.5t-168 59.5q-130 0 -273 -66l-49 113q53 25 90 39.5t100 26.5t134 12q162 0 263 -88.5t101 -237.5q0 -68 -31.5 -127t-81.5 -103.5t-110 -86.5t-120.5 -84.5 t-110.5 -88t-81.5 -107t-31.5 -132.5h565v-121h-704z" />
<glyph horiz-adv-x="1019" d="M147 23l37 118q125 -43 252 -43t210 65t83 179q0 101 -67 162t-207 61h-123l-25 117l340 348h-473l-16 119h637l18 -119l-344 -348q174 -2 286.5 -91.5t112.5 -248.5q0 -111 -59.5 -196.5t-157.5 -129t-215 -43.5q-141 0 -289 50z" />
<glyph horiz-adv-x="921" d="M102 33l25 123q176 -58 317 -58q98 0 167 51.5t69 143.5q0 48 -19 86.5t-51 65t-73.5 48.5t-88 41.5t-92.5 40.5t-87.5 48t-73.5 61t-51 83.5t-19 111.5q0 134 101 215.5t261 81.5q144 0 304 -58l-35 -117q-155 50 -269 50q-103 0 -163 -44.5t-60 -123.5q0 -45 19 -81 t51 -60.5t73.5 -46t88 -41t92.5 -40.5t87.5 -50t73.5 -64.5t51 -88t19 -116.5q0 -152 -107.5 -237t-267.5 -85q-156 0 -342 60zM244 1411l381 166l53 -127l-395 -141z" />
<glyph horiz-adv-x="1019" d="M141 25l25 118q149 -45 287 -45q49 0 97.5 15t91 44.5t69 82t26.5 118.5q0 113 -66.5 173.5t-226.5 60.5h-239l22 557h613l-37 -119h-449l-12 -319h123q197 0 304.5 -89.5t107.5 -259.5q0 -94 -37 -170.5t-98 -123t-135 -71t-152 -24.5q-162 0 -314 52z" />
<glyph horiz-adv-x="1019" d="M135 352v400q0 118 44.5 212.5t138 153t223.5 58.5q114 0 262 -41l-31 -121q-122 37 -231 37q-131 0 -200 -83t-69 -212v-64q122 68 256 68q164 0 272.5 -104t108.5 -289q0 -125 -54 -216t-140 -134.5t-193 -43.5q-165 0 -276 101t-111 278zM270 350q0 -106 65.5 -179 t184.5 -73t184.5 77t65.5 192q0 124 -66 200t-184 76q-131 0 -250 -68v-225z" />
<glyph horiz-adv-x="1019" d="M127 1149h766v-117q-73 -88 -121.5 -157t-96.5 -163t-76 -191.5t-45 -229.5t-17 -291h-140q0 181 26 337t75.5 281t108 222t136.5 190h-608z" />
<glyph horiz-adv-x="1019" d="M123 782q0 186 110.5 290t278.5 104q164 0 274.5 -101.5t110.5 -277.5v-400q0 -88 -26.5 -164t-76 -134.5t-127.5 -92t-175 -33.5q-117 0 -261 41l27 123q132 -39 234 -39q131 0 200.5 83.5t69.5 211.5v64q-124 -68 -258 -68q-165 0 -273 104t-108 289zM262 782 q0 -123 66.5 -199.5t183.5 -76.5q133 0 250 67v226q0 105 -66 178.5t-184 73.5t-184 -78t-66 -191z" />
<glyph horiz-adv-x="1019" d="M150 37l24 121q176 -58 320 -58q98 0 166.5 51.5t68.5 143.5q0 47 -19 84t-51.5 61t-74 43.5t-88 36.5t-92.5 34.5t-87.5 42.5t-74 56.5t-51.5 79.5t-19 109q0 111 79.5 192.5t219.5 98.5v192h119v-190q109 -10 248 -54l-33 -116q-158 51 -268 51q-106 0 -166 -44 t-60 -126q0 -49 24 -86.5t63 -59.5t89 -43.5t102.5 -38t102.5 -44.5t89 -61t63 -88.5t24 -127.5q0 -123 -80 -209t-219 -104v-195h-118v191q-162 9 -301 57z" />
<glyph horiz-adv-x="1019" d="M182 356v158q0 165 80.5 263.5t235.5 113.5v190h118v-190q76 -7 193 -37l-23 -115q-141 37 -229 37q-123 0 -183.5 -66t-60.5 -206v-137q0 -140 60.5 -206.5t183.5 -66.5q88 0 229 37l23 -115q-111 -28 -193 -36v-191h-118v191q-155 15 -235.5 112.5t-80.5 263.5z" />
<glyph horiz-adv-x="958" d="M78 1024v125h803v-125h-334v-375h198v-98h-198v-551h-135v551h-191v98h191v375h-334z" />
<glyph horiz-adv-x="1019" d="M104 387v102h150v170h-150v105h150q1 192 115 302t297 110q102 0 247 -29l-22 -119q-139 27 -225 27q-125 0 -200.5 -78.5t-76.5 -212.5h373l-21 -105h-352v-170h324l-23 -102h-301q1 -136 76.5 -213.5t200.5 -77.5q104 0 225 27l22 -121q-145 -29 -247 -29 q-183 0 -297 110.5t-115 303.5h-150z" />
<glyph d="M123 467v121h174v209h-174v121h174q3 231 131 362t336 131q119 0 280 -33l-22 -127q-138 31 -256 31q-150 0 -238.5 -97t-91.5 -267h436l-24 -121h-412v-209h379l-24 -121h-355q3 -170 91.5 -267.5t238.5 -97.5q118 0 256 31l22 -127q-161 -33 -280 -33 q-208 0 -336 131.5t-131 362.5h-174z" />
<glyph horiz-adv-x="1019" d="M72 1149h151l287 -576l287 576h149l-328 -627h205v-104h-245v-115h245v-102h-245v-201h-136v201h-243v102h243v115h-243v104h202z" />
<glyph horiz-adv-x="1019" d="M96 342v117h137l29 286h-125v119h137l35 340h121l-35 -340h283l35 340h121l-35 -340h123v-119h-136l-28 -286h123v-117h-136l-36 -342h-119l35 342h-283l-35 -342h-121l35 342h-125zM354 459h283l29 286h-283z" />
<glyph horiz-adv-x="1069" d="M129 438v275q0 119 31.5 209.5t88 145t128.5 81.5t158 27t158 -27t128 -81.5t87.5 -145t31.5 -209.5v-275q0 -119 -32 -210t-88 -145.5t-128 -82t-157 -27.5t-157 27.5t-128.5 82t-88.5 145.5t-32 210zM264 438q0 -176 72.5 -258t198.5 -82q127 0 198.5 81.5t71.5 258.5 v275q0 175 -72 256.5t-198 81.5q-125 0 -198 -82t-73 -256v-275z" />
<glyph horiz-adv-x="704" d="M104 969v127l420 71v-1167h-135v1022z" />
<glyph horiz-adv-x="972" d="M119 0v102q0 92 31.5 169.5t81.5 130.5t110 98.5t120.5 84t110.5 76t81.5 84.5t31.5 101q0 86 -59 145.5t-168 59.5q-130 0 -273 -66l-49 113q53 25 90 39.5t100 26.5t134 12q162 0 263 -88.5t101 -237.5q0 -68 -31.5 -127t-81.5 -103.5t-110 -86.5t-120.5 -84.5 t-110.5 -88t-81.5 -107t-31.5 -132.5h565v-121h-704z" />
<glyph horiz-adv-x="921" d="M86 23l37 118q125 -43 252 -43t210 65t83 179q0 101 -67.5 162t-207.5 61h-123l-24 117l340 348h-473l-17 119h637l19 -119l-344 -348q174 -2 286.5 -91.5t112.5 -248.5q0 -111 -59.5 -196.5t-157.5 -129t-215 -43.5q-141 0 -289 50z" />
<glyph horiz-adv-x="933" d="M82 25l24 118q149 -45 287 -45q49 0 97.5 15t91.5 44.5t69.5 82t26.5 118.5q0 113 -66.5 173.5t-226.5 60.5h-240l23 557h612l-37 -119h-448l-12 -319h123q197 0 304 -89.5t107 -259.5q0 -94 -37 -170.5t-98 -123t-135 -71t-152 -24.5q-161 0 -313 52z" />
<glyph horiz-adv-x="1011" d="M129 352v400q0 118 44.5 212.5t138 153t223.5 58.5q114 0 262 -41l-31 -121q-122 37 -231 37q-131 0 -200 -83t-69 -212v-64q122 68 256 68q164 0 272.5 -104t108.5 -289q0 -125 -54 -216t-140 -134.5t-193 -43.5q-165 0 -276 101t-111 278zM264 350q0 -106 65.5 -179 t184.5 -73t184.5 77t65.5 192q0 124 -66 200t-184 76q-131 0 -250 -68v-225z" />
<glyph horiz-adv-x="888" d="M59 1149h766v-117q-73 -88 -121.5 -157t-96.5 -163t-76 -191.5t-45 -229.5t-17 -291h-139q0 181 26 337t75.5 281t108 222t136.5 190h-608z" />
<glyph horiz-adv-x="997" d="M94 782q0 186 110.5 290t278.5 104q164 0 274.5 -101.5t110.5 -277.5v-400q0 -88 -26.5 -164t-76 -134.5t-127.5 -92t-175 -33.5q-116 0 -260 41l26 123q132 -39 234 -39q131 0 200.5 83.5t69.5 211.5v64q-124 -68 -258 -68q-165 0 -273 104t-108 289zM233 782 q0 -123 66.5 -199.5t183.5 -76.5q133 0 250 67v226q0 105 -66 178.5t-184 73.5t-184 -78t-66 -191z" />
<glyph horiz-adv-x="925" d="M94 37l25 121q176 -58 319 -58q98 0 167 51.5t69 143.5q0 47 -19 84t-51.5 61t-74 43.5t-88 36.5t-92.5 34.5t-87.5 42.5t-74 56.5t-51.5 79.5t-19 109q0 111 79.5 192.5t219.5 98.5v192h119v-190q108 -10 247 -54l-32 -116q-158 51 -269 51q-106 0 -165.5 -44 t-59.5 -126q0 -49 24 -86.5t63 -59.5t89 -43.5t102.5 -38t102.5 -44.5t89 -61t63 -88.5t24 -127.5q0 -123 -80 -209t-219 -104v-195h-119v191q-162 9 -301 57z" />
<glyph horiz-adv-x="884" d="M129 356v158q0 165 80 263.5t235 113.5v190h119v-190q76 -7 193 -37l-23 -115q-141 37 -229 37q-123 0 -183.5 -66t-60.5 -206v-137q0 -140 60.5 -206.5t183.5 -66.5q88 0 229 37l23 -115q-111 -28 -193 -36v-191h-119v191q-155 15 -235 112.5t-80 263.5z" />
<glyph horiz-adv-x="1021" d="M68 1149h143l299 -576l299 576h145l-376 -709v-440h-136v440zM293 1450l53 127l381 -166l-39 -102z" />
<glyph horiz-adv-x="966" d="M82 387v102h149v170h-149v105h149q1 192 115 302t297 110q103 0 248 -29l-23 -119q-139 27 -225 27q-125 0 -200 -78.5t-76 -212.5h372l-20 -105h-352v-170h323l-22 -102h-301q1 -136 76 -213.5t200 -77.5q103 0 225 27l23 -121q-145 -29 -248 -29q-183 0 -297 110.5 t-115 303.5h-149z" />
<glyph horiz-adv-x="935" d="M31 1149h151l287 -576l287 576h149l-327 -627h204v-104h-245v-115h245v-102h-245v-201h-136v201h-243v102h243v115h-243v104h202z" />
<glyph horiz-adv-x="1009" d="M92 342v117h137l29 286h-125v119h137l35 340h121l-35 -340h283l35 340h120l-34 -340h123v-119h-136l-28 -286h123v-117h-136l-36 -342h-119l35 342h-283l-35 -342h-121l35 342h-125zM350 459h283l29 286h-283z" />
<glyph horiz-adv-x="782" d="M174 1450l53 127l381 -166l-39 -102z" />
<glyph horiz-adv-x="782" d="M174 1411l381 166l53 -127l-395 -141z" />
<glyph horiz-adv-x="911" d="M174 1442q0 40 28 68t66 28t66 -28t28 -68q0 -37 -28 -64.5t-66 -27.5t-66 27.5t-28 64.5zM547 1442q0 39 28.5 67.5t65.5 28.5q40 0 68 -28t28 -68q0 -37 -28.5 -64.5t-67.5 -27.5q-37 0 -65.5 27.5t-28.5 64.5z" />
<glyph horiz-adv-x="942" d="M205 1415l266 162l266 -162l-63 -106l-203 139l-203 -139z" />
<glyph horiz-adv-x="483" d="M174 0v1149h135v-1149h-135z" />
<glyph horiz-adv-x="1476" d="M111 0l147 1149h162l268 -657q25 -62 49 -148q32 101 51 148l269 657h162l147 -1149h-133l-107 834q-12 78 -12 151q-40 -117 -53 -151l-246 -609h-153l-244 609q-35 86 -56 147q-2 -20 -5 -72.5t-5 -74.5l-108 -834h-133z" />
<glyph horiz-adv-x="886" d="M184 1389v127h518v-127h-518z" />
<glyph horiz-adv-x="821" d="M182 1563h119q0 -52 32 -87.5t79 -35.5q45 0 76.5 35.5t31.5 87.5h119q0 -103 -64.5 -169.5t-162.5 -66.5q-99 0 -164.5 66.5t-65.5 169.5z" />
<glyph horiz-adv-x="538" d="M174 1442q0 39 28.5 67.5t65.5 28.5q40 0 68.5 -28t28.5 -68q0 -37 -28.5 -64.5t-68.5 -27.5q-37 0 -65.5 27.5t-28.5 64.5z" />
<glyph horiz-adv-x="595" d="M92 -420l17 117q42 -10 90 -10q61 0 88.5 27t27.5 85v201h127v-215q0 -60 -20 -103.5t-54 -67.5t-73.5 -35t-85.5 -11q-71 0 -117 12z" />
<glyph horiz-adv-x="1138" d="M174 1389l320 210l69 -116l-332 -189zM575 1391l320 211l70 -117l-332 -189z" />
<glyph horiz-adv-x="638" d="M164 -270q0 78 48.5 148.5t119.5 121.5h131q-43 -33 -71 -58t-57.5 -58.5t-44 -70t-14.5 -75.5q0 -41 24 -63.5t62 -22.5q46 0 76 12l25 -102q-52 -19 -98 -19q-91 0 -146 51t-55 136z" />
<glyph horiz-adv-x="1150" d="M164 362v787h135v-780q0 -119 78 -195t201 -76q122 0 199 76t77 195v780h133v-787q0 -170 -118.5 -279.5t-290.5 -109.5q-174 0 -294 109.5t-120 279.5z" />
<glyph horiz-adv-x="430" d="M117 -459l63 326h142l-105 -326h-100z" />
<glyph horiz-adv-x="1021" d="M68 1149h143l299 -576l299 576h145l-376 -709v-440h-136v440z" />
<glyph horiz-adv-x="1087" d="M76 0l391 1149h154l391 -1149h-140l-106 319h-444l-107 -319h-139zM326 1411l381 166l53 -127l-395 -141zM360 436h367l-131 393q-26 75 -53 183q-28 -115 -51 -183z" />
<glyph horiz-adv-x="1087" d="M76 0l391 1149h154l391 -1149h-140l-106 319h-444l-107 -319h-139zM326 1450l53 127l381 -166l-39 -102zM360 436h367l-131 393q-26 75 -53 183q-28 -115 -51 -183z" />
<glyph horiz-adv-x="1087" d="M76 0l391 1149h154l391 -1149h-140l-106 319h-444l-107 -319h-139zM276 1415l267 162l266 -162l-64 -106l-202 139l-203 -139zM360 436h367l-131 393q-26 75 -53 183q-28 -115 -51 -183z" />
<glyph horiz-adv-x="1087" d="M76 0l391 1149h154l391 -1149h-140l-106 319h-444l-107 -319h-139zM262 1442q0 40 28 68t66 28t66.5 -28t28.5 -68q0 -37 -28.5 -64.5t-66.5 -27.5t-66 27.5t-28 64.5zM360 436h367l-131 393q-26 75 -53 183q-28 -115 -51 -183zM635 1442q0 39 28.5 67.5t65.5 28.5 q40 0 68 -28t28 -68q0 -37 -28.5 -64.5t-67.5 -27.5q-37 0 -65.5 27.5t-28.5 64.5z" />
<glyph horiz-adv-x="1087" d="M76 0l391 1149h154l391 -1149h-140l-106 319h-444l-107 -319h-139zM260 1442q17 39 59 75.5t103 36.5q37 0 74.5 -15.5t62.5 -34.5t54.5 -34.5t52.5 -15.5q52 0 94 59l65 -67q-17 -39 -59 -76t-100 -37q-37 0 -75 15.5t-63 34t-54 34t-52 15.5q-51 0 -96 -58zM360 436 h367l-131 393q-26 75 -53 183q-28 -115 -51 -183z" />
<glyph horiz-adv-x="1087" d="M76 0l391 1149h154l391 -1149h-140l-106 319h-444l-107 -319h-139zM360 436h367l-131 393q-26 75 -53 183q-28 -115 -51 -183zM367 1485q0 71 52.5 122.5t125.5 51.5q71 0 122.5 -51.5t51.5 -122.5q0 -72 -51.5 -124t-122.5 -52q-73 0 -125.5 52t-52.5 124zM473 1485 q0 -30 21 -52t51 -22q29 0 50 22t21 52q0 31 -21 52.5t-50 21.5q-31 0 -51.5 -21.5t-20.5 -52.5z" />
<glyph horiz-adv-x="468" d="M145 61q0 36 27 61t64 25q36 0 62 -25t26 -61q0 -35 -26.5 -61.5t-61.5 -26.5q-37 0 -64 26.5t-27 61.5zM162 1130l149 35l-14 -800h-121z" />
<glyph horiz-adv-x="1087" d="M76 0l391 1149h154l391 -1149h-140l-106 319h-444l-107 -319h-139zM315 1563h119q0 -52 32 -87.5t79 -35.5q45 0 76.5 35.5t31.5 87.5h119q0 -103 -64.5 -169.5t-162.5 -66.5q-99 0 -164.5 66.5t-65.5 169.5zM360 436h367l-131 393q-26 75 -53 183q-28 -115 -51 -183z " />
<glyph horiz-adv-x="1087" d="M76 0l391 1149h154l391 -1149q-43 -33 -71 -58t-57.5 -58.5t-44 -70t-14.5 -75.5q0 -41 24 -63.5t62 -22.5q46 0 76 12l25 -102q-52 -19 -99 -19q-91 0 -145.5 51t-54.5 136q0 78 48.5 148.5t119.5 121.5h-9l-106 319h-444l-107 -319h-139zM360 436h367l-131 393 q-26 75 -53 183q-28 -115 -51 -183z" />
<glyph horiz-adv-x="1599" d="M55 0l721 1149h649l7 -123h-482l31 -389h434l-29 -117h-399l31 -397h498l6 -123h-631l-25 319h-458l-197 -319h-156zM479 436h379l-39 551z" />
<glyph horiz-adv-x="1032" d="M137 434v281q0 225 126 343t331 118q152 0 342 -56l-27 -119q-187 50 -313 50q-151 0 -237.5 -85.5t-86.5 -258.5v-267q0 -175 86 -258.5t238 -83.5q157 0 313 49l27 -122q-184 -52 -342 -52q-205 0 -331 118t-126 343zM297 1415l266 162l266 -162l-63 -106l-203 139 l-203 -139z" />
<glyph horiz-adv-x="1032" d="M137 434v281q0 225 126 343t331 118q152 0 342 -56l-27 -119q-187 50 -313 50q-151 0 -237.5 -85.5t-86.5 -258.5v-267q0 -175 86 -258.5t238 -83.5q157 0 313 49l27 -122q-184 -52 -342 -52q-205 0 -331 118t-126 343zM307 1470l64 107l202 -141l203 141l64 -107 l-267 -163z" />
<glyph horiz-adv-x="1032" d="M137 434v281q0 225 126 343t331 118q152 0 342 -56l-27 -119q-187 50 -313 50q-151 0 -237.5 -85.5t-86.5 -258.5v-267q0 -175 86 -258.5t238 -83.5q157 0 313 49l27 -122q-148 -42 -266 -50v-190q0 -60 -20 -103.5t-54.5 -67.5t-74 -35t-85.5 -11q-70 0 -117 12l17 117 q42 -10 90 -10q61 0 89 27.5t28 84.5v176q-185 14 -295.5 131t-110.5 328z" />
<glyph horiz-adv-x="1140" d="M174 0v1087q76 26 126 41t135 31.5t155 16.5q114 0 207 -47t150 -143.5t57 -227.5v-350q0 -201 -107 -304.5t-307 -103.5h-416zM299 1470l63 107l203 -141l203 141l63 -107l-266 -163zM309 123h281q140 0 209 70t69 221v336q0 144 -76 222.5t-204 78.5q-131 0 -279 -50 v-878z" />
<glyph horiz-adv-x="1140" d="M61 530v99h113v458q76 26 126 41t135 31.5t155 16.5q114 0 207 -47t150 -143.5t57 -227.5v-350q0 -201 -107 -304.5t-307 -103.5h-416v530h-113zM309 123h281q140 0 209 70t69 221v336q0 144 -76 222.5t-204 78.5q-131 0 -279 -50v-372h277v-99h-277v-407z" />
<glyph horiz-adv-x="1140" d="M61 530v99h113v458q76 26 126 41t135 31.5t155 16.5q114 0 207 -47t150 -143.5t57 -227.5v-350q0 -201 -107 -304.5t-307 -103.5h-416v530h-113zM309 123h281q140 0 209 70t69 221v336q0 144 -76 222.5t-204 78.5q-131 0 -279 -50v-372h277v-99h-277v-407z" />
<glyph horiz-adv-x="964" d="M174 0v1149h637v-123h-502v-389h428l-10 -117h-418v-397h518v-123h-653zM270 1411l381 166l54 -127l-396 -141z" />
<glyph horiz-adv-x="964" d="M174 0v1149h637v-123h-502v-389h428l-10 -117h-418v-397h518v-123h-653zM291 1450l53 127l381 -166l-39 -102z" />
<glyph horiz-adv-x="1019" d="M111 381l247 768h131l-237 -764h350v377l133 22v-399h174v-121h-174v-262l-133 -16v278h-473z" />
<glyph horiz-adv-x="1019" d="M111 287q0 59 20 107.5t58.5 85.5t79.5 63t98 53q-101 52 -159 120t-58 167q0 124 97 208.5t263 84.5q156 0 260 -82.5t104 -210.5q0 -96 -58.5 -160t-162.5 -115q56 -26 97.5 -53t79.5 -65t57.5 -88.5t19.5 -112.5q0 -143 -115.5 -229.5t-281.5 -86.5q-104 0 -194 36 t-147.5 109t-57.5 169zM250 289q0 -87 74 -140t186 -53q108 0 184 52t76 141q0 30 -9.5 56.5t-31.5 50t-42 40.5t-58 37t-62.5 31.5t-70.5 32.5q-45 -20 -76.5 -36.5t-66 -40t-55.5 -47.5t-34.5 -56t-13.5 -68zM287 885q0 -41 17.5 -74.5t54 -60t71.5 -44.5t92 -42 q104 47 158.5 96t54.5 125q0 77 -62 123.5t-163 46.5q-100 0 -161.5 -46t-61.5 -124z" />
<glyph horiz-adv-x="1019" d="M178 449v102h121q-5 19 -23 77.5t-28 109t-10 108.5q0 159 94.5 244.5t249.5 85.5q127 0 260 -52l-41 -114q-98 41 -209 41q-108 0 -161.5 -57.5t-53.5 -157.5q0 -46 8 -92t27.5 -114.5t21.5 -78.5h322v-102h-307q-2 -97 -24.5 -167t-86.5 -165h498v-117h-648v111 q67 89 95.5 159t29.5 179h-135z" />
<glyph horiz-adv-x="964" d="M174 0v1149h637v-123h-502v-389h428l-10 -117h-418v-397h518v-123h-653zM207 1442q0 40 28 68t66 28t66 -28t28 -68q0 -37 -28 -64.5t-66 -27.5t-66 27.5t-28 64.5zM580 1442q0 39 28.5 67.5t65.5 28.5q40 0 68 -28t28 -68q0 -37 -28.5 -64.5t-67.5 -27.5 q-37 0 -65.5 27.5t-28.5 64.5z" />
<glyph horiz-adv-x="964" d="M174 0v1149h637v-123h-502v-389h428l-10 -117h-418v-397h518v-123h-653zM215 1470l64 107l202 -141l203 141l64 -107l-267 -163z" />
<glyph horiz-adv-x="964" d="M174 0v1149h637v-123h-502v-389h428l-10 -117h-418v-397h518v-123h-653zM221 1389v127h518v-127h-518z" />
<glyph horiz-adv-x="964" d="M174 0v1149h637v-123h-502v-389h428l-10 -117h-418v-397h518v-123q-89 -69 -137.5 -128.5t-48.5 -133.5q0 -41 24 -63.5t62 -22.5q46 0 76 12l24 -102q-52 -19 -98 -19q-91 0 -146 51t-55 136q0 78 48.5 148.5t119.5 121.5h-522z" />
<glyph horiz-adv-x="964" d="M174 0v1149h637v-123h-502v-389h428l-10 -117h-418v-397h518v-123h-653zM403 1442q0 39 29 67.5t66 28.5q40 0 68 -28t28 -68q0 -37 -28.5 -64.5t-67.5 -27.5q-37 0 -66 28t-29 64z" />
<glyph horiz-adv-x="1105" d="M137 434v281q0 225 126 343t331 118q88 0 161 -13.5t179 -42.5l-29 -119q-159 50 -309 50q-151 0 -237.5 -85.5t-86.5 -256.5v-269q0 -171 86.5 -256.5t237.5 -85.5q96 0 235 31v369h-135v112h265v-573q-194 -64 -367 -64q-205 0 -331 118t-126 343zM289 1415l266 162 l266 -162l-63 -106l-203 139l-203 -139z" />
<glyph horiz-adv-x="1105" d="M137 434v281q0 225 126 343t331 118q88 0 161 -13.5t179 -42.5l-29 -119q-159 50 -309 50q-151 0 -237.5 -85.5t-86.5 -256.5v-269q0 -171 86.5 -256.5t237.5 -85.5q96 0 235 31v369h-135v112h265v-573q-194 -64 -367 -64q-205 0 -331 118t-126 343zM475 1442 q0 39 28.5 67.5t65.5 28.5q40 0 68.5 -28t28.5 -68q0 -37 -28.5 -64.5t-68.5 -27.5q-37 0 -65.5 27.5t-28.5 64.5z" />
<glyph horiz-adv-x="1105" d="M137 434v281q0 225 126 343t331 118q88 0 161 -13.5t179 -42.5l-29 -119q-159 50 -309 50q-151 0 -237.5 -85.5t-86.5 -256.5v-269q0 -171 86.5 -256.5t237.5 -85.5q96 0 235 31v369h-135v112h265v-573q-194 -64 -367 -64q-205 0 -331 118t-126 343zM446 -459l64 326h141 l-104 -326h-101z" />
<glyph horiz-adv-x="1159" d="M174 0v1149h135v-504h541v504h135v-1149h-135v524h-541v-524h-135zM313 1415l267 162l266 -162l-64 -106l-202 139l-203 -139z" />
<glyph horiz-adv-x="1159" d="M102 836v100h72v213h135v-213h541v213h135v-213h72v-100h-72v-836h-135v524h-541v-524h-135v836h-72zM309 645h541v191h-541v-191z" />
<glyph horiz-adv-x="483" d="M25 1411l381 166l53 -127l-396 -141zM174 0v1149h135v-1149h-135z" />
<glyph horiz-adv-x="1005" d="M104 381l248 768h131l-237 -764h350v377l133 22v-399h174v-121h-174v-262l-133 -16v278h-473z" />
<glyph horiz-adv-x="1034" d="M119 287q0 59 20 107.5t58.5 85.5t79.5 63t98 53q-101 52 -159 120t-58 167q0 124 97 208.5t263 84.5q157 0 261 -82.5t104 -210.5q0 -96 -58.5 -160t-162.5 -115q56 -26 97.5 -53t79 -65t57 -88.5t19.5 -112.5q0 -143 -115.5 -229.5t-281.5 -86.5q-104 0 -194 36 t-147.5 109t-57.5 169zM258 289q0 -87 74 -140t186 -53q108 0 184 52t76 141q0 30 -9.5 56.5t-31.5 50t-42 40.5t-58 37t-62.5 31.5t-70.5 32.5q-45 -20 -76.5 -36.5t-66 -40t-55.5 -47.5t-34.5 -56t-13.5 -68zM295 885q0 -41 17.5 -74.5t54 -60t71.5 -44.5t92 -42 q104 47 158.5 96t54.5 125q0 77 -62 123.5t-163 46.5q-100 0 -161.5 -46t-61.5 -124z" />
<glyph horiz-adv-x="483" d="M25 1450l53 127l381 -166l-39 -102zM174 0v1149h135v-1149h-135z" />
<glyph horiz-adv-x="483" d="M-25 1415l267 162l266 -162l-64 -106l-202 139l-203 -139zM174 0v1149h135v-1149h-135z" />
<glyph horiz-adv-x="894" d="M125 449v102h121q-5 20 -23.5 77.5t-28.5 108.5t-10 109q0 159 94.5 244.5t249.5 85.5q127 0 260 -52l-40 -114q-98 41 -209 41q-108 0 -161.5 -57.5t-53.5 -157.5q0 -46 8 -92t27.5 -114.5t21.5 -78.5h321v-102h-307q-2 -97 -24.5 -167t-85.5 -165h497v-117h-647v111 q67 89 95.5 159t29.5 179h-135z" />
<glyph horiz-adv-x="483" d="M-41 1442q17 39 59 75.5t103 36.5q37 0 74.5 -15.5t62.5 -34.5t54.5 -34.5t52.5 -15.5q52 0 94 59l65 -67q-17 -39 -59 -76t-100 -37q-37 0 -75 15.5t-63 34t-54 34t-52 15.5q-51 0 -96 -58zM174 0v1149h135v-1149h-135z" />
<glyph horiz-adv-x="483" d="M-16 1389v127h518v-127h-518zM174 0v1149h135v-1149h-135z" />
<glyph horiz-adv-x="483" d="M14 1563h119q0 -52 32 -87.5t79 -35.5q45 0 76.5 35.5t31.5 87.5h119q0 -103 -64.5 -169.5t-162.5 -66.5q-99 0 -164.5 66.5t-65.5 169.5zM174 0v1149h135v-1149h-135z" />
<glyph horiz-adv-x="1325" d="M174 0v1149h135v-1149h-135zM524 29l31 114q127 -43 244 -43q120 0 177.5 74t57.5 197v778l135 -12v-772q0 -180 -97.5 -284t-266.5 -104q-133 0 -281 52z" />
<glyph horiz-adv-x="876" d="M76 25l30 118q122 -45 244 -45q120 0 178 73.5t58 195.5v782l135 -12v-775q0 -181 -98 -285t-267 -104q-132 0 -280 52zM383 1415l266 162l266 -162l-63 -106l-203 139l-203 -139z" />
<glyph horiz-adv-x="1071" d="M174 0v1149h135v-614l473 614h152l-389 -518l450 -631h-157l-375 520l-154 -205v-315h-135zM440 -459l64 326h141l-104 -326h-101z" />
<glyph horiz-adv-x="913" d="M174 1442q17 39 59 75.5t103 36.5q37 0 74.5 -15.5t62.5 -34.5t54.5 -34.5t52.5 -15.5q52 0 94 59l65 -67q-17 -39 -59 -76t-100 -37q-37 0 -75 15.5t-63 34t-54 34t-52 15.5q-51 0 -96 -58z" />
<glyph horiz-adv-x="929" d="M174 0v1149h135v-1026h529l-13 -123h-651zM604 778v371l148 20l-47 -391h-101z" />
<glyph horiz-adv-x="929" d="M174 0v1149h135v-1026h529l-13 -123h-651zM375 -459l63 326h142l-105 -326h-100z" />
<glyph horiz-adv-x="929" d="M174 0v1149h135v-1026h529l-13 -123h-651zM528 549q0 41 29 69.5t66 28.5q41 0 69.5 -28.5t28.5 -69.5q0 -37 -28.5 -64.5t-69.5 -27.5q-37 0 -66 28t-29 64z" />
<glyph horiz-adv-x="929" d="M37 539l137 47v563h135v-516l178 63l33 -86l-211 -73v-414h529l-13 -123h-651v489l-106 -36z" />
<glyph horiz-adv-x="700" d="M174 1485q0 71 52.5 122.5t125.5 51.5q70 0 122 -51.5t52 -122.5q0 -72 -51.5 -124t-122.5 -52q-73 0 -125.5 52t-52.5 124zM281 1485q0 -30 20.5 -52t50.5 -22q29 0 50.5 22.5t21.5 51.5q0 31 -21.5 52.5t-50.5 21.5q-30 0 -50.5 -21.5t-20.5 -52.5z" />
<glyph horiz-adv-x="1146" d="M174 0v1149h105l563 -891q-4 61 -4 174v717h135v-1149h-115l-557 877q8 -59 8 -177v-700h-135zM352 1411l381 166l53 -127l-395 -141z" />
<glyph horiz-adv-x="1146" d="M174 0v1149h105l563 -891q-4 61 -4 174v717h135v-1149h-115l-557 877q8 -59 8 -177v-700h-135zM291 1442q17 39 59 75.5t103 36.5q47 0 92.5 -25t84 -50t66.5 -25q53 0 95 59l65 -67q-17 -39 -59.5 -76t-100.5 -37q-37 0 -74.5 15.5t-62.5 34t-54 34t-52 15.5 q-52 0 -97 -58z" />
<glyph horiz-adv-x="1146" d="M174 0v1149h105l563 -891q-4 61 -4 174v717h135v-1149h-115l-557 877q8 -59 8 -177v-700h-135zM307 1470l64 107l202 -141l203 141l64 -107l-267 -163z" />
<glyph horiz-adv-x="1146" d="M174 0v1149h105l563 -891q-4 61 -4 174v717h135v-1493l-131 -33v402l-541 852q8 -59 8 -177v-700h-135z" />
<glyph horiz-adv-x="942" d="M205 1470l63 107l203 -141l203 141l63 -107l-266 -163z" />
<glyph horiz-adv-x="1148" d="M137 434v277q0 114 34 203.5t94.5 146t139 86t170.5 29.5q91 0 169.5 -29.5t138.5 -86t94.5 -146.5t34.5 -203v-277q0 -223 -123.5 -342t-313.5 -119q-92 0 -170.5 29t-139 84.5t-94.5 145t-34 202.5zM272 442q0 -171 82.5 -257.5t220.5 -86.5t220 86.5t82 257.5v263 q0 172 -82 259t-220 87t-220.5 -87t-82.5 -259v-263zM356 1411l381 166l54 -127l-396 -141z" />
<glyph horiz-adv-x="1148" d="M137 434v277q0 114 34 203.5t94.5 146t139 86t170.5 29.5q91 0 169.5 -29.5t138.5 -86t94.5 -146.5t34.5 -203v-277q0 -223 -123.5 -342t-313.5 -119q-92 0 -170.5 29t-139 84.5t-94.5 145t-34 202.5zM272 442q0 -171 82.5 -257.5t220.5 -86.5t220 86.5t82 257.5v263 q0 172 -82 259t-220 87t-220.5 -87t-82.5 -259v-263zM356 1450l54 127l381 -166l-39 -102z" />
<glyph horiz-adv-x="1148" d="M137 434v277q0 114 34 203.5t94.5 146t139 86t170.5 29.5q91 0 169.5 -29.5t138.5 -86t94.5 -146.5t34.5 -203v-277q0 -223 -123.5 -342t-313.5 -119q-92 0 -170.5 29t-139 84.5t-94.5 145t-34 202.5zM272 442q0 -171 82.5 -257.5t220.5 -86.5t220 86.5t82 257.5v263 q0 172 -82 259t-220 87t-220.5 -87t-82.5 -259v-263zM293 1442q0 40 28 68t66 28t66 -28t28 -68q0 -37 -28 -64.5t-66 -27.5t-66 27.5t-28 64.5zM666 1442q0 39 28.5 67.5t65.5 28.5q40 0 68 -28t28 -68q0 -37 -28.5 -64.5t-67.5 -27.5q-37 0 -65.5 27.5t-28.5 64.5z" />
<glyph horiz-adv-x="1148" d="M137 434v277q0 114 34 203.5t94.5 146t139 86t170.5 29.5q91 0 169.5 -29.5t138.5 -86t94.5 -146.5t34.5 -203v-277q0 -223 -123.5 -342t-313.5 -119q-92 0 -170.5 29t-139 84.5t-94.5 145t-34 202.5zM272 442q0 -171 82.5 -257.5t220.5 -86.5t220 86.5t82 257.5v263 q0 172 -82 259t-220 87t-220.5 -87t-82.5 -259v-263zM291 1442q17 39 59 75.5t103 36.5q47 0 92.5 -25t84 -50t66.5 -25q53 0 95 59l65 -67q-17 -39 -59.5 -76t-100.5 -37q-37 0 -74.5 15.5t-62.5 34t-54 34t-52 15.5q-52 0 -97 -58z" />
<glyph horiz-adv-x="1148" d="M137 434v277q0 114 34 203.5t94.5 146t139 86t170.5 29.5q91 0 169.5 -29.5t138.5 -86t94.5 -146.5t34.5 -203v-277q0 -223 -123.5 -342t-313.5 -119q-92 0 -170.5 29t-139 84.5t-94.5 145t-34 202.5zM272 442q0 -171 82.5 -257.5t220.5 -86.5t220 86.5t82 257.5v263 q0 172 -82 259t-220 87t-220.5 -87t-82.5 -259v-263zM346 1563h119q0 -53 31.5 -88t78.5 -35q45 0 77 35.5t32 87.5h119q0 -103 -65 -169.5t-163 -66.5q-99 0 -164 66t-65 170z" />
<glyph horiz-adv-x="1148" d="M137 434v277q0 114 34 203.5t94.5 146t139 86t170.5 29.5q91 0 169.5 -29.5t138.5 -86t94.5 -146.5t34.5 -203v-277q0 -223 -123.5 -342t-313.5 -119q-92 0 -170.5 29t-139 84.5t-94.5 145t-34 202.5zM260 1389l320 210l69 -116l-332 -189zM272 442q0 -171 82.5 -257.5 t220.5 -86.5t220 86.5t82 257.5v263q0 172 -82 259t-220 87t-220.5 -87t-82.5 -259v-263zM662 1391l319 211l70 -117l-332 -189z" />
<glyph horiz-adv-x="1148" d="M137 434v277q0 114 34 203.5t94.5 146t139 86t170.5 29.5q113 0 211 -48l64 125l102 -47l-73 -143q133 -123 133 -352v-277q0 -223 -123.5 -342t-313.5 -119q-125 0 -223 52l-65 -129l-103 47l76 149q-123 123 -123 342zM272 442q0 -132 54 -219l403 791q-67 37 -154 37 q-138 0 -220.5 -87t-82.5 -259v-263zM410 139q71 -41 165 -41q138 0 220 86.5t82 257.5v263q0 144 -62 231z" />
<glyph horiz-adv-x="1619" d="M137 434v277q0 114 34 203.5t94.5 146t139 86t170.5 29.5q79 0 162 -27h729v-123h-553q99 -123 99 -315v-74h381l-11 -117h-370v-86q0 -189 -97 -311h568v-123h-744q-86 -27 -164 -27q-92 0 -170.5 29t-139 84.5t-94.5 145t-34 202.5zM272 442q0 -171 82.5 -257.5 t220.5 -86.5t220 86.5t82 257.5v263q0 172 -82 259t-220 87t-220.5 -87t-82.5 -259v-263z" />
<glyph horiz-adv-x="1087" d="M76 0l391 1149h154l391 -1149h-140l-106 319h-444l-107 -319h-139zM285 1389v127h518v-127h-518zM360 436h367l-131 393q-26 75 -53 183q-28 -115 -51 -183z" />
<glyph horiz-adv-x="1032" d="M137 434v281q0 225 126 343t331 118q152 0 342 -56l-27 -119q-187 50 -313 50q-151 0 -237.5 -85.5t-86.5 -258.5v-267q0 -175 86 -258.5t238 -83.5q157 0 313 49l27 -122q-184 -52 -342 -52q-205 0 -331 118t-126 343zM340 1411l381 166l53 -127l-395 -141z" />
<glyph horiz-adv-x="1007" d="M174 0v1149h135v-225h254q156 0 254 -99.5t98 -244.5q0 -142 -98 -243t-254 -101h-254v-236h-135zM309 358h254q101 0 158 61.5t57 160.5t-57 160t-158 61h-254v-443z" />
<glyph horiz-adv-x="1017" d="M174 0v1149h391q156 0 253 -99.5t97 -244.5q0 -108 -63 -198t-180 -122l241 -485h-151l-227 471h-226v-471h-135zM291 1411l381 166l53 -127l-395 -141zM309 584h256q99 0 156 61t57 160q0 97 -57 158t-156 61h-256v-440z" />
<glyph horiz-adv-x="1017" d="M174 0v1149h391q156 0 253 -99.5t97 -244.5q0 -108 -63 -198t-180 -122l241 -485h-151l-227 471h-226v-471h-135zM242 1470l63 107l203 -141l203 141l63 -107l-266 -163zM309 584h256q99 0 156 61t57 160q0 97 -57 158t-156 61h-256v-440z" />
<glyph horiz-adv-x="1017" d="M174 0v1149h391q156 0 253 -99.5t97 -244.5q0 -108 -63 -198t-180 -122l241 -485h-151l-227 471h-226v-471h-135zM309 584h256q99 0 156 61t57 160q0 97 -57 158t-156 61h-256v-440zM403 -459l64 326h141l-104 -326h-101z" />
<glyph horiz-adv-x="921" d="M102 33l25 123q176 -58 317 -58q98 0 167 51.5t69 143.5q0 48 -19 86.5t-51 65t-73.5 48.5t-88 41.5t-92.5 40.5t-87.5 48t-73.5 61t-51 83.5t-19 111.5q0 134 101 215.5t261 81.5q144 0 304 -58l-35 -117q-155 50 -269 50q-103 0 -163 -44.5t-60 -123.5q0 -45 19 -81 t51 -60.5t73.5 -46t88 -41t92.5 -40.5t87.5 -50t73.5 -64.5t51 -88t19 -116.5q0 -152 -107.5 -237t-267.5 -85q-156 0 -342 60zM195 1415l266 162l266 -162l-63 -106l-203 139l-203 -139z" />
<glyph horiz-adv-x="921" d="M102 33l25 123q176 -58 317 -58q98 0 167 51.5t69 143.5q0 48 -19 86.5t-51 65t-73.5 48.5t-88 41.5t-92.5 40.5t-87.5 48t-73.5 61t-51 83.5t-19 111.5q0 134 101 215.5t261 81.5q144 0 304 -58l-35 -117q-155 50 -269 50q-103 0 -163 -44.5t-60 -123.5q0 -45 19 -81 t51 -60.5t73.5 -46t88 -41t92.5 -40.5t87.5 -50t73.5 -64.5t51 -88t19 -116.5q0 -152 -107.5 -237t-267.5 -85q-156 0 -342 60zM195 1470l63 107l203 -141l203 141l63 -107l-266 -163z" />
<glyph horiz-adv-x="921" d="M102 33l25 123q176 -58 317 -58q98 0 167 51.5t69 143.5q0 48 -19 86.5t-51 65t-73.5 48.5t-88 41.5t-92.5 40.5t-87.5 48t-73.5 61t-51 83.5t-19 111.5q0 134 101 215.5t261 81.5q144 0 304 -58l-35 -117q-155 50 -269 50q-103 0 -163 -44.5t-60 -123.5q0 -45 19 -81 t51 -60.5t73.5 -46t88 -41t92.5 -40.5t87.5 -50t73.5 -64.5t51 -88t19 -116.5q0 -128 -78 -209t-204 -104v-197q0 -60 -20 -103.5t-54.5 -67.5t-74 -35t-85.5 -11q-71 0 -117 12l17 117q42 -10 90 -10q61 0 89 27.5t28 84.5v174q-140 5 -308 60z" />
<glyph horiz-adv-x="1781" d="M102 33l25 123q176 -58 317 -58q98 0 167 51.5t69 143.5q0 48 -19 86.5t-51 65t-73.5 48.5t-88 41.5t-92.5 40.5t-87.5 48t-73.5 61t-51 83.5t-19 111.5q0 134 101 215.5t261 81.5q144 0 304 -58l-35 -117q-155 50 -269 50q-103 0 -163 -44.5t-60 -123.5q0 -45 19 -81 t51 -60.5t73.5 -46t88 -41t92.5 -40.5t87.5 -50t73.5 -64.5t51 -88t19 -116.5q0 -152 -107.5 -237t-267.5 -85q-156 0 -342 60zM963 33l24 123q176 -58 318 -58q98 0 166.5 51.5t68.5 143.5q0 48 -19 86.5t-51 65t-73.5 48.5t-88 41.5t-92.5 40.5t-87.5 48t-73.5 61 t-51 83.5t-19 111.5q0 134 101.5 215.5t261.5 81.5q143 0 303 -58l-35 -117q-155 50 -268 50q-104 0 -164 -44.5t-60 -123.5q0 -45 19 -81t51 -60.5t73.5 -46t88 -41t92.5 -40.5t87.5 -50t73.5 -64.5t51 -88t19 -116.5q0 -152 -107 -237t-267 -85q-156 0 -342 60z" />
<glyph horiz-adv-x="958" d="M78 1024v125h803v-125h-334v-1024h-135v1024h-334zM213 1470l63 107l203 -141l203 141l63 -107l-266 -163z" />
<glyph horiz-adv-x="958" d="M78 1024v125h803v-125h-334v-1024h-135v1024h-334zM344 -459l64 326h141l-105 -326h-100z" />
<glyph horiz-adv-x="1150" d="M164 362v787h135v-780q0 -119 78 -195t201 -76q122 0 199 76t77 195v780h133v-787q0 -170 -118.5 -279.5t-290.5 -109.5q-174 0 -294 109.5t-120 279.5zM358 1411l381 166l54 -127l-396 -141z" />
<glyph horiz-adv-x="1150" d="M164 362v787h135v-780q0 -119 78 -195t201 -76q122 0 199 76t77 195v780h133v-787q0 -170 -118.5 -279.5t-290.5 -109.5q-174 0 -294 109.5t-120 279.5zM358 1450l54 127l381 -166l-39 -102z" />
<glyph horiz-adv-x="1150" d="M164 362v787h135v-780q0 -119 78 -195t201 -76q122 0 199 76t77 195v780h133v-787q0 -170 -118.5 -279.5t-290.5 -109.5q-174 0 -294 109.5t-120 279.5zM309 1415l266 162l267 -162l-64 -106l-203 139l-202 -139z" />
<glyph horiz-adv-x="1150" d="M164 362v787h135v-780q0 -119 78 -195t201 -76q122 0 199 76t77 195v780h133v-787q0 -170 -118.5 -279.5t-290.5 -109.5q-174 0 -294 109.5t-120 279.5zM295 1442q0 40 28 68t66 28t66 -28t28 -68q0 -37 -28 -64.5t-66 -27.5t-66 27.5t-28 64.5zM668 1442q0 39 28.5 67.5 t65.5 28.5q40 0 68 -28t28 -68q0 -37 -28.5 -64.5t-67.5 -27.5q-37 0 -65.5 27.5t-28.5 64.5z" />
<glyph horiz-adv-x="1150" d="M164 362v787h135v-780q0 -119 78 -195t201 -76q122 0 199 76t77 195v780h133v-787q0 -170 -118.5 -279.5t-290.5 -109.5q-174 0 -294 109.5t-120 279.5zM293 1442q17 39 59 75.5t103 36.5q47 0 92.5 -25t84 -50t66.5 -25q53 0 95 59l65 -67q-17 -39 -59.5 -76t-100.5 -37 q-37 0 -74.5 15.5t-62.5 34t-54 34t-52 15.5q-52 0 -97 -58z" />
<glyph horiz-adv-x="1150" d="M164 362v787h135v-780q0 -119 78 -195t201 -76q122 0 199 76t77 195v780h133v-787q0 -170 -118.5 -279.5t-290.5 -109.5q-174 0 -294 109.5t-120 279.5zM399 1485q0 71 53 122.5t126 51.5q70 0 122 -51.5t52 -122.5q0 -72 -51.5 -124t-122.5 -52q-73 0 -126 52t-53 124z M506 1485q0 -30 21 -52t51 -22q29 0 50 22t21 52q0 31 -21 52.5t-50 21.5q-31 0 -51.5 -21.5t-20.5 -52.5z" />
<glyph horiz-adv-x="1150" d="M164 362v787h135v-780q0 -119 78 -195t201 -76q122 0 199 76t77 195v780h133v-787q0 -170 -118.5 -279.5t-290.5 -109.5q-174 0 -294 109.5t-120 279.5zM348 1563h119q0 -52 32 -87.5t79 -35.5q45 0 76.5 35.5t31.5 87.5h119q0 -103 -64.5 -169.5t-162.5 -66.5 q-99 0 -164.5 66.5t-65.5 169.5z" />
<glyph horiz-adv-x="1150" d="M164 362v787h135v-780q0 -119 78 -195t201 -76q122 0 199 76t77 195v780h133v-787q0 -170 -118.5 -279.5t-290.5 -109.5q-174 0 -294 109.5t-120 279.5zM240 1389l319 210l70 -116l-332 -189zM641 1391l320 211l69 -117l-332 -189z" />
<glyph horiz-adv-x="1150" d="M164 362v787h135v-780q0 -119 78 -195t201 -76q122 0 199 76t77 195v780h133v-787q0 -152 -96 -256t-244 -126q-74 -60 -116 -117.5t-42 -124.5q0 -41 24 -63.5t62 -22.5q46 0 76 12l25 -102q-52 -19 -98 -19q-91 0 -146 51t-55 136q0 133 139 247q-153 19 -252.5 124.5 t-99.5 260.5z" />
<glyph horiz-adv-x="1486" d="M94 1149h135l154 -832q11 -62 18 -172q26 100 48 170l215 656h159l215 -656q22 -70 45 -168q9 87 23 170l151 832h136l-219 -1149h-158l-232 696q-29 99 -41 150q-12 -51 -41 -150l-231 -696h-158zM526 1411l381 166l54 -127l-396 -141z" />
<glyph horiz-adv-x="1486" d="M94 1149h135l154 -832q11 -62 18 -172q26 100 48 170l215 656h159l215 -656q22 -70 45 -168q9 87 23 170l151 832h136l-219 -1149h-158l-232 696q-29 99 -41 150q-12 -51 -41 -150l-231 -696h-158zM477 1415l266 162l267 -162l-64 -106l-203 139l-202 -139z" />
<glyph horiz-adv-x="1486" d="M94 1149h135l154 -832q11 -62 18 -172q26 100 48 170l215 656h159l215 -656q22 -70 45 -168q9 87 23 170l151 832h136l-219 -1149h-158l-232 696q-29 99 -41 150q-12 -51 -41 -150l-231 -696h-158zM463 1442q0 40 28 68t66 28t66 -28t28 -68q0 -37 -28 -64.5t-66 -27.5 t-66 27.5t-28 64.5zM836 1442q0 39 28.5 67.5t65.5 28.5q40 0 68 -28t28 -68q0 -37 -28.5 -64.5t-67.5 -27.5q-37 0 -65.5 27.5t-28.5 64.5z" />
<glyph horiz-adv-x="1021" d="M68 1149h143l299 -576l299 576h145l-376 -709v-440h-136v440zM293 1411l381 166l53 -127l-395 -141z" />
<glyph horiz-adv-x="1021" d="M68 1149h143l299 -576l299 576h145l-376 -709v-440h-136v440zM244 1415l266 162l266 -162l-63 -106l-203 139l-203 -139z" />
<glyph horiz-adv-x="1021" d="M68 1149h143l299 -576l299 576h145l-376 -709v-440h-136v440zM229 1442q0 40 28.5 68t66.5 28t66 -28t28 -68q0 -37 -28 -64.5t-66 -27.5t-66.5 27.5t-28.5 64.5zM602 1442q0 39 28.5 67.5t65.5 28.5q40 0 68.5 -28t28.5 -68q0 -37 -28.5 -64.5t-68.5 -27.5 q-37 0 -65.5 27.5t-28.5 64.5z" />
<glyph horiz-adv-x="1003" d="M104 0v106l601 918h-592v125h751v-102l-604 -922h639l-16 -125h-779zM285 1411l381 166l53 -127l-395 -141z" />
<glyph horiz-adv-x="1003" d="M104 0v106l601 918h-592v125h751v-102l-604 -922h639l-16 -125h-779zM236 1470l63 107l203 -141l203 141l63 -107l-266 -163z" />
<glyph horiz-adv-x="1003" d="M104 0v106l601 918h-592v125h751v-102l-604 -922h639l-16 -125h-779zM408 1442q0 39 28.5 67.5t65.5 28.5q40 0 68 -28t28 -68q0 -37 -28.5 -64.5t-67.5 -27.5q-37 0 -65.5 27.5t-28.5 64.5z" />
<glyph horiz-adv-x="1032" d="M137 434v281q0 225 126 343t331 118q152 0 342 -56l-27 -119q-187 50 -313 50q-151 0 -237.5 -85.5t-86.5 -258.5v-267q0 -175 86 -258.5t238 -83.5q157 0 313 49l27 -122q-184 -52 -342 -52q-205 0 -331 118t-126 343zM473 1442q0 39 28.5 67.5t65.5 28.5q40 0 68.5 -28 t28.5 -68q0 -37 -28.5 -64.5t-68.5 -27.5q-37 0 -65.5 27.5t-28.5 64.5z" />
<glyph horiz-adv-x="821" d="M178 1438l113 22q9 -55 40.5 -89t80.5 -34t80 34t40 89l113 -22q-15 -96 -79 -154.5t-154 -58.5t-154.5 58.5t-79.5 154.5z" />
<glyph horiz-adv-x="821" d="M166 1749l119 23q9 -57 41.5 -92t83.5 -35q52 0 85 35t42 92l118 -23q-15 -98 -82.5 -158.5t-162.5 -60.5q-94 0 -161.5 60.5t-82.5 158.5z" />
<glyph horiz-adv-x="430" d="M117 -459l63 326h142l-105 -326h-100z" />
<glyph horiz-adv-x="964" d="M174 0v1149h637v-123h-502v-389h428l-10 -117h-418v-397h518v-123h-653zM221 1415l266 162l267 -162l-64 -106l-203 139l-202 -139z" />
<glyph horiz-adv-x="964" d="M174 0v1149h637v-123h-502v-389h428l-10 -117h-418v-397h518v-123h-653zM262 1563h119q0 -52 32 -87.5t79 -35.5q45 0 76.5 35.5t31.5 87.5h119q0 -103 -64.5 -169.5t-162.5 -66.5q-99 0 -164.5 66.5t-65.5 169.5z" />
<glyph d="M133 485v181q0 242 128 376t323 134t323.5 -134t128.5 -376v-181q0 -123 -35.5 -222t-97 -161.5t-142.5 -95.5t-175 -33q-93 0 -174.5 33t-144 95.5t-98.5 161.5t-36 222zM268 485q0 -187 87 -287t231 -100q143 0 229 100t86 287v181q0 186 -86.5 285.5t-230.5 99.5 q-143 0 -229.5 -100t-86.5 -285v-181z" />
<glyph horiz-adv-x="772" d="M119 956v129l459 86v-1171h-136v1022z" />
<glyph horiz-adv-x="987" d="M117 0v76q0 80 20 146.5t54.5 113.5t78.5 87t93 70t98 58t93 56.5t78.5 60t54.5 74t20 92.5q0 93 -65 155t-175 62q-134 0 -283 -70l-49 113q172 82 332 82t269.5 -93t109.5 -249q0 -60 -20 -112t-54 -91.5t-77.5 -75t-92 -66t-97 -60t-92 -62t-77.5 -67.5t-54 -80.5 t-20 -96.5h594l-16 -123h-723z" />
<glyph horiz-adv-x="952" d="M41 -207l39 121q145 -51 285 -51q152 0 251 84t99 231q0 128 -82 206.5t-250 78.5h-137l-25 123l397 440h-548l-17 123h715l23 -123l-406 -440q206 0 337.5 -107t131.5 -301q0 -133 -67 -234.5t-177.5 -153.5t-244.5 -52q-162 0 -324 55z" />
</font>
</defs>
</svg>
