<?xml version="1.0" standalone="no"?>
<!DOCTYPE svg PUBLIC "-//W3C//DTD SVG 1.1//EN" "http://www.w3.org/Graphics/SVG/1.1/DTD/svg11.dtd" >
<svg xmlns="http://www.w3.org/2000/svg" xmlns:xlink="http://www.w3.org/1999/xlink" version="1.1">
<metadata></metadata>
<defs>
<font id="russialight_italic" horiz-adv-x="1144" >
<font-face units-per-em="2048" ascent="1556" descent="-492" />
<missing-glyph horiz-adv-x="512" />
<glyph unicode="ff" horiz-adv-x="1220" d="M20 -432l242 1370h-141l20 109h140l32 184q25 141 124 218t225 77q70 0 129 -19l-39 -123q-58 15 -105 15q-71 0 -129 -43t-72 -127l-32 -182h481l33 184q25 141 123.5 218t224.5 77q70 0 129 -19l-39 -123q-58 15 -104 15q-71 0 -129 -43t-72 -127l-33 -182h277 l-62 -109h-233l-242 -1370h-133l242 1370h-482l-241 -1370h-134z" />
<glyph unicode="fi" horiz-adv-x="1079" d="M20 -432l242 1370h-141l20 109h140l32 184q25 141 124 218t225 77q70 0 129 -19l-39 -123q-58 15 -105 15q-71 0 -129 -43t-72 -127l-32 -182h276l-61 -109h-234l-241 -1370h-134zM688 0l184 1047h134l-185 -1047h-133zM891 1339q0 39 28.5 67t67.5 28q40 0 69 -28.5 t29 -66.5t-29 -67t-69 -29q-39 0 -67.5 28.5t-28.5 67.5z" />
<glyph unicode="fl" horiz-adv-x="1079" d="M20 -432l242 1370h-141l20 109h140l32 184q25 141 124 218t225 77q70 0 129 -19l-39 -123q-58 15 -105 15q-71 0 -129 -43t-72 -127l-32 -182h276l-61 -109h-234l-241 -1370h-134zM688 0l260 1485l142 41l-269 -1526h-133z" />
<glyph unicode="ffi" horiz-adv-x="1693" d="M20 -432l242 1370h-141l20 109h140l32 184q25 141 124 218t225 77q70 0 129 -19l-39 -123q-58 15 -105 15q-71 0 -129 -43t-72 -127l-32 -182h481l33 184q25 141 123.5 218t224.5 77q70 0 129 -19l-39 -123q-58 15 -104 15q-71 0 -129 -43t-72 -127l-33 -182h277 l-62 -109h-233l-242 -1370h-133l242 1370h-482l-241 -1370h-134zM1303 0l184 1047h133l-184 -1047h-133zM1505 1339q0 38 28.5 66.5t68.5 28.5t69 -28.5t29 -66.5t-29 -67t-69 -29t-68.5 28.5t-28.5 67.5z" />
<glyph unicode="ffl" horiz-adv-x="1691" d="M20 -432l242 1370h-141l20 109h140l32 184q25 141 124 218t225 77q70 0 129 -19l-39 -123q-58 15 -105 15q-71 0 -129 -43t-72 -127l-32 -182h481l33 184q25 141 123.5 218t224.5 77q70 0 129 -19l-39 -123q-58 15 -104 15q-71 0 -129 -43t-72 -127l-33 -182h277 l-62 -109h-233l-242 -1370h-133l242 1370h-482l-241 -1370h-134zM1303 0l260 1485l141 41l-268 -1526h-133z" />
<glyph unicode="ft" horiz-adv-x="1196" d="M20 -432l242 1370h-141l20 109h140l32 184q25 141 124 218t225 77q70 0 129 -19l-39 -123q-58 15 -105 15q-71 0 -129 -43t-72 -127l-32 -182h491l56 307l139 39l-62 -346h219l-20 -109h-217l-166 -938h-133l166 938h-492l-241 -1370h-134z" />
<glyph unicode="tt" horiz-adv-x="1179" d="M113 0l163 940h-133l-24 107h178l53 307l137 39l-59 -346h463l53 307l137 39l-59 -346h219l-20 -107h-220l-163 -940h-131l163 940h-462l-164 -940h-131z" />
<glyph unicode="fy" horiz-adv-x="1566" d="M20 -432l242 1370h-141l20 109h140l32 184q25 141 124 218t225 77q70 0 129 -19l-39 -123q-58 15 -105 15q-71 0 -129 -43t-72 -127l-32 -182h481l-29 -668q-5 -121 35.5 -185.5t142.5 -64.5h127l275 918h137l-444 -1479h-138l134 432h-113q-307 0 -291 360l25 578h-361 l-241 -1370h-134z" />
<glyph unicode="ty" horiz-adv-x="1554" d="M113 0l166 938h-136l-24 109h178l55 307l140 39l-62 -346h453l-29 -668q-5 -121 35.5 -185.5t142.5 -64.5h127l275 918h137l-445 -1479h-137l133 432h-112q-307 0 -291 360l24 578h-331l-166 -938h-133z" />
<glyph unicode=" "  horiz-adv-x="512" />
<glyph unicode="&#x09;" horiz-adv-x="512" />
<glyph unicode="&#xa0;" horiz-adv-x="512" />
<glyph unicode="!" horiz-adv-x="479" d="M78 78q0 39 28 65.5t68 26.5q37 0 64.5 -26.5t27.5 -65.5q0 -38 -27.5 -66t-64.5 -28q-40 0 -68 28t-28 66zM174 440l148 922l161 41l-188 -963h-121z" />
<glyph unicode="&#x22;" horiz-adv-x="692" d="M268 1059l62 440h129l-97 -440h-94zM522 1059l60 440h131l-99 -440h-92z" />
<glyph unicode="#" horiz-adv-x="1124" d="M88 418l23 125h155l101 366h-142l23 125h151l115 418h121l-115 -418h334l115 418h123l-115 -418h141l-22 -125h-152l-100 -366h139l-22 -125h-152l-113 -418h-123l113 418h-332l-112 -418h-123l112 418h-143zM387 543h334l100 366h-334z" />
<glyph unicode="$" horiz-adv-x="997" d="M10 43l47 127q187 -68 342 -68q59 0 116 19t105 54.5t77.5 93.5t29.5 130q0 60 -29 104.5t-75.5 72t-102.5 51t-112 49.5t-102.5 58.5t-75.5 86.5t-29 125q0 169 113.5 284t289.5 136l41 231h125l-41 -229q135 -9 266 -63l-55 -123q-149 59 -291 59q-135 0 -220 -69 t-85 -193q0 -55 29 -96.5t75.5 -67.5t102.5 -49t112 -49.5t102.5 -60.5t75.5 -90t29 -130q0 -97 -33.5 -179t-91.5 -138t-131 -91.5t-155 -47.5l-39 -234h-125l39 229q-164 7 -324 68z" />
<glyph unicode="%" horiz-adv-x="1746" d="M211 958l20 140q21 143 121.5 228t231.5 85q130 0 199.5 -85t43.5 -228l-20 -140q-21 -142 -122 -227.5t-232 -85.5q-129 0 -196 84.5t-46 228.5zM328 963q-18 -106 21 -156.5t122 -50.5q84 0 142.5 51t76.5 156l21 131q17 106 -22.5 156t-123.5 50q-85 0 -143 -50.5 t-74 -155.5zM383 0l893 1384h131l-893 -1384h-131zM969 287l20 139q21 143 121 228t231 85t200.5 -85t43.5 -228l-20 -139q-21 -142 -122.5 -228t-232.5 -86q-129 0 -196 84.5t-45 229.5zM1085 291q-18 -106 21 -156.5t123 -50.5t142.5 51t76.5 156l20 131 q17 106 -22.5 156.5t-122.5 50.5q-84 0 -142.5 -51t-74.5 -156z" />
<glyph unicode="&#x26;" horiz-adv-x="1167" d="M123 289q0 133 72.5 252.5t195.5 183.5q-66 41 -100.5 106.5t-34.5 145.5q0 183 131 308.5t332 125.5q140 0 268 -51l-45 -117q-106 41 -227 41q-142 0 -233 -84t-91 -213q0 -91 61 -143.5t173 -52.5h94l-25 -129h-102q-140 0 -235 -104t-95 -247q0 -97 63 -153t177 -56 q127 0 215 73t110 194l74 422h254l-22 -121h-127l-50 -301q-29 -170 -159.5 -283t-319.5 -113q-169 0 -261.5 88t-92.5 228z" />
<glyph unicode="'" horiz-adv-x="440" d="M287 1059l61 440h131l-98 -440h-94z" />
<glyph unicode="(" horiz-adv-x="645" d="M111 -45l221 1259q34 194 163 292t316 98l-23 -127q-130 0 -214.5 -60t-110.5 -209l-221 -1247q-26 -148 37 -208t194 -60l-22 -125q-187 0 -280.5 96.5t-59.5 290.5z" />
<glyph unicode=")" horiz-adv-x="643" d="M-104 -432l22 125q61 0 110.5 12.5t93.5 42t74.5 83t43.5 130.5l221 1247q13 63 5 109.5t-25.5 77t-51 49t-71.5 26t-87 7.5l23 127q184 0 278 -98.5t60 -291.5l-221 -1259q-34 -193 -163 -290t-312 -97z" />
<glyph unicode="*" horiz-adv-x="976" d="M236 1006l266 129l-219 133l73 98l207 -149l39 282h115l-62 -282l256 149l41 -98l-268 -133l221 -129l-76 -101l-204 148l-37 -281h-115l59 283l-258 -150z" />
<glyph unicode="+" horiz-adv-x="1150" d="M184 508v125h361v358h123v-358h360v-125h-360v-358h-123v358h-361z" />
<glyph unicode="," horiz-adv-x="503" d="M-8 -293l162 447h147l-213 -465z" />
<glyph unicode="-" horiz-adv-x="991" d="M203 508l22 125h613l-23 -125h-612z" />
<glyph unicode="." horiz-adv-x="495" d="M100 72q0 39 28 65.5t67 26.5t66.5 -26.5t27.5 -65.5q0 -38 -28 -66.5t-66 -28.5t-66.5 28.5t-28.5 66.5z" />
<glyph unicode="/" horiz-adv-x="737" d="M37 -129l665 1628h123l-665 -1628h-123z" />
<glyph unicode="0" horiz-adv-x="1159" d="M127 275.5q-15 104.5 8 250.5l58 334q25 142 79 249.5t128 172.5t159.5 97t181.5 32q95 0 169 -31.5t126 -98t66.5 -171t-8.5 -250.5l-60 -334q-25 -142 -79 -250t-127.5 -173t-158.5 -97.5t-180 -32.5t-169 31.5t-126 99t-67 172zM268 526q-38 -221 29 -324.5 t215 -103.5t249.5 103t139.5 325l60 334q38 221 -28.5 323.5t-213.5 102.5t-250 -102.5t-141 -323.5z" />
<glyph unicode="1" horiz-adv-x="751" d="M223 1190l23 129l471 86l-246 -1405h-131l221 1255z" />
<glyph unicode="2" horiz-adv-x="1056" d="M35 0l18 115q15 94 52.5 174.5t88 139t111.5 109.5t125 91t126.5 78.5t118 77t98 80.5t67 96t24.5 116q0 92 -57.5 150.5t-167.5 58.5q-151 0 -324 -80l-28 115q181 90 375 90q156 0 249 -81.5t93 -221.5q0 -78 -24.5 -145.5t-67 -118.5t-98 -96.5t-118.5 -86 t-126.5 -80.5t-124.5 -87t-111.5 -98.5t-87.5 -121t-51 -149.5h641l-21 -125h-780z" />
<glyph unicode="3" horiz-adv-x="970" d="M0 29l41 121q142 -52 270 -52q105 0 195 43t148.5 131.5t58.5 206.5q0 100 -68.5 159.5t-210.5 59.5h-139v123l469 441h-533v122h699v-122l-471 -441q176 -2 284.5 -85.5t108.5 -235.5q0 -119 -45.5 -219.5t-121 -167t-173 -103.5t-203.5 -37q-163 0 -309 56z" />
<glyph unicode="4" horiz-adv-x="1091" d="M92 328v123l449 933h129l-434 -929h413l80 460l139 21l-84 -481h197l-23 -127h-196l-57 -326l-140 -20l62 346h-535z" />
<glyph unicode="5" horiz-adv-x="1005" d="M-8 33l45 119q157 -54 313 -54q53 0 106 12.5t106.5 43t94 76t66 117.5t25.5 161q0 213 -289 213h-273l140 663h678l-64 -124h-510l-88 -416h156q189 0 289 -81t100 -235q0 -110 -38.5 -210.5t-109 -177t-177 -122t-234.5 -45.5q-181 0 -336 60z" />
<glyph unicode="6" horiz-adv-x="1095" d="M117 422l84 485q19 105 63.5 195.5t112 160t161.5 109t203 39.5q130 0 279 -47l-43 -121q-124 43 -258 43q-157 0 -255 -106t-128 -273l-14 -84q163 82 309 82q159 0 258.5 -94t99.5 -264q0 -106 -37.5 -208.5t-104 -184t-166 -131.5t-214.5 -50q-192 0 -288 127.5 t-62 321.5zM250 420q-15 -85 3 -156.5t78 -118.5t156 -47q106 0 191 63.5t128.5 160.5t43.5 204q0 117 -64 186.5t-180 69.5q-149 0 -307 -82z" />
<glyph unicode="7" horiz-adv-x="954" d="M190 1262l15 122h854l-23 -118q-104 -110 -171 -189.5t-145 -195.5t-130.5 -234t-102 -283t-84.5 -364h-139q39 224 103.5 416t150 345t172.5 269t197 232h-697z" />
<glyph unicode="8" horiz-adv-x="1118" d="M84 281q0 71 21.5 131t53.5 103t84.5 82.5t100.5 65.5t115 56q-97 54 -152 121.5t-55 165.5q0 80 34 153.5t93.5 129t148 89t191.5 33.5q157 0 252.5 -79t95.5 -206q0 -77 -25 -139.5t-73 -109t-100 -79.5t-124 -67q52 -26 90.5 -53t73.5 -64t53.5 -86t18.5 -108 q0 -132 -72 -235.5t-188.5 -157.5t-253.5 -54q-106 0 -192 35.5t-138.5 106.5t-52.5 166zM223 301q0 -94 73 -148.5t191 -54.5q90 0 170 32.5t132.5 100t52.5 156.5q0 33 -9.5 61.5t-31 54t-41.5 44t-57 40.5t-61.5 35t-68.5 35q-65 -27 -108.5 -48.5t-93.5 -54.5t-79 -67 t-49 -82t-20 -104zM391 1028q0 -44 17.5 -79.5t54 -64t71.5 -48.5t91 -45q70 31 118 58t93.5 65t68.5 87t23 109q0 84 -62 130t-170 46q-129 0 -217 -70t-88 -188z" />
<glyph unicode="9" horiz-adv-x="1095" d="M145 20l50 125q139 -47 254 -47q155 0 252.5 106t127.5 273l15 84q-163 -82 -312 -82q-158 0 -257 94t-99 263q0 106 37.5 208.5t103.5 184.5t165.5 132t215.5 50q191 0 286.5 -128t62.5 -320l-84 -486q-19 -105 -63.5 -195.5t-111.5 -160t-160.5 -109t-201.5 -39.5 q-135 0 -281 47zM315 858q0 -117 63 -186.5t179 -69.5q152 0 307 82l49 281q7 48 5.5 94t-19 87t-45.5 72.5t-73.5 49.5t-102.5 18q-105 0 -189.5 -62t-129 -159.5t-44.5 -206.5z" />
<glyph unicode=":" horiz-adv-x="497" d="M109 72q0 39 27.5 65.5t66.5 26.5t66.5 -26.5t27.5 -65.5q0 -38 -28 -66.5t-66 -28.5t-66 28.5t-28 66.5zM231 774q0 38 28 65t67 27q38 0 66 -27t28 -65t-28 -66t-66 -28t-66.5 28t-28.5 66z" />
<glyph unicode=";" horiz-adv-x="520" d="M-23 -293l162 447h148l-213 -465zM229 801q0 38 28 65t67 27q38 0 66 -27t28 -65t-28 -66t-66 -28t-66.5 28t-28.5 66z" />
<glyph unicode="&#x3c;" horiz-adv-x="1026" d="M119 571l641 529l78 -96l-521 -433l521 -430l-78 -98z" />
<glyph unicode="=" horiz-adv-x="1146" d="M156 297v123h839v-123h-839zM156 725v123h839v-123h-839z" />
<glyph unicode="&#x3e;" horiz-adv-x="1026" d="M225 141l520 430l-520 433l78 96l641 -529l-641 -528z" />
<glyph unicode="?" horiz-adv-x="888" d="M268 1309q174 102 318 102q127 0 210 -67t83 -195q0 -60 -18.5 -115.5t-48.5 -99t-66.5 -84.5t-75 -80t-71 -76.5t-57.5 -82t-32 -89.5l-31 -184l-125 41l25 139q12 71 54.5 139.5t94 122t101 106.5t83 114t33.5 124q0 74 -47 116t-135 42q-110 0 -254 -86zM274 72 q0 39 28.5 65.5t68.5 26.5q37 0 64.5 -26.5t27.5 -65.5q0 -38 -27.5 -66.5t-64.5 -28.5q-40 0 -68.5 28.5t-28.5 66.5z" />
<glyph unicode="@" horiz-adv-x="1742" d="M131 375q0 185 59.5 351t165.5 290t264 197t345 73q202 0 357.5 -98.5t237.5 -265t82 -371.5q0 -52 -10 -107h-442l-21 -165q-14 -117 -113 -198t-235 -81q-126 0 -207.5 72t-81.5 178q0 141 97 220t252 79h204l9 61q11 94 -33.5 157.5t-142.5 63.5q-99 0 -232 -36 l-12 100q141 43 258 43q151 0 224 -89.5t54 -238.5l-8 -61h322q0 125 -40 239t-111.5 202t-180 140t-236.5 52q-134 0 -250.5 -46t-200.5 -124.5t-144 -181.5t-89.5 -217.5t-29.5 -231.5q0 -172 66.5 -310.5t199.5 -222.5t311 -84q113 0 234 43t207 109l53 -92 q-114 -81 -228.5 -122.5t-275.5 -41.5q-158 0 -287 55.5t-214 152t-131 226.5t-46 281zM651 264q0 -68 50 -113t133 -45q86 0 148 50.5t71 122.5l20 165h-205q-97 0 -157 -44.5t-60 -135.5z" />
<glyph unicode="A" horiz-adv-x="1181" d="M-18 0l688 1384h155l201 -1384h-137l-53 393h-517l-192 -393h-145zM379 516h440l-69 510q-18 128 -25 215q-11 -25 -31.5 -72t-36 -82.5t-28.5 -60.5z" />
<glyph unicode="B" horiz-adv-x="1126" d="M92 0l244 1384h399q167 0 258.5 -78t91.5 -206q0 -117 -64 -216t-175 -155q93 -39 135.5 -111t42.5 -159q0 -55 -17.5 -114.5t-59.5 -122t-102 -111.5t-155 -80t-209 -31h-389zM252 129h250q179 0 279 87t100 230q0 95 -67 149t-208 54h-264zM365 774h245q148 0 240 80.5 t92 214.5q0 89 -59 137.5t-174 48.5h-258z" />
<glyph unicode="C" horiz-adv-x="1124" d="M141 283q-9 47 -9 101q0 66 13 142l58 332q48 269 213.5 411t394.5 142q101 0 184 -15.5t187 -49.5l-49 -125q-189 61 -342 61q-172 0 -293 -109t-158 -321l-55 -322q-12 -69 -12 -126q-1 -123 55 -196q82 -106 256 -106q156 0 368 62v-129q-218 -62 -393 -62 q-111 0 -197.5 34t-144 103t-76.5 173z" />
<glyph unicode="D" horiz-adv-x="1255" d="M92 0l230 1307q144 51 256.5 77.5t226.5 26.5q94 0 171.5 -33t129.5 -97q53 -63 73 -157q10 -46 10 -98q0 -55 -11 -117l-74 -424q-42 -239 -183 -362t-364 -123h-465zM252 129h328q164 0 260 87.5t129 275.5l71 409q10 55 10 103q0 108 -50 178q-72 100 -220 100 q-128 0 -338 -65z" />
<glyph unicode="E" horiz-adv-x="1048" d="M92 0l244 1384h708l-22 -129h-571l-89 -495h490l-35 -125h-477l-88 -506h590l-23 -129h-727z" />
<glyph unicode="F" horiz-adv-x="1007" d="M92 0l244 1384h706l-22 -129h-569l-89 -495h474l-37 -125h-459l-111 -635h-137z" />
<glyph unicode="G" horiz-adv-x="1208" d="M141 283q-9 47 -9 101q0 66 13 142l58 332q48 269 213.5 411t394.5 142q179 0 365 -63l-48 -123q-171 57 -337 57q-172 0 -293 -109t-158 -319l-55 -324q-12 -65 -12 -121q0 -123 57 -198q82 -109 254 -109q52 0 107.5 7.5t81.5 13t91 20.5l80 465h-153l20 121h287 l-119 -686q-217 -70 -420 -70q-111 0 -197.5 34t-144 103t-76.5 173z" />
<glyph unicode="H" horiz-adv-x="1265" d="M92 0l244 1384h137l-108 -614h630l109 614h137l-244 -1384h-137l113 641h-631l-113 -641h-137z" />
<glyph unicode="I" horiz-adv-x="497" d="M92 0l244 1384h137l-244 -1384h-137z" />
<glyph unicode="J" horiz-adv-x="933" d="M-12 33l37 123q140 -54 266 -54q139 0 222.5 93t109.5 245l165 944l136 -14l-166 -936q-39 -217 -161 -339t-308 -122q-156 0 -301 60z" />
<glyph unicode="K" horiz-adv-x="1161" d="M92 0l244 1384h137l-137 -774l692 774h150l-551 -628l372 -756h-149l-320 645l-235 -266l-66 -379h-137z" />
<glyph unicode="L" horiz-adv-x="1009" d="M92 0l244 1384h137l-221 -1255h602l-37 -129h-725z" />
<glyph unicode="M" horiz-adv-x="1622" d="M23 0l411 1384h168l164 -809q18 -83 27 -178q63 133 88 178l452 809h168l-76 -1384h-135l58 1047q4 99 14 172q-83 -163 -88 -172l-424 -771h-158l-149 771l-31 165q-8 -34 -43 -165l-311 -1047h-135z" />
<glyph unicode="N" horiz-adv-x="1253" d="M92 0l244 1384h106l457 -1118q12 105 29 195l164 923h137l-244 -1384h-117l-454 1102q-8 -76 -27 -199l-158 -903h-137z" />
<glyph unicode="O" horiz-adv-x="1255" d="M141 280q-9 47 -9 101q0 65 13 141l58 336q24 135 81 242t136 174t172.5 102t195.5 35q101 0 182 -34t136.5 -103t73.5 -173q8 -46 9 -100q0 -66 -13 -143l-58 -336q-24 -135 -81 -241.5t-135 -173t-171 -100.5t-194 -34q-102 0 -183.5 33.5t-137.5 102t-75 171.5z M283 528q-12 -68 -12 -125q0 -119 52 -193q77 -108 236 -108q158 0 271.5 108t150.5 318l55 324q12 70 12 128q0 120 -50 194q-74 108 -232 108q-159 0 -274 -109t-152 -321z" />
<glyph unicode="P" horiz-adv-x="1097" d="M92 0l244 1384h436q150 0 238 -91.5t88 -233.5q0 -127 -62 -240.5t-171.5 -183.5t-237.5 -70h-299l-99 -565h-137zM350 694h299q135 0 221 101.5t86 251.5q0 96 -53 152t-153 56h-299z" />
<glyph unicode="Q" horiz-adv-x="1257" d="M141 280q-9 47 -9 101q0 65 13 141l58 336q24 135 81 242t136 174t172.5 102t195.5 35q101 0 182 -34t136.5 -103t73.5 -173q9 -46 9 -100q0 -66 -13 -143l-58 -336q-35 -203 -141.5 -334.5t-255.5 -183.5l51 -256l-131 -84l-59 311q-8 0 -23 -1t-22 -1 q-102 0 -183.5 33.5t-137.5 102t-75 171.5zM283 528q-12 -68 -12 -125q0 -119 52 -193q77 -108 236 -108q158 0 271.5 108t150.5 318l55 324q12 70 12 128q0 121 -50 194q-74 108 -232 108q-159 0 -274 -109t-152 -321z" />
<glyph unicode="R" horiz-adv-x="1107" d="M92 0l244 1384h438q150 0 237 -91t87 -234q0 -166 -100 -297.5t-255 -171.5l170 -590h-145l-158 575h-280l-101 -575h-137zM350 694h301q133 0 220 101.5t87 251.5q0 96 -53.5 152t-152.5 56h-301z" />
<glyph unicode="S" horiz-adv-x="997" d="M20 43l46 127q187 -68 344 -68q59 0 115.5 19t103.5 54.5t75.5 94.5t28.5 131q0 60 -28.5 106.5t-74.5 77.5t-101 58.5t-110 57.5t-101 66t-74.5 92t-28.5 128q0 185 137 304.5t336 119.5q157 0 322 -65l-45 -121q-148 57 -299 57q-135 0 -221.5 -69t-86.5 -193 q0 -49 22.5 -90t59 -68.5t83.5 -55t95.5 -50t95.5 -54t83.5 -65.5t59 -86t22.5 -115q0 -110 -42 -199.5t-112 -146t-157 -87t-181 -30.5q-176 0 -367 70z" />
<glyph unicode="T" horiz-adv-x="1040" d="M203 1255l22 129h899l-22 -129h-381l-221 -1255h-138l222 1255h-381z" />
<glyph unicode="U" horiz-adv-x="1255" d="M158 436l168 948h137l-166 -942q-7 -38 -7 -73q0 -100 55 -171q74 -96 216 -96q140 0 245.5 95.5t131.5 244.5l166 942h137l-166 -948q-36 -202 -190.5 -332.5t-345.5 -130.5q-127 0 -222 58q-95 59 -139 165q-28 70 -28 151q0 43 8 89z" />
<glyph unicode="V" horiz-adv-x="1163" d="M215 1384h139l140 -1026q5 -35 20 -223q78 180 100 223l502 1026h144l-689 -1384h-155z" />
<glyph unicode="W" horiz-adv-x="1673" d="M266 1384h137l-4 -1046q0 -59 -12 -191q14 31 41.5 97.5t40.5 93.5l397 833h170l107 -833q5 -43 14 -191q22 84 60 191l364 1046h137l-493 -1384h-162l-117 866q-9 70 -16 178q-38 -93 -78 -178l-418 -866h-162z" />
<glyph unicode="X" horiz-adv-x="1157" d="M-18 0l559 731l-265 653h146l217 -536l410 536h141l-494 -645l303 -739h-147l-254 623l-473 -623h-143z" />
<glyph unicode="Y" horiz-adv-x="1105" d="M215 1384h141l224 -712l477 712h145l-575 -852l-92 -532h-138l92 532z" />
<glyph unicode="Z" horiz-adv-x="1085" d="M33 0l20 117l881 1138h-670l23 129h839l-20 -110l-885 -1145h721l-41 -129h-868z" />
<glyph unicode="[" horiz-adv-x="555" d="M43 -432l360 2036h322l-23 -127h-190l-315 -1784h190l-22 -125h-322z" />
<glyph unicode="\" horiz-adv-x="737" d="M307 1499h123l88 -1628h-123z" />
<glyph unicode="]" horiz-adv-x="555" d="M-82 -432l23 125h188l315 1784h-190l22 127h322l-360 -2036h-320z" />
<glyph unicode="^" horiz-adv-x="1171" d="M279 911l440 588h139l229 -588l-118 -53l-201 528l-391 -528z" />
<glyph unicode="_" horiz-adv-x="1136" d="M6 -207h1002v-123h-1002v123z" />
<glyph unicode="`" horiz-adv-x="757" d="M301 1348l66 112l344 -166l-49 -88z" />
<glyph unicode="a" horiz-adv-x="1075" d="M116 216q-9 41 -8 88q0 50 9 108l39 225q36 209 163.5 322.5t305.5 113.5q57 0 110 -18t97 -53.5t73.5 -88t40.5 -121.5q5 -29 5 -61q0 -44 -9 -94l-113 -637h-114l10 113q-140 -140 -301 -140q-72 0 -134 26t-109 80.5t-65 136.5zM252 422q-10 -59 -10 -106 q0 -90 36 -140q56 -76 171 -76q80 0 151 44t141 114l66 369q9 51 9 94q0 90 -40 145q-58 82 -172 82q-113 0 -201 -82t-116 -239z" />
<glyph unicode="b" horiz-adv-x="1050" d="M117 410l190 1075l139 41l-102 -584q140 131 291 131q72 0 134 -26t109.5 -79.5t64.5 -135.5q8 -40 8 -88q0 -50 -9 -109l-41 -225q-36 -209 -163.5 -323t-305.5 -114q-72 0 -135.5 29t-110.5 82t-67 138q-11 45 -11 94q0 45 9 94zM252 420q-9 -52 -10 -95q0 -90 40 -145 q58 -82 171.5 -82t201 82t115.5 240l35 205q10 59 10 107q0 90 -36 140q-56 76 -171 76q-125 0 -291 -157z" />
<glyph unicode="c" horiz-adv-x="942" d="M119 432l33 184q80 457 495 457q126 0 275 -47l-39 -121q-122 43 -256 43q-142 0 -227 -84t-117 -262l-29 -156q-11 -63 -11 -115q0 -93 36 -147q56 -86 198 -86q118 0 271 49v-127q-164 -47 -293 -47q-193 -1 -285 115q-64 80 -63 216q0 59 12 128z" />
<glyph unicode="d" horiz-adv-x="1048" d="M117 410l41 225q38 216 166 327t294 111q73 0 140 -25.5t112 -60.5l91 512h133l-193 -1089q-36 -209 -163 -323t-304 -114q-168 0 -260 116q-67 84 -67 215q0 50 10 106zM252 420q-9 -51 -9 -94q-1 -90 39 -146q58 -82 172.5 -82t201 82t114.5 240l76 436 q-124 92 -240 92q-118 0 -202.5 -76.5t-114.5 -246.5z" />
<glyph unicode="e" horiz-adv-x="993" d="M117 418l41 231q34 198 159 311t287 113q132 0 220.5 -72.5t88.5 -193.5q0 -61 -25.5 -111.5t-64 -84t-98.5 -60t-113.5 -40.5t-126.5 -24.5t-119 -14.5t-108 -7l-8 -47q-10 -55 -10 -101q0 -83 32 -136q50 -83 203 -83q119 0 273 52l10 -127q-56 -17 -91.5 -26 t-91.5 -16.5t-116 -7.5q-189 0 -283 117q-68 85 -69 219q0 51 10 109zM276 573q48 2 94 6t107 13.5t110.5 26t94 39.5t69.5 58t25 79q0 75 -48.5 114t-139.5 39q-108 0 -188 -77t-107 -214z" />
<glyph unicode="f" horiz-adv-x="606" d="M20 -432l242 1370h-141l20 109h140l32 184q25 141 124 218t225 77q70 0 129 -19l-39 -123q-53 17 -105 17q-71 0 -129 -43.5t-72 -128.5l-32 -182h276l-61 -109h-234l-241 -1370h-134z" />
<glyph unicode="g" horiz-adv-x="1046" d="M98 -412l31 125q111 -47 227 -47q75 0 135 25.5t99 70t63 98t35 117.5l27 146q-131 -123 -291 -123q-72 0 -134 26t-109.5 79.5t-64.5 136.5q-8 40 -8 87q0 50 9 109l35 199q36 209 163.5 322.5t305.5 113.5q57 0 110 -18t97 -53.5t73.5 -88t40.5 -121.5q5 -29 5 -61 q0 -44 -9 -94l-121 -684q-33 -189 -157.5 -300.5t-321.5 -111.5q-126 0 -240 47zM245 296q7 -62 37.5 -100t71.5 -54.5t95 -16.5q136 0 292 156l62 346q9 51 9 94q0 90 -40 145q-58 82 -172 82q-113 0 -201 -81.5t-116 -239.5l-31 -178q-9 -61 -9 -108q0 -24 2 -45z" />
<glyph unicode="h" horiz-adv-x="1083" d="M72 0l264 1499h133l-98 -557q140 131 291 131q73 0 131 -23t103 -74q46 -52 58 -136q5 -34 4 -75q0 -59 -10 -130l-112 -635h-134l111 625q12 68 12 121q0 82 -29 127q-48 75 -161 75q-125 0 -291 -157l-139 -791h-133z" />
<glyph unicode="i" horiz-adv-x="473" d="M82 0l184 1047h133l-184 -1047h-133zM285 1339q0 39 28.5 67t67.5 28q40 0 69 -28.5t29 -66.5t-29 -67t-69 -29q-39 0 -67.5 28.5t-28.5 67.5z" />
<glyph unicode="j" horiz-adv-x="471" d="M0 -449l264 1496h133l-258 -1455zM285 1339q0 39 28.5 67t67.5 28q40 0 69 -28.5t29 -66.5t-29 -67t-69 -29q-39 0 -67.5 28.5t-28.5 67.5z" />
<glyph unicode="k" horiz-adv-x="946" d="M82 0l264 1499h133l-166 -932l244 84q52 19 82 49t55 88l115 259h133l-125 -275q-42 -93 -84.5 -145.5t-118.5 -79.5l183 -547h-140l-168 504l-198 -72l-76 -432h-133z" />
<glyph unicode="l" horiz-adv-x="473" d="M82 0l260 1485l141 41l-268 -1526h-133z" />
<glyph unicode="m" horiz-adv-x="1638" d="M72 0l116 668q34 194 155.5 299.5t277.5 105.5q103 0 169 -60t87 -167q59 107 147 167t190 60q159 0 242 -105q59 -74 59 -194q0 -49 -10 -106l-116 -668h-134l113 647q9 51 9 94q0 80 -32 130q-49 77 -155 77q-104 0 -182 -87.5t-105 -248.5l-106 -612h-133l106 612 q10 59 10 109q0 85 -30 139q-48 88 -152 88q-106 0 -180.5 -77t-100.5 -224l-112 -647h-133z" />
<glyph unicode="n" horiz-adv-x="1083" d="M72 0l114 657q35 199 158 307.5t299 108.5q73 0 136 -27.5t107.5 -78.5t62.5 -131q9 -41 9 -88q0 -43 -8 -91l-114 -657h-134l113 647q8 45 8 84q0 85 -38 139q-55 78 -164 78q-113 0 -195 -77.5t-107 -223.5l-114 -647h-133z" />
<glyph unicode="o" horiz-adv-x="1069" d="M116 228q-8 40 -7 88q0 55 10 118l33 180q82 459 483 459q82 0 148.5 -27t114.5 -84q50 -56 66 -143q8 -40 7 -88q0 -55 -10 -119l-31 -178q-40 -232 -166 -346.5t-322 -114.5q-81 0 -147 27.5t-114.5 84t-64.5 143.5zM254 444q-11 -62 -10 -114q0 -232 219 -232 q125 0 213.5 81t120.5 265l28 158q11 64 11 116q0 230 -224 230q-267 0 -329 -346z" />
<glyph unicode="p" horiz-adv-x="1075" d="M-6 -432l188 1069q36 209 162 322.5t303 113.5q167 0 261 -115q68 -85 68 -216q0 -49 -9 -105l-39 -225q-19 -110 -65 -196t-109.5 -138t-137 -78.5t-153.5 -26.5q-72 0 -139 25t-111 59l-86 -489h-133zM238 193q123 -95 237 -95q118 0 204 77t116 247l36 205q9 51 9 94 q0 90 -40 145q-59 82 -173 82q-113 0 -199.5 -81.5t-114.5 -239.5z" />
<glyph unicode="q" horiz-adv-x="1079" d="M116 216q-8 40 -8 88q0 50 9 108l39 225q36 209 163.5 322.5t305.5 113.5q57 0 110 -18t97 -53.5t73.5 -88t40.5 -121.5q5 -29 5 -61q0 -44 -9 -94l-180 -1026l-141 -41l94 534q-140 -131 -291 -131q-72 0 -134 26t-109 80t-65 137zM245 269q7 -62 37.5 -100t71.5 -54.5 t95 -16.5q134 0 292 158l66 371q9 51 9 94q0 90 -40 145q-58 82 -172 82q-113 0 -200 -81.5t-115 -239.5l-37 -205q-9 -61 -9 -108q0 -24 2 -45z" />
<glyph unicode="r" horiz-adv-x="684" d="M72 0l121 690q31 175 151 279t293 104q52 0 102 -12l-32 -123q-52 10 -91 10q-109 0 -189.5 -71t-100.5 -187l-121 -690h-133z" />
<glyph unicode="s" horiz-adv-x="825" d="M14 23l35 122q158 -47 254 -47q107 0 178.5 58.5t71.5 146.5q0 55 -41.5 94.5t-100.5 66t-118.5 56t-101 82.5t-41.5 129q0 145 105.5 243.5t272.5 98.5q129 0 256 -45l-41 -121q-112 39 -233 39q-99 0 -160 -52t-61 -132q0 -39 22 -70.5t58 -54.5t79 -44t85.5 -45 t78.5 -52t58 -70.5t22 -95.5q0 -67 -23 -128.5t-69 -114t-125 -83.5t-182 -31q-150 0 -279 50z" />
<glyph unicode="t" horiz-adv-x="587" d="M113 0l166 938h-136l-24 109h178l55 307l140 39l-62 -346h219l-20 -109h-217l-166 -938h-133z" />
<glyph unicode="u" horiz-adv-x="1085" d="M133 389l117 658h133l-115 -648q-8 -46 -7 -85q1 -84 37 -138q54 -78 165 -78t194.5 78t108.5 223l115 648h133l-117 -658q-35 -199 -157.5 -307.5t-297.5 -108.5q-166 0 -254 110q-64 79 -64 204q0 48 9 102z" />
<glyph unicode="v" horiz-adv-x="978" d="M156 1047h135l112 -736q7 -58 19 -176q43 101 80 176l372 736h142l-539 -1047h-153z" />
<glyph unicode="w" horiz-adv-x="1552" d="M121 346l78 701h133l-80 -693q-3 -26 -2 -49q0 -82 32 -136q42 -69 136 -69t165 71.5t91 186.5l108 611h131l-108 -611q-6 -35 -6 -66q0 -70 32 -120q46 -72 140 -72q92 0 160.5 69.5t95.5 184.5l168 693h133l-174 -703q-43 -172 -151.5 -271.5t-254.5 -99.5 q-84 0 -149 40.5t-101 113.5q-59 -72 -139 -113t-164 -41q-143 0 -217 101q-60 82 -60 210q0 30 3 62z" />
<glyph unicode="x" horiz-adv-x="970" d="M-29 0l443 539l-232 508h146l180 -400l328 400h141l-408 -500l252 -547h-145l-203 440l-358 -440h-144z" />
<glyph unicode="y" horiz-adv-x="962" d="M127 360l29 687h135l-29 -668q-1 -14 -1 -27q0 -103 36 -160q40 -65 143 -65h129l275 920h135l-447 -1479h-133l133 432h-114q-292 0 -292 325q0 17 1 35z" />
<glyph unicode="z" horiz-adv-x="935" d="M33 0l20 123l666 801h-512l22 123h662l-23 -123l-667 -801h544l-40 -123h-672z" />
<glyph unicode="{" horiz-adv-x="774" d="M131 524l23 127q125 0 195.5 58t96.5 209l54 296q34 193 162.5 291.5t314.5 98.5l-23 -127q-62 0 -111.5 -12.5t-94 -41.5t-75 -83.5t-44.5 -131.5l-54 -290q-42 -231 -213 -332q141 -100 99 -330l-53 -295q-13 -63 -5 -109t25.5 -76.5t51 -49t72 -26t87.5 -7.5l-23 -125 q-185 0 -278 96.5t-59 290.5l53 301q25 147 -26 207.5t-175 60.5z" />
<glyph unicode="|" horiz-adv-x="501" d="M242 -410v1909h133v-1909h-133z" />
<glyph unicode="}" horiz-adv-x="794" d="M-117 -432l23 125q61 0 110.5 12.5t93.5 42t74 83t43 130.5l54 295q21 116 77 199.5t138 130.5q-67 49 -94.5 133t-6.5 199l54 290q14 63 6 109.5t-25.5 77t-51.5 49t-72 26t-87 7.5l23 127q184 0 278 -98.5t60 -291.5l-54 -296q-11 -79 -6 -130.5t35 -82t70.5 -42.5 t101.5 -12l-22 -127q-123 0 -195.5 -60.5t-97.5 -207.5l-54 -301q-34 -193 -163 -290t-312 -97z" />
<glyph unicode="~" horiz-adv-x="1171" d="M223 582q44 53 110.5 97t137.5 44q53 0 101 -25.5t78.5 -55.5t68.5 -55.5t72 -25.5q31 0 61 15.5t47.5 31t44.5 43.5l74 -76q-126 -141 -250 -141q-44 0 -83 16.5t-67.5 40.5t-55 48t-55.5 40.5t-58 16.5q-31 0 -61.5 -15t-48 -31t-44.5 -44z" />
<glyph unicode="&#xa1;" horiz-adv-x="479" d="M76 -219l188 962h121l-147 -921zM293 1106q0 38 27.5 66t64.5 28q40 0 68 -28t28 -66q0 -39 -28 -65.5t-68 -26.5q-37 0 -64.5 26.5t-27.5 65.5z" />
<glyph unicode="&#xa2;" horiz-adv-x="956" d="M117 432l33 184q75 424 438 455l39 229h127l-41 -231q84 -6 207 -43l-43 -123q-146 43 -252 43q-142 0 -227 -83.5t-117 -260.5l-29 -156q-31 -176 25 -261t198 -85q82 0 270 47v-127q-125 -34 -225 -43l-39 -231h-127l39 231q-164 18 -238.5 131.5t-37.5 323.5z" />
<glyph unicode="&#xa3;" horiz-adv-x="958" d="M47 0l21 121q195 217 215 442h-150l21 117h131q-1 22 -8 100.5t-7 122.5q0 123 34 221t94 160t139 94.5t172 32.5q150 0 278 -57l-39 -119q-107 47 -229 47q-156 0 -232.5 -109t-76.5 -292q0 -39 4.5 -107.5t5.5 -93.5h377l-21 -117h-356q-21 -236 -201 -436h567 l-20 -127h-719z" />
<glyph unicode="&#xa4;" horiz-adv-x="1134" d="M190 262l115 115q-57 85 -57 194q0 107 59 195l-117 119l91 90l116 -119q88 59 195 59q104 0 192 -59l119 119l90 -90l-119 -119q62 -87 62 -195q0 -106 -59 -194l116 -115l-90 -90l-117 115q-89 -60 -194 -60q-108 0 -197 60l-114 -115zM369 571q0 -92 65.5 -157.5 t157.5 -65.5t157.5 65.5t65.5 157.5t-65.5 158t-157.5 66t-157.5 -66t-65.5 -158z" />
<glyph unicode="&#xa5;" horiz-adv-x="1052" d="M129 246l21 116h280l25 148h-281l21 117h231l-238 757h142l221 -710l473 710h135l-506 -757h256l-20 -117h-301l-25 -148h301l-20 -116h-301l-43 -246h-133l43 246h-281z" />
<glyph unicode="&#xa6;" horiz-adv-x="501" d="M242 283h133v-693h-133v693zM242 793v706h133v-706h-133z" />
<glyph unicode="&#xa7;" horiz-adv-x="1181" d="M78 -188l35 127q159 -62 309 -62q74 0 135.5 25.5t103 84t41.5 142.5q0 53 -25 93.5t-65 66t-88.5 47.5t-97 46.5t-88.5 54.5t-65 79t-25 113q0 97 42 177t116 134q-11 42 -11 80q0 171 120.5 281t301.5 110q145 0 285 -61l-49 -123q-132 55 -252 55q-119 0 -189.5 -61 t-70.5 -168q0 -43 19.5 -77.5t51.5 -56.5t73 -43.5t84 -39t84 -44t73 -56.5t51.5 -78.5t19.5 -108.5q0 -198 -159 -320q8 -27 8 -69q0 -126 -62 -221.5t-160.5 -143t-215.5 -47.5q-165 0 -330 64zM391 664q0 -52 27.5 -91t73.5 -64.5t95.5 -47t104 -53t88.5 -68.5 q72 69 72 178q0 56 -26 97t-71 68t-92.5 48t-102.5 49.5t-89 59.5q-80 -64 -80 -176z" />
<glyph unicode="&#xa8;" horiz-adv-x="911" d="M322 1346q0 40 28 68t66 28t66 -28t28 -68q0 -37 -28 -65t-66 -28t-66 28t-28 65zM694 1346q0 39 28.5 67.5t65.5 28.5q40 0 68.5 -28t28.5 -68q0 -37 -29 -65t-68 -28q-37 0 -65.5 28t-28.5 65z" />
<glyph unicode="&#xa9;" horiz-adv-x="1564" d="M164 662q0 143 43.5 268t123.5 218t201 146.5t269 53.5q150 0 272.5 -53.5t202.5 -146.5t123 -218t43 -268q0 -144 -43 -269t-123 -219t-202.5 -147.5t-272.5 -53.5q-196 0 -342.5 93t-220.5 248t-74 348zM279 662q0 -163 59.5 -292t179.5 -206.5t283 -77.5 q165 0 286 77.5t180.5 206.5t59.5 292q0 162 -59.5 290t-180.5 205.5t-286 77.5q-163 0 -283 -77.5t-179.5 -205.5t-59.5 -290zM526 559v201q0 123 77 195.5t192 72.5q99 0 204 -31l-18 -88q-103 27 -184 27q-77 0 -123.5 -52.5t-46.5 -135.5v-183q0 -80 46.5 -130 t123.5 -50q83 0 184 29l18 -90q-105 -31 -204 -31q-115 0 -192 71.5t-77 194.5z" />
<glyph unicode="&#xaa;" horiz-adv-x="765" d="M178 920l27 157q26 147 116.5 227t219.5 80q52 0 97.5 -20t79.5 -57.5t48.5 -97t1.5 -132.5l-80 -446h-96l6 76q-95 -95 -205 -95q-108 0 -174.5 80t-40.5 228zM291 928q-19 -111 17 -161t110 -50q88 0 192 104l43 250q18 103 -19.5 156t-111.5 53q-73 0 -130.5 -53.5 t-76.5 -155.5z" />
<glyph unicode="&#xab;" horiz-adv-x="970" d="M178 571l336 342l78 -77l-268 -273l165 -266l-96 -66zM489 571l336 342l78 -77l-268 -273l166 -266l-96 -66z" />
<glyph unicode="&#xac;" horiz-adv-x="1146" d="M166 510v125h840v-504h-125v379h-715z" />
<glyph unicode="&#xad;" horiz-adv-x="991" d="M203 508l22 125h613l-23 -125h-612z" />
<glyph unicode="&#xae;" horiz-adv-x="1564" d="M164 662q0 143 43.5 268t123.5 218t201 146.5t269 53.5q150 0 272.5 -53.5t202.5 -146.5t123 -218t43 -268q0 -144 -43 -269t-123 -219t-202.5 -147.5t-272.5 -53.5q-196 0 -342.5 93t-220.5 248t-74 348zM279 662q0 -163 59.5 -292t179.5 -206.5t283 -77.5 q165 0 286 77.5t180.5 206.5t59.5 292q0 162 -59.5 290t-180.5 205.5t-286 77.5q-163 0 -283 -77.5t-179.5 -205.5t-59.5 -290zM586 303v717h227q103 0 163 -63t60 -152q0 -62 -34 -119.5t-103 -83.5l145 -299h-104l-137 285h-117v-285h-100zM686 678h127q59 0 91 36t32 91 q0 54 -31.5 88.5t-91.5 34.5h-127v-250z" />
<glyph unicode="&#xaf;" horiz-adv-x="876" d="M356 1286l23 127h508l-23 -127h-508z" />
<glyph unicode="&#xb0;" horiz-adv-x="811" d="M297 1274q0 100 74 174t178 74q101 0 176.5 -75.5t75.5 -176.5q0 -105 -75 -178.5t-177 -73.5q-105 0 -178.5 74.5t-73.5 181.5zM418 1272q0 -56 39 -94.5t94 -38.5q54 0 91.5 38.5t37.5 94.5q0 54 -38 91.5t-93 37.5q-54 0 -92.5 -37.5t-38.5 -91.5z" />
<glyph unicode="&#xb1;" horiz-adv-x="1089" d="M180 10h783v-119h-783v119zM180 508v125h330v325h123v-325h330v-125h-330v-326h-123v326h-330z" />
<glyph unicode="&#xb4;" horiz-adv-x="774" d="M307 1309l393 157l29 -127l-399 -133z" />
<glyph unicode="&#xb5;" horiz-adv-x="1089" d="M-6 -432l262 1479h131l-115 -648q-25 -146 29.5 -223.5t167.5 -77.5q110 0 193 78t108 223l115 648h133l-117 -658q-35 -199 -156 -307.5t-296 -108.5q-153 0 -238 88l-86 -493h-131z" />
<glyph unicode="&#xb6;" horiz-adv-x="1191" d="M215 926q0 181 127.5 318.5t294.5 137.5h557l-289 -1628h-129l266 1503h-208l-267 -1503h-129l154 867h-90q-130 0 -208.5 86t-78.5 219z" />
<glyph unicode="&#xb7;" horiz-adv-x="567" d="M207 569q0 41 28.5 70t65.5 29q41 0 69.5 -29t28.5 -70q0 -37 -28.5 -64.5t-69.5 -27.5q-37 0 -65.5 27.5t-28.5 64.5z" />
<glyph unicode="&#xb8;" horiz-adv-x="694" d="M-59 -420l28 117q42 -10 88 -10q60 0 92 27.5t41 84.5l37 201h125l-39 -215q-10 -60 -37.5 -103.5t-65.5 -67.5t-79 -35t-86 -11q-46 0 -104 12z" />
<glyph unicode="&#xba;" horiz-adv-x="776" d="M178 936l23 127q29 161 117 241t227 80q123 0 190 -82.5t41 -240.5l-20 -125q-29 -162 -117.5 -243t-228.5 -81q-122 0 -191 84t-41 240zM293 944q-42 -227 133 -227t217 227l21 109q44 227 -138 227q-81 0 -135 -52.5t-78 -174.5z" />
<glyph unicode="&#xbb;" horiz-adv-x="970" d="M152 309l268 273l-166 266l96 65l215 -340l-336 -342zM463 309l268 273l-166 266l97 65l215 -340l-336 -342z" />
<glyph unicode="&#xbf;" horiz-adv-x="892" d="M119 25q0 82 34.5 155.5t85 129t102.5 107.5t94 112.5t52 121.5l31 185l125 -41l-25 -140q-12 -71 -54.5 -139.5t-94 -122t-101 -106.5t-83 -114t-33.5 -124q0 -74 47 -116t135 -42q110 0 254 86l41 -112q-176 -103 -317 -103q-127 0 -210 67.5t-83 195.5zM535 1102 q0 38 27.5 66t64.5 28q40 0 68 -28t28 -66q0 -39 -28 -65.5t-68 -26.5q-37 0 -64.5 26.5t-27.5 65.5z" />
<glyph unicode="&#xc0;" horiz-adv-x="1181" d="M-18 0l688 1384h155l201 -1384h-137l-53 393h-517l-192 -393h-145zM379 516h440l-69 510q-18 128 -25 215q-11 -25 -31.5 -72t-36 -82.5t-28.5 -60.5zM563 1655l66 112l344 -165l-49 -89z" />
<glyph unicode="&#xc1;" horiz-adv-x="1181" d="M-18 0l688 1384h155l201 -1384h-137l-53 393h-517l-192 -393h-145zM379 516h440l-69 510q-18 128 -25 215q-11 -25 -31.5 -72t-36 -82.5t-28.5 -60.5zM553 1616l393 158l29 -127l-400 -134z" />
<glyph unicode="&#xc2;" horiz-adv-x="1181" d="M-18 0l688 1384h155l201 -1384h-137l-53 393h-517l-192 -393h-145zM379 516h440l-69 510q-18 128 -25 215q-11 -25 -31.5 -72t-36 -82.5t-28.5 -60.5zM518 1620l289 162l233 -162l-84 -107l-172 140l-225 -140z" />
<glyph unicode="&#xc3;" horiz-adv-x="1181" d="M-18 0l688 1384h155l201 -1384h-137l-53 393h-517l-192 -393h-145zM379 516h440l-69 510q-18 128 -25 215q-11 -25 -31.5 -72t-36 -82.5t-28.5 -60.5zM504 1649q24 39 72.5 75.5t107.5 36.5q36 0 69.5 -15.5t54.5 -34.5t47 -34.5t48 -15.5q28 0 56.5 18.5t46.5 40.5 l53 -67q-24 -39 -71.5 -76t-104.5 -37q-37 0 -71 15.5t-55 33.5t-47 33.5t-48 15.5q-55 0 -105 -57z" />
<glyph unicode="&#xc4;" horiz-adv-x="1181" d="M-18 0l688 1384h155l201 -1384h-137l-53 393h-517l-192 -393h-145zM379 516h440l-69 510q-18 128 -25 215q-11 -25 -31.5 -72t-36 -82.5t-28.5 -60.5zM487 1653q0 39 28.5 67.5t66.5 28.5t66 -28t28 -68q0 -37 -28 -64.5t-66 -27.5t-66.5 27.5t-28.5 64.5zM860 1653 q0 39 28.5 67.5t65.5 28.5q40 0 68.5 -28t28.5 -68q0 -37 -28.5 -64.5t-68.5 -27.5q-37 0 -65.5 27.5t-28.5 64.5z" />
<glyph unicode="&#xc5;" horiz-adv-x="1181" d="M-18 0l688 1384h155l201 -1384h-137l-53 393h-517l-192 -393h-145zM379 516h440l-69 510q-18 128 -25 215q-11 -25 -31.5 -72t-36 -82.5t-28.5 -60.5zM604 1690q0 71 52.5 122.5t125.5 51.5q70 0 122 -52t52 -122q0 -72 -51.5 -124.5t-122.5 -52.5q-73 0 -125.5 52.5 t-52.5 124.5zM711 1690q0 -30 20.5 -52t50.5 -22q29 0 50.5 22.5t21.5 51.5q0 30 -21 51.5t-51 21.5q-31 0 -51 -21t-20 -52z" />
<glyph unicode="&#xc6;" horiz-adv-x="1816" d="M-18 0l1060 1384h717l-16 -129h-545l-53 -495h491l-53 -125h-455l-51 -506h563l-14 -129h-700l43 393h-525l-294 -393h-168zM537 516h444l76 688z" />
<glyph unicode="&#xc7;" horiz-adv-x="1124" d="M145 526l58 332q48 269 213.5 411t394.5 142q101 0 184 -15.5t187 -49.5l-49 -125q-189 61 -342 61q-172 0 -293 -109t-158 -321l-55 -322q-38 -216 43.5 -322t255.5 -106q156 0 368 62v-129q-187 -53 -329 -60l-33 -190q-10 -60 -37.5 -103.5t-65.5 -67.5t-79 -35 t-86 -11q-47 0 -105 12l29 117q42 -10 88 -10q60 0 92 27.5t41 84.5l33 178q-202 18 -300.5 158t-54.5 391z" />
<glyph unicode="&#xc8;" horiz-adv-x="1048" d="M92 0l244 1384h708l-22 -129h-571l-89 -495h490l-35 -125h-477l-88 -506h590l-23 -129h-727zM504 1655l65 112l344 -165l-49 -89z" />
<glyph unicode="&#xc9;" horiz-adv-x="1048" d="M92 0l244 1384h708l-22 -129h-571l-89 -495h490l-35 -125h-477l-88 -506h590l-23 -129h-727zM510 1616l393 158l29 -127l-400 -134z" />
<glyph unicode="&#xca;" horiz-adv-x="1048" d="M92 0l244 1384h708l-22 -129h-571l-89 -495h490l-35 -125h-477l-88 -506h590l-23 -129h-727zM463 1620l289 162l233 -162l-84 -107l-172 140l-225 -140z" />
<glyph unicode="&#xcb;" horiz-adv-x="1048" d="M92 0l244 1384h708l-22 -129h-571l-89 -495h490l-35 -125h-477l-88 -506h590l-23 -129h-727zM434 1653q0 40 28 68t66 28t66.5 -28.5t28.5 -67.5q0 -37 -28.5 -64.5t-66.5 -27.5t-66 27.5t-28 64.5zM807 1653q0 39 28.5 67.5t65.5 28.5q40 0 68 -28t28 -68 q0 -37 -28.5 -64.5t-67.5 -27.5q-37 0 -65.5 27.5t-28.5 64.5z" />
<glyph unicode="&#xcc;" horiz-adv-x="497" d="M92 0l244 1384h137l-244 -1384h-137zM236 1655l65 112l344 -165l-49 -89z" />
<glyph unicode="&#xcd;" horiz-adv-x="497" d="M92 0l244 1384h137l-244 -1384h-137zM207 1616l393 158l29 -127l-400 -134z" />
<glyph unicode="&#xce;" horiz-adv-x="497" d="M92 0l244 1384h137l-244 -1384h-137zM180 1620l289 162l233 -162l-84 -107l-172 140l-225 -140z" />
<glyph unicode="&#xcf;" horiz-adv-x="497" d="M92 0l244 1384h137l-244 -1384h-137zM152 1653q0 40 28 68t66 28t66 -28t28 -68q0 -37 -28 -64.5t-66 -27.5t-66 27.5t-28 64.5zM524 1653q0 39 28.5 67.5t65.5 28.5q40 0 68.5 -28t28.5 -68q0 -37 -28.5 -64.5t-68.5 -27.5q-37 0 -65.5 27.5t-28.5 64.5z" />
<glyph unicode="&#xd0;" horiz-adv-x="1253" d="M80 649l20 107h123l99 551q144 51 256.5 77.5t226.5 26.5q94 0 171.5 -33t130 -97t72.5 -157.5t-1 -214.5l-76 -424q-42 -240 -182 -362.5t-363 -122.5h-465l113 649h-125zM252 129h328q164 0 260 87.5t129 275.5l71 409q32 180 -40 280.5t-220 100.5q-128 0 -338 -65 l-82 -461h324l-20 -107h-322z" />
<glyph unicode="&#xd1;" horiz-adv-x="1253" d="M92 0l244 1384h106l457 -1118q12 105 29 195l164 923h137l-244 -1384h-117l-454 1102q-8 -76 -27 -199l-158 -903h-137zM532 1649q24 39 72.5 75.5t108.5 36.5q36 0 69.5 -15.5t54.5 -34.5t47 -34.5t48 -15.5q28 0 56 18t46 41l53 -67q-24 -39 -71.5 -76t-104.5 -37 q-37 0 -71 15.5t-55 33.5t-47 33.5t-48 15.5q-54 0 -104 -57z" />
<glyph unicode="&#xd2;" horiz-adv-x="1255" d="M141 280q-19 103 4 242l58 336q24 135 81 242t136 174t172.5 102t195.5 35q101 0 182 -34t136.5 -103t74 -173t-4.5 -243l-58 -336q-24 -135 -81 -241.5t-135 -173t-171 -100.5t-194 -34q-102 0 -183.5 33.5t-137.5 102t-75 171.5zM283 528q-37 -209 40 -317.5 t236 -108.5q158 0 271.5 108t150.5 318l55 324q36 213 -38 321.5t-232 108.5q-159 0 -274 -109t-152 -321zM629 1655l65 112l344 -165l-49 -89z" />
<glyph unicode="&#xd3;" horiz-adv-x="1255" d="M141 280q-19 103 4 242l58 336q24 135 81 242t136 174t172.5 102t195.5 35q101 0 182 -34t136.5 -103t74 -173t-4.5 -243l-58 -336q-24 -135 -81 -241.5t-135 -173t-171 -100.5t-194 -34q-102 0 -183.5 33.5t-137.5 102t-75 171.5zM283 528q-37 -209 40 -317.5 t236 -108.5q158 0 271.5 108t150.5 318l55 324q36 213 -38 321.5t-232 108.5q-159 0 -274 -109t-152 -321zM586 1616l393 158l29 -127l-400 -134z" />
<glyph unicode="&#xd4;" horiz-adv-x="1255" d="M141 280q-19 103 4 242l58 336q24 135 81 242t136 174t172.5 102t195.5 35q101 0 182 -34t136.5 -103t74 -173t-4.5 -243l-58 -336q-24 -135 -81 -241.5t-135 -173t-171 -100.5t-194 -34q-102 0 -183.5 33.5t-137.5 102t-75 171.5zM283 528q-37 -209 40 -317.5 t236 -108.5q158 0 271.5 108t150.5 318l55 324q36 213 -38 321.5t-232 108.5q-159 0 -274 -109t-152 -321zM563 1620l289 162l233 -162l-84 -107l-172 140l-225 -140z" />
<glyph unicode="&#xd5;" horiz-adv-x="1255" d="M141 280q-19 103 4 242l58 336q24 135 81 242t136 174t172.5 102t195.5 35q101 0 182 -34t136.5 -103t74 -173t-4.5 -243l-58 -336q-24 -135 -81 -241.5t-135 -173t-171 -100.5t-194 -34q-102 0 -183.5 33.5t-137.5 102t-75 171.5zM283 528q-37 -209 40 -317.5 t236 -108.5q158 0 271.5 108t150.5 318l55 324q36 213 -38 321.5t-232 108.5q-159 0 -274 -109t-152 -321zM563 1649q24 39 72.5 75.5t107.5 36.5q36 0 69.5 -15.5t55 -34.5t47.5 -34.5t48 -15.5q28 0 56 18t46 41l53 -67q-24 -39 -71.5 -76t-104.5 -37q-37 0 -71 15.5 t-55 33.5t-47 33.5t-48 15.5q-55 0 -105 -57z" />
<glyph unicode="&#xd6;" horiz-adv-x="1255" d="M141 280q-19 103 4 242l58 336q24 135 81 242t136 174t172.5 102t195.5 35q101 0 182 -34t136.5 -103t74 -173t-4.5 -243l-58 -336q-24 -135 -81 -241.5t-135 -173t-171 -100.5t-194 -34q-102 0 -183.5 33.5t-137.5 102t-75 171.5zM283 528q-37 -209 40 -317.5 t236 -108.5q158 0 271.5 108t150.5 318l55 324q36 213 -38 321.5t-232 108.5q-159 0 -274 -109t-152 -321zM547 1653q0 40 28 68t66 28t66 -28t28 -68q0 -37 -28 -64.5t-66 -27.5t-66 27.5t-28 64.5zM920 1653q0 39 28.5 67.5t65.5 28.5q40 0 68 -28t28 -68 q0 -37 -28.5 -64.5t-67.5 -27.5q-37 0 -65.5 27.5t-28.5 64.5z" />
<glyph unicode="&#xd7;" horiz-adv-x="991" d="M190 317l256 254l-253 256l86 86l253 -256l254 258l88 -88l-256 -256l254 -254l-86 -86l-254 254l-253 -256z" />
<glyph unicode="&#xd8;" horiz-adv-x="1255" d="M78 -51l123 180q-100 148 -56 393l58 336q24 135 81 242t136 174t172.5 102t195.5 35q138 0 238 -65l96 143l99 -53l-113 -166q115 -151 68 -412l-58 -336q-24 -135 -81 -241.5t-135 -173t-171 -100.5t-194 -34q-149 0 -256 72l-101 -149zM281 528q-29 -161 12 -262 l653 963q-71 53 -180 53q-160 0 -277.5 -109.5t-152.5 -320.5zM362 166q73 -64 197 -64q158 0 271.5 108t150.5 318l55 324q30 179 -18 283z" />
<glyph unicode="&#xd9;" horiz-adv-x="1255" d="M158 436l168 948h137l-166 -942q-26 -148 48 -244t216 -96q140 0 245.5 95.5t131.5 244.5l166 942h137l-166 -948q-36 -202 -190.5 -332.5t-345.5 -130.5q-127 0 -222 58t-138.5 164.5t-20.5 240.5zM625 1655l65 112l344 -165l-49 -89z" />
<glyph unicode="&#xda;" horiz-adv-x="1255" d="M158 436l168 948h137l-166 -942q-26 -148 48 -244t216 -96q140 0 245.5 95.5t131.5 244.5l166 942h137l-166 -948q-36 -202 -190.5 -332.5t-345.5 -130.5q-127 0 -222 58t-138.5 164.5t-20.5 240.5zM608 1616l393 158l29 -127l-399 -134z" />
<glyph unicode="&#xdb;" horiz-adv-x="1255" d="M158 436l168 948h137l-166 -942q-26 -148 48 -244t216 -96q140 0 245.5 95.5t131.5 244.5l166 942h137l-166 -948q-36 -202 -190.5 -332.5t-345.5 -130.5q-127 0 -222 58t-138.5 164.5t-20.5 240.5zM553 1620l289 162l233 -162l-84 -107l-172 140l-225 -140z" />
<glyph unicode="&#xdc;" horiz-adv-x="1255" d="M158 436l168 948h137l-166 -942q-26 -148 48 -244t216 -96q140 0 245.5 95.5t131.5 244.5l166 942h137l-166 -948q-36 -202 -190.5 -332.5t-345.5 -130.5q-127 0 -222 58t-138.5 164.5t-20.5 240.5zM535 1653q0 40 28 68t66 28t66 -28t28 -68q0 -37 -28 -64.5t-66 -27.5 t-66 27.5t-28 64.5zM907 1653q0 39 28.5 67.5t65.5 28.5q40 0 68.5 -28t28.5 -68q0 -37 -28.5 -64.5t-68.5 -27.5q-37 0 -65.5 27.5t-28.5 64.5z" />
<glyph unicode="&#xdd;" horiz-adv-x="1105" d="M215 1384h141l224 -712l477 712h145l-575 -852l-92 -532h-138l92 532zM522 1616l393 158l29 -127l-399 -134z" />
<glyph unicode="&#xde;" horiz-adv-x="1097" d="M92 0l244 1384h141l-49 -272h295q150 0 238 -92t88 -234q0 -127 -62 -241t-171.5 -184t-237.5 -70h-295l-52 -291h-139zM305 424h295q133 0 219 100t86 248q0 96 -53 152.5t-152 56.5h-294z" />
<glyph unicode="&#xdf;" horiz-adv-x="1169" d="M20 -432l242 1372h-141l20 107h140l24 145q16 92 52 159.5t87 104t106 53.5t118 17q54 0 105.5 -15.5t95 -46t70 -81t26.5 -113.5q0 -78 -33.5 -143.5t-81 -110t-95 -84t-81 -85t-33.5 -95.5q0 -39 22 -69t56.5 -49.5t77 -38t84.5 -41t76.5 -51.5t56.5 -76.5t22 -109.5 t-25 -121.5t-73 -110t-128 -81.5t-179 -31q-149 0 -275 50l47 122q154 -47 250 -47q106 0 175 61.5t69 149.5q0 43 -21.5 75t-56.5 52t-77 37.5t-83.5 38t-76.5 45.5t-56.5 67t-21.5 97q0 62 18 114t46.5 88t63.5 67t69.5 58t63 55t46.5 64t18 78q0 156 -178 156 q-176 0 -213 -209l-284 -1624h-134z" />
<glyph unicode="&#xe0;" horiz-adv-x="1075" d="M116.5 215.5q-17.5 82.5 0.5 196.5l39 225q36 209 163.5 322.5t305.5 113.5q57 0 110 -18t97 -53.5t73.5 -88t40.5 -121.5t-4 -155l-113 -637h-114l10 113q-140 -140 -301 -140q-72 0 -134 26t-109 80t-64.5 136.5zM252 422q-30 -169 26.5 -245.5t170.5 -76.5 q80 0 151 44t141 114l66 369q28 157 -30.5 239t-172.5 82q-113 0 -201 -82t-116 -239zM459 1348l65 112l344 -166l-49 -88z" />
<glyph unicode="&#xe1;" horiz-adv-x="1075" d="M116.5 215.5q-17.5 82.5 0.5 196.5l39 225q36 209 163.5 322.5t305.5 113.5q57 0 110 -18t97 -53.5t73.5 -88t40.5 -121.5t-4 -155l-113 -637h-114l10 113q-140 -140 -301 -140q-72 0 -134 26t-109 80t-64.5 136.5zM252 422q-30 -169 26.5 -245.5t170.5 -76.5 q80 0 151 44t141 114l66 369q28 157 -30.5 239t-172.5 82q-113 0 -201 -82t-116 -239zM438 1309l393 157l29 -127l-399 -133z" />
<glyph unicode="&#xe2;" horiz-adv-x="1075" d="M116.5 215.5q-17.5 82.5 0.5 196.5l39 225q36 209 163.5 322.5t305.5 113.5q57 0 110 -18t97 -53.5t73.5 -88t40.5 -121.5t-4 -155l-113 -637h-114l10 113q-140 -140 -301 -140q-72 0 -134 26t-109 80t-64.5 136.5zM252 422q-30 -169 26.5 -245.5t170.5 -76.5 q80 0 151 44t141 114l66 369q28 157 -30.5 239t-172.5 82q-113 0 -201 -82t-116 -239zM393 1313l289 162l233 -162l-84 -107l-172 140l-225 -140z" />
<glyph unicode="&#xe3;" horiz-adv-x="1075" d="M116.5 215.5q-17.5 82.5 0.5 196.5l39 225q36 209 163.5 322.5t305.5 113.5q57 0 110 -18t97 -53.5t73.5 -88t40.5 -121.5t-4 -155l-113 -637h-114l10 113q-140 -140 -301 -140q-72 0 -134 26t-109 80t-64.5 136.5zM252 422q-30 -169 26.5 -245.5t170.5 -76.5 q80 0 151 44t141 114l66 369q28 157 -30.5 239t-172.5 82q-113 0 -201 -82t-116 -239zM369 1341q25 40 73 76.5t107 36.5q36 0 69.5 -15.5t54.5 -34.5t47 -34.5t48 -15.5q28 0 56 18t46 41l54 -67q-24 -39 -71.5 -76t-104.5 -37q-37 0 -71 15.5t-55.5 33.5t-47.5 33.5 t-48 15.5q-54 0 -104 -57z" />
<glyph unicode="&#xe4;" horiz-adv-x="1075" d="M116.5 215.5q-17.5 82.5 0.5 196.5l39 225q36 209 163.5 322.5t305.5 113.5q57 0 110 -18t97 -53.5t73.5 -88t40.5 -121.5t-4 -155l-113 -637h-114l10 113q-140 -140 -301 -140q-72 0 -134 26t-109 80t-64.5 136.5zM252 422q-30 -169 26.5 -245.5t170.5 -76.5 q80 0 151 44t141 114l66 369q28 157 -30.5 239t-172.5 82q-113 0 -201 -82t-116 -239zM385 1346q0 40 28 68t66 28t66 -28t28 -68q0 -37 -28 -65t-66 -28t-66 28t-28 65zM758 1346q0 39 28.5 67.5t65.5 28.5q40 0 68 -28t28 -68q0 -37 -28.5 -65t-67.5 -28q-37 0 -65.5 28 t-28.5 65z" />
<glyph unicode="&#xe5;" horiz-adv-x="1075" d="M116.5 215.5q-17.5 82.5 0.5 196.5l39 225q36 209 163.5 322.5t305.5 113.5q57 0 110 -18t97 -53.5t73.5 -88t40.5 -121.5t-4 -155l-113 -637h-114l10 113q-140 -140 -301 -140q-72 0 -134 26t-109 80t-64.5 136.5zM252 422q-30 -169 26.5 -245.5t170.5 -76.5 q80 0 151 44t141 114l66 369q28 157 -30.5 239t-172.5 82q-113 0 -201 -82t-116 -239zM494 1382q0 71 52.5 122.5t125.5 51.5q70 0 122 -52t52 -122q0 -72 -51.5 -124t-122.5 -52q-73 0 -125.5 52t-52.5 124zM600 1382q0 -30 21 -51.5t51 -21.5q29 0 50 22t21 51 q0 31 -21 52.5t-50 21.5q-31 0 -51.5 -21.5t-20.5 -52.5z" />
<glyph unicode="&#xe6;" horiz-adv-x="1568" d="M84 252q0 113 57 195.5t148.5 122.5t204.5 40h231l12 72q10 51 4 99t-23.5 85t-59.5 59.5t-103 22.5q-120 0 -266 -47l-8 119q164 53 297 53q97 0 166 -43t102 -119q64 79 151 120.5t183 41.5q132 0 220.5 -72.5t88.5 -193.5q0 -61 -25.5 -111.5t-64 -84t-98.5 -60 t-113.5 -40.5t-126.5 -24.5t-119 -14.5t-108 -7l-9 -47q-28 -154 23 -237t203 -83q127 0 272 49l10 -124q-56 -17 -91.5 -26t-91.5 -16.5t-116 -7.5q-113 0 -194.5 42.5t-120.5 125.5q-60 -76 -144 -122t-184 -46q-137 0 -222 77.5t-85 201.5zM221 270q0 -76 51 -124 t140 -48q80 0 152 48t120 120q-6 73 8 152l13 71h-234q-118 0 -184 -60t-66 -159zM852 573q48 2 94 6t107 13.5t110.5 26t94 39.5t69.5 58t25 79q0 75 -49 114t-140 39q-108 0 -188 -77t-107 -214z" />
<glyph unicode="&#xe7;" horiz-adv-x="942" d="M109 -420l28 117q42 -10 88 -10q60 0 92 27.5t41 84.5l33 178q-162 18 -235.5 132t-36.5 323l33 184q80 457 495 457q126 0 275 -47l-39 -121q-122 43 -256 43q-142 0 -227 -84t-117 -262l-29 -156q-31 -177 25 -262.5t198 -85.5q118 0 271 49v-127q-117 -35 -232 -45 l-35 -190q-10 -60 -37.5 -103.5t-65.5 -67.5t-79 -35t-86 -11q-46 0 -104 12z" />
<glyph unicode="&#xe8;" horiz-adv-x="993" d="M117 418l41 231q34 198 159 311t287 113q132 0 220.5 -72.5t88.5 -193.5q0 -61 -25.5 -111.5t-64 -84t-98.5 -60t-113.5 -40.5t-126.5 -24.5t-119 -14.5t-108 -7l-8 -47q-28 -154 22.5 -237t202.5 -83q119 0 273 52l10 -127q-56 -17 -91.5 -26t-91.5 -16.5t-116 -7.5 q-189 0 -283.5 117t-58.5 328zM276 573q48 2 94 6t107 13.5t110.5 26t94 39.5t69.5 58t25 79q0 75 -48.5 114t-139.5 39q-108 0 -188 -77t-107 -214zM438 1348l66 112l344 -166l-49 -88z" />
<glyph unicode="&#xe9;" horiz-adv-x="993" d="M117 418l41 231q34 198 159 311t287 113q132 0 220.5 -72.5t88.5 -193.5q0 -61 -25.5 -111.5t-64 -84t-98.5 -60t-113.5 -40.5t-126.5 -24.5t-119 -14.5t-108 -7l-8 -47q-28 -154 22.5 -237t202.5 -83q119 0 273 52l10 -127q-56 -17 -91.5 -26t-91.5 -16.5t-116 -7.5 q-189 0 -283.5 117t-58.5 328zM276 573q48 2 94 6t107 13.5t110.5 26t94 39.5t69.5 58t25 79q0 75 -48.5 114t-139.5 39q-108 0 -188 -77t-107 -214zM399 1309l394 157l28 -127l-399 -133z" />
<glyph unicode="&#xea;" horiz-adv-x="993" d="M117 418l41 231q34 198 159 311t287 113q132 0 220.5 -72.5t88.5 -193.5q0 -61 -25.5 -111.5t-64 -84t-98.5 -60t-113.5 -40.5t-126.5 -24.5t-119 -14.5t-108 -7l-8 -47q-28 -154 22.5 -237t202.5 -83q119 0 273 52l10 -127q-56 -17 -91.5 -26t-91.5 -16.5t-116 -7.5 q-189 0 -283.5 117t-58.5 328zM276 573q48 2 94 6t107 13.5t110.5 26t94 39.5t69.5 58t25 79q0 75 -48.5 114t-139.5 39q-108 0 -188 -77t-107 -214zM377 1313l289 162l233 -162l-84 -107l-172 140l-225 -140z" />
<glyph unicode="&#xeb;" horiz-adv-x="993" d="M117 418l41 231q34 198 159 311t287 113q132 0 220.5 -72.5t88.5 -193.5q0 -61 -25.5 -111.5t-64 -84t-98.5 -60t-113.5 -40.5t-126.5 -24.5t-119 -14.5t-108 -7l-8 -47q-28 -154 22.5 -237t202.5 -83q119 0 273 52l10 -127q-56 -17 -91.5 -26t-91.5 -16.5t-116 -7.5 q-189 0 -283.5 117t-58.5 328zM276 573q48 2 94 6t107 13.5t110.5 26t94 39.5t69.5 58t25 79q0 75 -48.5 114t-139.5 39q-108 0 -188 -77t-107 -214zM354 1346q0 40 28 68t67 28q38 0 66 -28t28 -68q0 -37 -28 -65t-66 -28t-66.5 28t-28.5 65zM727 1346q0 39 28.5 67.5 t65.5 28.5q40 0 68.5 -28t28.5 -68q0 -37 -29 -65t-68 -28q-37 0 -65.5 28t-28.5 65z" />
<glyph unicode="&#xec;" horiz-adv-x="473" d="M82 0l184 1047h133l-184 -1047h-133zM160 1348l65 112l344 -166l-49 -88z" />
<glyph unicode="&#xed;" horiz-adv-x="473" d="M82 0l184 1047h133l-184 -1047h-133zM137 1309l393 157l29 -127l-399 -133z" />
<glyph unicode="&#xee;" horiz-adv-x="473" d="M82 0l184 1047h133l-184 -1047h-133zM104 1313l289 162l234 -162l-84 -107l-172 140l-226 -140z" />
<glyph unicode="&#xef;" horiz-adv-x="473" d="M82 0l184 1047h133l-184 -1047h-133zM98 1346q0 40 28 68t67 28q38 0 66 -28t28 -68q0 -37 -28 -65t-66 -28t-66.5 28t-28.5 65zM471 1346q0 39 28.5 67.5t65.5 28.5q40 0 68.5 -28t28.5 -68q0 -37 -29 -65t-68 -28q-37 0 -65.5 28t-28.5 65z" />
<glyph unicode="&#xf0;" horiz-adv-x="1069" d="M123 434l22 125q40 230 167.5 344.5t308.5 114.5q165 0 270 -90l24 133q28 150 -13 235.5t-152 98.5l-117 -219l-92 38l96 179q-114 -9 -225 -43l-4 112q175 52 294 54l101 188l92 -39l-84 -158q140 -26 203 -135t30 -301l-112 -637q-40 -230 -167.5 -345.5 t-309.5 -115.5t-276.5 117t-55.5 344zM258 444q-59 -346 209 -346q275 0 334 346l61 351q-47 42 -116.5 70t-139.5 28q-271 0 -330 -346z" />
<glyph unicode="&#xf1;" horiz-adv-x="1083" d="M72 0l114 657q35 199 158 307.5t299 108.5q73 0 136 -27.5t107.5 -78.5t62.5 -131.5t1 -178.5l-114 -657h-134l113 647q25 145 -30 223t-164 78q-113 0 -195 -77.5t-107 -223.5l-114 -647h-133zM385 1341q25 40 73 76.5t107 36.5q36 0 69.5 -15.5t54.5 -34.5t47 -34.5 t48 -15.5q28 0 56.5 18.5t46.5 40.5l53 -67q-24 -39 -71.5 -76t-104.5 -37q-37 0 -71 15.5t-55 33.5t-47 33.5t-48 15.5q-55 0 -105 -57z" />
<glyph unicode="&#xf2;" horiz-adv-x="1069" d="M116.5 228q-16.5 87 2.5 206l33 180q82 459 483 459q82 0 148.5 -27t115 -83.5t65 -143.5t-2.5 -207l-31 -178q-40 -232 -166 -346.5t-322 -114.5q-81 0 -147 27.5t-114 84t-64.5 143.5zM254 444q-59 -346 209 -346q125 0 213.5 81t120.5 265l28 158q62 346 -213 346 q-267 0 -329 -346zM483 1348l66 112l344 -166l-49 -88z" />
<glyph unicode="&#xf3;" horiz-adv-x="1069" d="M116.5 228q-16.5 87 2.5 206l33 180q82 459 483 459q82 0 148.5 -27t115 -83.5t65 -143.5t-2.5 -207l-31 -178q-40 -232 -166 -346.5t-322 -114.5q-81 0 -147 27.5t-114 84t-64.5 143.5zM254 444q-59 -346 209 -346q125 0 213.5 81t120.5 265l28 158q62 346 -213 346 q-267 0 -329 -346zM438 1309l393 157l29 -127l-399 -133z" />
<glyph unicode="&#xf4;" horiz-adv-x="1069" d="M116.5 228q-16.5 87 2.5 206l33 180q82 459 483 459q82 0 148.5 -27t115 -83.5t65 -143.5t-2.5 -207l-31 -178q-40 -232 -166 -346.5t-322 -114.5q-81 0 -147 27.5t-114 84t-64.5 143.5zM254 444q-59 -346 209 -346q125 0 213.5 81t120.5 265l28 158q62 346 -213 346 q-267 0 -329 -346zM408 1313l288 162l234 -162l-84 -107l-172 140l-225 -140z" />
<glyph unicode="&#xf5;" horiz-adv-x="1069" d="M116.5 228q-16.5 87 2.5 206l33 180q82 459 483 459q82 0 148.5 -27t115 -83.5t65 -143.5t-2.5 -207l-31 -178q-40 -232 -166 -346.5t-322 -114.5q-81 0 -147 27.5t-114 84t-64.5 143.5zM254 444q-59 -346 209 -346q125 0 213.5 81t120.5 265l28 158q62 346 -213 346 q-267 0 -329 -346zM395 1341q25 40 73 76.5t107 36.5q36 0 69.5 -15.5t55 -34.5t47.5 -34.5t48 -15.5q28 0 56 18t46 41l53 -67q-24 -39 -71.5 -76t-104.5 -37q-37 0 -71 15.5t-55 33.5t-47 33.5t-48 15.5q-54 0 -104 -57z" />
<glyph unicode="&#xf6;" horiz-adv-x="1069" d="M116.5 228q-16.5 87 2.5 206l33 180q82 459 483 459q82 0 148.5 -27t115 -83.5t65 -143.5t-2.5 -207l-31 -178q-40 -232 -166 -346.5t-322 -114.5q-81 0 -147 27.5t-114 84t-64.5 143.5zM254 444q-59 -346 209 -346q125 0 213.5 81t120.5 265l28 158q62 346 -213 346 q-267 0 -329 -346zM385 1346q0 40 28 68t66 28t66 -28t28 -68q0 -37 -28 -65t-66 -28t-66 28t-28 65zM758 1346q0 39 28.5 67.5t65.5 28.5q40 0 68 -28t28 -68q0 -37 -28.5 -65t-67.5 -28q-37 0 -65.5 28t-28.5 65z" />
<glyph unicode="&#xf8;" horiz-adv-x="1069" d="M76 -70l104 156q-102 127 -61 348l33 180q82 459 483 459q103 0 182 -43l90 135l92 -49l-102 -153q102 -124 64 -351l-31 -178q-40 -232 -166 -346.5t-322 -114.5q-106 0 -182 43l-92 -135zM254 444q-26 -149 10 -235l477 711q-54 28 -129 28q-267 0 -329 -346zM334 127 q51 -29 129 -29q125 0 213.5 81t120.5 265l28 158q27 156 -12 238z" />
<glyph unicode="&#xf9;" horiz-adv-x="1085" d="M133 389l117 658h133l-115 -648q-25 -146 29.5 -223.5t165.5 -77.5t194.5 78t108.5 223l115 648h133l-117 -658q-35 -199 -157.5 -307.5t-297.5 -108.5q-166 0 -254.5 110t-54.5 306zM483 1348l66 112l344 -166l-49 -88z" />
<glyph unicode="&#xfa;" horiz-adv-x="1085" d="M133 389l117 658h133l-115 -648q-25 -146 29.5 -223.5t165.5 -77.5t194.5 78t108.5 223l115 648h133l-117 -658q-35 -199 -157.5 -307.5t-297.5 -108.5q-166 0 -254.5 110t-54.5 306zM446 1309l394 157l28 -127l-399 -133z" />
<glyph unicode="&#xfb;" horiz-adv-x="1085" d="M133 389l117 658h133l-115 -648q-25 -146 29.5 -223.5t165.5 -77.5t194.5 78t108.5 223l115 648h133l-117 -658q-35 -199 -157.5 -307.5t-297.5 -108.5q-166 0 -254.5 110t-54.5 306zM416 1313l289 162l233 -162l-84 -107l-172 140l-225 -140z" />
<glyph unicode="&#xfc;" horiz-adv-x="1085" d="M133 389l117 658h133l-115 -648q-25 -146 29.5 -223.5t165.5 -77.5t194.5 78t108.5 223l115 648h133l-117 -658q-35 -199 -157.5 -307.5t-297.5 -108.5q-166 0 -254.5 110t-54.5 306zM406 1346q0 40 28 68t66 28t66 -28t28 -68q0 -37 -28 -65t-66 -28t-66 28t-28 65z M778 1346q0 39 28.5 67.5t65.5 28.5q40 0 68.5 -28t28.5 -68q0 -37 -29 -65t-68 -28q-37 0 -65.5 28t-28.5 65z" />
<glyph unicode="&#xfd;" horiz-adv-x="962" d="M127 360l29 687h135l-29 -668q-5 -123 35 -187.5t143 -64.5h129l275 920h135l-447 -1479h-133l133 432h-114q-307 0 -291 360zM387 1309l393 157l29 -127l-399 -133z" />
<glyph unicode="&#xfe;" horiz-adv-x="1073" d="M-6 -432l340 1931h133l-90 -514q117 88 270 88q167 0 261 -115.5t59 -320.5l-39 -225q-19 -110 -65 -196t-109.5 -138t-137 -78.5t-153.5 -26.5q-72 0 -139 25t-111 59l-86 -489h-133zM238 193q123 -95 237 -95q118 0 204 77t116 247l36 205q28 158 -31 239.5t-173 81.5 q-113 0 -199.5 -81.5t-114.5 -239.5z" />
<glyph unicode="&#xff;" horiz-adv-x="962" d="M127 360l29 687h135l-29 -668q-5 -123 35 -187.5t143 -64.5h129l275 920h135l-447 -1479h-133l133 432h-114q-307 0 -291 360zM326 1346q0 40 28 68t66 28t66 -28t28 -68q0 -37 -28 -65t-66 -28t-66 28t-28 65zM698 1346q0 39 29 67.5t66 28.5q40 0 68 -28t28 -68 q0 -37 -28.5 -65t-67.5 -28q-37 0 -66 28t-29 65z" />
<glyph unicode="&#x100;" horiz-adv-x="1181" d="M-18 0l688 1384h155l201 -1384h-137l-53 393h-517l-192 -393h-145zM379 516h440l-69 510q-18 128 -25 215q-11 -25 -31.5 -72t-36 -82.5t-28.5 -60.5zM520 1593l23 127h508l-23 -127h-508z" />
<glyph unicode="&#x101;" horiz-adv-x="1075" d="M116.5 215.5q-17.5 82.5 0.5 196.5l39 225q36 209 163.5 322.5t305.5 113.5q57 0 110 -18t97 -53.5t73.5 -88t40.5 -121.5t-4 -155l-113 -637h-114l10 113q-140 -140 -301 -140q-72 0 -134 26t-109 80t-64.5 136.5zM252 422q-30 -169 26.5 -245.5t170.5 -76.5 q80 0 151 44t141 114l66 369q28 157 -30.5 239t-172.5 82q-113 0 -201 -82t-116 -239zM391 1286l23 127h508l-23 -127h-508z" />
<glyph unicode="&#x102;" horiz-adv-x="1181" d="M-18 0l688 1384h155l201 -1384h-137l-53 393h-517l-192 -393h-145zM379 516h440l-69 510q-18 128 -25 215q-11 -25 -31.5 -72t-36 -82.5t-28.5 -60.5zM575 1767h117q-9 -52 16.5 -87t71.5 -35q43 0 80.5 35t46.5 87h117q-19 -103 -93.5 -169t-170.5 -66q-98 0 -151 66 t-34 169z" />
<glyph unicode="&#x103;" horiz-adv-x="1075" d="M116.5 215.5q-17.5 82.5 0.5 196.5l39 225q36 209 163.5 322.5t305.5 113.5q57 0 110 -18t97 -53.5t73.5 -88t40.5 -121.5t-4 -155l-113 -637h-114l10 113q-140 -140 -301 -140q-72 0 -134 26t-109 80t-64.5 136.5zM252 422q-30 -169 26.5 -245.5t170.5 -76.5 q80 0 151 44t141 114l66 369q28 157 -30.5 239t-172.5 82q-113 0 -201 -82t-116 -239zM451 1460h116q-9 -52 16.5 -87.5t71.5 -35.5q43 0 80.5 35.5t46.5 87.5h117q-19 -103 -93.5 -169t-170.5 -66q-98 0 -150.5 66t-33.5 169z" />
<glyph unicode="&#x104;" horiz-adv-x="1181" d="M-18 0l688 1384h155l201 -1384q-50 -34 -84.5 -61.5t-71.5 -64.5t-56 -76.5t-19 -80.5q0 -65 71 -65q44 0 76 12l6 -102q-55 -19 -100 -19q-78 0 -123 40.5t-45 109.5q0 87 64 168t153 139h-8l-53 393h-517l-192 -393h-145zM379 516h440l-69 510q-18 128 -25 215 q-11 -25 -31.5 -72t-36 -82.5t-28.5 -60.5z" />
<glyph unicode="&#x105;" horiz-adv-x="1075" d="M116.5 215.5q-17.5 82.5 0.5 196.5l39 225q36 209 163.5 322.5t305.5 113.5q57 0 110 -18t97 -53.5t73.5 -88t40.5 -121.5t-4 -155l-113 -637q-50 -34 -84.5 -61.5t-71.5 -64.5t-56 -76.5t-19 -80.5q0 -65 72 -65q43 0 75 12l7 -102q-55 -19 -101 -19q-78 0 -123 40.5 t-45 109.5q0 88 66.5 172t165.5 145l10 103q-140 -140 -301 -140q-72 0 -134 26t-109 80t-64.5 136.5zM252 422q-30 -169 26.5 -245.5t170.5 -76.5q80 0 151 44t141 114l66 369q28 157 -30.5 239t-172.5 82q-113 0 -201 -82t-116 -239z" />
<glyph unicode="&#x106;" horiz-adv-x="1124" d="M141 283q-19 104 4 243l58 332q48 269 213.5 411t394.5 142q101 0 184 -15.5t187 -49.5l-49 -125q-189 61 -342 61q-172 0 -293 -109t-158 -321l-55 -322q-38 -216 43.5 -322t255.5 -106q156 0 368 62v-129q-218 -62 -393 -62q-111 0 -197.5 34t-144 103t-76.5 173z M608 1616l393 158l29 -127l-399 -134z" />
<glyph unicode="&#x107;" horiz-adv-x="942" d="M119 432l33 184q80 457 495 457q126 0 275 -47l-39 -121q-122 43 -256 43q-142 0 -227 -84t-117 -262l-29 -156q-31 -177 25 -262.5t198 -85.5q118 0 271 49v-127q-164 -47 -293 -47q-193 0 -284.5 115.5t-51.5 343.5zM426 1309l393 157l29 -127l-399 -133z" />
<glyph unicode="&#x108;" horiz-adv-x="1124" d="M141 283q-19 104 4 243l58 332q48 269 213.5 411t394.5 142q101 0 184 -15.5t187 -49.5l-49 -125q-189 61 -342 61q-172 0 -293 -109t-158 -321l-55 -322q-38 -216 43.5 -322t255.5 -106q156 0 368 62v-129q-218 -62 -393 -62q-111 0 -197.5 34t-144 103t-76.5 173z M573 1620l289 162l234 -162l-84 -107l-172 140l-226 -140z" />
<glyph unicode="&#x109;" horiz-adv-x="942" d="M119 432l33 184q80 457 495 457q126 0 275 -47l-39 -121q-122 43 -256 43q-142 0 -227 -84t-117 -262l-29 -156q-31 -177 25 -262.5t198 -85.5q118 0 271 49v-127q-164 -47 -293 -47q-193 0 -284.5 115.5t-51.5 343.5zM377 1313l289 162l233 -162l-84 -107l-172 140 l-225 -140z" />
<glyph unicode="&#x10a;" horiz-adv-x="1124" d="M141 283q-19 104 4 243l58 332q48 269 213.5 411t394.5 142q101 0 184 -15.5t187 -49.5l-49 -125q-189 61 -342 61q-172 0 -293 -109t-158 -321l-55 -322q-38 -216 43.5 -322t255.5 -106q156 0 368 62v-129q-218 -62 -393 -62q-111 0 -197.5 34t-144 103t-76.5 173z M707 1653q0 39 28.5 67.5t65.5 28.5q40 0 68 -28t28 -68q0 -37 -28.5 -64.5t-67.5 -27.5q-37 0 -65.5 27.5t-28.5 64.5z" />
<glyph unicode="&#x10b;" horiz-adv-x="942" d="M119 432l33 184q80 457 495 457q126 0 275 -47l-39 -121q-122 43 -256 43q-142 0 -227 -84t-117 -262l-29 -156q-31 -177 25 -262.5t198 -85.5q118 0 271 49v-127q-164 -47 -293 -47q-193 0 -284.5 115.5t-51.5 343.5zM561 1346q0 39 28.5 67.5t65.5 28.5q40 0 68.5 -28 t28.5 -68q0 -37 -29 -65t-68 -28q-37 0 -65.5 28t-28.5 65z" />
<glyph unicode="&#x10c;" horiz-adv-x="1124" d="M141 283q-19 104 4 243l58 332q48 269 213.5 411t394.5 142q101 0 184 -15.5t187 -49.5l-49 -125q-189 61 -342 61q-172 0 -293 -109t-158 -321l-55 -322q-38 -216 43.5 -322t255.5 -106q156 0 368 62v-129q-218 -62 -393 -62q-111 0 -197.5 34t-144 103t-76.5 173z M569 1675l80 107l172 -140l226 140l45 -107l-293 -162z" />
<glyph unicode="&#x10d;" horiz-adv-x="942" d="M119 432l33 184q80 457 495 457q126 0 275 -47l-39 -121q-122 43 -256 43q-142 0 -227 -84t-117 -262l-29 -156q-31 -177 25 -262.5t198 -85.5q118 0 271 49v-127q-164 -47 -293 -47q-193 0 -284.5 115.5t-51.5 343.5zM395 1368l80 107l172 -140l225 140l46 -107 l-293 -162z" />
<glyph unicode="&#x10e;" horiz-adv-x="1255" d="M92 0l230 1307q144 51 256.5 77.5t226.5 26.5q94 0 171.5 -33t130 -97t72.5 -157.5t-1 -214.5l-74 -424q-42 -239 -183 -362t-364 -123h-465zM252 129h328q164 0 260 87.5t129 275.5l71 409q32 180 -40 280.5t-220 100.5q-128 0 -338 -65zM520 1675l80 107l172 -140 l225 140l45 -107l-292 -162z" />
<glyph unicode="&#x10f;" horiz-adv-x="1046" d="M117 410l41 225q38 216 166 327t294 111q73 0 140 -25.5t112 -60.5l91 512h133l-193 -1089q-36 -209 -163 -323t-304 -114q-167 0 -259.5 116t-57.5 321zM252 420q-28 -158 30.5 -240t172.5 -82t200.5 82t114.5 240l76 436q-124 92 -240 92q-118 0 -202.5 -76.5 t-114.5 -246.5zM1159 1128l66 371l145 21l-113 -392h-98z" />
<glyph unicode="&#x110;" horiz-adv-x="1251" d="M78 649l20 107h125l99 551q145 51 256.5 77.5t224.5 26.5q94 0 171.5 -32.5t129.5 -95.5t72 -156t0 -214l-76 -428q-42 -240 -182 -362.5t-363 -122.5h-465l115 649h-127zM254 131h324q163 0 257.5 87t127.5 274l71 413q32 178 -39 276.5t-217 98.5q-125 0 -334 -61 l-82 -463h320l-20 -107h-318z" />
<glyph unicode="&#x111;" horiz-adv-x="1046" d="M117 410l41 225q38 216 166 327t294 111q73 0 140 -25.5t112 -60.5l45 264h-235l18 107h236l27 141h133l-25 -141h84l-18 -107h-84l-150 -841q-36 -209 -163 -323t-304 -114q-167 0 -259.5 116t-57.5 321zM252 420q-28 -158 30.5 -240t172.5 -82t200.5 82t114.5 240 l76 436q-124 92 -240 92q-118 0 -202.5 -76.5t-114.5 -246.5z" />
<glyph unicode="&#x112;" horiz-adv-x="1048" d="M92 0l244 1384h708l-22 -129h-571l-89 -495h490l-35 -125h-477l-88 -506h590l-23 -129h-727zM449 1593l22 127h508l-23 -127h-507z" />
<glyph unicode="&#x113;" horiz-adv-x="993" d="M117 418l41 231q34 198 159 311t287 113q132 0 220.5 -72.5t88.5 -193.5q0 -61 -25.5 -111.5t-64 -84t-98.5 -60t-113.5 -40.5t-126.5 -24.5t-119 -14.5t-108 -7l-8 -47q-28 -154 22.5 -237t202.5 -83q119 0 273 52l10 -127q-56 -17 -91.5 -26t-91.5 -16.5t-116 -7.5 q-189 0 -283.5 117t-58.5 328zM276 573q48 2 94 6t107 13.5t110.5 26t94 39.5t69.5 58t25 79q0 75 -48.5 114t-139.5 39q-108 0 -188 -77t-107 -214zM383 1286l23 127h507l-22 -127h-508z" />
<glyph unicode="&#x114;" horiz-adv-x="1048" d="M92 0l244 1384h708l-22 -129h-571l-89 -495h490l-35 -125h-477l-88 -506h590l-23 -129h-727zM522 1767h117q-9 -52 16.5 -87t71.5 -35q43 0 80.5 35t46.5 87h117q-19 -103 -93.5 -169t-170.5 -66q-98 0 -151 66t-34 169z" />
<glyph unicode="&#x115;" horiz-adv-x="993" d="M117 418l41 231q34 198 159 311t287 113q132 0 220.5 -72.5t88.5 -193.5q0 -61 -25.5 -111.5t-64 -84t-98.5 -60t-113.5 -40.5t-126.5 -24.5t-119 -14.5t-108 -7l-8 -47q-28 -154 22.5 -237t202.5 -83q119 0 273 52l10 -127q-56 -17 -91.5 -26t-91.5 -16.5t-116 -7.5 q-189 0 -283.5 117t-58.5 328zM276 573q48 2 94 6t107 13.5t110.5 26t94 39.5t69.5 58t25 79q0 75 -48.5 114t-139.5 39q-108 0 -188 -77t-107 -214zM436 1460h117q-9 -52 16.5 -87.5t71.5 -35.5q43 0 80.5 35.5t46.5 87.5h117q-19 -103 -93.5 -169t-170.5 -66 q-98 0 -151 66t-34 169z" />
<glyph unicode="&#x116;" horiz-adv-x="1048" d="M92 0l244 1384h708l-22 -129h-571l-89 -495h490l-35 -125h-477l-88 -506h590l-23 -129h-727zM627 1653q0 39 28.5 67.5t65.5 28.5q40 0 68 -28t28 -68q0 -37 -28.5 -64.5t-67.5 -27.5q-37 0 -65.5 27.5t-28.5 64.5z" />
<glyph unicode="&#x117;" horiz-adv-x="993" d="M117 418l41 231q34 198 159 311t287 113q132 0 220.5 -72.5t88.5 -193.5q0 -61 -25.5 -111.5t-64 -84t-98.5 -60t-113.5 -40.5t-126.5 -24.5t-119 -14.5t-108 -7l-8 -47q-28 -154 22.5 -237t202.5 -83q119 0 273 52l10 -127q-56 -17 -91.5 -26t-91.5 -16.5t-116 -7.5 q-189 0 -283.5 117t-58.5 328zM276 573q48 2 94 6t107 13.5t110.5 26t94 39.5t69.5 58t25 79q0 75 -48.5 114t-139.5 39q-108 0 -188 -77t-107 -214zM539 1346q0 39 28.5 67.5t65.5 28.5q40 0 68 -28t28 -68q0 -37 -28.5 -65t-67.5 -28q-37 0 -65.5 28t-28.5 65z" />
<glyph unicode="&#x118;" horiz-adv-x="1048" d="M92 0l244 1384h708l-22 -129h-571l-89 -495h490l-35 -125h-477l-88 -506h590l-23 -129q-50 -34 -84.5 -61.5t-71.5 -64.5t-56 -76.5t-19 -80.5q0 -65 71 -65q44 0 76 12l6 -102q-55 -19 -100 -19q-78 0 -123 40.5t-45 109.5q0 87 64 168t153 139h-598z" />
<glyph unicode="&#x119;" horiz-adv-x="993" d="M117 418l41 231q34 198 159 311t287 113q132 0 220.5 -72.5t88.5 -193.5q0 -61 -25.5 -111.5t-64 -84t-98.5 -60t-113.5 -40.5t-126.5 -24.5t-119 -14.5t-108 -7l-8 -47q-28 -154 22.5 -237t202.5 -83q119 0 273 52l10 -127q-97 -66 -163.5 -146.5t-66.5 -159.5 q0 -65 70 -65q44 0 76 12l6 -102q-55 -19 -100 -19q-78 0 -123 40.5t-45 109.5q0 74 46.5 151.5t116.5 137.5q-79 -9 -116 -9q-189 0 -283.5 117t-58.5 328zM276 573q48 2 94 6t107 13.5t110.5 26t94 39.5t69.5 58t25 79q0 75 -48.5 114t-139.5 39q-108 0 -188 -77 t-107 -214z" />
<glyph unicode="&#x11a;" horiz-adv-x="1048" d="M92 0l244 1384h708l-22 -129h-571l-89 -495h490l-35 -125h-477l-88 -506h590l-23 -129h-727zM469 1675l80 107l172 -140l225 140l45 -107l-293 -162z" />
<glyph unicode="&#x11b;" horiz-adv-x="993" d="M117 418l41 231q34 198 159 311t287 113q132 0 220.5 -72.5t88.5 -193.5q0 -61 -25.5 -111.5t-64 -84t-98.5 -60t-113.5 -40.5t-126.5 -24.5t-119 -14.5t-108 -7l-8 -47q-28 -154 22.5 -237t202.5 -83q119 0 273 52l10 -127q-56 -17 -91.5 -26t-91.5 -16.5t-116 -7.5 q-189 0 -283.5 117t-58.5 328zM276 573q48 2 94 6t107 13.5t110.5 26t94 39.5t69.5 58t25 79q0 75 -48.5 114t-139.5 39q-108 0 -188 -77t-107 -214zM379 1368l80 107l172 -140l225 140l45 -107l-293 -162z" />
<glyph unicode="&#x11c;" horiz-adv-x="1208" d="M141 283q-19 104 4 243l58 332q48 269 213.5 411t394.5 142q179 0 365 -63l-48 -123q-171 57 -337 57q-172 0 -293 -109t-158 -319l-55 -324q-37 -210 45 -319t254 -109q52 0 107.5 7.5t81.5 13t91 20.5l80 465h-153l20 121h287l-119 -686q-217 -70 -420 -70 q-111 0 -197.5 34t-144 103t-76.5 173zM537 1620l288 162l234 -162l-84 -107l-172 140l-225 -140z" />
<glyph unicode="&#x11d;" horiz-adv-x="1046" d="M98 -412l31 125q111 -47 227 -47q75 0 135 25.5t99 70t63 98t35 117.5l27 146q-131 -123 -291 -123q-72 0 -134 26t-109.5 79.5t-64.5 136t1 196.5l35 199q36 209 163.5 322.5t305.5 113.5q57 0 110 -18t97 -53.5t73.5 -88t40.5 -121.5t-4 -155l-121 -684 q-33 -189 -157.5 -300.5t-321.5 -111.5q-126 0 -240 47zM245 296q7 -62 37.5 -100t71.5 -54.5t95 -16.5q136 0 292 156l62 346q28 158 -30.5 239.5t-172.5 81.5q-113 0 -201 -81.5t-116 -239.5l-31 -178q-14 -91 -7 -153zM387 1313l289 162l233 -162l-84 -107l-172 140 l-225 -140z" />
<glyph unicode="&#x11e;" horiz-adv-x="1208" d="M141 283q-19 104 4 243l58 332q48 269 213.5 411t394.5 142q179 0 365 -63l-48 -123q-171 57 -337 57q-172 0 -293 -109t-158 -319l-55 -324q-37 -210 45 -319t254 -109q52 0 107.5 7.5t81.5 13t91 20.5l80 465h-153l20 121h287l-119 -686q-217 -70 -420 -70 q-111 0 -197.5 34t-144 103t-76.5 173zM600 1767h117q-9 -52 16.5 -87t71.5 -35q43 0 80.5 35t46.5 87h117q-19 -103 -94 -169t-171 -66q-98 0 -150.5 66t-33.5 169z" />
<glyph unicode="&#x11f;" horiz-adv-x="1046" d="M98 -412l31 125q111 -47 227 -47q75 0 135 25.5t99 70t63 98t35 117.5l27 146q-131 -123 -291 -123q-72 0 -134 26t-109.5 79.5t-64.5 136t1 196.5l35 199q36 209 163.5 322.5t305.5 113.5q57 0 110 -18t97 -53.5t73.5 -88t40.5 -121.5t-4 -155l-121 -684 q-33 -189 -157.5 -300.5t-321.5 -111.5q-126 0 -240 47zM245 296q7 -62 37.5 -100t71.5 -54.5t95 -16.5q136 0 292 156l62 346q28 158 -30.5 239.5t-172.5 81.5q-113 0 -201 -81.5t-116 -239.5l-31 -178q-14 -91 -7 -153zM453 1460h116q-9 -52 16.5 -87.5t71.5 -35.5 q43 0 80.5 35.5t46.5 87.5h117q-19 -103 -93.5 -169t-170.5 -66q-98 0 -150.5 66t-33.5 169z" />
<glyph unicode="&#x120;" horiz-adv-x="1208" d="M141 283q-19 104 4 243l58 332q48 269 213.5 411t394.5 142q179 0 365 -63l-48 -123q-171 57 -337 57q-172 0 -293 -109t-158 -319l-55 -324q-37 -210 45 -319t254 -109q52 0 107.5 7.5t81.5 13t91 20.5l80 465h-153l20 121h287l-119 -686q-217 -70 -420 -70 q-111 0 -197.5 34t-144 103t-76.5 173zM713 1653q0 39 28.5 67.5t65.5 28.5q40 0 68 -28t28 -68q0 -37 -28.5 -64.5t-67.5 -27.5q-37 0 -65.5 27.5t-28.5 64.5z" />
<glyph unicode="&#x121;" horiz-adv-x="1046" d="M98 -412l31 125q111 -47 227 -47q75 0 135 25.5t99 70t63 98t35 117.5l27 146q-131 -123 -291 -123q-72 0 -134 26t-109.5 79.5t-64.5 136t1 196.5l35 199q36 209 163.5 322.5t305.5 113.5q57 0 110 -18t97 -53.5t73.5 -88t40.5 -121.5t-4 -155l-121 -684 q-33 -189 -157.5 -300.5t-321.5 -111.5q-126 0 -240 47zM245 296q7 -62 37.5 -100t71.5 -54.5t95 -16.5q136 0 292 156l62 346q28 158 -30.5 239.5t-172.5 81.5q-113 0 -201 -81.5t-116 -239.5l-31 -178q-14 -91 -7 -153zM553 1346q0 39 28.5 67.5t65.5 28.5q40 0 68 -28 t28 -68q0 -37 -28.5 -65t-67.5 -28q-37 0 -65.5 28t-28.5 65z" />
<glyph unicode="&#x122;" horiz-adv-x="1208" d="M141 283q-19 104 4 243l58 332q48 269 213.5 411t394.5 142q179 0 365 -63l-48 -123q-171 57 -337 57q-172 0 -293 -109t-158 -319l-55 -324q-37 -210 45 -319t254 -109q52 0 107.5 7.5t81.5 13t91 20.5l80 465h-153l20 121h287l-119 -686q-217 -70 -420 -70 q-111 0 -197.5 34t-144 103t-76.5 173zM362 -459l119 326h140l-160 -326h-99z" />
<glyph unicode="&#x123;" horiz-adv-x="1046" d="M98 -412l31 125q111 -47 227 -47q75 0 135 25.5t99 70t63 98t35 117.5l27 146q-131 -123 -291 -123q-72 0 -134 26t-109.5 79.5t-64.5 136t1 196.5l35 199q36 209 163.5 322.5t305.5 113.5q57 0 110 -18t97 -53.5t73.5 -88t40.5 -121.5t-4 -155l-121 -684 q-33 -189 -157.5 -300.5t-321.5 -111.5q-126 0 -240 47zM245 296q7 -62 37.5 -100t71.5 -54.5t95 -16.5q136 0 292 156l62 346q28 158 -30.5 239.5t-172.5 81.5q-113 0 -201 -81.5t-116 -239.5l-31 -178q-14 -91 -7 -153zM596 1184l119 325h139l-160 -325h-98z" />
<glyph unicode="&#x124;" horiz-adv-x="1265" d="M92 0l244 1384h137l-108 -614h630l109 614h137l-244 -1384h-137l113 641h-631l-113 -641h-137zM559 1620l289 162l233 -162l-84 -107l-172 140l-225 -140z" />
<glyph unicode="&#x125;" horiz-adv-x="1083" d="M72 0l264 1499h133l-98 -557q140 131 291 131q73 0 131 -23t103 -74.5t57.5 -135.5t-5.5 -205l-112 -635h-134l111 625q31 171 -17 246t-161 75q-127 0 -291 -155l-139 -791h-133zM160 1618l289 162l233 -162l-84 -107l-172 140l-225 -140z" />
<glyph unicode="&#x126;" horiz-adv-x="1267" d="M92 0l178 1014h-80l19 106h80l47 264h139l-47 -264h629l47 264h139l-47 -264h80l-19 -106h-79l-179 -1014h-139l113 639h-629l-113 -639h-139zM367 772h628l43 242h-628z" />
<glyph unicode="&#x127;" horiz-adv-x="1083" d="M72 0l219 1251h-80l18 107h80l27 141h133l-27 -141h244l-18 -107h-244l-53 -309q140 131 291 131q73 0 131 -23t103 -74.5t57.5 -135.5t-5.5 -205l-112 -635h-134l111 625q31 173 -17 248t-161 75q-125 0 -291 -157l-139 -791h-133z" />
<glyph unicode="&#x128;" horiz-adv-x="497" d="M92 0l244 1384h137l-244 -1384h-137zM170 1649q24 39 72.5 75.5t107.5 36.5q36 0 69.5 -15.5t54.5 -34.5t47 -34.5t48 -15.5q28 0 56.5 18.5t46.5 40.5l53 -67q-24 -39 -71.5 -76t-104.5 -37q-37 0 -71 15.5t-55 33.5t-47 33.5t-48 15.5q-55 0 -105 -57z" />
<glyph unicode="&#x129;" horiz-adv-x="473" d="M82 0l184 1047h133l-184 -1047h-133zM92 1341q25 40 73 76.5t107 36.5q36 0 69.5 -15.5t55 -34.5t47.5 -34.5t48 -15.5q28 0 56 18t46 41l53 -67q-24 -39 -71.5 -76t-104.5 -37q-37 0 -71 15.5t-55 33.5t-47 33.5t-48 15.5q-55 0 -105 -57z" />
<glyph unicode="&#x12a;" horiz-adv-x="497" d="M92 0l244 1384h137l-244 -1384h-137zM180 1593l23 127h508l-23 -127h-508z" />
<glyph unicode="&#x12b;" horiz-adv-x="473" d="M82 0l184 1047h133l-184 -1047h-133zM102 1286l23 127h508l-23 -127h-508z" />
<glyph unicode="&#x12c;" horiz-adv-x="497" d="M92 0l244 1384h137l-244 -1384h-137zM238 1796h116q-9 -52 16.5 -87.5t71.5 -35.5q43 0 80.5 35.5t46.5 87.5h117q-19 -103 -93.5 -169t-170.5 -66q-98 0 -150.5 66t-33.5 169z" />
<glyph unicode="&#x12d;" horiz-adv-x="473" d="M82 0l184 1047h133l-184 -1047h-133zM166 1460h117q-9 -52 16.5 -87.5t71.5 -35.5q43 0 80.5 35.5t46.5 87.5h116q-19 -103 -93.5 -169t-170.5 -66q-98 0 -150.5 66t-33.5 169z" />
<glyph unicode="&#x12e;" horiz-adv-x="497" d="M-117 -307q0 87 64 168t153 139h-8l244 1384h137l-244 -1384q-50 -34 -84.5 -61.5t-71.5 -64.5t-56 -76.5t-19 -80.5q0 -65 72 -65q43 0 75 12l7 -102q-55 -19 -101 -19q-78 0 -123 40.5t-45 109.5z" />
<glyph unicode="&#x12f;" horiz-adv-x="473" d="M-131 -307q0 87 63 167.5t150 139.5l184 1047h133l-184 -1047q-50 -34 -84.5 -61.5t-71.5 -64.5t-56 -76.5t-19 -80.5q0 -65 71 -65q44 0 76 12l6 -102q-55 -19 -100 -19q-78 0 -123 40.5t-45 109.5zM285 1339q0 39 28.5 67t67.5 28q40 0 69 -28.5t29 -66.5t-29 -67 t-69 -29q-39 0 -67.5 28.5t-28.5 67.5z" />
<glyph unicode="&#x130;" horiz-adv-x="497" d="M92 0l244 1384h137l-244 -1384h-137zM360 1653q0 39 29 67.5t66 28.5q40 0 68 -28t28 -68q0 -37 -28.5 -64.5t-67.5 -27.5q-37 0 -66 28t-29 64z" />
<glyph unicode="&#x131;" horiz-adv-x="473" d="M82 0l184 1047h133l-184 -1047h-133z" />
<glyph unicode="&#x132;" horiz-adv-x="1433" d="M92 0l244 1384h139l-244 -1384h-139zM489 33l33 125q144 -54 266 -54q139 0 222 92.5t110 243.5l168 944l135 -14l-163 -936q-39 -218 -160.5 -339.5t-308.5 -121.5q-157 0 -302 60z" />
<glyph unicode="&#x133;" horiz-adv-x="944" d="M82 0l184 1047h133l-184 -1047h-133zM285 1339q0 39 28.5 67t67.5 28q40 0 69 -28.5t29 -66.5t-29 -67t-69 -29q-39 0 -67.5 28.5t-28.5 67.5zM473 -449l264 1496h133l-258 -1455zM758 1339q0 39 28 67t68 28t69 -28.5t29 -66.5t-29 -67t-69 -29q-39 0 -67.5 28.5 t-28.5 67.5z" />
<glyph unicode="&#x134;" horiz-adv-x="933" d="M-12 33l37 123q140 -54 266 -54q139 0 222.5 93t109.5 245l165 944l136 -14l-166 -936q-39 -217 -161 -339t-308 -122q-156 0 -301 60zM629 1620l289 162l233 -162l-84 -107l-172 140l-225 -140z" />
<glyph unicode="&#x135;" horiz-adv-x="468" d="M0 -449l264 1496h131l-258 -1455zM106 1313l289 162l234 -162l-84 -107l-172 140l-226 -140z" />
<glyph unicode="&#x136;" horiz-adv-x="1161" d="M92 0l244 1384h137l-137 -774l692 774h150l-551 -628l372 -756h-149l-320 645l-235 -266l-66 -379h-137zM322 -459l118 326h140l-160 -326h-98z" />
<glyph unicode="&#x137;" horiz-adv-x="946" d="M82 0l264 1499h133l-166 -930l242 84q51 17 80 47t55 88l115 259h137l-123 -275q-39 -90 -83.5 -144t-121.5 -81l183 -547h-142l-166 502l-198 -70l-76 -432h-133zM233 -459l119 326h140l-160 -326h-99z" />
<glyph unicode="&#x139;" horiz-adv-x="1009" d="M92 0l244 1384h137l-221 -1255h602l-37 -129h-725zM244 1618l393 158l29 -127l-400 -133z" />
<glyph unicode="&#x13a;" horiz-adv-x="473" d="M82 0l260 1485l141 41l-268 -1526h-133zM207 1614l405 166l29 -127l-412 -142z" />
<glyph unicode="&#x13b;" horiz-adv-x="1009" d="M92 0l244 1384h137l-221 -1255h602l-37 -129h-725zM285 -459l118 326h140l-160 -326h-98z" />
<glyph unicode="&#x13c;" horiz-adv-x="473" d="M-70 -459l119 326h139l-159 -326h-99zM82 0l260 1485l141 41l-268 -1526h-133z" />
<glyph unicode="&#x13d;" horiz-adv-x="1011" d="M92 0l244 1384h139l-221 -1253h602l-37 -131h-727zM735 1014l66 370l145 21l-112 -391h-99z" />
<glyph unicode="&#x13e;" horiz-adv-x="473" d="M82 0l260 1485l141 41l-268 -1526h-133zM547 1128l65 371l146 21l-113 -392h-98z" />
<glyph unicode="&#x13f;" horiz-adv-x="1009" d="M92 0l244 1384h137l-221 -1255h602l-37 -129h-725zM575 569q0 41 29 70t66 29q41 0 69.5 -29t28.5 -70q0 -37 -28.5 -64.5t-69.5 -27.5q-37 0 -66 28t-29 64z" />
<glyph unicode="&#x140;" horiz-adv-x="585" d="M82 0l260 1485l141 41l-268 -1526h-133zM438 569q0 41 28.5 70t65.5 29q41 0 70 -29t29 -70q0 -37 -29 -64.5t-70 -27.5q-37 0 -65.5 27.5t-28.5 64.5z" />
<glyph unicode="&#x141;" horiz-adv-x="1011" d="M51 647l164 58l121 679h139l-110 -628l221 78l18 -97l-260 -90l-90 -516h602l-37 -131h-727l105 594l-127 -43z" />
<glyph unicode="&#x142;" horiz-adv-x="475" d="M33 662l176 59l133 764l141 41l-133 -756l142 49l18 -96l-178 -61l-117 -662h-133l106 612l-137 -47z" />
<glyph unicode="&#x143;" horiz-adv-x="1253" d="M92 0l244 1384h106l457 -1118q12 105 29 195l164 923h137l-244 -1384h-117l-454 1102q-8 -76 -27 -199l-158 -903h-137zM596 1616l393 158l29 -127l-400 -134z" />
<glyph unicode="&#x144;" horiz-adv-x="1083" d="M72 0l114 657q35 199 158 307.5t299 108.5q73 0 136 -27.5t107.5 -78.5t62.5 -131.5t1 -178.5l-114 -657h-134l113 647q25 145 -30 223t-164 78q-113 0 -195 -77.5t-107 -223.5l-114 -647h-133zM428 1309l393 157l29 -127l-399 -133z" />
<glyph unicode="&#x145;" horiz-adv-x="1253" d="M92 0l244 1384h106l457 -1118q12 105 29 195l164 923h137l-244 -1384h-117l-454 1102q-8 -76 -27 -199l-158 -903h-137zM367 -459l118 326h140l-160 -326h-98z" />
<glyph unicode="&#x146;" horiz-adv-x="1083" d="M72 0l114 657q35 199 158 307.5t299 108.5q73 0 136 -27.5t107.5 -78.5t62.5 -131.5t1 -178.5l-114 -657h-134l113 647q25 145 -30 223t-164 78q-113 0 -195 -77.5t-107 -223.5l-114 -647h-133zM276 -459l119 326h140l-160 -326h-99z" />
<glyph unicode="&#x147;" horiz-adv-x="1253" d="M92 0l244 1384h106l457 -1118q12 105 29 195l164 923h137l-244 -1384h-117l-454 1102q-8 -76 -27 -199l-158 -903h-137zM559 1675l80 107l172 -140l225 140l45 -107l-293 -162z" />
<glyph unicode="&#x148;" horiz-adv-x="1083" d="M72 0l114 657q35 199 158 307.5t299 108.5q73 0 136 -27.5t107.5 -78.5t62.5 -131.5t1 -178.5l-114 -657h-134l113 647q25 145 -30 223t-164 78q-113 0 -195 -77.5t-107 -223.5l-114 -647h-133zM422 1368l80 107l172 -140l225 140l45 -107l-293 -162z" />
<glyph unicode="&#x14a;" horiz-adv-x="1255" d="M92 0l244 1384h108l457 -1114q12 105 29 195l162 919h139l-316 -1792l-139 -41l82 465l-442 1080q-8 -76 -27 -199l-158 -897h-139z" />
<glyph unicode="&#x14b;" horiz-adv-x="1083" d="M72 0l114 657q35 199 158 307.5t299 108.5q73 0 136 -27.5t107.5 -78.5t62.5 -131.5t1 -178.5l-188 -1063l-139 -40l192 1093q25 145 -30 223t-164 78q-113 0 -195 -77.5t-107 -223.5l-114 -647h-133z" />
<glyph unicode="&#x14c;" horiz-adv-x="1255" d="M141 280q-19 103 4 242l58 336q24 135 81 242t136 174t172.5 102t195.5 35q101 0 182 -34t136.5 -103t74 -173t-4.5 -243l-58 -336q-24 -135 -81 -241.5t-135 -173t-171 -100.5t-194 -34q-102 0 -183.5 33.5t-137.5 102t-75 171.5zM283 528q-37 -209 40 -317.5 t236 -108.5q158 0 271.5 108t150.5 318l55 324q36 213 -38 321.5t-232 108.5q-159 0 -274 -109t-152 -321zM573 1593l23 127h508l-23 -127h-508z" />
<glyph unicode="&#x14d;" horiz-adv-x="1069" d="M116.5 228q-16.5 87 2.5 206l33 180q82 459 483 459q82 0 148.5 -27t115 -83.5t65 -143.5t-2.5 -207l-31 -178q-40 -232 -166 -346.5t-322 -114.5q-81 0 -147 27.5t-114 84t-64.5 143.5zM254 444q-59 -346 209 -346q125 0 213.5 81t120.5 265l28 158q62 346 -213 346 q-267 0 -329 -346zM406 1286l22 127h508l-23 -127h-507z" />
<glyph unicode="&#x14e;" horiz-adv-x="1255" d="M141 280q-19 103 4 242l58 336q24 135 81 242t136 174t172.5 102t195.5 35q101 0 182 -34t136.5 -103t74 -173t-4.5 -243l-58 -336q-24 -135 -81 -241.5t-135 -173t-171 -100.5t-194 -34q-102 0 -183.5 33.5t-137.5 102t-75 171.5zM283 528q-37 -209 40 -317.5 t236 -108.5q158 0 271.5 108t150.5 318l55 324q36 213 -38 321.5t-232 108.5q-159 0 -274 -109t-152 -321zM625 1767h116q-9 -52 16.5 -87t71.5 -35q43 0 80.5 35t46.5 87h117q-19 -103 -93.5 -169t-170.5 -66q-98 0 -150.5 66t-33.5 169z" />
<glyph unicode="&#x14f;" horiz-adv-x="1069" d="M116.5 228q-16.5 87 2.5 206l33 180q82 459 483 459q82 0 148.5 -27t115 -83.5t65 -143.5t-2.5 -207l-31 -178q-40 -232 -166 -346.5t-322 -114.5q-81 0 -147 27.5t-114 84t-64.5 143.5zM254 444q-59 -346 209 -346q125 0 213.5 81t120.5 265l28 158q62 346 -213 346 q-267 0 -329 -346zM473 1460h117q-9 -52 16.5 -87.5t71.5 -35.5q43 0 80.5 35.5t46.5 87.5h117q-19 -103 -94 -169t-171 -66q-98 0 -150.5 66t-33.5 169z" />
<glyph unicode="&#x150;" horiz-adv-x="1255" d="M141 280q-19 103 4 242l58 336q24 135 81 242t136 174t172.5 102t195.5 35q101 0 182 -34t136.5 -103t74 -173t-4.5 -243l-58 -336q-24 -135 -81 -241.5t-135 -173t-171 -100.5t-194 -34q-102 0 -183.5 33.5t-137.5 102t-75 171.5zM283 528q-37 -209 40 -317.5 t236 -108.5q158 0 271.5 108t150.5 318l55 324q36 213 -38 321.5t-232 108.5q-159 0 -274 -109t-152 -321zM494 1593l350 211l49 -116l-358 -189zM909 1595l353 211l47 -116l-359 -189z" />
<glyph unicode="&#x151;" horiz-adv-x="1069" d="M116.5 228q-16.5 87 2.5 206l33 180q82 459 483 459q82 0 148.5 -27t115 -83.5t65 -143.5t-2.5 -207l-31 -178q-40 -232 -166 -346.5t-322 -114.5q-81 0 -147 27.5t-114 84t-64.5 143.5zM254 444q-59 -346 209 -346q125 0 213.5 81t120.5 265l28 158q62 346 -213 346 q-267 0 -329 -346zM397 1286l351 211l49 -117l-359 -188zM813 1288l352 211l47 -117l-358 -188z" />
<glyph unicode="&#x152;" horiz-adv-x="1785" d="M141 280q-19 103 4 242l58 336q24 135 81 242t136 174t172.5 102t195.5 35q79 0 162 -27h832l-23 -129h-641q102 -149 58 -397l-17 -98h430l-35 -125h-417l-19 -113q-45 -250 -194 -393h655l-23 -129h-847q-93 -27 -172 -27q-102 0 -183.5 33.5t-137.5 102t-75 171.5z M281 528q-37 -209 41 -317.5t237 -108.5q158 0 271.5 108t150.5 318l55 324q36 213 -38 321.5t-232 108.5q-160 0 -277.5 -109.5t-152.5 -320.5z" />
<glyph unicode="&#x153;" horiz-adv-x="1671" d="M116.5 228q-16.5 87 2.5 206l33 180q82 459 483 459q104 0 183.5 -44t119.5 -132q64 85 153.5 130.5t190.5 45.5q132 0 220.5 -72.5t88.5 -193.5q0 -61 -25.5 -111.5t-64 -84t-98.5 -60t-113.5 -40.5t-126.5 -24.5t-119 -14.5t-108 -7l-8 -47q-28 -154 22.5 -237 t202.5 -83q127 0 272 49l11 -124q-56 -17 -91.5 -26t-91.5 -16.5t-116 -7.5q-116 0 -198 44.5t-122 129.5q-129 -174 -375 -174q-81 0 -147 27.5t-114 84t-64.5 143.5zM254 444q-60 -344 209 -344q125 0 213.5 80.5t120.5 263.5l28 158q62 346 -213 346q-267 0 -329 -346z M954 573q48 2 94 6t107 13.5t110.5 26t94 39.5t69.5 58t25 79q0 75 -48.5 114t-139.5 39q-108 0 -188 -77t-107 -214z" />
<glyph unicode="&#x154;" horiz-adv-x="1107" d="M92 0l244 1384h438q150 0 237 -91t87 -234q0 -166 -100 -297.5t-255 -171.5l170 -590h-145l-158 575h-280l-101 -575h-137zM350 694h301q133 0 220 101.5t87 251.5q0 96 -53.5 152t-152.5 56h-301zM520 1616l393 158l29 -127l-399 -134z" />
<glyph unicode="&#x155;" horiz-adv-x="684" d="M72 0l121 690q31 175 151 279t293 104q52 0 102 -12l-32 -123q-52 10 -91 10q-109 0 -189.5 -71t-100.5 -187l-121 -690h-133zM313 1309l394 157l28 -127l-399 -133z" />
<glyph unicode="&#x156;" horiz-adv-x="1107" d="M92 0l244 1384h438q150 0 237 -91t87 -234q0 -166 -100 -297.5t-255 -171.5l170 -590h-145l-158 575h-280l-101 -575h-137zM301 -459l119 326h139l-160 -326h-98zM350 694h301q133 0 220 101.5t87 251.5q0 96 -53.5 152t-152.5 56h-301z" />
<glyph unicode="&#x157;" horiz-adv-x="684" d="M-70 -459l119 326h139l-159 -326h-99zM72 0l121 690q31 175 151 279t293 104q52 0 102 -12l-32 -123q-52 10 -91 10q-109 0 -189.5 -71t-100.5 -187l-121 -690h-133z" />
<glyph unicode="&#x158;" horiz-adv-x="1107" d="M92 0l244 1384h438q150 0 237 -91t87 -234q0 -166 -100 -297.5t-255 -171.5l170 -590h-145l-158 575h-280l-101 -575h-137zM350 694h301q133 0 220 101.5t87 251.5q0 96 -53.5 152t-152.5 56h-301zM485 1675l80 107l172 -140l226 140l45 -107l-293 -162z" />
<glyph unicode="&#x159;" horiz-adv-x="684" d="M72 0l121 690q31 175 151 279t293 104q52 0 102 -12l-32 -123q-52 10 -91 10q-109 0 -189.5 -71t-100.5 -187l-121 -690h-133zM274 1368l80 107l172 -140l226 140l45 -107l-293 -162z" />
<glyph unicode="&#x15a;" horiz-adv-x="997" d="M20 43l46 127q187 -68 344 -68q59 0 115.5 19t103.5 54.5t75.5 94.5t28.5 131q0 60 -28.5 106.5t-74.5 77.5t-101 58.5t-110 57.5t-101 66t-74.5 92t-28.5 128q0 185 137 304.5t336 119.5q157 0 322 -65l-45 -121q-148 57 -299 57q-135 0 -221.5 -69t-86.5 -193 q0 -49 22.5 -90t59 -68.5t83.5 -55t95.5 -50t95.5 -54t83.5 -65.5t59 -86t22.5 -115q0 -110 -42 -199.5t-112 -146t-157 -87t-181 -30.5q-176 0 -367 70zM494 1616l393 158l28 -127l-399 -134z" />
<glyph unicode="&#x15b;" horiz-adv-x="825" d="M14 23l35 122q158 -47 254 -47q107 0 178.5 58.5t71.5 146.5q0 55 -41.5 94.5t-100.5 66t-118.5 56t-101 82.5t-41.5 129q0 145 105.5 243.5t272.5 98.5q129 0 256 -45l-41 -121q-112 39 -233 39q-99 0 -160 -52t-61 -132q0 -39 22 -70.5t58 -54.5t79 -44t85.5 -45 t78.5 -52t58 -70.5t22 -95.5q0 -67 -23 -128.5t-69 -114t-125 -83.5t-182 -31q-150 0 -279 50zM317 1309l394 157l28 -127l-399 -133z" />
<glyph unicode="&#x15c;" horiz-adv-x="997" d="M20 43l46 127q187 -68 344 -68q59 0 115.5 19t103.5 54.5t75.5 94.5t28.5 131q0 60 -28.5 106.5t-74.5 77.5t-101 58.5t-110 57.5t-101 66t-74.5 92t-28.5 128q0 185 137 304.5t336 119.5q157 0 322 -65l-45 -121q-148 57 -299 57q-135 0 -221.5 -69t-86.5 -193 q0 -49 22.5 -90t59 -68.5t83.5 -55t95.5 -50t95.5 -54t83.5 -65.5t59 -86t22.5 -115q0 -110 -42 -199.5t-112 -146t-157 -87t-181 -30.5q-176 0 -367 70zM430 1620l289 162l233 -162l-84 -107l-172 140l-225 -140z" />
<glyph unicode="&#x15d;" horiz-adv-x="825" d="M14 23l35 122q158 -47 254 -47q107 0 178.5 58.5t71.5 146.5q0 55 -41.5 94.5t-100.5 66t-118.5 56t-101 82.5t-41.5 129q0 145 105.5 243.5t272.5 98.5q129 0 256 -45l-41 -121q-112 39 -233 39q-99 0 -160 -52t-61 -132q0 -39 22 -70.5t58 -54.5t79 -44t85.5 -45 t78.5 -52t58 -70.5t22 -95.5q0 -67 -23 -128.5t-69 -114t-125 -83.5t-182 -31q-150 0 -279 50zM291 1313l289 162l233 -162l-84 -107l-172 140l-225 -140z" />
<glyph unicode="&#x15e;" horiz-adv-x="997" d="M20 43l46 127q187 -68 344 -68q59 0 115.5 19t103.5 54.5t75.5 94.5t28.5 131q0 60 -28.5 106.5t-74.5 77.5t-101 58.5t-110 57.5t-101 66t-74.5 92t-28.5 128q0 185 137 304.5t336 119.5q157 0 322 -65l-45 -121q-148 57 -299 57q-135 0 -221.5 -69t-86.5 -193 q0 -49 22.5 -90t59 -68.5t83.5 -55t95.5 -50t95.5 -54t83.5 -65.5t59 -86t22.5 -115q0 -97 -33.5 -179t-90.5 -138t-129.5 -91.5t-154.5 -47.5l-35 -195q-10 -60 -37.5 -103.5t-65.5 -67.5t-79 -35t-86 -11q-47 0 -105 12l29 117q42 -10 88 -10q60 0 92 27.5t41 84.5l31 176 q-164 7 -324 68z" />
<glyph unicode="&#x15f;" horiz-adv-x="825" d="M-33 -420l29 117q42 -10 88 -10q60 0 92 27.5t41 84.5l31 176q-124 6 -234 48l35 122q158 -47 254 -47q107 0 178.5 58.5t71.5 146.5q0 55 -41.5 94.5t-100.5 66t-118.5 56t-101 82.5t-41.5 129q0 145 105.5 243.5t272.5 98.5q129 0 256 -45l-41 -121q-112 39 -233 39 q-99 0 -160 -52t-61 -132q0 -39 22 -70.5t58 -54.5t79 -44t85.5 -45t78.5 -52t58 -70.5t22 -95.5q0 -128 -80 -228t-237 -122l-35 -195q-10 -60 -37.5 -103.5t-65.5 -67.5t-79 -35t-86 -11q-47 0 -105 12z" />
<glyph unicode="&#x160;" horiz-adv-x="997" d="M20 43l46 127q187 -68 344 -68q59 0 115.5 19t103.5 54.5t75.5 94.5t28.5 131q0 60 -28.5 106.5t-74.5 77.5t-101 58.5t-110 57.5t-101 66t-74.5 92t-28.5 128q0 185 137 304.5t336 119.5q157 0 322 -65l-45 -121q-148 57 -299 57q-135 0 -221.5 -69t-86.5 -193 q0 -49 22.5 -90t59 -68.5t83.5 -55t95.5 -50t95.5 -54t83.5 -65.5t59 -86t22.5 -115q0 -110 -42 -199.5t-112 -146t-157 -87t-181 -30.5q-176 0 -367 70zM436 1675l80 107l172 -140l225 140l45 -107l-292 -162z" />
<glyph unicode="&#x161;" horiz-adv-x="825" d="M14 23l35 122q158 -47 254 -47q107 0 178.5 58.5t71.5 146.5q0 55 -41.5 94.5t-100.5 66t-118.5 56t-101 82.5t-41.5 129q0 145 105.5 243.5t272.5 98.5q129 0 256 -45l-41 -121q-112 39 -233 39q-99 0 -160 -52t-61 -132q0 -39 22 -70.5t58 -54.5t79 -44t85.5 -45 t78.5 -52t58 -70.5t22 -95.5q0 -67 -23 -128.5t-69 -114t-125 -83.5t-182 -31q-150 0 -279 50zM291 1368l80 107l172 -140l225 140l45 -107l-293 -162z" />
<glyph unicode="&#x162;" horiz-adv-x="1040" d="M203 1255l22 129h899l-22 -129h-381l-221 -1255h-138l222 1255h-381zM221 -459l119 326h139l-160 -326h-98z" />
<glyph unicode="&#x163;" horiz-adv-x="587" d="M-35 -459l119 326h139l-160 -326h-98zM113 0l166 938h-136l-24 109h178l55 307l140 39l-62 -346h219l-20 -109h-217l-166 -938h-133z" />
<glyph unicode="&#x164;" horiz-adv-x="1040" d="M203 1255l22 129h899l-22 -129h-381l-221 -1255h-138l222 1255h-381zM457 1675l80 107l172 -140l225 140l45 -107l-293 -162z" />
<glyph unicode="&#x165;" horiz-adv-x="587" d="M113 0l166 938h-136l-24 109h178l55 307l140 39l-62 -346h219l-20 -109h-217l-166 -938h-133zM621 1184l65 370l145 21l-112 -391h-98z" />
<glyph unicode="&#x166;" horiz-adv-x="1044" d="M203 1253l24 131h899l-22 -131h-381l-84 -477h231l-18 -106h-231l-117 -670h-142l117 670h-217l19 106h217l86 477h-381z" />
<glyph unicode="&#x167;" horiz-adv-x="587" d="M78 524l18 107h127l56 307h-136l-24 109h178l55 307l140 39l-62 -346h219l-20 -109h-217l-56 -307h217l-18 -107h-217l-92 -524h-133l92 524h-127z" />
<glyph unicode="&#x168;" horiz-adv-x="1255" d="M158 436l168 948h137l-166 -942q-26 -148 48 -244t216 -96q140 0 245.5 95.5t131.5 244.5l166 942h137l-166 -948q-36 -202 -190.5 -332.5t-345.5 -130.5q-127 0 -222 58t-138.5 164.5t-20.5 240.5zM541 1649q24 39 72.5 75.5t107.5 36.5q36 0 69.5 -15.5t54.5 -34.5 t47 -34.5t48 -15.5q28 0 56 18t46 41l54 -67q-24 -39 -71.5 -76t-104.5 -37q-37 0 -71 15.5t-55.5 33.5t-47.5 33.5t-48 15.5q-54 0 -104 -57z" />
<glyph unicode="&#x169;" horiz-adv-x="1085" d="M133 389l117 658h133l-115 -648q-25 -146 29.5 -223.5t165.5 -77.5t194.5 78t108.5 223l115 648h133l-117 -658q-35 -199 -157.5 -307.5t-297.5 -108.5q-166 0 -254.5 110t-54.5 306zM406 1341q25 40 73 76.5t107 36.5q36 0 69.5 -15.5t54.5 -34.5t47 -34.5t48 -15.5 q28 0 56 18t46 41l54 -67q-24 -39 -72 -76t-105 -37q-37 0 -71 15.5t-55 33.5t-47 33.5t-48 15.5q-54 0 -104 -57z" />
<glyph unicode="&#x16a;" horiz-adv-x="1255" d="M158 436l168 948h137l-166 -942q-26 -148 48 -244t216 -96q140 0 245.5 95.5t131.5 244.5l166 942h137l-166 -948q-36 -202 -190.5 -332.5t-345.5 -130.5q-127 0 -222 58t-138.5 164.5t-20.5 240.5zM565 1593l23 127h508l-23 -127h-508z" />
<glyph unicode="&#x16b;" horiz-adv-x="1085" d="M133 389l117 658h133l-115 -648q-25 -146 29.5 -223.5t165.5 -77.5t194.5 78t108.5 223l115 648h133l-117 -658q-35 -199 -157.5 -307.5t-297.5 -108.5q-166 0 -254.5 110t-54.5 306zM420 1286l22 127h508l-22 -127h-508z" />
<glyph unicode="&#x16c;" horiz-adv-x="1255" d="M158 436l168 948h137l-166 -942q-26 -148 48 -244t216 -96q140 0 245.5 95.5t131.5 244.5l166 942h137l-166 -948q-36 -202 -190.5 -332.5t-345.5 -130.5q-127 0 -222 58t-138.5 164.5t-20.5 240.5zM610 1767h117q-9 -52 16.5 -87t71.5 -35q43 0 80.5 35t46.5 87h117 q-19 -103 -93.5 -169t-170.5 -66q-98 0 -151 66t-34 169z" />
<glyph unicode="&#x16d;" horiz-adv-x="1085" d="M133 389l117 658h133l-115 -648q-25 -146 29.5 -223.5t165.5 -77.5t194.5 78t108.5 223l115 648h133l-117 -658q-35 -199 -157.5 -307.5t-297.5 -108.5q-166 0 -254.5 110t-54.5 306zM473 1460h117q-9 -52 16.5 -87.5t71.5 -35.5q43 0 80.5 35.5t46.5 87.5h117 q-19 -103 -94 -169t-171 -66q-98 0 -150.5 66t-33.5 169z" />
<glyph unicode="&#x16e;" horiz-adv-x="1255" d="M158 436l168 948h137l-166 -942q-26 -148 48 -244t216 -96q140 0 245.5 95.5t131.5 244.5l166 942h137l-166 -948q-36 -202 -190.5 -332.5t-345.5 -130.5q-127 0 -222 58t-138.5 164.5t-20.5 240.5zM643 1690q0 71 52.5 122.5t125.5 51.5q71 0 122.5 -52t51.5 -122 q0 -72 -51.5 -124.5t-122.5 -52.5q-73 0 -125.5 52.5t-52.5 124.5zM750 1690q0 -30 20.5 -52t50.5 -22q29 0 50.5 22.5t21.5 51.5q0 30 -21.5 51.5t-50.5 21.5q-31 0 -51 -21t-20 -52z" />
<glyph unicode="&#x16f;" horiz-adv-x="1085" d="M133 389l117 658h133l-115 -648q-25 -146 29.5 -223.5t165.5 -77.5t194.5 78t108.5 223l115 648h133l-117 -658q-35 -199 -157.5 -307.5t-297.5 -108.5q-166 0 -254.5 110t-54.5 306zM489 1382q0 71 53 122.5t126 51.5q70 0 122 -52t52 -122q0 -72 -51.5 -124t-122.5 -52 q-73 0 -126 52t-53 124zM596 1382q0 -30 21 -51.5t51 -21.5q29 0 50 22t21 51q0 31 -21 52.5t-50 21.5q-31 0 -51.5 -21.5t-20.5 -52.5z" />
<glyph unicode="&#x170;" horiz-adv-x="1255" d="M158 436l168 948h137l-166 -942q-26 -148 48 -244t216 -96q140 0 245.5 95.5t131.5 244.5l166 942h137l-166 -948q-36 -202 -190.5 -332.5t-345.5 -130.5q-127 0 -222 58t-138.5 164.5t-20.5 240.5zM532 1593l351 211l49 -116l-359 -189zM948 1595l352 211l48 -116 l-359 -189z" />
<glyph unicode="&#x171;" horiz-adv-x="1085" d="M133 389l117 658h133l-115 -648q-25 -146 29.5 -223.5t165.5 -77.5t194.5 78t108.5 223l115 648h133l-117 -658q-35 -199 -157.5 -307.5t-297.5 -108.5q-166 0 -254.5 110t-54.5 306zM373 1286l350 211l49 -117l-358 -188zM788 1288l353 211l47 -117l-359 -188z" />
<glyph unicode="&#x172;" horiz-adv-x="1255" d="M158 436l168 948h137l-166 -942q-26 -148 48 -244t216 -96q140 0 245.5 95.5t131.5 244.5l166 942h137l-166 -948q-33 -183 -164.5 -307.5t-302.5 -148.5q-91 -65 -144.5 -128.5t-53.5 -134.5q0 -65 71 -65q44 0 76 12l6 -102q-55 -19 -100 -19q-78 0 -123 40.5 t-45 109.5q0 78 52 152t130 132q-169 21 -260.5 147.5t-58.5 311.5z" />
<glyph unicode="&#x173;" horiz-adv-x="1085" d="M133 389l117 658h133l-115 -648q-25 -146 29.5 -223.5t165.5 -77.5t194.5 78t108.5 223l115 648h133l-117 -658q-30 -175 -128 -279t-243 -128q-93 -65 -147.5 -129t-54.5 -136q0 -65 71 -65q44 0 76 12l6 -102q-55 -19 -100 -19q-78 0 -123 40.5t-45 109.5q0 78 52 152 t130 132q-143 16 -216 124t-42 288z" />
<glyph unicode="&#x174;" horiz-adv-x="1673" d="M266 1384h137l-4 -1046q0 -59 -12 -191q14 31 41.5 97.5t40.5 93.5l397 833h170l107 -833q5 -43 14 -191q22 84 60 191l364 1046h137l-493 -1384h-162l-117 866q-9 70 -16 178q-38 -93 -78 -178l-418 -866h-162zM750 1620l288 162l234 -162l-84 -107l-172 140l-225 -140z " />
<glyph unicode="&#x175;" horiz-adv-x="1552" d="M121 346l78 701h133l-80 -693q-12 -116 30.5 -185t135.5 -69q94 0 165 71.5t91 186.5l108 611h131l-108 -611q-20 -115 26 -186.5t140 -71.5q92 0 160.5 69.5t95.5 184.5l168 693h133l-174 -703q-43 -172 -151.5 -271.5t-254.5 -99.5q-84 0 -149 40.5t-101 113.5 q-59 -72 -139 -113t-164 -41q-144 0 -217.5 101t-56.5 272zM647 1313l289 162l233 -162l-84 -107l-172 140l-225 -140z" />
<glyph unicode="&#x176;" horiz-adv-x="1105" d="M215 1384h141l224 -712l477 712h145l-575 -852l-92 -532h-138l92 532zM483 1620l289 162l234 -162l-84 -107l-172 140l-226 -140z" />
<glyph unicode="&#x177;" horiz-adv-x="962" d="M127 360l29 687h135l-29 -668q-5 -123 35 -187.5t143 -64.5h129l275 920h135l-447 -1479h-133l133 432h-114q-307 0 -291 360zM356 1313l289 162l234 -162l-84 -107l-172 140l-226 -140z" />
<glyph unicode="&#x178;" horiz-adv-x="1105" d="M215 1384h141l224 -712l477 712h145l-575 -852l-92 -532h-138l92 532zM451 1653q0 40 28 68t66 28t66 -28t28 -68q0 -37 -28 -64.5t-66 -27.5t-66 27.5t-28 64.5zM823 1653q0 39 29 67.5t66 28.5q40 0 68 -28t28 -68q0 -37 -28.5 -64.5t-67.5 -27.5q-37 0 -66 28t-29 64z " />
<glyph unicode="&#x179;" horiz-adv-x="1085" d="M33 0l20 117l877 1143h-666l23 124h837l-20 -110l-877 -1149h713l-39 -125h-868zM500 1616l393 158l29 -127l-400 -134z" />
<glyph unicode="&#x17a;" horiz-adv-x="935" d="M33 0l22 133l652 791h-500l22 123h662l-23 -121l-667 -803h547l-41 -123h-674zM362 1309l394 157l28 -127l-399 -133z" />
<glyph unicode="&#x17b;" horiz-adv-x="1085" d="M33 0l20 117l877 1143h-666l23 124h837l-20 -110l-877 -1149h713l-39 -125h-868zM631 1653q0 39 28.5 67.5t65.5 28.5q40 0 68 -28t28 -68q0 -37 -28.5 -64.5t-67.5 -27.5q-37 0 -65.5 27.5t-28.5 64.5z" />
<glyph unicode="&#x17c;" horiz-adv-x="935" d="M33 0l22 133l652 791h-500l22 123h662l-23 -121l-667 -803h547l-41 -123h-674zM485 1346q0 39 29 67.5t66 28.5q40 0 68 -28t28 -68q0 -37 -28.5 -65t-67.5 -28q-37 0 -66 28t-29 65z" />
<glyph unicode="&#x17d;" horiz-adv-x="1085" d="M33 0l20 117l877 1143h-666l23 124h837l-20 -110l-877 -1149h713l-39 -125h-868zM469 1675l80 107l172 -140l225 140l45 -107l-293 -162z" />
<glyph unicode="&#x17e;" horiz-adv-x="935" d="M33 0l22 133l652 791h-500l22 123h662l-23 -121l-667 -803h547l-41 -123h-674zM338 1368l80 107l172 -140l225 140l45 -107l-293 -162z" />
<glyph unicode="&#x192;" horiz-adv-x="1019" d="M-154 -428l35 125q55 -19 103 -19q69 0 129.5 42.5t87.5 129.5l301 959h-185l19 106h199l96 306q46 146 136.5 220.5t207.5 74.5q72 0 137 -21l-35 -125q-59 19 -102 19q-69 0 -129.5 -42.5t-87.5 -129.5l-96 -302h264l-58 -106h-239l-303 -963q-44 -145 -135 -220 t-207 -75q-69 0 -138 21z" />
<glyph unicode="&#x218;" horiz-adv-x="997" d="M20 43l46 127q187 -68 344 -68q59 0 115.5 19t103.5 54.5t75.5 94.5t28.5 131q0 60 -28.5 106.5t-74.5 77.5t-101 58.5t-110 57.5t-101 66t-74.5 92t-28.5 128q0 185 137 304.5t336 119.5q157 0 322 -65l-45 -121q-148 57 -299 57q-135 0 -221.5 -69t-86.5 -193 q0 -49 22.5 -90t59 -68.5t83.5 -55t95.5 -50t95.5 -54t83.5 -65.5t59 -86t22.5 -115q0 -110 -42 -199.5t-112 -146t-157 -87t-181 -30.5q-176 0 -367 70zM156 -459l118 326h140l-160 -326h-98z" />
<glyph unicode="&#x219;" horiz-adv-x="825" d="M14 23l35 122q158 -47 254 -47q107 0 178.5 58.5t71.5 146.5q0 55 -41.5 94.5t-100.5 66t-118.5 56t-101 82.5t-41.5 129q0 145 105.5 243.5t272.5 98.5q129 0 256 -45l-41 -121q-112 39 -233 39q-99 0 -160 -52t-61 -132q0 -39 22 -70.5t58 -54.5t79 -44t85.5 -45 t78.5 -52t58 -70.5t22 -95.5q0 -67 -23 -128.5t-69 -114t-125 -83.5t-182 -31q-150 0 -279 50zM121 -459l119 326h139l-160 -326h-98z" />
<glyph unicode="&#x2c6;" horiz-adv-x="931" d="M369 1313l288 162l234 -162l-84 -107l-172 140l-225 -140z" />
<glyph unicode="&#x2c7;" horiz-adv-x="931" d="M354 1368l80 107l172 -140l225 140l46 -107l-293 -162z" />
<glyph unicode="&#x2d8;" horiz-adv-x="813" d="M387 1460h117q-9 -52 16.5 -87.5t71.5 -35.5q43 0 80.5 35.5t46.5 87.5h117q-19 -103 -94 -169t-171 -66q-98 0 -150.5 66t-33.5 169z" />
<glyph unicode="&#x2d9;" horiz-adv-x="538" d="M326 1346q0 39 28.5 67.5t65.5 28.5q40 0 68 -28t28 -68q0 -37 -28.5 -65t-67.5 -28q-37 0 -65.5 28t-28.5 65z" />
<glyph unicode="&#x2da;" horiz-adv-x="700" d="M342 1382q0 71 52.5 122.5t125.5 51.5q70 0 122 -52t52 -122q0 -72 -51.5 -124t-122.5 -52q-73 0 -125.5 52t-52.5 124zM449 1382q0 -30 20.5 -51.5t50.5 -21.5q29 0 50.5 22t21.5 51q0 31 -21.5 52.5t-50.5 21.5q-30 0 -50.5 -21.5t-20.5 -52.5z" />
<glyph unicode="&#x2db;" horiz-adv-x="634" d="M51 -307q0 87 64 168t153 139h129q-50 -34 -84.5 -61.5t-71.5 -64.5t-56 -76.5t-19 -80.5q0 -65 72 -65q43 0 75 12l6 -102q-55 -19 -100 -19q-78 0 -123 40.5t-45 109.5z" />
<glyph unicode="&#x2dc;" horiz-adv-x="901" d="M346 1341q25 40 73 76.5t107 36.5q36 0 69.5 -15.5t54.5 -34.5t47 -34.5t48 -15.5q28 0 56.5 18.5t46.5 40.5l53 -67q-24 -39 -71.5 -76t-104.5 -37q-37 0 -71 15.5t-55 33.5t-47 33.5t-48 15.5q-55 0 -105 -57z" />
<glyph unicode="&#x2dd;" d="M373 1286l350 211l49 -117l-358 -188zM788 1288l353 211l47 -117l-359 -188z" />
<glyph unicode="&#x3a9;" horiz-adv-x="1411" d="M39 0l20 125h293l29 158q-129 69 -182 198.5t-25 288.5l25 141q27 155 116 281.5t234 203.5t319 77q131 0 232.5 -46t159.5 -124t80 -179.5t3 -212.5l-24 -141q-28 -163 -126.5 -292t-250.5 -197l-29 -156h291l-20 -125h-422l65 379q100 32 180.5 100t125 144.5 t57.5 152.5l22 129q11 47 6 97.5t-17.5 100t-43 94t-71 78t-102.5 53.5t-136 20q-90 0 -170.5 -28.5t-138.5 -74t-104 -104.5t-72.5 -118.5t-36.5 -117.5l-23 -129q-13 -77 4 -153.5t73.5 -145t145.5 -100.5l-65 -377h-422z" />
<glyph unicode="&#x3c0;" horiz-adv-x="1445" d="M229 920l23 127h1171l-22 -127h-166l-162 -920h-129l162 920h-584l-162 -920h-129l162 920h-164z" />
<glyph unicode="&#x401;" horiz-adv-x="1048" d="M92 0l244 1384h708l-22 -129h-571l-89 -495h490l-35 -125h-477l-88 -506h590l-23 -129h-727zM418 1653q0 40 28 68t66 28t66 -28t28 -68q0 -37 -28 -64.5t-66 -27.5t-66 27.5t-28 64.5zM791 1653q0 39 28.5 67.5t65.5 28.5q40 0 68 -28t28 -68q0 -37 -28.5 -64.5 t-67.5 -27.5q-37 0 -65.5 27.5t-28.5 64.5z" />
<glyph unicode="&#x402;" horiz-adv-x="1425" d="M201 1255l22 129h901l-22 -129h-381l-96 -542q75 31 119.5 46.5t120 30.5t153.5 15q72 0 130 -23t99.5 -68.5t57.5 -121.5t0 -176l-13 -78q-16 -99 -57 -171.5t-99.5 -112.5t-124 -58.5t-139.5 -18.5q-107 0 -194 23l20 127q82 -21 174 -21q107 0 183.5 57t97.5 173 l21 106q21 116 -37 175t-164 59q-78 0 -148 -14.5t-108.5 -29t-114.5 -48.5l-102 -584h-138l222 1255h-383z" />
<glyph unicode="&#x403;" horiz-adv-x="927" d="M92 0l244 1384h676l-23 -129h-538l-222 -1255h-137zM500 1591l393 158l29 -127l-400 -133z" />
<glyph unicode="&#x404;" horiz-adv-x="1124" d="M141 283q-19 104 4 243l58 332q48 269 213.5 411t394.5 142q101 0 184 -15.5t187 -49.5l-49 -125q-189 61 -342 61q-172 0 -293 -109t-158 -321l-14 -82h516l-35 -129h-504l-18 -111q-38 -216 43.5 -322t255.5 -106q156 0 368 62v-129q-218 -62 -393 -62 q-111 0 -197.5 34t-144 103t-76.5 173z" />
<glyph unicode="&#x405;" horiz-adv-x="997" d="M20 43l46 127q187 -68 344 -68q59 0 115.5 19t103.5 54.5t75.5 94.5t28.5 131q0 60 -28.5 106.5t-74.5 77.5t-101 58.5t-110 57.5t-101 66t-74.5 92t-28.5 128q0 185 137 304.5t336 119.5q157 0 322 -65l-45 -121q-148 57 -299 57q-135 0 -221.5 -69t-86.5 -193 q0 -49 22.5 -90t59 -68.5t83.5 -55t95.5 -50t95.5 -54t83.5 -65.5t59 -86t22.5 -115q0 -110 -42 -199.5t-112 -146t-157 -87t-181 -30.5q-176 0 -367 70z" />
<glyph unicode="&#x406;" horiz-adv-x="497" d="M92 0l244 1384h137l-244 -1384h-137z" />
<glyph unicode="&#x407;" horiz-adv-x="497" d="M92 0l244 1384h137l-244 -1384h-137zM152 1653q0 40 28 68t66 28t66 -28t28 -68q0 -37 -28 -64.5t-66 -27.5t-66 27.5t-28 64.5zM524 1653q0 39 28.5 67.5t65.5 28.5q40 0 68.5 -28t28.5 -68q0 -37 -28.5 -64.5t-68.5 -27.5q-37 0 -65.5 27.5t-28.5 64.5z" />
<glyph unicode="&#x408;" horiz-adv-x="933" d="M-12 33l37 123q140 -54 266 -54q139 0 222.5 93t109.5 245l165 944h138l-168 -950q-39 -217 -161 -339t-308 -122q-156 0 -301 60z" />
<glyph unicode="&#x409;" horiz-adv-x="1916" d="M-53 -16l24 145q61 8 93.5 16.5t84.5 38t85.5 78t80 139t84 219.5t82 321.5t88.5 442.5h715l-104 -585h325q152 0 244 -106t92 -251q0 -127 -64.5 -229t-173 -157.5t-237.5 -55.5h-463l221 1255h-442q-37 -207 -74 -372t-76.5 -291t-78 -218.5t-85 -158t-90 -107 t-100.5 -67.5t-108.5 -38t-122.5 -19zM1063 129h328q139 0 224 83.5t85 231.5q0 98 -56.5 162t-158.5 64h-326z" />
<glyph unicode="&#x40a;" horiz-adv-x="1873" d="M92 0l244 1384h137l-104 -585h630l105 585h137l-104 -585h325q152 0 244 -106t92 -251q0 -127 -64.5 -229t-173 -157.5t-237.5 -55.5h-463l117 670h-631l-117 -670h-137zM1020 129h328q139 0 224 83.5t85 231.5q0 98 -56.5 162t-158.5 64h-326z" />
<glyph unicode="&#x40b;" horiz-adv-x="1445" d="M201 1255l22 129h901l-22 -129h-381l-96 -542q75 31 119.5 46.5t120 30.5t153.5 15q73 0 128 -20.5t94.5 -65.5t50.5 -116.5t-5 -174.5l-74 -428h-137l78 442q21 118 -27.5 176t-152.5 58q-78 0 -148 -14.5t-108.5 -29t-114.5 -48.5l-102 -584h-138l222 1255h-383z" />
<glyph unicode="&#x40c;" horiz-adv-x="1159" d="M92 0l244 1384h137l-119 -667l348 117q78 27 126.5 74.5t84.5 127.5l154 348h133l-158 -356q-52 -116 -118 -190t-174 -111l247 -727h-143l-231 682l-291 -100l-103 -582h-137zM590 1616l393 158l29 -127l-400 -134z" />
<glyph unicode="&#x40e;" horiz-adv-x="1159" d="M248 0v127h194q91 0 140.5 39t85.5 137l57 162h-166q-159 0 -228 91.5t-69 268.5v559h137v-540q0 -123 40.5 -186.5t144.5 -63.5h186l283 790h143l-397 -1105q-51 -143 -122 -211t-198 -68h-231zM559 1749l123 23q0 -57 26 -92t76 -35q52 0 91 35t59 92l115 -23 q-28 -105 -104 -162t-165 -57q-105 0 -164 60t-57 159z" />
<glyph unicode="&#x40f;" horiz-adv-x="1263" d="M92 0l244 1384h137l-221 -1255h629l221 1255h137l-244 -1384h-372l-54 -291l-139 -26l57 317h-395z" />
<glyph unicode="&#x410;" horiz-adv-x="1181" d="M-18 0l688 1384h155l201 -1384h-137l-53 393h-517l-192 -393h-145zM379 516h440l-69 510q-18 128 -25 215q-11 -25 -31.5 -72t-36 -82.5t-28.5 -60.5z" />
<glyph unicode="&#x411;" horiz-adv-x="1126" d="M92 0l244 1384h729l-23 -129h-591l-82 -456h317q154 0 245 -102t91 -257q0 -183 -131 -311.5t-320 -128.5h-479zM252 129h319q135 0 222.5 89.5t87.5 227.5q0 98 -56.5 161t-158.5 63h-320z" />
<glyph unicode="&#x412;" horiz-adv-x="1126" d="M92 0l244 1384h399q167 0 258.5 -78t91.5 -206q0 -117 -64 -216t-175 -155q93 -39 135.5 -111t42.5 -159q0 -55 -17.5 -114.5t-59.5 -122t-102 -111.5t-155 -80t-209 -31h-389zM252 129h250q179 0 279 87t100 230q0 95 -67 149t-208 54h-264zM365 774h245q148 0 240 80.5 t92 214.5q0 89 -59 137.5t-174 48.5h-258z" />
<glyph unicode="&#x413;" horiz-adv-x="927" d="M92 0l244 1384h676l-23 -129h-538l-222 -1255h-137z" />
<glyph unicode="&#x414;" horiz-adv-x="1345" d="M-127 -317l78 446h153q149 188 280 530.5t198 724.5h718l-221 -1255h181l-76 -420l-137 -26l57 317h-1043l-53 -291zM264 129h678l199 1126h-449q-148 -721 -428 -1126z" />
<glyph unicode="&#x415;" horiz-adv-x="1048" d="M92 0l244 1384h708l-22 -129h-571l-89 -495h490l-35 -125h-477l-88 -506h590l-23 -129h-727z" />
<glyph unicode="&#x416;" horiz-adv-x="1685" d="M-41 0l469 733q-91 49 -121.5 111t-32.5 178l-6 362h131l7 -354q2 -83 37 -134.5t120 -84.5l246 -96l119 669h137l-119 -669l281 96q96 33 148 84.5t83 134.5l133 354h135l-137 -362q-44 -119 -96 -181t-164 -114l213 -727h-141l-203 678l-274 -98l-103 -580h-137 l102 582l-235 96l-438 -678h-154z" />
<glyph unicode="&#x417;" horiz-adv-x="1046" d="M8 47l45 127q202 -72 350 -72q156 0 261.5 97t105.5 247q0 203 -260 203h-107l11 125h98q142 0 248 94.5t106 218.5q0 90 -71 142.5t-185 52.5q-119 0 -327 -63l-13 122q200 70 383 70q172 0 263.5 -85t91.5 -241q0 -61 -28 -128.5t-87.5 -131t-138.5 -96.5 q85 -35 123 -115.5t38 -171.5q0 -220 -143.5 -344.5t-372.5 -124.5q-185 0 -391 74z" />
<glyph unicode="&#x418;" horiz-adv-x="1282" d="M92 0l244 1384h137l-166 -933q-13 -89 -37 -195l879 1128h108l-243 -1384h-137l157 913q15 79 45 197l-868 -1110h-119z" />
<glyph unicode="&#x419;" horiz-adv-x="1310" d="M92 0l244 1384h137l-166 -933q-13 -89 -37 -195l879 1128h108l-243 -1384h-137l157 913q15 79 45 197l-868 -1110h-119zM614 1749l123 23q0 -57 26.5 -92t76.5 -35q52 0 90.5 35t58.5 92l115 -23q-28 -105 -103.5 -162t-164.5 -57q-105 0 -164.5 60t-57.5 159z" />
<glyph unicode="&#x41a;" horiz-adv-x="1159" d="M92 0l244 1384h137l-119 -667l348 117q78 27 126.5 74.5t84.5 127.5l154 348h133l-158 -356q-52 -116 -118 -190t-174 -111l247 -727h-143l-231 682l-291 -100l-103 -582h-137z" />
<glyph unicode="&#x41b;" horiz-adv-x="1308" d="M-53 -16l24 145q61 8 93.5 16.5t84.5 38t85.5 78t80 139t84 219.5t82 321.5t88.5 442.5h715l-244 -1384h-137l221 1255h-442q-37 -207 -74 -372t-76.5 -291t-78 -218.5t-85 -158t-90 -107t-100.5 -67.5t-108.5 -38t-122.5 -19z" />
<glyph unicode="&#x41c;" horiz-adv-x="1622" d="M23 0l411 1384h168l164 -809q18 -83 27 -178q63 133 88 178l452 809h168l-76 -1384h-135l58 1047q4 99 14 172q-83 -163 -88 -172l-424 -771h-158l-149 771l-31 165q-8 -34 -43 -165l-311 -1047h-135z" />
<glyph unicode="&#x41d;" horiz-adv-x="1265" d="M92 0l244 1384h137l-108 -614h630l109 614h137l-244 -1384h-137l113 641h-631l-113 -641h-137z" />
<glyph unicode="&#x41e;" horiz-adv-x="1255" d="M141 280q-19 103 4 242l58 336q24 135 81 242t136 174t172.5 102t195.5 35q101 0 182 -34t136.5 -103t74 -173t-4.5 -243l-58 -336q-24 -135 -81 -241.5t-135 -173t-171 -100.5t-194 -34q-102 0 -183.5 33.5t-137.5 102t-75 171.5zM283 528q-37 -209 40 -317.5 t236 -108.5q158 0 271.5 108t150.5 318l55 324q36 213 -38 321.5t-232 108.5q-159 0 -274 -109t-152 -321z" />
<glyph unicode="&#x41f;" horiz-adv-x="1263" d="M92 0l244 1384h903l-244 -1384h-137l221 1255h-628l-222 -1255h-137z" />
<glyph unicode="&#x420;" horiz-adv-x="1097" d="M92 0l244 1384h436q150 0 238 -91.5t88 -233.5q0 -127 -62 -240.5t-171.5 -183.5t-237.5 -70h-299l-99 -565h-137zM350 694h299q135 0 221 101.5t86 251.5q0 96 -53 152t-153 56h-299z" />
<glyph unicode="&#x421;" horiz-adv-x="1124" d="M141 283q-19 104 4 243l58 332q48 269 213.5 411t394.5 142q101 0 184 -15.5t187 -49.5l-49 -125q-189 61 -342 61q-172 0 -293 -109t-158 -321l-55 -322q-38 -216 43.5 -322t255.5 -106q156 0 368 62v-129q-218 -62 -393 -62q-111 0 -197.5 34t-144 103t-76.5 173z" />
<glyph unicode="&#x422;" horiz-adv-x="1040" d="M203 1255l22 129h899l-22 -129h-381l-221 -1255h-138l222 1255h-381z" />
<glyph unicode="&#x423;" horiz-adv-x="1159" d="M248 0v127h194q91 0 140.5 39t85.5 137l57 162h-166q-159 0 -228 91.5t-69 268.5v559h137v-540q0 -123 40.5 -186.5t144.5 -63.5h186l283 790h143l-397 -1105q-51 -143 -122 -211t-198 -68h-231z" />
<glyph unicode="&#x424;" horiz-adv-x="1497" d="M125 616q0 289 186 471.5t502 194.5l23 129h137l-23 -129q237 -9 362.5 -140t125.5 -331q0 -287 -184.5 -467t-501.5 -192l-33 -179h-137l32 179q-240 9 -364.5 136.5t-124.5 327.5zM266 616q0 -153 92 -243.5t277 -93.5l156 876q-170 -5 -290 -77t-177.5 -190 t-57.5 -272zM772 279q159 3 279.5 76t182.5 192t62 264t-90.5 241.5t-277.5 102.5z" />
<glyph unicode="&#x425;" horiz-adv-x="1157" d="M-18 0l559 731l-265 653h146l217 -536l410 536h141l-494 -645l303 -739h-147l-254 623l-473 -623h-143z" />
<glyph unicode="&#x426;" horiz-adv-x="1284" d="M92 0l244 1384h137l-221 -1255h629l221 1255h137l-221 -1255h180l-76 -420l-137 -26l57 317h-950z" />
<glyph unicode="&#x427;" horiz-adv-x="1187" d="M221 979l72 405h137l-78 -442q-21 -117 29 -175t154 -58q27 0 51 1t48.5 5t40.5 6t40.5 10t34.5 10.5t37 13.5t32.5 13.5t37 16.5t36.5 16l104 583h138l-244 -1384h-137l116 672q-82 -34 -118.5 -47.5t-112 -29t-152.5 -15.5q-152 0 -227 96.5t-39 302.5z" />
<glyph unicode="&#x428;" horiz-adv-x="1820" d="M92 0l244 1384h137l-221 -1255h524l221 1255h138l-222 -1255h525l221 1255h137l-244 -1384h-1460z" />
<glyph unicode="&#x429;" horiz-adv-x="1843" d="M92 0l244 1384h137l-221 -1255h524l221 1255h138l-222 -1255h525l221 1255h139l-221 -1255h178l-76 -420l-137 -26l57 317h-1507z" />
<glyph unicode="&#x42a;" horiz-adv-x="1284" d="M203 1255l22 129h426l-104 -585h325q152 0 244 -106t92 -251q0 -127 -64.5 -229t-173 -157.5t-237.5 -55.5h-463l222 1255h-289zM430 129h328q139 0 224 83.5t85 231.5q0 98 -56.5 162t-158.5 64h-326z" />
<glyph unicode="&#x42b;" horiz-adv-x="1542" d="M92 0l244 1384h137l-104 -585h325q152 0 244 -106t92 -251q0 -127 -64.5 -229t-173 -157.5t-237.5 -55.5h-463zM252 129h328q139 0 224 83.5t85 231.5q0 98 -56.5 162t-158.5 64h-326zM1137 0l243 1384h138l-244 -1384h-137z" />
<glyph unicode="&#x42c;" horiz-adv-x="1105" d="M92 0l244 1384h137l-104 -585h325q152 0 244 -106t92 -251q0 -127 -64.5 -229t-173 -157.5t-237.5 -55.5h-463zM252 129h328q139 0 224 83.5t85 231.5q0 98 -56.5 162t-158.5 64h-326z" />
<glyph unicode="&#x42d;" horiz-adv-x="1124" d="M8 39l49 125q192 -62 342 -62q172 0 293 109t158 321l18 109h-503l10 129h516l14 84q38 216 -43.5 322t-255.5 106q-159 0 -368 -61v129q214 61 393 61q111 0 197.5 -34t144 -103t76 -173t-4.5 -243l-61 -346q-48 -270 -201 -404.5t-381 -134.5q-189 0 -393 66z" />
<glyph unicode="&#x42e;" horiz-adv-x="1689" d="M92 0l244 1384h137l-108 -614h292l19 109q24 134 79 238.5t129 167.5t157.5 94.5t172.5 31.5q151 0 249.5 -75.5t132.5 -202t6 -285.5l-60 -338q-30 -180 -111 -303t-188 -178.5t-237 -55.5q-216 0 -325 154.5t-65 407.5l19 106h-293l-113 -641h-137zM749 311.5 q16 -94.5 82.5 -152t174.5 -57.5q148 0 256 103.5t145 310.5l57 326q18 86 9 165.5t-36.5 140.5t-85.5 97.5t-137 36.5q-149 0 -257 -100.5t-144 -309.5l-61 -344q-19 -122 -3 -216.5z" />
<glyph unicode="&#x42f;" horiz-adv-x="1112" d="M16 0l381 592q-65 21 -111 60t-69 87.5t-33 94.5t-10 96q0 193 138.5 323.5t338.5 130.5h436l-243 -1384h-137l98 567h-275l-358 -567h-156zM315 930q0 -101 56 -168.5t157 -67.5h299l101 561h-299q-136 0 -225 -89.5t-89 -235.5z" />
<glyph unicode="&#x430;" horiz-adv-x="1075" d="M116.5 215.5q-17.5 82.5 0.5 196.5l39 225q36 209 163.5 322.5t305.5 113.5q57 0 110 -18t97 -53.5t73.5 -88t40.5 -121.5t-4 -155l-113 -637h-114l10 113q-140 -140 -301 -140q-72 0 -134 26t-109 80t-64.5 136.5zM252 422q-30 -169 26.5 -245.5t170.5 -76.5 q80 0 151 44t141 114l66 369q28 157 -30.5 239t-172.5 82q-113 0 -201 -82t-116 -239z" />
<glyph unicode="&#x431;" horiz-adv-x="1081" d="M125 317q0 61 12 132l84 483q19 112 54.5 197t79.5 139.5t105 92.5t121.5 57t139.5 32l412 66l-23 -130l-428 -71q-135 -23 -215 -110t-113 -279q117 131 316 131q143 0 229 -89t86 -257q0 -59 -12 -129l-29 -162q-41 -229 -164.5 -338t-310.5 -109q-163 0 -253.5 87.5 t-90.5 256.5zM258 326q0 -228 221 -228q275 0 334 346l25 142q12 68 12 119q0 121 -58 174t-165 53q-273 0 -332 -346l-25 -142q-12 -68 -12 -118z" />
<glyph unicode="&#x432;" horiz-adv-x="1030" d="M72 0l184 1047h389q132 0 202.5 -63.5t70.5 -178.5q0 -83 -50 -151t-135 -103q137 -58 137 -225q0 -56 -23 -110.5t-69.5 -104t-131 -80.5t-193.5 -31h-381zM225 119h230q132 0 204 56t72 159q0 145 -203 145h-239zM309 598h226q106 0 172.5 55.5t66.5 149.5 q0 125 -172 125h-235z" />
<glyph unicode="&#x433;" horiz-adv-x="851" d="M102 231q0 59 19 107.5t57.5 87.5t74.5 65t91 58l117 67q40 22 57.5 32.5t48.5 34t45.5 43t26.5 49t12 63.5q0 51 -42 80.5t-126 29.5q-101 0 -235 -41l-15 121q143 45 273 45q137 0 212 -65.5t75 -173.5q0 -50 -15.5 -93.5t-36 -72.5t-61 -60.5t-68 -48.5t-80.5 -47 l-102 -59q-44 -26 -71 -44.5t-57 -45.5t-44 -57.5t-14 -65.5q0 -64 51 -103t139 -39q96 0 273 47l10 -122q-149 -50 -305 -50q-79 0 -140.5 22t-97.5 59t-54 82t-18 95z" />
<glyph unicode="&#x434;" horiz-adv-x="1069" d="M123 434l22 125q40 230 167.5 344.5t308.5 114.5q165 0 270 -90l24 133q8 42 9.5 84t-8 88t-31 81t-65 58t-103.5 23q-148 0 -305 -45l-4 112q182 54 303 54q202 0 286 -115t47 -330l-112 -637q-40 -230 -167.5 -345.5t-309.5 -115.5t-276.5 117t-55.5 344zM258 444 q-59 -346 209 -346q275 0 334 346l61 351q-47 42 -116.5 70t-139.5 28q-271 0 -330 -346z" />
<glyph unicode="&#x435;" horiz-adv-x="993" d="M117 418l41 231q34 198 159 311t287 113q132 0 220.5 -72.5t88.5 -193.5q0 -61 -25.5 -111.5t-64 -84t-98.5 -60t-113.5 -40.5t-126.5 -24.5t-119 -14.5t-108 -7l-8 -47q-28 -154 22.5 -237t202.5 -83q119 0 273 52l10 -127q-56 -17 -91.5 -26t-91.5 -16.5t-116 -7.5 q-189 0 -283.5 117t-58.5 328zM276 573q48 2 94 6t107 13.5t110.5 26t94 39.5t69.5 58t25 79q0 75 -48.5 114t-139.5 39q-108 0 -188 -77t-107 -214z" />
<glyph unicode="&#x436;" horiz-adv-x="1452" d="M-37 0l361 549q-56 28 -82.5 73.5t-36.5 149.5l-27 275h129l23 -259q5 -57 28 -90.5t70 -50.5l236 -84l86 484h133l-86 -484l264 84q52 17 83.5 49.5t57.5 91.5l117 259h135l-125 -275q-48 -106 -91.5 -151.5t-113.5 -73.5l170 -547h-137l-153 506l-232 -78l-74 -428 h-133l74 428l-201 76l-325 -504h-150z" />
<glyph unicode="&#x437;" horiz-adv-x="860" d="M-6 33l41 117q157 -56 254 -56q120 0 197 64t77 174q0 145 -190 145h-82v119h90q104 0 179 70.5t75 160.5q0 125 -197 125q-79 0 -252 -51l-4 115q162 57 303 57q130 0 204.5 -69t74.5 -175q0 -91 -50 -165t-141 -113q65 -27 95 -82t30 -121q0 -177 -112 -276t-291 -99 q-141 0 -301 60z" />
<glyph unicode="&#x438;" horiz-adv-x="1083" d="M129.5 242q-8.5 73 9.5 170l113 635h133l-111 -625q-58 -324 179 -324q74 0 145 44t145 114l140 791h133l-185 -1047h-112l-2 104q-140 -131 -291 -131q-58 0 -107 14.5t-91 46.5t-66 83.5t-32.5 124.5z" />
<glyph unicode="&#x439;" horiz-adv-x="1083" d="M129.5 242q-8.5 73 9.5 170l113 635h133l-111 -625q-58 -324 179 -324q74 0 145 44t145 114l140 791h133l-185 -1047h-112l-2 104q-140 -131 -291 -131q-58 0 -107 14.5t-91 46.5t-66 83.5t-32.5 124.5zM453 1438l116 22q0 -55 26 -89t75 -34t85 33.5t56 89.5l109 -22 q-33 -98 -99 -155.5t-155 -57.5q-92 0 -153 59.5t-60 153.5z" />
<glyph unicode="&#x43a;" horiz-adv-x="983" d="M72 0l184 1047h133l-88 -490l289 98q54 19 84.5 47.5t56.5 85.5l119 259h135l-129 -275q-49 -109 -94 -151.5t-123 -69.5l192 -551h-137l-176 508l-239 -86l-74 -422h-133z" />
<glyph unicode="&#x43b;" horiz-adv-x="1030" d="M-4 0l262 686q66 176 170.5 268.5t263.5 92.5h273l-185 -1047h-135l162 926h-135q-103 0 -169.5 -67t-113.5 -191l-256 -668h-137z" />
<glyph unicode="&#x43c;" horiz-adv-x="1347" d="M41 0l313 1047h183l131 -711l381 711h190l-55 -1047h-133l49 901l-371 -692h-164l-125 690l-264 -899h-135z" />
<glyph unicode="&#x43d;" horiz-adv-x="1085" d="M72 0l184 1047h133l-80 -445h498l80 445h133l-184 -1047h-134l84 479h-497l-84 -479h-133z" />
<glyph unicode="&#x43e;" horiz-adv-x="1069" d="M116.5 228q-16.5 87 2.5 206l33 180q82 459 483 459q82 0 148.5 -27t115 -83.5t65 -143.5t-2.5 -207l-31 -178q-40 -232 -166 -346.5t-322 -114.5q-81 0 -147 27.5t-114 84t-64.5 143.5zM254 444q-59 -346 209 -346q125 0 213.5 81t120.5 265l28 158q62 346 -213 346 q-267 0 -329 -346z" />
<glyph unicode="&#x43f;" horiz-adv-x="1083" d="M72 0l184 1047h113l2 -105q140 131 291 131q73 0 131 -23t103 -74.5t57.5 -135.5t-5.5 -205l-112 -635h-134l111 625q31 173 -17 248t-161 75q-125 0 -291 -157l-139 -791h-133z" />
<glyph unicode="&#x440;" horiz-adv-x="1075" d="M-6 -432l262 1479h113l2 -105q49 56 123 93.5t153 37.5q167 0 261 -115.5t59 -320.5l-39 -225q-19 -110 -65 -196t-109.5 -138t-137 -78.5t-153.5 -26.5q-72 0 -139 25t-111 59l-86 -489h-133zM238 193q123 -95 237 -95q118 0 204 77t116 247l36 205q28 158 -31 239.5 t-173 81.5q-113 0 -199.5 -81.5t-114.5 -239.5z" />
<glyph unicode="&#x441;" horiz-adv-x="942" d="M119 432l33 184q80 457 495 457q126 0 275 -47l-39 -121q-122 43 -256 43q-142 0 -227 -84t-117 -262l-29 -156q-31 -177 25 -262.5t198 -85.5q118 0 271 49v-127q-164 -47 -293 -47q-193 0 -284.5 115.5t-51.5 343.5z" />
<glyph unicode="&#x442;" horiz-adv-x="1638" d="M72 0l184 1047h113l2 -105q42 49 117.5 90t146.5 41q115 0 179 -63t69 -162q59 107 144.5 166t186.5 59q159 0 242 -105t49 -300l-116 -668h-134l113 647q26 147 -23 224t-155 77q-104 0 -182 -87.5t-105 -248.5l-106 -612h-133l106 612q27 157 -13.5 246.5t-144.5 89.5 q-32 0 -62.5 -6t-68 -25.5t-67.5 -51t-56 -88t-39 -130.5l-114 -647h-133z" />
<glyph unicode="&#x443;" horiz-adv-x="962" d="M127 360l29 687h135l-29 -668q-5 -123 35 -187.5t143 -64.5h129l275 920h135l-447 -1479h-133l133 432h-114q-307 0 -291 360z" />
<glyph unicode="&#x444;" horiz-adv-x="1579" d="M121 430l39 225q73 418 424 418q50 0 97 -17t69.5 -32.5t58.5 -44.5l88 506l139 41l-96 -547q42 27 72.5 44t83 33.5t102.5 16.5q163 0 236 -114t34 -336l-38 -226q-38 -219 -149 -321.5t-277 -102.5q-51 0 -96.5 14.5t-69 29.5t-60.5 42l-84 -491h-135l88 491 q-50 -29 -77.5 -42.5t-78.5 -28.5t-102 -15q-162 0 -234.5 117t-33.5 340zM252 422q-30 -175 14 -249.5t156 -74.5q43 0 86.5 13.5t71 28t90.5 50.5l116 670q-67 48 -110 68t-105 20q-113 0 -183 -73.5t-101 -247.5zM801 186q67 -48 110 -68t105 -20q112 0 182.5 74.5 t101.5 249.5l35 205q31 174 -13 247.5t-157 73.5q-43 0 -86.5 -14t-70 -27.5t-90.5 -50.5z" />
<glyph unicode="&#x445;" horiz-adv-x="970" d="M-29 0l443 539l-232 508h146l180 -400l328 400h141l-408 -500l252 -547h-145l-203 440l-358 -440h-144z" />
<glyph unicode="&#x446;" horiz-adv-x="1099" d="M129.5 242q-8.5 73 9.5 170l113 635h133l-111 -625q-58 -324 179 -324q74 0 145 44t145 114l140 791h133l-121 -680q-10 -54 -11 -97t6.5 -72.5t19.5 -50t31.5 -33.5t39 -19.5t45.5 -10.5l-63 -356l-129 -23l53 295q-45 10 -80.5 47.5t-40.5 79.5q-139 -154 -340 -154 q-58 0 -107 14.5t-91 46.5t-66 83.5t-32.5 124.5z" />
<glyph unicode="&#x447;" horiz-adv-x="997" d="M150 711l61 336h133l-63 -345q-17 -89 20.5 -132.5t116.5 -43.5q85 0 153.5 18.5t145.5 53.5l82 449h133l-184 -1047h-134l80 473q-172 -70 -336 -70q-114 0 -174.5 80t-33.5 228z" />
<glyph unicode="&#x448;" horiz-adv-x="1638" d="M139 379l117 668h133l-113 -648q-26 -147 23.5 -224t155.5 -77q104 0 181.5 87t104.5 249l107 613h133l-107 -613q-27 -157 13.5 -246.5t144.5 -89.5q32 0 62.5 6t68 25.5t67.5 51t56 88t39 130.5l115 648h133l-184 -1047h-113l-2 104q-42 -49 -117.5 -90t-146.5 -41 q-115 0 -175 58t-65 157q-58 -104 -147 -159.5t-193 -55.5q-159 0 -242 105.5t-49 300.5z" />
<glyph unicode="&#x449;" horiz-adv-x="1656" d="M139 379l117 668h133l-113 -648q-26 -147 23.5 -224t155.5 -77q104 0 181.5 87t104.5 249l107 613h133l-107 -613q-27 -157 13.5 -246.5t144.5 -89.5q32 0 62.5 6t68 25.5t67.5 51t56 88t39 130.5l115 648h133l-121 -680q-10 -54 -11 -97t6.5 -72.5t19.5 -50t31.5 -33.5 t39 -19.5t45.5 -10.5l-63 -356l-129 -23l53 295q-45 10 -80.5 47.5t-40.5 79.5q-132 -154 -313 -154q-115 0 -175 58t-65 157q-58 -104 -147 -159.5t-193 -55.5q-159 0 -242 105.5t-49 300.5z" />
<glyph unicode="&#x44a;" horiz-adv-x="1099" d="M94 926l23 121h389l-76 -431h283q130 0 200 -73.5t70 -196.5q0 -88 -42.5 -167t-121.5 -129t-174 -50h-457l162 926h-256zM342 121h295q90 0 148.5 64t58.5 155q0 73 -36.5 114.5t-105.5 41.5h-294z" />
<glyph unicode="&#x44b;" horiz-adv-x="1351" d="M72 0l184 1047h133l-76 -431h283q130 0 200 -73.5t70 -196.5q0 -88 -42.5 -167t-121.5 -129t-174 -50h-456zM225 121h295q90 0 148.5 64t58.5 155q0 74 -36 115t-105 41h-295zM969 0l184 1047h133l-184 -1047h-133z" />
<glyph unicode="&#x44c;" horiz-adv-x="983" d="M72 0l184 1047h133l-76 -431h283q130 0 200 -73.5t70 -196.5q0 -88 -42.5 -167t-121.5 -129t-174 -50h-456zM225 121h295q90 0 148.5 64t58.5 155q0 74 -36 115t-105 41h-295z" />
<glyph unicode="&#x44d;" horiz-adv-x="942" d="M29 20l39 121q122 -43 256 -43q142 0 227 84t117 262l6 37h-363v119h385l4 31q23 166 -32.5 241.5t-194.5 75.5q-117 0 -270 -49v127q165 47 293 47q192 0 283.5 -119.5t51.5 -347.5l-32 -186q-79 -447 -480 -447q-141 0 -290 47z" />
<glyph unicode="&#x44e;" horiz-adv-x="1427" d="M72 0l184 1047h133l-80 -445h215q43 239 165.5 355t299.5 116q181 0 276 -123t54 -352l-31 -178q-39 -227 -165 -337t-306 -110q-86 0 -153 27.5t-113 84t-60.5 143.5t5.5 206l8 45h-215l-84 -479h-133zM633 444q-59 -346 201 -346q120 0 206 81t119 265l27 158 q62 346 -203 346q-119 0 -205 -80.5t-119 -265.5z" />
<glyph unicode="&#x44f;" horiz-adv-x="993" d="M20 0l306 434q-93 30 -136 103.5t-43 160.5q0 153 100.5 251t254.5 98h424l-185 -1047h-133l74 420h-221l-279 -420h-162zM279 696q0 -69 40 -113t119 -44h264l68 387h-281q-93 0 -151.5 -65t-58.5 -165z" />
<glyph unicode="&#x451;" horiz-adv-x="993" d="M117 418l41 231q34 198 159 311t287 113q132 0 220.5 -72.5t88.5 -193.5q0 -61 -25.5 -111.5t-64 -84t-98.5 -60t-113.5 -40.5t-126.5 -24.5t-119 -14.5t-108 -7l-8 -47q-28 -154 22.5 -237t202.5 -83q119 0 273 52l10 -127q-56 -17 -91.5 -26t-91.5 -16.5t-116 -7.5 q-189 0 -283.5 117t-58.5 328zM276 573q48 2 94 6t107 13.5t110.5 26t94 39.5t69.5 58t25 79q0 75 -48.5 114t-139.5 39q-108 0 -188 -77t-107 -214zM391 1346q0 40 28 68t66 28q39 0 67 -28t28 -68q0 -37 -28.5 -65t-66.5 -28t-66 28t-28 65zM764 1346q0 39 28.5 67.5 t65.5 28.5q40 0 68 -28t28 -68q0 -37 -28.5 -65t-67.5 -28q-37 0 -65.5 28t-28.5 65z" />
<glyph unicode="&#x452;" horiz-adv-x="1083" d="M72 0l219 1251h-80l18 107h80l27 141h133l-27 -141h244l-18 -107h-244l-53 -309q140 131 291 131q73 0 131 -23t103 -74.5t57.5 -135.5t-5.5 -205l-186 -1043l-139 -41l190 1074q31 173 -17 248t-161 75q-125 0 -291 -157l-139 -791h-133z" />
<glyph unicode="&#x453;" horiz-adv-x="851" d="M102 231q0 59 19 107.5t57.5 87.5t74.5 65t91 58l117 67q40 22 57.5 32.5t48.5 34t45.5 43t26.5 49t12 63.5q0 51 -42 80.5t-126 29.5q-101 0 -235 -41l-15 121q143 45 273 45q137 0 212 -65.5t75 -173.5q0 -50 -15.5 -93.5t-36 -72.5t-61 -60.5t-68 -48.5t-80.5 -47 l-102 -59q-44 -26 -71 -44.5t-57 -45.5t-44 -57.5t-14 -65.5q0 -64 51 -103t139 -39q96 0 273 47l10 -122q-149 -50 -305 -50q-79 0 -140.5 22t-97.5 59t-54 82t-18 95zM332 1309l393 157l29 -127l-400 -133z" />
<glyph unicode="&#x454;" horiz-adv-x="942" d="M119 432l33 184q80 457 495 457q126 0 275 -47l-39 -121q-122 43 -256 43q-138 0 -220.5 -77.5t-117.5 -243.5l-6 -27h381l-31 -119h-373l-6 -35q-31 -177 25 -262.5t198 -85.5q118 0 271 49v-127q-164 -47 -293 -47q-193 0 -284.5 115.5t-51.5 343.5z" />
<glyph unicode="&#x455;" horiz-adv-x="825" d="M14 23l35 122q158 -47 254 -47q107 0 178.5 58.5t71.5 146.5q0 55 -41.5 94.5t-100.5 66t-118.5 56t-101 82.5t-41.5 129q0 145 105.5 243.5t272.5 98.5q129 0 256 -45l-41 -121q-112 39 -233 39q-99 0 -160 -52t-61 -132q0 -39 22 -70.5t58 -54.5t79 -44t85.5 -45 t78.5 -52t58 -70.5t22 -95.5q0 -67 -23 -128.5t-69 -114t-125 -83.5t-182 -31q-150 0 -279 50z" />
<glyph unicode="&#x456;" horiz-adv-x="473" d="M82 0l184 1047h133l-184 -1047h-133zM285 1339q0 39 28.5 67t67.5 28q40 0 69 -28.5t29 -66.5t-29 -67t-69 -29q-39 0 -67.5 28.5t-28.5 67.5z" />
<glyph unicode="&#x457;" horiz-adv-x="473" d="M82 0l184 1047h133l-184 -1047h-133zM88 1346q0 40 28 68t66 28t66 -28t28 -68q0 -37 -28 -65t-66 -28t-66 28t-28 65zM461 1346q0 39 28.5 67.5t65.5 28.5q40 0 68 -28t28 -68q0 -37 -28.5 -65t-67.5 -28q-37 0 -65.5 28t-28.5 65z" />
<glyph unicode="&#x458;" horiz-adv-x="471" d="M0 -449l264 1496h133l-258 -1455zM285 1339q0 39 28.5 67t67.5 28q40 0 69 -28.5t29 -66.5t-29 -67t-69 -29q-39 0 -67.5 28.5t-28.5 67.5z" />
<glyph unicode="&#x459;" horiz-adv-x="1558" d="M-4 0l262 686q66 176 170.5 268.5t263.5 92.5h273l-76 -431h282q130 0 200.5 -73.5t70.5 -196.5q0 -88 -42.5 -167t-121.5 -129t-174 -50h-459l162 926h-135q-103 0 -169.5 -67t-113.5 -191l-256 -668h-137zM801 121h295q90 0 148.5 64t58.5 155q0 73 -36.5 114.5 t-105.5 41.5h-295z" />
<glyph unicode="&#x45a;" horiz-adv-x="1613" d="M72 0l184 1047h133l-78 -431h498l78 431h133l-76 -431h283q130 0 200 -73.5t70 -196.5q0 -88 -42.5 -167t-121.5 -129t-174 -50h-457l86 494h-497l-86 -494h-133zM856 121h295q90 0 148.5 64t58.5 155q0 74 -36 115t-105 41h-295z" />
<glyph unicode="&#x45b;" horiz-adv-x="1083" d="M72 0l219 1251h-80l18 107h80l27 141h133l-27 -141h244l-18 -107h-244l-53 -309q140 131 291 131q73 0 131 -23t103 -74.5t57.5 -135.5t-5.5 -205l-112 -635h-134l111 625q31 173 -17 248t-161 75q-125 0 -291 -157l-139 -791h-133z" />
<glyph unicode="&#x45c;" horiz-adv-x="983" d="M72 0l184 1047h133l-88 -490l289 98q54 19 84.5 47.5t56.5 85.5l119 259h135l-129 -275q-49 -109 -94 -151.5t-123 -69.5l192 -551h-137l-176 508l-239 -86l-74 -422h-133zM469 1309l393 157l29 -127l-399 -133z" />
<glyph unicode="&#x45e;" horiz-adv-x="962" d="M127 360l29 687h135l-29 -668q-5 -123 35 -187.5t143 -64.5h129l275 920h135l-447 -1479h-133l133 432h-114q-307 0 -291 360zM385 1438l117 22q0 -55 25.5 -89t74.5 -34t85 33.5t56 89.5l109 -22q-33 -98 -99 -155.5t-155 -57.5q-92 0 -153 59.5t-60 153.5z" />
<glyph unicode="&#x45f;" horiz-adv-x="1077" d="M72 0l184 1047h133l-164 -926h490l164 926h133l-185 -1047h-303l-49 -272l-127 -23l53 295h-329z" />
<glyph unicode="&#x490;" horiz-adv-x="927" d="M92 0l244 1384h541l34 203l138 27l-62 -359h-536l-222 -1255h-137z" />
<glyph unicode="&#x491;" horiz-adv-x="806" d="M72 0l184 1047h479l33 192l127 23l-59 -336h-469l-162 -926h-133z" />
<glyph unicode="&#x1e80;" horiz-adv-x="1673" d="M266 1384h137l-4 -1046q0 -59 -12 -191q14 31 41.5 97.5t40.5 93.5l397 833h170l107 -833q5 -43 14 -191q22 84 60 191l364 1046h137l-493 -1384h-162l-117 866q-9 70 -16 178q-38 -93 -78 -178l-418 -866h-162zM825 1655l66 112l344 -165l-49 -89z" />
<glyph unicode="&#x1e81;" horiz-adv-x="1552" d="M121 346l78 701h133l-80 -693q-12 -116 30.5 -185t135.5 -69q94 0 165 71.5t91 186.5l108 611h131l-108 -611q-20 -115 26 -186.5t140 -71.5q92 0 160.5 69.5t95.5 184.5l168 693h133l-174 -703q-43 -172 -151.5 -271.5t-254.5 -99.5q-84 0 -149 40.5t-101 113.5 q-59 -72 -139 -113t-164 -41q-144 0 -217.5 101t-56.5 272zM698 1348l66 112l344 -166l-49 -88z" />
<glyph unicode="&#x1e82;" horiz-adv-x="1673" d="M266 1384h137l-4 -1046q0 -59 -12 -191q14 31 41.5 97.5t40.5 93.5l397 833h170l107 -833q5 -43 14 -191q22 84 60 191l364 1046h137l-493 -1384h-162l-117 866q-9 70 -16 178q-38 -93 -78 -178l-418 -866h-162zM803 1616l393 158l29 -127l-400 -134z" />
<glyph unicode="&#x1e83;" horiz-adv-x="1552" d="M121 346l78 701h133l-80 -693q-12 -116 30.5 -185t135.5 -69q94 0 165 71.5t91 186.5l108 611h131l-108 -611q-20 -115 26 -186.5t140 -71.5q92 0 160.5 69.5t95.5 184.5l168 693h133l-174 -703q-43 -172 -151.5 -271.5t-254.5 -99.5q-84 0 -149 40.5t-101 113.5 q-59 -72 -139 -113t-164 -41q-144 0 -217.5 101t-56.5 272zM674 1309l393 157l29 -127l-400 -133z" />
<glyph unicode="&#x1e84;" horiz-adv-x="1673" d="M266 1384h137l-4 -1046q0 -59 -12 -191q14 31 41.5 97.5t40.5 93.5l397 833h170l107 -833q5 -43 14 -191q22 84 60 191l364 1046h137l-493 -1384h-162l-117 866q-9 70 -16 178q-38 -93 -78 -178l-418 -866h-162zM741 1653q0 39 28.5 67.5t66.5 28.5t66 -28t28 -68 q0 -37 -28 -64.5t-66 -27.5t-66.5 27.5t-28.5 64.5zM1114 1653q0 39 28.5 67.5t65.5 28.5q40 0 68.5 -28t28.5 -68q0 -37 -28.5 -64.5t-68.5 -27.5q-37 0 -65.5 27.5t-28.5 64.5z" />
<glyph unicode="&#x1e85;" horiz-adv-x="1552" d="M121 346l78 701h133l-80 -693q-12 -116 30.5 -185t135.5 -69q94 0 165 71.5t91 186.5l108 611h131l-108 -611q-20 -115 26 -186.5t140 -71.5q92 0 160.5 69.5t95.5 184.5l168 693h133l-174 -703q-43 -172 -151.5 -271.5t-254.5 -99.5q-84 0 -149 40.5t-101 113.5 q-59 -72 -139 -113t-164 -41q-144 0 -217.5 101t-56.5 272zM633 1346q0 40 28 68t66 28t66 -28t28 -68q0 -37 -28 -65t-66 -28t-66 28t-28 65zM1006 1346q0 39 28.5 67.5t65.5 28.5q40 0 68 -28t28 -68q0 -37 -28.5 -65t-67.5 -28q-37 0 -65.5 28t-28.5 65z" />
<glyph unicode="&#x1ef2;" horiz-adv-x="1105" d="M215 1384h141l224 -712l477 712h145l-575 -852l-92 -532h-138l92 532zM535 1655l65 112l344 -165l-49 -89z" />
<glyph unicode="&#x1ef3;" horiz-adv-x="962" d="M127 360l29 687h135l-29 -668q-5 -123 35 -187.5t143 -64.5h129l275 920h135l-447 -1479h-133l133 432h-114q-307 0 -291 360zM395 1348l66 112l344 -166l-49 -88z" />
<glyph unicode="&#x2000;" horiz-adv-x="932" />
<glyph unicode="&#x2001;" horiz-adv-x="1864" />
<glyph unicode="&#x2002;" horiz-adv-x="932" />
<glyph unicode="&#x2003;" horiz-adv-x="1864" />
<glyph unicode="&#x2004;" horiz-adv-x="621" />
<glyph unicode="&#x2005;" horiz-adv-x="466" />
<glyph unicode="&#x2006;" horiz-adv-x="310" />
<glyph unicode="&#x2007;" horiz-adv-x="310" />
<glyph unicode="&#x2008;" horiz-adv-x="233" />
<glyph unicode="&#x2009;" horiz-adv-x="372" />
<glyph unicode="&#x200a;" horiz-adv-x="103" />
<glyph unicode="&#x2010;" horiz-adv-x="991" d="M203 508l22 125h613l-23 -125h-612z" />
<glyph unicode="&#x2011;" horiz-adv-x="991" d="M203 508l22 125h613l-23 -125h-612z" />
<glyph unicode="&#x2012;" horiz-adv-x="991" d="M203 508l22 125h613l-23 -125h-612z" />
<glyph unicode="&#x2013;" horiz-adv-x="1024" d="M0 510v125h1024v-125h-1024z" />
<glyph unicode="&#x2014;" horiz-adv-x="2048" d="M0 510v125h2048v-125h-2048z" />
<glyph unicode="&#x2018;" horiz-adv-x="460" d="M238 1040l200 441l92 -17l-151 -424h-141z" />
<glyph unicode="&#x2019;" horiz-adv-x="460" d="M258 1075l154 424h141l-201 -440z" />
<glyph unicode="&#x201a;" horiz-adv-x="503" d="M-12 -270l153 424h144l-203 -441z" />
<glyph unicode="&#x201c;" horiz-adv-x="720" d="M240 1059l200 440l92 -16l-151 -424h-141zM498 1059l202 440l93 -16l-152 -424h-143z" />
<glyph unicode="&#x201d;" horiz-adv-x="720" d="M266 1075l154 424h141l-201 -440zM524 1075l154 424h143l-203 -440z" />
<glyph unicode="&#x201e;" horiz-adv-x="761" d="M-10 -270l153 424h144l-203 -441zM248 -270l153 424h144l-203 -441z" />
<glyph unicode="&#x2020;" horiz-adv-x="899" d="M231 877l21 114h229l62 352h131l-62 -352h232l-21 -114h-231l-154 -877h-131l154 877h-230z" />
<glyph unicode="&#x2021;" horiz-adv-x="899" d="M141 379l21 113h229l64 358h-230l21 115h229l66 378h131l-66 -378h232l-21 -115h-231l-64 -358h232l-21 -113h-231l-66 -379h-131l66 379h-230z" />
<glyph unicode="&#x2022;" horiz-adv-x="1013" d="M199 571q0 129 91 221.5t220 92.5t221 -92.5t92 -221.5t-92 -220t-221 -91t-220 91t-91 220z" />
<glyph unicode="&#x2026;" horiz-adv-x="1738" d="M137 72q0 39 28 65.5t68 26.5q38 0 66.5 -26.5t28.5 -65.5q0 -38 -29 -66.5t-66 -28.5q-39 0 -67.5 28.5t-28.5 66.5zM709 72q0 39 28.5 65.5t67.5 26.5t66.5 -26.5t27.5 -65.5q0 -38 -28 -66.5t-66 -28.5t-67 28.5t-29 66.5zM1284 72q0 39 28 65.5t68 26.5 q38 0 65.5 -26.5t27.5 -65.5q0 -38 -28 -66.5t-65 -28.5q-40 0 -68 28.5t-28 66.5z" />
<glyph unicode="&#x202f;" horiz-adv-x="372" />
<glyph unicode="&#x2030;" horiz-adv-x="2484" d="M211 958l20 140q21 143 121.5 228t231.5 85q130 0 199.5 -85t43.5 -228l-20 -140q-21 -142 -122 -227.5t-232 -85.5q-129 0 -196 84.5t-46 228.5zM328 963q-18 -106 21 -156.5t122 -50.5q84 0 142.5 51t76.5 156l21 131q17 106 -22.5 156t-123.5 50q-85 0 -143 -50.5 t-74 -155.5zM383 0l893 1384h131l-893 -1384h-131zM969 287l20 139q21 143 121 228t231 85t200.5 -85t43.5 -228l-20 -139q-21 -142 -122.5 -228t-232.5 -86q-129 0 -196 84.5t-45 229.5zM1085 291q-18 -106 21 -156.5t123 -50.5t142.5 51t76.5 156l20 131 q17 106 -22.5 156.5t-122.5 50.5q-84 0 -142.5 -51t-74.5 -156zM1706 287l20 139q21 143 121.5 228t231.5 85q130 0 199.5 -85t43.5 -228l-20 -139q-21 -143 -122 -228.5t-232 -85.5q-129 0 -196 85t-46 229zM1823 291q-18 -106 21 -156.5t122 -50.5q84 0 142.5 51t76.5 156 l21 131q17 106 -22.5 156.5t-123.5 50.5t-142.5 -51t-74.5 -156z" />
<glyph unicode="&#x2039;" horiz-adv-x="653" d="M154 571l335 342l78 -77l-268 -273l166 -266l-96 -66z" />
<glyph unicode="&#x203a;" horiz-adv-x="653" d="M135 309l268 273l-165 266l96 65l215 -340l-336 -342z" />
<glyph unicode="&#x205f;" horiz-adv-x="466" />
<glyph unicode="&#x20ac;" horiz-adv-x="1071" d="M68 467l20 121h170l37 209h-170l20 121h172q42 231 187 362t348 131q116 0 270 -33l-37 -127q-127 31 -245 31q-147 0 -250 -97t-135 -267h424l-43 -121h-404l-37 -209h371l-45 -121h-346q-28 -170 41 -267.5t215 -97.5q117 0 258 31v-127q-169 -33 -283 -33 q-203 0 -305 131.5t-63 362.5h-170z" />
<glyph unicode="&#x2116;" horiz-adv-x="1857" d="M92 0l244 1384h106l467 -1118q6 41 17 109.5t14 85.5l164 923h137l-244 -1384h-116l-467 1100q-9 -103 -27 -197l-158 -903h-137zM1245 291l19 106h454l-18 -106h-455zM1286 762l23 125q23 124 109.5 194t205.5 70q116 0 178 -79.5t39 -205.5l-22 -125 q-23 -125 -109.5 -194.5t-204.5 -69.5q-117 0 -179.5 79t-39.5 206zM1403 760q-17 -88 16.5 -130t104.5 -42q150 0 182 172l18 108q17 87 -16 128.5t-104 41.5q-151 0 -183 -170z" />
<glyph unicode="&#x2122;" horiz-adv-x="1538" d="M324 1284l18 98h463l-33 -98h-164l-90 -512h-110l90 512h-174zM735 772l183 610h122l74 -374l207 374h123l-35 -610h-102l22 432l-186 -342h-109l-69 342l-129 -432h-101z" />
<glyph unicode="&#x2206;" horiz-adv-x="1511" d="M16 0l834 1448h172l321 -1448h-1327zM227 125h949l-267 1182z" />
<glyph unicode="&#x220f;" horiz-adv-x="1548" d="M172 -270l270 1527h-163l22 125h1284l-22 -125h-166l-271 -1527h-129l271 1527h-695l-270 -1527h-131z" />
<glyph unicode="&#x2211;" horiz-adv-x="1337" d="M-4 -268l24 131l674 694l-430 696l25 129h1079l-22 -125h-916l430 -700l-678 -700h916l-23 -125h-1079z" />
<glyph unicode="&#x221a;" horiz-adv-x="1177" d="M143 1047h267l110 -736q10 -69 19 -155q45 98 75 155l609 1188h137l-768 -1499h-154l-151 940h-121z" />
<glyph unicode="&#x222b;" horiz-adv-x="753" d="M-123 -430l25 123q46 -15 96 -15q74 0 131.5 42.5t71.5 127.5l241 1371q25 143 116.5 220t213.5 77q58 0 123 -21l-25 -123q-60 17 -98 17q-73 0 -131 -43t-72 -127l-241 -1371q-25 -144 -116 -220.5t-214 -76.5q-52 0 -121 19z" />
<glyph unicode="&#x2248;" horiz-adv-x="1097" d="M193 428q44 53 110 97t137 44q43 0 82.5 -16.5t68.5 -40.5t55.5 -47.5t56 -40t57.5 -16.5q31 0 61 15.5t47.5 31t44.5 43.5l74 -76q-126 -141 -250 -141q-44 0 -83 16.5t-67.5 40.5t-55 47.5t-55.5 40t-58 16.5q-31 0 -61.5 -15t-48 -31t-44.5 -44zM193 819q44 54 110 98 t137 44q53 0 101 -25.5t78.5 -55.5t68.5 -55.5t72 -25.5q31 0 61 15.5t47.5 31t44.5 43.5l74 -76q-126 -141 -250 -141q-44 0 -83 16.5t-67.5 40.5t-55 48t-55.5 40.5t-58 16.5q-31 0 -61.5 -15.5t-48 -31t-44.5 -44.5z" />
<glyph unicode="&#x2260;" horiz-adv-x="1146" d="M176 299v123h309l109 299h-418v123h463l80 219l106 -39l-65 -180h256v-123h-301l-109 -299h410v-123h-455l-84 -236l-108 39l71 197h-264z" />
<glyph unicode="&#x2264;" horiz-adv-x="1048" d="M176 520v103l684 376l58 -104l-588 -324l588 -323l-58 -105zM180 39h729v-117h-729v117z" />
<glyph unicode="&#x2265;" horiz-adv-x="1048" d="M174 248l588 323l-588 324l57 104l684 -376v-103l-684 -377zM182 39h729v-117h-729v117z" />
<glyph unicode="&#x25ca;" horiz-adv-x="1398" d="M135 666l715 669l483 -671l-717 -668zM309 666l342 -478l510 476l-344 479z" />
<glyph unicode="&#x25fc;" horiz-adv-x="1044" d="M0 0v1044h1044v-1044h-1044z" />
<glyph unicode="&#xf8ff;" horiz-adv-x="0" />
<glyph horiz-adv-x="950" d="M82 0l203 1149h626l-20 -125h-496l-67 -385h420l-31 -119h-410l-69 -395h507l-20 -125h-643zM369 1448q0 40 28 68t66 28t66 -28t28 -68q0 -37 -28 -64.5t-66 -27.5t-66 27.5t-28 64.5zM741 1448q0 39 29 67.5t66 28.5q40 0 68 -28t28 -68q0 -37 -28.5 -64.5t-67.5 -27.5 q-37 0 -66 28t-29 64z" />
<glyph horiz-adv-x="950" d="M82 0l203 1149h626l-20 -125h-496l-67 -385h420l-31 -119h-410l-69 -395h507l-20 -125h-643zM399 1470l80 107l172 -139l226 139l45 -107l-293 -161z" />
<glyph horiz-adv-x="950" d="M82 0l203 1149h626l-20 -125h-496l-67 -385h420l-31 -119h-410l-69 -395h507l-20 -125h-643zM373 1389l22 127h508l-22 -127h-508z" />
<glyph horiz-adv-x="950" d="M82 0l203 1149h626l-20 -125h-496l-67 -385h420l-31 -119h-410l-69 -395h507l-20 -125q-50 -34 -84.5 -61.5t-71.5 -64.5t-56 -76.5t-19 -80.5q0 -65 71 -65q44 0 76 12l6 -102q-55 -19 -100 -19q-78 0 -123 40.5t-45 109.5q0 87 64 168t153 139h-514z" />
<glyph horiz-adv-x="950" d="M82 0l203 1149h626l-20 -125h-496l-67 -385h420l-31 -119h-410l-69 -395h507l-20 -125h-643zM543 1448q0 39 28.5 67.5t65.5 28.5q40 0 68 -28t28 -68q0 -37 -28.5 -64.5t-67.5 -27.5q-37 0 -65.5 27.5t-28.5 64.5z" />
<glyph horiz-adv-x="1077" d="M123 438l47 273q40 226 184 345.5t346 119.5q154 0 318 -54l-45 -118q-143 47 -293 47q-145 0 -246 -87.5t-131 -256.5l-45 -263q-30 -171 39.5 -258.5t214.5 -87.5q92 0 236 35l63 365h-131l18 112h260l-98 -577q-194 -60 -371 -60q-201 0 -303.5 119.5t-62.5 345.5z M453 1415l288 162l234 -162l-84 -106l-172 139l-225 -139z" />
<glyph horiz-adv-x="1077" d="M123 438l47 273q40 226 184 345.5t346 119.5q154 0 318 -54l-45 -118q-143 47 -293 47q-145 0 -246 -87.5t-131 -256.5l-45 -263q-30 -171 39.5 -258.5t214.5 -87.5q92 0 236 35l63 365h-131l18 112h260l-98 -577q-194 -60 -371 -60q-201 0 -303.5 119.5t-62.5 345.5z M616 1448q0 39 29 67.5t66 28.5q40 0 68 -28t28 -68q0 -37 -28.5 -64.5t-67.5 -27.5q-37 0 -66 28t-29 64z" />
<glyph horiz-adv-x="1077" d="M123 438l47 273q40 226 184 345.5t346 119.5q154 0 318 -54l-45 -118q-143 47 -293 47q-145 0 -246 -87.5t-131 -256.5l-45 -263q-30 -171 39.5 -258.5t214.5 -87.5q92 0 236 35l63 365h-131l18 112h260l-98 -577q-194 -60 -371 -60q-201 0 -303.5 119.5t-62.5 345.5z M283 -459l118 326h140l-160 -326h-98z" />
<glyph horiz-adv-x="1140" d="M82 0l203 1149h133l-88 -502h528l90 502h133l-202 -1149h-134l93 524h-529l-92 -524h-135zM457 1415l288 162l234 -162l-84 -106l-172 139l-225 -139z" />
<glyph horiz-adv-x="1142" d="M82 0l147 836h-69l18 100h68l39 213h135l-39 -213h528l39 213h135l-39 -213h70l-16 -100h-70l-147 -836h-136l93 522h-527l-94 -522h-135zM332 647h526l35 189h-528z" />
<glyph horiz-adv-x="475" d="M82 0l203 1149h133l-201 -1149h-135zM180 1413l393 158l29 -127l-399 -133z" />
<glyph horiz-adv-x="475" d="M82 0l203 1149h133l-201 -1149h-135zM197 1450l65 113l344 -166l-49 -88z" />
<glyph horiz-adv-x="475" d="M82 0l203 1149h133l-201 -1149h-135zM135 1415l289 162l233 -162l-84 -106l-172 139l-225 -139z" />
<glyph horiz-adv-x="475" d="M82 0l203 1149h133l-201 -1149h-135zM115 1444q24 39 72.5 75.5t107.5 36.5q36 0 69.5 -15.5t54.5 -34.5t47 -34.5t48 -15.5q28 0 56 18.5t46 41.5l54 -68q-24 -39 -71.5 -76t-104.5 -37q-37 0 -71 15.5t-55.5 34t-47.5 34t-48 15.5q-54 0 -104 -58z" />
<glyph horiz-adv-x="475" d="M82 0l203 1149h133l-201 -1149h-135zM129 1389l23 127h507l-22 -127h-508z" />
<glyph horiz-adv-x="475" d="M82 0l203 1149h133l-201 -1149h-135zM178 1563h117q-9 -52 16.5 -87.5t71.5 -35.5q43 0 80.5 35.5t46.5 87.5h117q-19 -103 -94 -169.5t-171 -66.5q-98 0 -150.5 66.5t-33.5 169.5z" />
<glyph horiz-adv-x="1288" d="M82 0l203 1149h135l-203 -1149h-135zM434 29l33 116q129 -45 233 -45q115 0 184 74.5t91 196.5l139 778l133 -12l-137 -772q-33 -183 -138 -285.5t-270 -102.5q-132 0 -268 52z" />
<glyph horiz-adv-x="843" d="M-10 25l35 118q113 -45 233 -45q117 0 184.5 73.5t89.5 195.5l140 782l131 -12l-137 -775q-33 -183 -139.5 -286t-270.5 -103q-134 0 -266 52zM506 1415l289 162l233 -162l-84 -106l-172 139l-225 -139z" />
<glyph horiz-adv-x="1052" d="M82 0l203 1149h133l-109 -610l574 610h147l-475 -520l330 -629h-148l-274 522l-191 -203l-55 -319h-135zM276 -459l119 326h140l-160 -326h-99z" />
<glyph horiz-adv-x="913" d="M82 0l203 1149h133l-180 -1024h518l-33 -125h-641zM610 774l66 371l147 20l-114 -391h-99z" />
<glyph horiz-adv-x="913" d="M82 0l203 1149h133l-180 -1024h518l-33 -125h-641zM215 -459l119 326h139l-160 -326h-98z" />
<glyph horiz-adv-x="913" d="M82 0l203 1149h133l-180 -1026h518l-33 -123h-641zM526 504q0 40 29 69t66 29q41 0 69.5 -28.5t28.5 -69.5q0 -37 -28.5 -64.5t-69.5 -27.5q-37 0 -66 28t-29 64z" />
<glyph horiz-adv-x="913" d="M45 539l139 47l101 563h133l-90 -516l186 63l18 -86l-223 -75l-71 -410h518l-33 -125h-641l86 487l-107 -34z" />
<glyph horiz-adv-x="1128" d="M82 0l203 1149h104l393 -889q6 55 25 164l131 725h133l-203 -1149h-112l-391 877q-6 -59 -25 -166l-125 -711h-133zM522 1413l393 158l29 -127l-399 -133z" />
<glyph horiz-adv-x="1128" d="M82 0l203 1149h104l393 -889q6 55 25 164l131 725h133l-203 -1149h-112l-391 877q-6 -59 -25 -166l-125 -711h-133zM453 1444q24 39 72.5 75.5t107.5 36.5q36 0 69.5 -15.5t54.5 -34.5t47 -34.5t48 -15.5q28 0 56 18.5t46 41.5l54 -68q-24 -39 -72 -76t-105 -37 q-37 0 -71 15.5t-55 34t-47 34t-48 15.5q-54 0 -104 -58z" />
<glyph horiz-adv-x="1128" d="M82 0l203 1149h104l393 -889q6 55 25 164l131 725h133l-203 -1149h-112l-391 877q-6 -59 -25 -166l-125 -711h-133zM461 1470l80 107l172 -139l225 139l45 -107l-293 -161z" />
<glyph horiz-adv-x="1130" d="M82 0l203 1149h106l393 -887q8 81 23 164l131 723h135l-262 -1487l-135 -35l67 396l-376 849q-21 -159 -23 -167l-127 -705h-135z" />
<glyph horiz-adv-x="1124" d="M121 230.5q-17 86.5 2 203.5l49 277q40 224 180.5 344.5t327.5 120.5q186 0 285 -120.5t61 -344.5l-49 -277q-38 -223 -178.5 -342t-327.5 -119q-91 0 -162.5 28.5t-121 85.5t-66.5 143.5zM258 442q-30 -171 34.5 -257.5t199.5 -86.5q134 0 229 87t125 257l47 267 q30 172 -34.5 257t-199.5 85q-134 0 -229.5 -87t-126.5 -259zM496 1413l393 158l29 -127l-400 -133z" />
<glyph horiz-adv-x="1124" d="M121 230.5q-17 86.5 2 203.5l49 277q40 224 180.5 344.5t327.5 120.5q186 0 285 -120.5t61 -344.5l-49 -277q-38 -223 -178.5 -342t-327.5 -119q-91 0 -162.5 28.5t-121 85.5t-66.5 143.5zM258 442q-30 -171 34.5 -257.5t199.5 -86.5q134 0 229 87t125 257l47 267 q30 172 -34.5 257t-199.5 85q-134 0 -229.5 -87t-126.5 -259zM508 1450l65 113l345 -166l-50 -88z" />
<glyph horiz-adv-x="1124" d="M121 230.5q-17 86.5 2 203.5l49 277q40 224 180.5 344.5t327.5 120.5q186 0 285 -120.5t61 -344.5l-49 -277q-38 -223 -178.5 -342t-327.5 -119q-91 0 -162.5 28.5t-121 85.5t-66.5 143.5zM258 442q-30 -171 34.5 -257.5t199.5 -86.5q134 0 229 87t125 257l47 267 q30 172 -34.5 257t-199.5 85q-134 0 -229.5 -87t-126.5 -259zM457 1448q0 40 28 68t66 28t66 -28t28 -68q0 -37 -28 -64.5t-66 -27.5t-66 27.5t-28 64.5zM829 1448q0 39 29 67.5t66 28.5q40 0 68 -28t28 -68q0 -37 -28.5 -64.5t-67.5 -27.5q-37 0 -66 28t-29 64z" />
<glyph horiz-adv-x="1124" d="M121 230.5q-17 86.5 2 203.5l49 277q40 224 180.5 344.5t327.5 120.5q186 0 285 -120.5t61 -344.5l-49 -277q-38 -223 -178.5 -342t-327.5 -119q-91 0 -162.5 28.5t-121 85.5t-66.5 143.5zM258 442q-30 -171 34.5 -257.5t199.5 -86.5q134 0 229 87t125 257l47 267 q30 172 -34.5 257t-199.5 85q-134 0 -229.5 -87t-126.5 -259zM459 1444q24 39 72.5 75.5t107.5 36.5q36 0 69.5 -15.5t54.5 -34.5t47 -34.5t48 -15.5q28 0 56.5 18.5t46.5 41.5l53 -68q-24 -39 -71.5 -76t-104.5 -37q-37 0 -71 15.5t-55.5 34t-47.5 34t-48 15.5 q-54 0 -104 -58z" />
<glyph horiz-adv-x="1124" d="M121 230.5q-17 86.5 2 203.5l49 277q40 224 180.5 344.5t327.5 120.5q186 0 285 -120.5t61 -344.5l-49 -277q-38 -223 -178.5 -342t-327.5 -119q-91 0 -162.5 28.5t-121 85.5t-66.5 143.5zM258 442q-30 -171 34.5 -257.5t199.5 -86.5q134 0 229 87t125 257l47 267 q30 172 -34.5 257t-199.5 85q-134 0 -229.5 -87t-126.5 -259zM514 1563h117q-9 -52 16.5 -87.5t71.5 -35.5q43 0 80.5 35.5t46.5 87.5h117q-19 -103 -94 -169.5t-171 -66.5q-98 0 -150.5 66.5t-33.5 169.5z" />
<glyph horiz-adv-x="1124" d="M121 230.5q-17 86.5 2 203.5l49 277q40 224 180.5 344.5t327.5 120.5q186 0 285 -120.5t61 -344.5l-49 -277q-38 -223 -178.5 -342t-327.5 -119q-91 0 -162.5 28.5t-121 85.5t-66.5 143.5zM258 442q-30 -171 34.5 -257.5t199.5 -86.5q134 0 229 87t125 257l47 267 q30 172 -34.5 257t-199.5 85q-134 0 -229.5 -87t-126.5 -259zM373 1389l350 210l49 -116l-358 -189zM788 1391l353 211l47 -117l-359 -189z" />
<glyph horiz-adv-x="1124" d="M70 -45l104 149q-89 124 -51 330l49 277q40 224 180.5 344.5t327.5 120.5q115 0 205 -52l84 119l92 -49l-96 -139q100 -125 61 -344l-49 -277q-38 -223 -178.5 -342t-327.5 -119q-129 0 -221 58l-86 -123zM258 442q-21 -129 8 -206l541 776q-56 39 -148 39 q-134 0 -229.5 -87t-126.5 -259zM330 145q62 -47 162 -47q134 0 229 87t125 257l47 267q23 137 -16 223z" />
<glyph horiz-adv-x="1589" d="M121 230.5q-17 86.5 2 203.5l49 277q40 224 180.5 344.5t327.5 120.5q78 0 154 -27h716l-20 -125h-545q74 -124 41 -313l-12 -72h372l-30 -119h-365l-14 -86q-33 -193 -146 -309h553l-20 -125h-727q-79 -27 -166 -27q-91 0 -162.5 28.5t-121 85.5t-66.5 143.5zM258 442 q-30 -171 34.5 -257.5t199.5 -86.5q134 0 229 87t125 257l47 267q30 172 -34.5 257t-199.5 85q-134 0 -229.5 -87t-126.5 -259z" />
<glyph horiz-adv-x="993" d="M82 0l203 1149h137l-41 -225h246q135 0 213 -78t78 -199q0 -106 -54 -200.5t-150 -152.5t-208 -58h-246l-43 -236h-135zM281 360h245q109 0 180.5 78.5t71.5 194.5q0 77 -44.5 122.5t-127.5 45.5h-246z" />
<glyph horiz-adv-x="999" d="M82 0l203 1149h385q133 0 210.5 -77.5t77.5 -199.5q0 -126 -80 -238.5t-223 -148.5l154 -485h-141l-142 471h-227l-84 -471h-133zM317 584h250q111 0 183.5 78.5t72.5 195.5q0 78 -45.5 123t-128.5 45h-252zM424 1413l393 158l29 -127l-400 -133z" />
<glyph horiz-adv-x="999" d="M82 0l203 1149h385q133 0 210.5 -77.5t77.5 -199.5q0 -126 -80 -238.5t-223 -148.5l154 -485h-141l-142 471h-227l-84 -471h-133zM317 584h250q111 0 183.5 78.5t72.5 195.5q0 78 -45.5 123t-128.5 45h-252zM387 1470l80 107l172 -139l225 139l45 -107l-293 -161z" />
<glyph horiz-adv-x="999" d="M82 0l203 1149h385q133 0 210.5 -77.5t77.5 -199.5q0 -126 -80 -238.5t-223 -148.5l154 -485h-141l-142 471h-227l-84 -471h-133zM236 -459l118 326h140l-160 -326h-98zM317 584h250q111 0 183.5 78.5t72.5 195.5q0 78 -45.5 123t-128.5 45h-252z" />
<glyph horiz-adv-x="897" d="M16 33l41 123q165 -58 303 -58q67 0 127 25.5t101 80.5t41 128q0 44 -25 80t-64.5 61.5t-87.5 49.5t-96.5 50.5t-88 58t-64.5 79t-25 106.5q0 157 119.5 258t294.5 101q131 0 285 -58l-43 -117q-130 50 -261 50q-113 0 -184.5 -54t-71.5 -149q0 -45 25 -82t65 -64 t88.5 -52.5t96.5 -53t88 -59t65 -77t25 -100.5q0 -93 -36.5 -168t-97.5 -122t-137 -72t-157 -25q-152 0 -326 60zM360 1415l289 162l234 -162l-84 -106l-172 139l-226 -139z" />
<glyph horiz-adv-x="897" d="M16 33l41 123q165 -58 303 -58q67 0 127 25.5t101 80.5t41 128q0 44 -25 80t-64.5 61.5t-87.5 49.5t-96.5 50.5t-88 58t-64.5 79t-25 106.5q0 157 119.5 258t294.5 101q131 0 285 -58l-43 -117q-130 50 -261 50q-113 0 -184.5 -54t-71.5 -149q0 -45 25 -82t65 -64 t88.5 -52.5t96.5 -53t88 -59t65 -77t25 -100.5q0 -93 -36.5 -168t-97.5 -122t-137 -72t-157 -25q-152 0 -326 60zM354 1470l80 107l172 -139l225 139l46 -107l-293 -161z" />
<glyph horiz-adv-x="897" d="M12 -420l29 117q42 -10 88 -10q60 0 92 27.5t41 84.5l31 176q-139 7 -277 58l41 123q165 -58 303 -58q67 0 127 25.5t101 80.5t41 128q0 44 -25 80t-64.5 61.5t-87.5 49.5t-96.5 50.5t-88 58t-64.5 79t-25 106.5q0 157 119.5 258t294.5 101q131 0 285 -58l-43 -117 q-130 50 -261 50q-113 0 -184.5 -54t-71.5 -149q0 -45 25 -82t65 -64t88.5 -52.5t96.5 -53t88 -59t65 -77t25 -100.5q0 -108 -50 -191.5t-127.5 -129t-172.5 -59.5l-35 -195q-10 -60 -37.5 -103.5t-65.5 -67.5t-79 -35t-86 -11q-47 0 -105 12z" />
<glyph horiz-adv-x="1777" d="M16 33l41 123q165 -58 303 -58q67 0 127 25.5t101 80.5t41 128q0 44 -25 80t-64.5 61.5t-87.5 49.5t-96.5 50.5t-88 58t-64.5 79t-25 106.5q0 157 119.5 258t294.5 101q131 0 285 -58l-43 -117q-130 50 -261 50q-113 0 -184.5 -54t-71.5 -149q0 -45 25 -82t65 -64 t88.5 -52.5t96.5 -53t88 -59t65 -77t25 -100.5q0 -93 -36.5 -168t-97.5 -122t-137 -72t-157 -25q-152 0 -326 60zM897 33l41 123q165 -58 303 -58q67 0 126.5 25.5t100.5 80.5t41 128q0 44 -25 80t-64.5 61.5t-87.5 49.5t-96 50.5t-87.5 58t-64.5 79t-25 106.5 q0 157 119.5 258t294.5 101q130 0 284 -58l-43 -117q-130 50 -260 50q-113 0 -184.5 -54t-71.5 -149q0 -45 25 -82t65 -64t88 -52.5t96.5 -53t88.5 -59t65 -77t25 -100.5q0 -93 -36.5 -168t-97.5 -122t-137 -72t-157 -25q-152 0 -326 60z" />
<glyph horiz-adv-x="940" d="M168 1026l20 123h787l-21 -123h-325l-183 -1026h-133l181 1026h-326zM354 1470l80 107l172 -139l225 139l46 -107l-293 -161z" />
<glyph horiz-adv-x="940" d="M168 1026l20 123h787l-21 -123h-325l-183 -1026h-133l181 1026h-326zM180 -459l119 326h139l-159 -326h-99z" />
<glyph horiz-adv-x="950" d="M82 0l203 1149h626l-20 -125h-496l-67 -385h420l-31 -119h-410l-69 -395h507l-20 -125h-643zM383 1415l289 162l233 -162l-84 -106l-172 139l-225 -139z" />
<glyph horiz-adv-x="1128" d="M133 362l139 787h134l-138 -778q-22 -119 41 -196t183 -77q119 0 206 76.5t109 196.5l139 778h133l-139 -787q-30 -170 -165 -279.5t-304 -109.5q-172 0 -270 109.5t-68 279.5zM496 1413l393 158l29 -127l-400 -133z" />
<glyph horiz-adv-x="950" d="M82 0l203 1149h626l-20 -125h-496l-67 -385h420l-31 -119h-410l-69 -395h507l-20 -125h-643zM432 1563h117q-9 -52 16.5 -87.5t71.5 -35.5q43 0 80.5 35.5t46.5 87.5h117q-19 -103 -94 -169.5t-171 -66.5q-98 0 -150.5 66.5t-33.5 169.5z" />
<glyph horiz-adv-x="1128" d="M133 362l139 787h134l-138 -778q-22 -119 41 -196t183 -77q119 0 206 76.5t109 196.5l139 778h133l-139 -787q-30 -170 -165 -279.5t-304 -109.5q-172 0 -270 109.5t-68 279.5zM522 1450l66 113l344 -166l-49 -88z" />
<glyph horiz-adv-x="1128" d="M133 362l139 787h134l-138 -778q-22 -119 41 -196t183 -77q119 0 206 76.5t109 196.5l139 778h133l-139 -787q-30 -170 -165 -279.5t-304 -109.5q-172 0 -270 109.5t-68 279.5zM459 1415l289 162l233 -162l-84 -106l-172 139l-225 -139z" />
<glyph horiz-adv-x="1128" d="M133 362l139 787h134l-138 -778q-22 -119 41 -196t183 -77q119 0 206 76.5t109 196.5l139 778h133l-139 -787q-30 -170 -165 -279.5t-304 -109.5q-172 0 -270 109.5t-68 279.5zM430 1448q0 40 28 68t66 28t66 -28t28 -68q0 -37 -28 -64.5t-66 -27.5t-66 27.5t-28 64.5z M803 1448q0 39 28.5 67.5t65.5 28.5q40 0 68 -28t28 -68q0 -37 -28.5 -64.5t-67.5 -27.5q-37 0 -65.5 27.5t-28.5 64.5z" />
<glyph horiz-adv-x="1128" d="M133 362l139 787h134l-138 -778q-22 -119 41 -196t183 -77q119 0 206 76.5t109 196.5l139 778h133l-139 -787q-30 -170 -165 -279.5t-304 -109.5q-172 0 -270 109.5t-68 279.5zM455 1444q24 39 72.5 75.5t107.5 36.5q36 0 69.5 -15.5t54.5 -34.5t47 -34.5t48 -15.5 q28 0 56 18.5t46 41.5l54 -68q-24 -39 -71.5 -76t-104.5 -37q-37 0 -71 15.5t-55.5 34t-47.5 34t-48 15.5q-54 0 -104 -58z" />
<glyph horiz-adv-x="1128" d="M133 362l139 787h134l-138 -778q-22 -119 41 -196t183 -77q119 0 206 76.5t109 196.5l139 778h133l-139 -787q-30 -170 -165 -279.5t-304 -109.5q-172 0 -270 109.5t-68 279.5zM545 1485q0 71 52.5 122.5t125.5 51.5q71 0 122.5 -51.5t51.5 -122.5q0 -72 -51.5 -124 t-122.5 -52q-73 0 -125.5 52t-52.5 124zM651 1485q0 -30 21 -52t51 -22q29 0 50.5 22.5t21.5 51.5q0 31 -21.5 52.5t-50.5 21.5q-31 0 -51.5 -21.5t-20.5 -52.5z" />
<glyph horiz-adv-x="1128" d="M133 362l139 787h134l-138 -778q-22 -119 41 -196t183 -77q119 0 206 76.5t109 196.5l139 778h133l-139 -787q-30 -170 -165 -279.5t-304 -109.5q-172 0 -270 109.5t-68 279.5zM520 1563h117q-9 -52 16.5 -87.5t71.5 -35.5q43 0 80.5 35.5t46.5 87.5h117 q-19 -104 -93.5 -170t-170.5 -66q-98 0 -151 66.5t-34 169.5z" />
<glyph horiz-adv-x="1077" d="M123 438l47 273q40 226 184 345.5t346 119.5q154 0 318 -54l-45 -118q-143 47 -293 47q-145 0 -246 -87.5t-131 -256.5l-45 -263q-30 -171 39.5 -258.5t214.5 -87.5q92 0 236 35l63 365h-131l18 112h260l-98 -577q-194 -60 -371 -60q-201 0 -303.5 119.5t-62.5 345.5z M485 1563h117q-9 -52 16.5 -87.5t71.5 -35.5q43 0 80.5 35.5t46.5 87.5h117q-19 -104 -93.5 -170t-170.5 -66q-98 0 -151 66.5t-34 169.5z" />
<glyph horiz-adv-x="1128" d="M133 362l139 787h134l-138 -778q-22 -119 41 -196t183 -77q119 0 206 76.5t109 196.5l139 778h133l-139 -787q-30 -170 -165 -279.5t-304 -109.5q-172 0 -270 109.5t-68 279.5zM373 1389l350 210l49 -116l-358 -189zM788 1391l353 211l47 -117l-359 -189z" />
<glyph horiz-adv-x="1128" d="M133 362l139 787h134l-138 -778q-22 -119 41 -196t183 -77q119 0 206 76.5t109 196.5l139 778h133l-139 -787q-27 -155 -142.5 -260.5t-267.5 -124.5q-92 -66 -145 -127.5t-53 -132.5q0 -65 71 -65q44 0 76 12l6 -102q-55 -19 -100 -19q-78 0 -123 40.5t-45 109.5 q0 80 52.5 154.5t131.5 132.5q-143 21 -219 125.5t-49 256.5z" />
<glyph horiz-adv-x="1458" d="M205 1149h133l4 -832q0 -54 -12 -172q11 25 34.5 85t36.5 85l326 656h162l96 -656q8 -63 12 -168q15 56 54 170l297 832h131l-416 -1149h-156l-106 696q-3 18 -13 150q-25 -65 -67 -150l-348 -696h-154zM653 1413l394 158l28 -127l-399 -133z" />
<glyph horiz-adv-x="1458" d="M205 1149h133l4 -832q0 -54 -12 -172q11 25 34.5 85t36.5 85l326 656h162l96 -656q8 -63 12 -168q15 56 54 170l297 832h131l-416 -1149h-156l-106 696q-3 18 -13 150q-25 -65 -67 -150l-348 -696h-154zM637 1415l289 162l233 -162l-84 -106l-172 139l-225 -139z" />
<glyph horiz-adv-x="1458" d="M205 1149h133l4 -832q0 -54 -12 -172q11 25 34.5 85t36.5 85l326 656h162l96 -656q8 -63 12 -168q15 56 54 170l297 832h131l-416 -1149h-156l-106 696q-3 18 -13 150q-25 -65 -67 -150l-348 -696h-154zM614 1448q0 40 28 68t67 28q38 0 66 -28t28 -68q0 -37 -28 -64.5 t-66 -27.5t-66.5 27.5t-28.5 64.5zM987 1448q0 39 28.5 67.5t65.5 28.5q40 0 68.5 -28t28.5 -68q0 -37 -28.5 -64.5t-68.5 -27.5q-37 0 -65.5 27.5t-28.5 64.5z" />
<glyph horiz-adv-x="999" d="M178 1149h139l193 -576l395 576h144l-496 -709l-76 -440h-131l76 440zM440 1413l394 158l28 -127l-399 -133z" />
<glyph horiz-adv-x="475" d="M82 0l203 1149h133l-201 -1149h-135zM115 1448q0 40 28 68t66 28t66 -28t28 -68q0 -37 -28 -64.5t-66 -27.5t-66 27.5t-28 64.5zM487 1448q0 39 29 67.5t66 28.5q40 0 68 -28t28 -68q0 -37 -28.5 -64.5t-67.5 -27.5q-37 0 -66 28t-29 64z" />
<glyph horiz-adv-x="999" d="M178 1149h139l193 -576l395 576h144l-496 -709l-76 -440h-131l76 440zM389 1415l289 162l233 -162l-84 -106l-172 139l-225 -139z" />
<glyph horiz-adv-x="475" d="M-129 -307q0 87 62.5 167.5t148.5 139.5l203 1149h133l-201 -1149q-50 -34 -84.5 -61.5t-71.5 -64.5t-56 -76.5t-19 -80.5q0 -65 71 -65q44 0 76 12l6 -102q-55 -19 -100 -19q-78 0 -123 40.5t-45 109.5z" />
<glyph horiz-adv-x="999" d="M178 1149h139l193 -576l395 576h144l-496 -709l-76 -440h-131l76 440zM371 1448q0 40 28 68t66 28t66 -28t28 -68q0 -37 -28 -64.5t-66 -27.5t-66 27.5t-28 64.5zM743 1448q0 39 29 67.5t66 28.5q40 0 68 -28t28 -68q0 -37 -28.5 -64.5t-67.5 -27.5q-37 0 -66 28t-29 64z " />
<glyph horiz-adv-x="983" d="M14 0l19 106l731 918h-559l20 125h736l-19 -102l-733 -922h604l-37 -125h-762zM414 1413l393 158l29 -127l-400 -133z" />
<glyph horiz-adv-x="983" d="M14 0l19 106l731 918h-559l20 125h736l-19 -102l-733 -922h604l-37 -125h-762zM354 1470l80 107l172 -139l225 139l46 -107l-293 -161z" />
<glyph horiz-adv-x="983" d="M14 0l19 106l731 918h-559l20 125h736l-19 -102l-733 -922h604l-37 -125h-762zM532 1448q0 39 29 67.5t66 28.5q40 0 68 -28t28 -68q0 -37 -28.5 -64.5t-67.5 -27.5q-37 0 -66 28t-29 64z" />
<glyph horiz-adv-x="1007" d="M123 438l47 273q40 226 183.5 345.5t344.5 119.5q146 0 324 -56l-45 -119q-174 50 -297 50q-145 0 -245.5 -87.5t-131.5 -258.5l-45 -261q-31 -176 38.5 -261t215.5 -85q143 0 317 49l2 -122q-191 -52 -342 -52q-201 0 -303.5 119.5t-62.5 345.5zM621 1448 q0 39 28.5 67.5t65.5 28.5q40 0 68 -28t28 -68q0 -37 -28.5 -64.5t-67.5 -27.5q-37 0 -65.5 27.5t-28.5 64.5z" />
<glyph horiz-adv-x="821" d="M512 1438l117 22q0 -55 25.5 -89t74.5 -34t85 33.5t56 89.5l109 -22q-33 -98 -99 -155.5t-155 -57.5q-92 0 -153 59.5t-60 153.5z" />
<glyph horiz-adv-x="821" d="M371 1749l123 23q0 -57 26 -92t76 -35q52 0 90.5 35t58.5 92l115 -23q-28 -105 -103.5 -162t-164.5 -57q-105 0 -164 60t-57 159z" />
<glyph horiz-adv-x="913" d="M82 0l203 1149h133l-180 -1024h518l-33 -125h-641zM195 1413l393 158l28 -127l-399 -133z" />
<glyph horiz-adv-x="425" d="M-55 -459l118 326h140l-160 -326h-98z" />
<glyph horiz-adv-x="1128" d="M82 0l203 1149h104l393 -889q6 55 25 164l131 725h133l-203 -1149h-112l-391 877q-6 -59 -25 -166l-125 -711h-133zM283 -459l118 326h140l-160 -326h-98z" />
<glyph horiz-adv-x="1157" d="M125 485l31 181q40 247 184.5 378.5t351.5 131.5q69 0 130.5 -20.5t112 -61.5t83 -102.5t44 -143t-4.5 -182.5l-31 -181q-40 -247 -186 -379.5t-353 -132.5q-86 0 -159.5 33t-126.5 95.5t-74.5 162t-1.5 221.5zM258 485q-33 -189 37 -288t215 -99q144 0 247 99t136 288 l31 181q31 188 -38.5 286.5t-215.5 98.5q-143 0 -246.5 -99t-134.5 -286z" />
<glyph horiz-adv-x="770" d="M197 961l22 129l477 86l-207 -1176h-133l181 1026z" />
<glyph horiz-adv-x="976" d="M27 0l12 76q18 104 68.5 186t115.5 134t139.5 95t145.5 79.5t129 76t93.5 96.5t35.5 129q0 79 -56 129t-153 50q-135 0 -297 -70l-27 113q187 82 347 82q141 0 233 -75.5t92 -205.5q0 -88 -36 -161t-95 -123.5t-130.5 -95t-145.5 -85t-137 -82.5t-109 -99.5t-57 -125.5 h593l-38 -123h-723z" />
<glyph horiz-adv-x="913" d="M-84 -207l41 121q139 -51 270 -51q105 0 195 43t148.5 131.5t58.5 206.5q0 100 -68.5 159.5t-210.5 59.5h-139v123l469 440h-533v123h699v-123l-471 -440q176 -2 284.5 -86t108.5 -236q0 -119 -45.5 -219.5t-121 -166.5t-173 -103t-203.5 -37q-165 0 -309 55z" />
<glyph horiz-adv-x="1124" d="M121 230.5q-17 86.5 2 203.5l49 277q40 224 180.5 344.5t327.5 120.5q186 0 285 -120.5t61 -344.5l-49 -277q-38 -223 -178.5 -342t-327.5 -119q-91 0 -162.5 28.5t-121 85.5t-66.5 143.5zM258 442q-30 -171 34.5 -257.5t199.5 -86.5q134 0 229 87t125 257l47 267 q30 172 -34.5 257t-199.5 85q-134 0 -229.5 -87t-126.5 -259zM471 1415l289 162l233 -162l-84 -106l-172 139l-225 -139z" />
<glyph horiz-adv-x="1091" d="M49 92v123l449 934h129l-434 -930h413l80 461l139 20l-84 -481h197l-23 -127h-196l-57 -325l-140 -21l62 346h-535z" />
<glyph horiz-adv-x="1007" d="M-49 -203l45 119q154 -53 313 -53q53 0 106 12.5t106.5 43t94 75.5t66 117t25.5 161q0 213 -289 213h-273l140 664h678l-64 -125h-510l-88 -416h156q189 0 289 -80.5t100 -234.5q0 -110 -38.5 -210.5t-109 -177t-177 -122t-234.5 -45.5q-183 0 -336 59z" />
<glyph horiz-adv-x="1095" d="M117 422l84 485q19 105 63.5 195.5t112 160t161.5 109t203 39.5q130 0 279 -47l-43 -121q-124 43 -258 43q-157 0 -255 -106t-128 -273l-14 -84q163 82 309 82q159 0 258.5 -94t99.5 -264q0 -106 -37.5 -208.5t-104 -184t-166 -131.5t-214.5 -50q-192 0 -288 127.5 t-62 321.5zM250 420q-15 -85 3 -156.5t78 -118.5t156 -47q106 0 191 63.5t128.5 160.5t43.5 204q0 117 -64 186.5t-180 69.5q-149 0 -307 -82z" />
<glyph horiz-adv-x="956" d="M150 1026l14 123h854l-23 -119q-104 -110 -171 -189.5t-145 -195.5t-130.5 -234t-102 -283t-84.5 -364h-139q39 224 103.5 416t150 345t172.5 269t197 232h-696z" />
<glyph horiz-adv-x="1124" d="M121 230.5q-17 86.5 2 203.5l49 277q40 224 180.5 344.5t327.5 120.5q186 0 285 -120.5t61 -344.5l-49 -277q-38 -223 -178.5 -342t-327.5 -119q-91 0 -162.5 28.5t-121 85.5t-66.5 143.5zM258 442q-30 -171 34.5 -257.5t199.5 -86.5q134 0 229 87t125 257l47 267 q30 172 -34.5 257t-199.5 85q-134 0 -229.5 -87t-126.5 -259zM473 1389l23 127h508l-23 -127h-508z" />
<glyph horiz-adv-x="1118" d="M84 281q0 71 21.5 131t53.5 103t84.5 82.5t100.5 65.5t115 56q-97 54 -152 121.5t-55 165.5q0 80 34 153.5t93.5 129t148 89t191.5 33.5q157 0 252.5 -79t95.5 -206q0 -77 -25 -139.5t-73 -109t-100 -79.5t-124 -67q52 -26 90.5 -53t73.5 -64t53.5 -86t18.5 -108 q0 -132 -72 -235.5t-188.5 -157.5t-253.5 -54q-106 0 -192 35.5t-138.5 106.5t-52.5 166zM223 301q0 -94 73 -148.5t191 -54.5q90 0 170 32.5t132.5 100t52.5 156.5q0 33 -9.5 61.5t-31 54t-41.5 44t-57 40.5t-61.5 35t-68.5 35q-65 -27 -108.5 -48.5t-93.5 -54.5t-79 -67 t-49 -82t-20 -104zM391 1028q0 -44 17.5 -79.5t54 -64t71.5 -48.5t91 -45q70 31 118 58t93.5 65t68.5 87t23 109q0 84 -62 130t-170 46q-129 0 -217 -70t-88 -188z" />
<glyph horiz-adv-x="1095" d="M104 -215l50 125q139 -47 254 -47q155 0 252.5 106t127.5 273l15 84q-163 -82 -311 -82q-159 0 -258 93.5t-99 262.5q0 106 37.5 208.5t103.5 184.5t166 132.5t215 50.5q127 0 214.5 -60t122 -162t12.5 -227l-84 -485q-19 -105 -63.5 -195.5t-111.5 -160t-160.5 -109 t-201.5 -39.5q-135 0 -281 47zM274 623q0 -117 63 -186.5t179 -69.5q152 0 307 82l49 280q15 82 -3 153.5t-78 120t-154 48.5q-105 0 -189.5 -62t-129 -159.5t-44.5 -206.5z" />
<glyph horiz-adv-x="997" d="M10 43l47 127q187 -68 342 -68q59 0 116 19t105 54.5t77.5 93.5t29.5 130q0 60 -29 104.5t-75.5 72t-102.5 51t-112 49.5t-102.5 58.5t-75.5 86.5t-29 125q0 169 113.5 284t289.5 136l41 231h125l-41 -229q135 -9 266 -63l-55 -123q-149 59 -291 59q-135 0 -220 -69 t-85 -193q0 -55 29 -96.5t75.5 -67.5t102.5 -49t112 -49.5t102.5 -60.5t75.5 -90t29 -130q0 -97 -33.5 -179t-91.5 -138t-131 -91.5t-155 -47.5l-39 -234h-125l39 229q-164 7 -324 68z" />
<glyph horiz-adv-x="956" d="M117 432l33 184q75 424 438 455l39 229h127l-41 -231q84 -6 207 -43l-43 -123q-146 43 -252 43q-142 0 -227 -83.5t-117 -260.5l-29 -156q-31 -176 25 -261t198 -85q82 0 270 47v-127q-125 -34 -225 -43l-39 -231h-127l39 231q-164 18 -238.5 131.5t-37.5 323.5z" />
<glyph horiz-adv-x="964" d="M47 0l21 121q195 217 215 442h-150l21 117h131q-1 22 -8 100.5t-7 122.5q0 123 34 221t94 160t139 94.5t172 32.5q150 0 278 -57l-39 -119q-107 47 -229 47q-156 0 -232.5 -109t-76.5 -292q0 -39 4.5 -107.5t5.5 -93.5h377l-21 -117h-356q-21 -236 -201 -436h567 l-20 -127h-719z" />
<glyph horiz-adv-x="1050" d="M68 467l20 121h170l37 209h-170l20 121h172q42 231 187 362t348 131q116 0 270 -33l-37 -127q-127 31 -245 31q-147 0 -250 -97t-135 -267h424l-43 -121h-404l-37 -209h371l-45 -121h-346q-28 -170 41 -267.5t215 -97.5q117 0 258 31v-127q-169 -33 -283 -33 q-203 0 -305 131.5t-63 362.5h-170z" />
<glyph horiz-adv-x="1019" d="M113 246l20 116h281l24 148h-280l20 117h232l-238 757h141l222 -710l473 710h135l-506 -757h256l-21 -117h-301l-24 -148h301l-21 -116h-301l-43 -246h-133l43 246h-280z" />
<glyph horiz-adv-x="1091" d="M70 418l22 125h156l100 366h-141l22 125h152l115 418h120l-114 -418h334l114 418h123l-115 -418h142l-23 -125h-151l-101 -366h140l-23 -125h-151l-113 -418h-123l113 418h-332l-113 -418h-123l113 418h-143zM369 543h333l101 366h-334z" />
<glyph horiz-adv-x="897" d="M16 33l41 123q165 -58 303 -58q67 0 127 25.5t101 80.5t41 128q0 44 -25 80t-64.5 61.5t-87.5 49.5t-96.5 50.5t-88 58t-64.5 79t-25 106.5q0 157 119.5 258t294.5 101q131 0 285 -58l-43 -117q-130 50 -261 50q-113 0 -184.5 -54t-71.5 -149q0 -45 25 -82t65 -64 t88.5 -52.5t96.5 -53t88 -59t65 -77t25 -100.5q0 -93 -36.5 -168t-97.5 -122t-137 -72t-157 -25q-152 0 -326 60zM377 1413l393 158l29 -127l-400 -133z" />
<glyph horiz-adv-x="897" d="M16 33l41 123q165 -58 303 -58q67 0 127 25.5t101 80.5t41 128q0 44 -25 80t-64.5 61.5t-87.5 49.5t-96.5 50.5t-88 58t-64.5 79t-25 106.5q0 157 119.5 258t294.5 101q131 0 285 -58l-43 -117q-130 50 -261 50q-113 0 -184.5 -54t-71.5 -149q0 -45 25 -82t65 -64 t88.5 -52.5t96.5 -53t88 -59t65 -77t25 -100.5q0 -93 -36.5 -168t-97.5 -122t-137 -72t-157 -25q-152 0 -326 60zM152 -459l118 326h140l-160 -326h-98z" />
<glyph d="M119 275.5q-15 104.5 8 250.5l57 334q25 142 79 249.5t128.5 172.5t160 97t181.5 32q95 0 169 -31.5t125.5 -98t66 -171t-8.5 -250.5l-59 -334q-25 -142 -79 -250t-127.5 -173t-158.5 -97.5t-180 -32.5t-169 31.5t-126 99t-67 172zM260 526q-38 -221 29 -324.5 t215 -103.5t249.5 103t139.5 325l59 334q38 221 -28 323.5t-213 102.5t-250.5 -102.5t-141.5 -323.5z" />
<glyph d="M465 1190l22 129l471 86l-245 -1405h-131l221 1255z" />
<glyph horiz-adv-x="491" />
<glyph d="M94 0l19 115q15 94 52.5 174.5t88 139t111.5 109.5t125 91t126.5 78.5t118 77t98 80.5t67 96t24.5 116q0 91 -58 150t-168 59q-150 0 -323 -80l-29 115q181 90 375 90q156 0 249 -81.5t93 -221.5q0 -78 -24.5 -145.5t-67 -118.5t-98 -96.5t-118.5 -86t-126.5 -80.5 t-124.5 -87t-111.5 -98.5t-87.5 -121t-51 -149.5h641l-21 -125h-780z" />
<glyph d="M111 29l41 121q142 -52 270 -52q105 0 195 43t148 131.5t58 206.5q0 100 -68 159.5t-210 59.5h-139v123l468 441h-532v122h698v-122l-471 -441q176 -2 285 -85.5t109 -235.5q0 -119 -45.5 -219.5t-121 -167t-173 -103.5t-203.5 -37q-163 0 -309 56z" />
<glyph d="M139 328v123l449 933h129l-434 -929h413l80 460l139 21l-84 -481h197l-22 -127h-197l-57 -326l-140 -20l62 346h-535z" />
<glyph d="M80 33l45 119q157 -54 313 -54q53 0 106 12.5t106.5 43t94 76t66 117.5t25.5 161q0 213 -289 213h-273l140 663h678l-64 -124h-510l-88 -416h156q189 0 289 -81t100 -235q0 -110 -38.5 -210.5t-109 -177t-177 -122t-234.5 -45.5q-181 0 -336 60z" />
<glyph d="M145 422l84 485q25 141 94.5 253t185.5 181.5t261 69.5q130 0 279 -47l-43 -121q-124 43 -258 43q-157 0 -255 -106t-128 -273l-15 -84q163 82 309 82q159 0 259 -94t100 -264q0 -106 -37.5 -208.5t-104 -184t-166 -131.5t-214.5 -50q-192 0 -288.5 127.5t-62.5 321.5z M279 420q-15 -85 3 -156.5t78 -118.5t156 -47q106 0 191 63.5t128.5 160.5t43.5 204q0 117 -64 186.5t-180 69.5q-149 0 -307 -82z" />
<glyph d="M287 1262l14 122h854l-22 -118q-104 -110 -171 -189.5t-145 -195.5t-130.5 -234t-102 -283t-84.5 -364h-140q39 224 103.5 416t150 345t172.5 269t197 232h-696z" />
<glyph horiz-adv-x="940" d="M168 1026l20 123h787l-21 -123h-325l-68 -377h197l-19 -98h-194l-99 -551h-133l97 551h-185l17 98h184l68 377h-326z" />
<glyph d="M106 281q0 71 21.5 131t53.5 103t84.5 82.5t100.5 65.5t115 56q-97 54 -152 121.5t-55 165.5q0 80 34 153.5t93.5 129t148 89t191.5 33.5q157 0 253 -79t96 -206q0 -77 -25 -139.5t-73 -109t-100 -79.5t-124 -67q52 -26 90.5 -53t73.5 -64t53.5 -86t18.5 -108 q0 -132 -72.5 -235.5t-189 -157.5t-253.5 -54q-106 0 -192 35.5t-138.5 106.5t-52.5 166zM246 301q0 -94 73 -148.5t191 -54.5q90 0 169.5 32.5t132 100t52.5 156.5q0 39 -16 74t-37.5 59t-62.5 52t-70 43.5t-82 41.5q-65 -27 -108.5 -48.5t-93.5 -54.5t-79 -67t-49 -82 t-20 -104zM414 1028q0 -44 17.5 -79.5t53.5 -64t71.5 -48.5t90.5 -45q70 31 118 58t93.5 65t68.5 87t23 109q0 84 -61.5 130t-169.5 46q-129 0 -217 -70t-88 -188z" />
<glyph d="M178 20l49 125q139 -47 254 -47q155 0 253 106t128 273l15 84q-163 -82 -312 -82q-158 0 -257 94t-99 263q0 106 37.5 208.5t103.5 184.5t165.5 132t215.5 50q127 0 214.5 -60t121.5 -161.5t12 -226.5l-84 -486q-25 -141 -93.5 -253t-183.5 -181.5t-259 -69.5 q-135 0 -281 47zM348 858q0 -117 63 -186.5t179 -69.5q152 0 307 82l49 281q7 48 5.5 94t-19 87t-45.5 72.5t-73.5 49.5t-102.5 18q-105 0 -189.5 -62t-129 -159.5t-44.5 -206.5z" />
<glyph horiz-adv-x="1128" d="M133 362l139 787h134l-138 -778q-22 -119 41 -196t183 -77q119 0 206 76.5t109 196.5l139 778h133l-139 -787q-30 -170 -165 -279.5t-304 -109.5q-172 0 -270 109.5t-68 279.5zM463 1389l22 127h508l-22 -127h-508z" />
<glyph d="M92 43l47 127q187 -68 342 -68q59 0 116 19t105 54.5t77.5 93.5t29.5 130q0 60 -29 104.5t-75.5 72t-102.5 51t-112 49.5t-102.5 58.5t-75.5 86.5t-29 125q0 169 113.5 284t289.5 136l41 231h125l-41 -229q135 -9 266 -63l-55 -123q-149 59 -291 59q-135 0 -220 -69 t-85 -193q0 -55 29 -96.5t75.5 -67.5t102.5 -49t112 -49.5t102.5 -60.5t75.5 -90t29 -130q0 -97 -33.5 -179t-91.5 -138t-131 -91.5t-155 -47.5l-39 -234h-125l39 229q-164 7 -324 68z" />
<glyph d="M211 432l33 184q75 424 438 455l39 229h127l-41 -231q84 -6 207 -43l-43 -123q-146 43 -252 43q-142 0 -227 -83.5t-117 -260.5l-29 -156q-31 -176 25 -261t198 -85q83 0 271 47v-127q-124 -34 -226 -43l-39 -231h-126l38 231q-164 18 -238.5 131.5t-37.5 323.5z" />
<glyph horiz-adv-x="1458" d="M205 1149h133l4 -832q0 -54 -12 -172q11 25 34.5 85t36.5 85l326 656h162l96 -656q8 -63 12 -168q15 56 54 170l297 832h131l-416 -1149h-156l-106 696q-3 18 -13 150q-25 -65 -67 -150l-348 -696h-154zM666 1450l65 113l344 -166l-49 -88z" />
<glyph d="M139 0l21 121q195 217 215 442h-150l21 117h131q-1 22 -8 100.5t-7 122.5q0 123 34 221t94 160t139 94.5t172 32.5q150 0 278 -57l-39 -119q-107 47 -229 47q-156 0 -232.5 -109t-76.5 -292q0 -39 4.5 -107.5t5.5 -93.5h377l-21 -117h-356q-21 -236 -201 -436h568 l-21 -127h-719z" />
<glyph d="M115 467l20 121h170l37 209h-170l21 121h172q42 232 187 362.5t347 130.5q116 0 270 -33l-36 -127q-127 31 -246 31q-147 0 -250 -97t-135 -267h424l-43 -121h-404l-37 -209h371l-45 -121h-346q-28 -170 41 -267.5t215 -97.5q117 0 258 31v-127q-169 -33 -283 -33 q-203 0 -305 131.5t-63 362.5h-170z" />
<glyph d="M182 246l21 116h280l25 148h-281l21 117h231l-237 757h141l221 -710l473 710h135l-505 -757h256l-21 -117h-301l-25 -148h302l-21 -116h-301l-43 -246h-133l43 246h-281z" />
<glyph d="M96 418l23 125h155l101 366h-142l23 125h152l114 418h121l-115 -418h334l115 418h123l-115 -418h141l-22 -125h-152l-100 -366h139l-22 -125h-152l-112 -418h-123l112 418h-332l-112 -418h-123l113 418h-144zM395 543h334l100 366h-333z" />
<glyph horiz-adv-x="999" d="M178 1149h139l193 -576l395 576h144l-496 -709l-76 -440h-131l76 440zM451 1450l65 113l344 -166l-49 -88z" />
<glyph d="M125 485l31 181q40 247 184.5 378.5t351.5 131.5q69 0 130.5 -20.5t112 -61.5t83 -102.5t44 -143t-4.5 -182.5l-31 -181q-40 -247 -186 -379.5t-353 -132.5q-86 0 -159.5 33t-126.5 95.5t-74.5 162t-1.5 221.5zM258 485q-33 -189 37 -288t215 -99q144 0 247 99t136 288 l31 181q31 188 -38.5 286.5t-215.5 98.5q-143 0 -246.5 -99t-134.5 -286z" />
<glyph d="M408 961l22 129l477 86l-207 -1176h-133l181 1026z" />
<glyph d="M113 0l12 76q18 104 68.5 186t115.5 134t139.5 95t145.5 79.5t129 76t93.5 96.5t35.5 129q0 79 -56 129t-153 50q-135 0 -297 -70l-27 113q187 82 347 82q141 0 233 -75.5t92 -205.5q0 -88 -36 -161t-95 -123.5t-130.5 -95t-145.5 -85t-137 -82.5t-109 -99.5t-57 -125.5 h593l-38 -123h-723z" />
<glyph d="M49 -207l41 121q139 -51 270 -51q105 0 195 43t148.5 131.5t58.5 206.5q0 100 -68.5 159.5t-210.5 59.5h-139v123l469 440h-532v123h698v-123l-471 -440q176 -2 284.5 -86t108.5 -236q0 -119 -45.5 -219.5t-121 -166.5t-173 -103t-203.5 -37q-165 0 -309 55z" />
<glyph d="M76 92v123l448 934h129l-434 -930h414l80 461l139 20l-84 -481h197l-23 -127h-197l-57 -325l-139 -21l61 346h-534z" />
<glyph d="M20 -203l46 119q154 -53 313 -53q53 0 106 12.5t106 43t93.5 75.5t66 117t25.5 161q0 213 -289 213h-272l139 664h678l-63 -125h-510l-88 -416h155q189 0 289 -80.5t100 -234.5q0 -110 -38.5 -210.5t-109 -177t-177 -122t-234.5 -45.5q-183 0 -336 59z" />
<glyph d="M131 422l84 485q25 141 94.5 253t185.5 181.5t261 69.5q129 0 278 -47l-43 -121q-124 43 -258 43q-157 0 -255 -106t-128 -273l-14 -84q163 82 309 82q159 0 259 -94t100 -264q0 -106 -38 -208.5t-104 -184t-166 -131.5t-215 -50q-192 0 -288 127.5t-62 321.5zM264 420 q-15 -85 3 -156.5t78.5 -118.5t156.5 -47q106 0 190.5 63.5t128 160.5t43.5 204q0 117 -63.5 186.5t-179.5 69.5q-150 0 -308 -82z" />
<glyph d="M246 1026l14 123h854l-22 -119q-104 -110 -171 -189.5t-145 -195.5t-130.5 -234t-102 -283t-84.5 -364h-140q39 224 103.5 416t150 345t172.5 269t197 232h-696z" />
<glyph d="M96 281q0 71 21.5 131t53.5 103t84.5 82.5t100.5 65.5t115 56q-97 54 -152 121.5t-55 165.5q0 80 34 153.5t93.5 129t148 89t191.5 33.5q157 0 252.5 -79t95.5 -206q0 -62 -17.5 -115.5t-45.5 -92.5t-71.5 -75t-86.5 -60.5t-100 -51.5q52 -26 90.5 -53t73 -64t53 -86 t18.5 -108q0 -132 -72 -235.5t-188.5 -157.5t-253.5 -54q-106 0 -192 35.5t-138.5 106.5t-52.5 166zM236 301q0 -94 73 -148.5t191 -54.5q90 0 169.5 32.5t132 100t52.5 156.5q0 39 -16 74t-37.5 59t-62.5 52t-70 43.5t-82 41.5q-65 -27 -108.5 -48.5t-93.5 -54.5t-79 -67 t-49 -82t-20 -104zM403 1028q0 -44 17.5 -79.5t54 -64t71.5 -48.5t91 -45q70 31 118 58t93.5 65t68.5 87t23 109q0 84 -61.5 130t-169.5 46q-129 0 -217.5 -70t-88.5 -188z" />
<glyph d="M137 -215l49 125q139 -47 254 -47q155 0 253 106t128 273l15 84q-163 -82 -312 -82q-159 0 -257.5 93.5t-98.5 262.5q0 106 37.5 208.5t103.5 184.5t166 132.5t215 50.5q127 0 214.5 -60t121.5 -162t12 -227l-84 -485q-25 -141 -93.5 -253t-183.5 -181.5t-259 -69.5 q-135 0 -281 47zM307 623q0 -117 63 -186.5t179 -69.5q152 0 307 82l49 280q15 82 -3 153.5t-78 120t-154 48.5q-105 0 -189.5 -62t-129 -159.5t-44.5 -206.5z" />
<glyph d="M92 43l47 127q187 -68 342 -68q59 0 116 19t105 54.5t77.5 93.5t29.5 130q0 60 -29 104.5t-75.5 72t-102.5 51t-112 49.5t-102.5 58.5t-75.5 86.5t-29 125q0 169 113.5 284t289.5 136l41 231h125l-41 -229q135 -9 266 -63l-55 -123q-149 59 -291 59q-135 0 -220 -69 t-85 -193q0 -55 29 -96.5t75.5 -67.5t102.5 -49t112 -49.5t102.5 -60.5t75.5 -90t29 -130q0 -97 -33.5 -179t-91.5 -138t-131 -91.5t-155 -47.5l-39 -234h-125l39 229q-164 7 -324 68z" />
<glyph d="M209 432l33 184q75 424 438 455l39 229h127l-41 -231q84 -6 207 -43l-43 -123q-146 43 -252 43q-142 0 -227 -83.5t-117 -260.5l-29 -156q-31 -176 25 -261t198 -85q83 0 271 47v-127q-124 -34 -226 -43l-39 -231h-127l39 231q-164 18 -238.5 131.5t-37.5 323.5z" />
<glyph d="M160 0l20 121q195 217 215 442h-149l20 117h131q-1 18 -7.5 98.5t-6.5 124.5q0 124 34 221.5t93.5 159.5t138.5 94.5t172 32.5q151 0 279 -57l-39 -119q-107 47 -230 47q-156 0 -232.5 -109t-76.5 -292q0 -39 4.5 -107.5t5.5 -93.5h377l-20 -117h-357q-21 -237 -200 -436 h567l-20 -127h-719z" />
<glyph d="M115 467l20 121h170l37 209h-170l21 121h172q42 232 187 362.5t347 130.5q116 0 270 -33l-36 -127q-127 31 -246 31q-147 0 -250 -97t-135 -267h424l-43 -121h-404l-37 -209h371l-45 -121h-346q-28 -170 41 -267.5t215 -97.5q117 0 258 31v-127q-169 -33 -283 -33 q-203 0 -305 131.5t-63 362.5h-170z" />
<glyph d="M182 246l21 116h280l25 148h-281l21 117h231l-237 757h141l221 -710l473 710h135l-505 -757h256l-21 -117h-301l-25 -148h302l-21 -116h-301l-43 -246h-133l43 246h-281z" />
<glyph d="M96 418l23 125h155l101 366h-142l23 125h152l114 418h121l-115 -418h334l115 418h123l-115 -418h141l-22 -125h-152l-100 -366h139l-22 -125h-152l-112 -418h-123l112 418h-332l-112 -418h-123l113 418h-144zM395 543h334l100 366h-333z" />
<glyph horiz-adv-x="1064" d="M-14 0l583 1149h152l182 -1149h-133l-49 319h-434l-160 -319h-141zM344 436h361l-60 393q-10 59 -18 185q-64 -147 -84 -185z" />
<glyph horiz-adv-x="1017" d="M82 0l203 1149h352q148 0 229.5 -66.5t81.5 -175.5q0 -53 -19 -107.5t-67.5 -109.5t-120.5 -86q158 -64 158 -221q0 -50 -16 -101t-52.5 -102t-89.5 -90.5t-135 -64.5t-180 -25h-344zM238 125h208q148 0 231 67t83 179q0 76 -56 118.5t-174 42.5h-221zM330 649h202 q124 0 200.5 63t76.5 167q0 69 -50 107t-147 38h-215z" />
<glyph horiz-adv-x="1007" d="M123 438l47 273q40 226 183.5 345.5t344.5 119.5q146 0 324 -56l-45 -119q-174 50 -297 50q-145 0 -245.5 -87.5t-131.5 -258.5l-45 -261q-31 -176 38.5 -261t215.5 -85q143 0 317 49l2 -122q-191 -52 -342 -52q-201 0 -303.5 119.5t-62.5 345.5z" />
<glyph horiz-adv-x="1120" d="M82 0l192 1087q130 43 228 66t196 23q172 0 269 -113.5t63 -308.5l-61 -346q-35 -201 -158.5 -304.5t-318.5 -103.5h-410zM238 125h274q139 0 219 69t107 220l57 331q26 146 -34.5 226t-184.5 80q-116 0 -285 -52z" />
<glyph horiz-adv-x="950" d="M82 0l203 1149h626l-20 -125h-496l-67 -385h420l-31 -119h-410l-69 -395h507l-20 -125h-643z" />
<glyph horiz-adv-x="915" d="M82 0l203 1149h624l-20 -125h-494l-67 -385h407l-35 -119h-393l-92 -520h-133z" />
<glyph horiz-adv-x="1077" d="M123 438l47 273q40 226 184 345.5t346 119.5q154 0 318 -54l-45 -118q-143 47 -293 47q-145 0 -246 -87.5t-131 -256.5l-45 -263q-30 -171 39.5 -258.5t214.5 -87.5q92 0 236 35l63 365h-131l18 112h260l-98 -577q-194 -60 -371 -60q-201 0 -303.5 119.5t-62.5 345.5z " />
<glyph horiz-adv-x="1140" d="M82 0l203 1149h133l-88 -502h528l90 502h133l-202 -1149h-134l93 524h-529l-92 -524h-135z" />
<glyph horiz-adv-x="475" d="M82 0l203 1149h133l-201 -1149h-135z" />
<glyph horiz-adv-x="843" d="M-10 25l35 118q113 -45 233 -45q117 0 184.5 73.5t89.5 195.5l140 782l131 -12l-137 -775q-33 -183 -139.5 -286t-270.5 -103q-134 0 -266 52z" />
<glyph horiz-adv-x="1052" d="M82 0l203 1149h133l-109 -610l574 610h147l-475 -520l330 -629h-148l-274 522l-191 -203l-55 -319h-135z" />
<glyph horiz-adv-x="913" d="M82 0l203 1149h133l-180 -1024h518l-33 -125h-641z" />
<glyph horiz-adv-x="1447" d="M20 0l345 1149h159l148 -657q17 -82 22 -148q10 18 36.5 72t39.5 76l379 657h158l-56 -1149h-131l41 834q4 78 15 151q-66 -130 -78 -151l-348 -609h-150l-133 609q-26 126 -29 147q-28 -126 -35 -147l-251 -834h-132z" />
<glyph horiz-adv-x="1128" d="M82 0l203 1149h104l393 -889q6 55 25 164l131 725h133l-203 -1149h-112l-391 877q-6 -59 -25 -166l-125 -711h-133z" />
<glyph horiz-adv-x="1124" d="M121 230.5q-17 86.5 2 203.5l49 277q40 224 180.5 344.5t327.5 120.5q186 0 285 -120.5t61 -344.5l-49 -277q-38 -223 -178.5 -342t-327.5 -119q-91 0 -162.5 28.5t-121 85.5t-66.5 143.5zM258 442q-30 -171 34.5 -257.5t199.5 -86.5q134 0 229 87t125 257l47 267 q30 172 -34.5 257t-199.5 85q-134 0 -229.5 -87t-126.5 -259z" />
<glyph horiz-adv-x="989" d="M82 0l203 1149h383q134 0 212 -78t78 -199q0 -106 -53.5 -200t-149 -151.5t-208.5 -57.5h-250l-82 -463h-133zM317 584h250q111 0 182.5 78.5t71.5 195.5q0 78 -44.5 122t-129.5 44h-252z" />
<glyph horiz-adv-x="1126" d="M121 230.5q-17 86.5 2 203.5l49 277q40 224 180.5 344.5t327.5 120.5q186 0 285 -120.5t61 -344.5l-49 -277q-30 -170 -119.5 -279.5t-218.5 -154.5l45 -215l-123 -76l-53 266q-12 -2 -37 -2q-91 0 -162.5 28.5t-121 85.5t-66.5 143.5zM258 442q-30 -171 34.5 -257.5 t199.5 -86.5q134 0 229 87t125 257l47 267q30 172 -34.5 257t-199.5 85q-134 0 -229.5 -87t-126.5 -259z" />
<glyph horiz-adv-x="999" d="M82 0l203 1149h385q133 0 210.5 -77.5t77.5 -199.5q0 -126 -80 -238.5t-223 -148.5l154 -485h-141l-142 471h-227l-84 -471h-133zM317 584h250q111 0 183.5 78.5t72.5 195.5q0 78 -45.5 123t-128.5 45h-252z" />
<glyph horiz-adv-x="897" d="M16 33l41 123q165 -58 303 -58q67 0 127 25.5t101 80.5t41 128q0 44 -25 80t-64.5 61.5t-87.5 49.5t-96.5 50.5t-88 58t-64.5 79t-25 106.5q0 157 119.5 258t294.5 101q131 0 285 -58l-43 -117q-130 50 -261 50q-113 0 -184.5 -54t-71.5 -149q0 -45 25 -82t65 -64 t88.5 -52.5t96.5 -53t88 -59t65 -77t25 -100.5q0 -93 -36.5 -168t-97.5 -122t-137 -72t-157 -25q-152 0 -326 60z" />
<glyph horiz-adv-x="940" d="M168 1026l20 123h787l-21 -123h-325l-183 -1026h-133l181 1026h-326z" />
<glyph horiz-adv-x="1128" d="M133 362l139 787h134l-138 -778q-22 -119 41 -196t183 -77q119 0 206 76.5t109 196.5l139 778h133l-139 -787q-30 -170 -165 -279.5t-304 -109.5q-172 0 -270 109.5t-68 279.5z" />
<glyph horiz-adv-x="1067" d="M186 1149h136l124 -830q15 -114 19 -184q61 139 84 184l418 830h139l-586 -1149h-151z" />
<glyph horiz-adv-x="1458" d="M205 1149h133l4 -832q0 -54 -12 -172q11 25 34.5 85t36.5 85l326 656h162l96 -656q8 -63 12 -168q15 56 54 170l297 832h131l-416 -1149h-156l-106 696q-3 18 -13 150q-25 -65 -67 -150l-348 -696h-154z" />
<glyph horiz-adv-x="1046" d="M-14 0l477 604l-234 545h144l184 -434l336 434h141l-420 -537l267 -612h-146l-215 502l-391 -502h-143z" />
<glyph horiz-adv-x="999" d="M178 1149h139l193 -576l395 576h144l-496 -709l-76 -440h-131l76 440z" />
<glyph horiz-adv-x="983" d="M14 0l19 106l739 918h-569l20 125h738l-17 -102l-747 -924h616l-37 -123h-762z" />
<glyph horiz-adv-x="1044" d="M86 244q0 107 60 205.5t169 150.5q-66 36 -92 93.5t-26 115.5q0 154 115.5 260.5t291.5 106.5q122 0 238 -46l-43 -116q-93 37 -201 37q-113 0 -187.5 -66.5t-74.5 -165.5q0 -73 49.5 -115t138.5 -42h86l-22 -119h-92q-115 0 -193 -83t-78 -196q0 -76 53 -121t146 -45 q105 0 179 57.5t91 151.5l62 355h231l-20 -113h-107l-41 -242q-24 -143 -138.5 -238.5t-279.5 -95.5q-151 0 -233 75t-82 196z" />
<glyph horiz-adv-x="808" d="M217 1083q154 88 281 88q113 0 186.5 -57t73.5 -166q0 -67 -29.5 -127.5t-72.5 -106.5t-87.5 -88.5t-80.5 -91.5t-44 -98l-24 -147l-121 35l20 110q9 50 36 98t61 84.5t72.5 76t69.5 73.5t51 76.5t20 85.5q0 58 -39.5 90.5t-112.5 32.5q-93 0 -219 -72zM229 66 q0 36 26.5 60t63.5 24q36 0 62.5 -25t26.5 -62q0 -35 -26 -60.5t-60 -25.5q-38 0 -65.5 26t-27.5 63z" />
<glyph horiz-adv-x="454" d="M63 74q0 36 26 61t63 25q36 0 63 -25t27 -61q0 -35 -26.5 -61.5t-61.5 -26.5q-37 0 -64 26.5t-27 61.5zM143 365l121 765l154 35l-156 -800h-119z" />
<glyph horiz-adv-x="811" d="M31 23q0 56 21 108.5t53 90.5t70.5 78t72.5 73t61 75t35 84l27 148l121 -35l-21 -108q-11 -59 -47.5 -115.5t-80 -100.5t-85.5 -87t-70 -92t-28 -99q2 -59 41 -92t112 -33q95 0 219 74l41 -105q-152 -90 -280 -90q-113 0 -187.5 58t-74.5 168zM383 905q0 35 25.5 60.5 t60.5 25.5q38 0 65 -25.5t27 -62.5q0 -36 -26.5 -60t-63.5 -24q-36 0 -62 25t-26 61z" />
<glyph horiz-adv-x="454" d="M29 -182l157 798h117l-121 -763zM207 909q0 35 25.5 60.5t60.5 25.5q38 0 65 -25.5t27 -62.5q0 -36 -26.5 -60t-63.5 -24q-36 0 -62 25t-26 61z" />
<glyph horiz-adv-x="1542" d="M94 322q0 154 51.5 291.5t143.5 241.5t229.5 165t300.5 61q178 0 315.5 -82.5t210 -223t72.5 -314.5q0 -40 -8 -90h-383l-16 -133q-11 -100 -98.5 -169t-209.5 -69q-111 0 -183.5 61.5t-72.5 153.5q0 120 85 185t223 65h166l8 47q13 71 -26 121.5t-120 50.5 q-83 0 -204 -33l-15 99q122 38 232 38q131 0 197.5 -76t51.5 -200l-6 -47h265q-1 139 -60 255.5t-172.5 188.5t-259.5 72q-114 0 -213 -36.5t-171 -100t-123.5 -147t-77 -178.5t-25.5 -193q0 -144 59 -259.5t175 -184t270 -68.5q98 0 202.5 35.5t182.5 91.5l49 -88 q-98 -70 -201 -105t-242 -35q-185 0 -323.5 82t-208.5 219t-70 308zM565 229q0 -54 41 -89.5t109 -35.5q71 0 121.5 39.5t56.5 94.5l16 133h-168q-78 0 -127 -36t-49 -106z" />
<glyph horiz-adv-x="999" d="M79 228q-14 88 5 210l49 275q41 232 172 347.5t307 115.5q84 0 149.5 -26.5t112 -83t60 -144t-5.5 -209.5l-49 -275q-41 -232 -172 -348.5t-306 -116.5q-83 0 -149 27t-112.5 83.5t-60.5 144.5zM217 438q-31 -176 26 -258t181 -82q122 0 206 82t115 258l50 275 q31 176 -25 257t-178 81q-123 0 -209 -81t-117 -257z" />
<glyph horiz-adv-x="999" d="M367 969l22 127l424 71l-205 -1167h-133l178 1022z" />
<glyph horiz-adv-x="999" d="M68 0l16 102q12 76 44 142t75 114t95 90.5t106.5 76t108.5 65t101 63t83.5 65.5t57.5 77t21 92q0 70 -48.5 117t-139.5 47q-128 0 -281 -68l-28 115q160 78 331 78q139 0 222 -70t83 -191q0 -81 -34 -149t-90 -117.5t-124 -94t-139 -89t-132 -91.5t-107 -112t-60 -141 h549l-18 -121h-692z" />
<glyph horiz-adv-x="999" d="M74 23l39 118q127 -43 237 -43q135 0 233.5 80t98.5 213q0 78 -56.5 125t-174.5 47h-125v119l395 348h-459v119h621v-119l-400 -348q158 -6 248 -77t90 -195q0 -130 -67.5 -231.5t-173.5 -153.5t-230 -52q-137 0 -276 50z" />
<glyph horiz-adv-x="999" d="M86 264v117l381 768h129l-367 -760h340l66 375l137 20l-70 -395h170l-20 -125h-170l-47 -262l-137 -16l51 278h-463z" />
<glyph horiz-adv-x="999" d="M47 25l43 114q140 -45 275 -45q57 0 111.5 17.5t104.5 53t80.5 100t30.5 149.5q0 172 -243 172h-240l119 563h600l-56 -121h-440l-72 -321h123q168 0 258 -70t90 -203q0 -128 -59.5 -232.5t-171 -166.5t-254.5 -62q-159 0 -299 52z" />
<glyph horiz-adv-x="999" d="M104 352l70 400q16 88 55 164t98 134.5t141.5 92t178.5 33.5q114 0 248 -41l-43 -121q-104 37 -225 37q-129 0 -211 -82t-107 -211l-12 -66q133 68 262 68q141 0 228 -79.5t87 -223.5q0 -125 -56.5 -235.5t-162.5 -179.5t-237 -69q-169 0 -256.5 107.5t-57.5 271.5z M238 350q-19 -104 31 -178t167 -74q132 0 215.5 103t83.5 239q0 93 -52.5 148t-150.5 55q-129 0 -256 -68z" />
<glyph horiz-adv-x="999" d="M201 1028l12 121h752l-21 -117q-110 -112 -181.5 -199.5t-143 -209.5t-121 -274t-84.5 -349h-140q32 181 85.5 337t124.5 280.5t144.5 220.5t166.5 190h-594z" />
<glyph horiz-adv-x="999" d="M78 238q0 68 24 124t71.5 98.5t96.5 72t119 61.5q-80 45 -125 101t-45 136q0 139 115 242t295 103q138 0 223.5 -68t85.5 -178q0 -61 -20.5 -111t-60 -88.5t-82.5 -66.5t-103 -56q92 -48 144 -108t52 -150q0 -112 -64.5 -200t-166 -132.5t-219.5 -44.5q-92 0 -168.5 30.5 t-124 92t-47.5 142.5zM217 256q0 -73 61.5 -116.5t159.5 -43.5q116 0 203.5 61t87.5 162q0 37 -17 68t-55 59t-68 44.5t-87 44.5q-65 -27 -110 -51t-88 -57.5t-65 -76.5t-22 -94zM358 854q0 -34 14.5 -62t45 -51.5t60 -39.5t75.5 -37q57 25 96.5 47t76 52t55 67.5t18.5 82.5 q0 66 -51.5 103t-139.5 37q-106 0 -178 -54.5t-72 -144.5z" />
<glyph horiz-adv-x="999" d="M121 14l45 125q118 -41 223 -41q127 0 207.5 82t105.5 213l13 64q-133 -68 -262 -68q-141 0 -227.5 79.5t-86.5 223.5q0 126 56.5 236t162.5 179t238 69q169 0 254 -108t57 -271l-69 -400q-33 -183 -156 -303.5t-311 -120.5q-116 0 -250 41zM279 711q0 -94 51.5 -149.5 t148.5 -55.5q128 0 256 67l39 226q12 64 -3 120t-65 94t-128 38q-131 0 -215 -102.5t-84 -237.5z" />
<glyph horiz-adv-x="999" d="M57 37l43 123q161 -58 301 -58q66 0 126.5 25t102.5 79t42 126q0 38 -19.5 70t-52 53t-73.5 42t-83.5 38.5t-83.5 41.5t-73.5 50t-52 66t-19.5 89q0 137 96 236.5t254 114.5l33 192h117l-35 -190q25 -2 51 -6t44.5 -8t42 -10.5t35 -10t32.5 -10.5t26 -9l-51 -120 q-126 51 -252 51q-113 0 -183.5 -53.5t-70.5 -145.5q0 -37 19.5 -69t52 -54t73.5 -44.5t83.5 -40.5t83.5 -42.5t73.5 -50.5t52 -64t19.5 -83q0 -150 -100 -255.5t-256 -125.5l-31 -195h-117l31 191q-155 9 -281 57z" />
<glyph horiz-adv-x="999" d="M178 360l27 154q63 352 379 377l32 190h117l-35 -192q72 -4 181 -35l-41 -115q-138 35 -220 35q-119 0 -188.5 -65t-95.5 -205l-25 -133q-25 -140 23 -206.5t168 -66.5q102 0 231 37l4 -117q-95 -28 -196 -36l-33 -193h-117l33 193q-142 16 -208.5 110t-35.5 268z" />
<glyph horiz-adv-x="999" d="M100 0l19 111q163 175 180 356h-127l16 102h113q-1 14 -7.5 81t-6.5 104q0 203 107.5 312.5t273.5 109.5q125 0 247 -52l-36 -112q-111 39 -199 39q-130 0 -194 -85t-64 -229q0 -33 4.5 -90t5.5 -78h322l-17 -102h-305q-9 -107 -58.5 -196.5t-109.5 -151.5h488l-19 -119 h-633z" />
<glyph horiz-adv-x="999" d="M94 387l19 102h143l31 170h-144l17 105h145q36 193 163 302.5t304 109.5q102 0 240 -29l-35 -121q-111 27 -215 27q-123 0 -209.5 -77t-112.5 -212h363l-37 -105h-346l-29 -170h316l-39 -102h-295q-22 -136 37 -213.5t182 -77.5q104 0 225 27l2 -121q-152 -29 -250 -29 q-178 0 -270 110.5t-59 303.5h-146z" />
<glyph horiz-adv-x="999" d="M123 199l18 104h240l20 115h-241l18 104h197l-209 627h137l191 -576l395 576h133l-432 -627h215l-19 -104h-256l-18 -115h256l-18 -104h-256l-35 -199h-131l34 199h-239z" />
<glyph horiz-adv-x="999" d="M76 342l20 119h137l80 284h-123l21 119h133l96 340h117l-96 -340h278l97 340h116l-94 -340h123l-23 -119h-133l-80 -284h121l-20 -119h-133l-95 -342h-118l94 342h-275l-94 -342h-119l95 342h-125zM350 461h277l82 284h-279z" />
<glyph horiz-adv-x="1048" d="M110 228q-14 88 5 210l49 275q41 232 172 347.5t307 115.5q84 0 149.5 -26.5t111.5 -83t59.5 -144t-5.5 -209.5l-49 -275q-41 -232 -172 -348.5t-305 -116.5q-83 0 -149 27t-112.5 83.5t-60.5 144.5zM248 438q-31 -176 26 -258t181 -82q122 0 206 82t115 258l49 275 q31 176 -25 257t-177 81q-123 0 -209 -81t-117 -257z" />
<glyph horiz-adv-x="690" d="M184 969l23 127l424 71l-205 -1167h-133l178 1022z" />
<glyph horiz-adv-x="954" d="M29 0l16 102q12 76 44 142t75 114t95 90.5t106.5 76t108.5 65t101 63t83.5 65.5t57.5 77t21 92q0 70 -48.5 117t-139.5 47q-128 0 -281 -68l-28 115q160 78 331 78q139 0 222.5 -70t83.5 -191q0 -81 -34 -149t-90 -117.5t-124 -94t-139.5 -89t-132.5 -91.5t-107 -112 t-60 -141h549l-18 -121h-692z" />
<glyph horiz-adv-x="880" d="M-2 23l39 118q127 -43 237 -43q135 0 233.5 80t98.5 213q0 78 -56.5 125t-174.5 47h-125v119l395 348h-459v119h621v-119l-399 -348q157 -6 247 -77t90 -195q0 -130 -67.5 -231.5t-173.5 -153.5t-230 -52q-137 0 -276 50z" />
<glyph horiz-adv-x="985" d="M78 264v117l381 768h129l-367 -760h340l66 375l137 20l-70 -395h170l-20 -125h-170l-47 -262l-138 -16l52 278h-463z" />
<glyph horiz-adv-x="915" d="M-4 25l43 114q140 -45 274 -45q57 0 111.5 17.5t104.5 53t81 100t31 149.5q0 172 -244 172h-239l118 563h601l-56 -121h-440l-72 -321h123q168 0 258 -70t90 -203q0 -128 -59.5 -232.5t-171 -166.5t-254.5 -62q-159 0 -299 52z" />
<glyph horiz-adv-x="991" d="M100 352l70 400q16 88 55 164t98 134.5t141.5 92t178.5 33.5q114 0 248 -41l-43 -121q-104 37 -225 37q-129 0 -211 -82t-107 -211l-12 -66q133 68 262 68q141 0 228 -79.5t87 -223.5q0 -125 -56.5 -235.5t-162.5 -179.5t-237 -69q-169 0 -256.5 107.5t-57.5 271.5z M233 350q-19 -104 31.5 -178t167.5 -74q132 0 215.5 103t83.5 239q0 93 -52.5 148t-150.5 55q-129 0 -256 -68z" />
<glyph horiz-adv-x="870" d="M158 1028l12 121h752l-21 -117q-110 -112 -181.5 -199.5t-143 -209.5t-121 -274t-84.5 -349h-140q32 181 85.5 337t124.5 280.5t144.5 220.5t166.5 190h-594z" />
<glyph horiz-adv-x="1009" d="M72 238q0 68 24 124t71.5 98.5t96.5 72t119 61.5q-80 45 -125 101t-45 136q0 139 115 242t295 103q138 0 223.5 -68t85.5 -178q0 -61 -20.5 -111t-60 -88.5t-82.5 -66.5t-103 -56q92 -48 144 -108t52 -150q0 -112 -64.5 -200t-166 -132.5t-219.5 -44.5q-92 0 -168.5 30.5 t-124 92t-47.5 142.5zM211 256q0 -73 61.5 -116.5t159.5 -43.5q116 0 203.5 61t87.5 162q0 37 -17 68t-55 59t-68 44.5t-87 44.5q-65 -27 -110 -51t-88 -57.5t-65 -76.5t-22 -94zM352 854q0 -34 14.5 -62t45 -51.5t60 -39.5t75.5 -37q57 25 96.5 47t76 52t55 67.5t18.5 82.5 q0 66 -51.5 103t-139.5 37q-106 0 -178 -54.5t-72 -144.5z" />
<glyph horiz-adv-x="972" d="M113 14l45 125q118 -41 223 -41q127 0 207.5 82t105.5 213l13 64q-133 -68 -263 -68q-140 0 -226.5 79.5t-86.5 223.5q0 126 56.5 236t162.5 179t238 69q169 0 254 -108t57 -271l-70 -400q-33 -183 -156 -303.5t-311 -120.5q-115 0 -249 41zM270 711q0 -93 52 -149 t149 -56q128 0 256 67l39 226q12 64 -3.5 120t-65.5 94t-128 38q-131 0 -215 -102.5t-84 -237.5z" />
<glyph horiz-adv-x="903" d="M10 37l43 123q161 -58 301 -58q66 0 126.5 25t102.5 79t42 126q0 38 -19.5 70t-52 53t-73.5 42t-83.5 38.5t-83.5 41.5t-73.5 50t-52 66t-19.5 89q0 137 96 236.5t254 114.5l33 192h117l-35 -190q25 -2 51 -6t44.5 -8t42 -10.5t35 -10t32.5 -10.5t26 -9l-51 -120 q-126 51 -252 51q-113 0 -183.5 -53.5t-70.5 -145.5q0 -37 19.5 -69t52 -54t73.5 -44.5t83.5 -40.5t83.5 -42.5t73.5 -50.5t52 -64t19.5 -83q0 -150 -100 -255.5t-256 -125.5l-31 -195h-117l31 191q-155 9 -281 57z" />
<glyph horiz-adv-x="866" d="M102 360l27 154q63 352 379 377l33 190h116l-34 -192q71 -4 180 -35l-41 -115q-137 35 -219 35q-120 0 -189.5 -65t-95.5 -205l-25 -133q-25 -140 23 -206.5t168 -66.5q102 0 231 37l4 -117q-95 -28 -196 -36l-33 -193h-117l33 193q-142 16 -208.5 110t-35.5 268z" />
<glyph horiz-adv-x="856" d="M45 0l18 111q164 176 181 356h-127l16 102h113q-1 17 -8 83t-7 102q0 203 107.5 312.5t273.5 109.5q126 0 248 -52l-37 -112q-111 39 -198 39q-130 0 -194 -85t-64 -229q0 -33 4.5 -90t5.5 -78h321l-16 -102h-305q-9 -107 -58.5 -196.5t-109.5 -151.5h487l-18 -119h-633z " />
<glyph horiz-adv-x="940" d="M59 387l19 102h143l31 170h-143l16 105h145q36 193 163 302.5t304 109.5q102 0 240 -29l-35 -121q-111 27 -215 27q-123 0 -209 -77t-112 -212h362l-37 -105h-346l-29 -170h316l-39 -102h-295q-22 -136 37 -213.5t182 -77.5q103 0 225 27l2 -121q-152 -29 -249 -29 q-179 0 -271 110.5t-59 303.5h-146z" />
<glyph horiz-adv-x="917" d="M100 199l19 104h239l21 115h-242l19 104h196l-209 627h138l190 -576l395 576h133l-432 -627h215l-18 -104h-256l-19 -115h256l-18 -104h-256l-35 -199h-131l35 199h-240z" />
<glyph horiz-adv-x="993" d="M61 342l21 119h137l80 284h-123l21 119h133l96 340h117l-97 -340h279l96 340h117l-94 -340h123l-23 -119h-133l-80 -284h121l-21 -119h-133l-94 -342h-119l95 342h-275l-94 -342h-119l94 342h-125zM336 461h276l82 284h-278z" />
<glyph horiz-adv-x="757" d="M301 1450l66 113l344 -166l-49 -88z" />
<glyph horiz-adv-x="774" d="M307 1413l393 158l29 -127l-399 -133z" />
<glyph horiz-adv-x="911" d="M322 1448q0 40 28 68t66 28t66 -28t28 -68q0 -37 -28 -64.5t-66 -27.5t-66 27.5t-28 64.5zM694 1448q0 39 28.5 67.5t65.5 28.5q40 0 68.5 -28t28.5 -68q0 -37 -28.5 -64.5t-68.5 -27.5q-37 0 -65.5 27.5t-28.5 64.5z" />
<glyph horiz-adv-x="931" d="M369 1415l288 162l234 -162l-84 -106l-172 139l-225 -139z" />
<glyph horiz-adv-x="901" d="M346 1444q24 39 72.5 75.5t107.5 36.5q36 0 69.5 -15.5t54.5 -34.5t47 -34.5t48 -15.5q28 0 56.5 18.5t46.5 41.5l53 -68q-24 -39 -71.5 -76t-104.5 -37q-37 0 -71 15.5t-55 34t-47 34t-48 15.5q-29 0 -57.5 -18t-47.5 -40z" />
<glyph horiz-adv-x="876" d="M356 1389l23 127h508l-23 -127h-508z" />
<glyph horiz-adv-x="813" d="M387 1563h117q-9 -52 16.5 -87.5t71.5 -35.5q43 0 80.5 35.5t46.5 87.5h117q-19 -103 -94 -169.5t-171 -66.5q-98 0 -150.5 66.5t-33.5 169.5z" />
<glyph horiz-adv-x="538" d="M326 1448q0 39 28.5 67.5t65.5 28.5q40 0 68 -28t28 -68q0 -37 -28.5 -64.5t-67.5 -27.5q-37 0 -65.5 27.5t-28.5 64.5z" />
<glyph horiz-adv-x="700" d="M342 1485q0 71 52.5 122.5t125.5 51.5q70 0 122 -51.5t52 -122.5q0 -72 -51.5 -124t-122.5 -52q-73 0 -125.5 52t-52.5 124zM449 1485q0 -30 20.5 -52t50.5 -22q29 0 50.5 22.5t21.5 51.5q0 31 -21.5 52.5t-50.5 21.5q-30 0 -50.5 -21.5t-20.5 -52.5z" />
<glyph horiz-adv-x="694" d="M-59 -420l28 117q42 -10 88 -10q60 0 92 27.5t41 84.5l37 201h125l-39 -215q-10 -60 -37.5 -103.5t-65.5 -67.5t-79 -35t-86 -11q-46 0 -104 12z" />
<glyph d="M373 1389l350 210l49 -116l-358 -189zM788 1391l353 211l47 -117l-359 -189z" />
<glyph horiz-adv-x="634" d="M51 -307q0 87 64 168t153 139h129q-50 -34 -84.5 -61.5t-71.5 -64.5t-56 -76.5t-19 -80.5q0 -65 72 -65q43 0 75 12l6 -102q-55 -19 -100 -19q-78 0 -123 40.5t-45 109.5z" />
<glyph horiz-adv-x="931" d="M354 1470l80 107l172 -139l225 139l46 -107l-293 -161z" />
<glyph horiz-adv-x="425" d="M-55 -459l118 326h140l-160 -326h-98z" />
<glyph horiz-adv-x="1064" d="M-14 0l583 1149h152l182 -1149h-133l-49 319h-434l-160 -319h-141zM344 436h361l-60 393q-10 59 -18 185q-64 -147 -84 -185zM479 1413l393 158l29 -127l-399 -133z" />
<glyph horiz-adv-x="1064" d="M-14 0l583 1149h152l182 -1149h-133l-49 319h-434l-160 -319h-141zM344 436h361l-60 393q-10 59 -18 185q-64 -147 -84 -185zM489 1450l66 113l344 -166l-49 -88z" />
<glyph horiz-adv-x="1064" d="M-14 0l583 1149h152l182 -1149h-133l-49 319h-434l-160 -319h-141zM344 436h361l-60 393q-10 59 -18 185q-64 -147 -84 -185zM436 1415l289 162l233 -162l-84 -106l-172 139l-225 -139z" />
<glyph horiz-adv-x="1064" d="M-14 0l583 1149h152l182 -1149h-133l-49 319h-434l-160 -319h-141zM344 436h361l-60 393q-10 59 -18 185q-64 -147 -84 -185zM416 1448q0 40 28 68t66 28t66 -28t28 -68q0 -37 -28 -64.5t-66 -27.5t-66 27.5t-28 64.5zM788 1448q0 39 29 67.5t66 28.5q40 0 68 -28t28 -68 q0 -37 -28.5 -64.5t-67.5 -27.5q-37 0 -66 28t-29 64z" />
<glyph horiz-adv-x="1064" d="M-14 0l583 1149h152l182 -1149h-133l-49 319h-434l-160 -319h-141zM344 436h361l-60 393q-10 59 -18 185q-64 -147 -84 -185zM422 1444q24 39 72.5 75.5t107.5 36.5q36 0 69.5 -15.5t54.5 -34.5t47 -34.5t48 -15.5q28 0 56.5 18.5t46.5 41.5l53 -68q-24 -39 -71.5 -76 t-104.5 -37q-37 0 -71 15.5t-55 34t-47 34t-48 15.5q-29 0 -57.5 -18t-47.5 -40z" />
<glyph horiz-adv-x="1064" d="M-14 0l583 1149h152l182 -1149h-133l-49 319h-434l-160 -319h-141zM344 436h361l-60 393q-10 59 -18 185q-64 -147 -84 -185zM504 1485q0 71 52.5 122.5t125.5 51.5q70 0 122 -51.5t52 -122.5q0 -72 -51.5 -124t-122.5 -52q-73 0 -125.5 52t-52.5 124zM610 1485 q0 -30 21 -52t51 -22q29 0 50.5 22.5t21.5 51.5q0 31 -21.5 52.5t-50.5 21.5q-31 0 -51.5 -21.5t-20.5 -52.5z" />
<glyph horiz-adv-x="1064" d="M-14 0l583 1149h152l182 -1149h-133l-49 319h-434l-160 -319h-141zM344 436h361l-60 393q-10 59 -18 185q-64 -147 -84 -185zM422 1389l22 127h508l-22 -127h-508z" />
<glyph horiz-adv-x="1064" d="M-14 0l583 1149h152l182 -1149h-133l-49 319h-434l-160 -319h-141zM344 436h361l-60 393q-10 59 -18 185q-64 -147 -84 -185zM502 1563h116q-9 -52 17 -87.5t72 -35.5q43 0 80.5 35.5t46.5 87.5h116q-19 -104 -93.5 -170t-170.5 -66q-98 0 -150.5 66.5t-33.5 169.5z" />
<glyph horiz-adv-x="1064" d="M-14 0l583 1149h152l182 -1149q-50 -34 -84.5 -61.5t-71.5 -64.5t-56 -76.5t-19 -80.5q0 -65 71 -65q44 0 76 12l6 -102q-55 -19 -100 -19q-78 0 -123 40.5t-45 109.5q0 87 63 167.5t150 139.5l-49 319h-434l-160 -319h-141zM344 436h361l-60 393q-12 97 -18 185 q-64 -147 -84 -185z" />
<glyph horiz-adv-x="1568" d="M-31 0l908 1149h636l-14 -123h-471l-41 -389h426l-49 -117h-391l-39 -397h487l-14 -123h-619l33 319h-440l-250 -319h-162zM471 436h363l55 535z" />
<glyph horiz-adv-x="1007" d="M123 438l47 273q40 226 183.5 345.5t344.5 119.5q146 0 324 -56l-45 -119q-174 50 -297 50q-145 0 -245.5 -87.5t-131.5 -258.5l-45 -261q-31 -176 38.5 -261t215.5 -85q143 0 317 49l2 -122q-191 -52 -342 -52q-201 0 -303.5 119.5t-62.5 345.5zM469 1413l393 158 l29 -127l-399 -133z" />
<glyph horiz-adv-x="1007" d="M123 438l47 273q40 226 183.5 345.5t344.5 119.5q146 0 324 -56l-45 -119q-174 50 -297 50q-145 0 -245.5 -87.5t-131.5 -258.5l-45 -261q-31 -176 38.5 -261t215.5 -85q143 0 317 49l2 -122q-191 -52 -342 -52q-201 0 -303.5 119.5t-62.5 345.5zM438 1415l289 162 l234 -162l-84 -106l-172 139l-226 -139z" />
<glyph horiz-adv-x="1007" d="M123 438l47 273q40 226 183.5 345.5t344.5 119.5q146 0 324 -56l-45 -119q-174 50 -297 50q-145 0 -245.5 -87.5t-131.5 -258.5l-45 -261q-31 -176 38.5 -261t215.5 -85q143 0 317 49l2 -122q-191 -52 -342 -52q-201 0 -303.5 119.5t-62.5 345.5zM473 1470l80 107 l172 -139l225 139l45 -107l-293 -161z" />
<glyph horiz-adv-x="1007" d="M123 438l47 273q40 226 183.5 345.5t344.5 119.5q146 0 324 -56l-45 -119q-174 50 -297 50q-145 0 -245.5 -87.5t-131.5 -258.5l-45 -261q-31 -176 38.5 -261t215.5 -85q141 0 319 49v-122q-154 -42 -272 -50l-35 -190q-10 -60 -37.5 -103.5t-65.5 -67.5t-79 -35t-86 -11 q-46 0 -104 12l28 117q42 -10 88 -10q60 0 92 27.5t41 84.5l33 178q-176 16 -262 133.5t-49 327.5z" />
<glyph horiz-adv-x="1120" d="M82 0l192 1087q130 43 228 66t196 23q172 0 269 -113.5t63 -308.5l-61 -346q-35 -201 -158.5 -304.5t-318.5 -103.5h-410zM238 125h274q139 0 219 69t107 220l57 331q27 146 -33.5 226t-185.5 80q-116 0 -285 -52zM446 1470l80 107l172 -139l226 139l45 -107l-293 -161z " />
<glyph horiz-adv-x="1120" d="M68 530l16 99h109l81 458q130 43 228 66t196 23q172 0 269 -113.5t63 -308.5l-61 -346q-35 -201 -158.5 -304.5t-318.5 -103.5h-410l94 530h-108zM238 125h274q139 0 219 69t107 220l57 331q26 146 -34.5 226t-184.5 80q-116 0 -285 -52l-65 -370h272l-18 -99h-271z" />
<glyph horiz-adv-x="1120" d="M68 530l16 99h109l81 458q130 43 228 66t196 23q172 0 269 -113.5t63 -308.5l-61 -346q-35 -201 -158.5 -304.5t-318.5 -103.5h-410l94 530h-108zM238 125h274q139 0 219 69t107 220l57 331q27 146 -33.5 226t-185.5 80q-116 0 -285 -52l-65 -370h272l-18 -99h-271z" />
<glyph horiz-adv-x="950" d="M82 0l203 1149h626l-20 -125h-496l-67 -385h420l-31 -119h-410l-69 -395h507l-20 -125h-643zM416 1413l393 158l29 -127l-400 -133z" />
<glyph horiz-adv-x="950" d="M82 0l203 1149h626l-20 -125h-496l-67 -385h420l-31 -119h-410l-69 -395h507l-20 -125h-643zM432 1450l66 113l344 -166l-49 -88z" />
</font>
</defs>
</svg>
